<svg version="1.1" xmlns="http://www.w3.org/2000/svg" viewBox="0 0 760.6779327392578 811.5254669189453" width="760.6779327392578" height="811.5254669189453" filter="invert(93%) hue-rotate(180deg)">
  <!-- svg-source:excalidraw -->
  
  <defs>
    <style class="style-fonts">
      @font-face {
        font-family: "Virgil";
        src: url("https://excalidraw.com/Virgil.woff2");
      }
      @font-face {
        font-family: "Cascadia";
        src: url("https://excalidraw.com/Cascadia.woff2");
      }
    </style>
    
  </defs>
  <rect x="0" y="0" width="760.6779327392578" height="811.5254669189453" fill="#ffffff"></rect><g transform="translate(110.84742736816406 15.932174682617188) rotate(0 205.078125 12)"><text x="0" y="0" font-family="Cascadia, Segoe UI Emoji" font-size="20px" fill="#1e1e1e" text-anchor="start" style="white-space: pre;" direction="ltr" dominant-baseline="text-before-edge">BPlusTreeInternalPage:BPlusTreePage</text></g><g transform="translate(121.01686096191406 59.01013793945313) rotate(0 206.25 9.599999999999994)"><text x="0" y="0" font-family="Cascadia, Segoe UI Emoji" font-size="16px" fill="#1e1e1e" text-anchor="start" style="white-space: pre;" direction="ltr" dominant-baseline="text-before-edge">n indexed keys &amp; n+1 child pointers(page_id)</text></g><g stroke-linecap="round" transform="translate(10 98.13558959960938) rotate(0 370.3389663696289 39.406776428222656)"><path d="M19.7 0 M19.7 0 C217.26 -0.22, 414.26 0.92, 720.97 0 M19.7 0 C262.68 -0.45, 504.98 -1.09, 720.97 0 M720.97 0 C735.22 -0.17, 740.2 6.53, 740.68 19.7 M720.97 0 C733.37 0.37, 739.13 8, 740.68 19.7 M740.68 19.7 C742 30.69, 740.56 40.02, 740.68 59.11 M740.68 19.7 C741.65 32.09, 740.39 45.09, 740.68 59.11 M740.68 59.11 C739.81 71.6, 732.52 78.49, 720.97 78.81 M740.68 59.11 C742.31 73.5, 733.19 78.27, 720.97 78.81 M720.97 78.81 C569.71 78.56, 418.61 77.72, 19.7 78.81 M720.97 78.81 C532.29 79.07, 342.77 78.42, 19.7 78.81 M19.7 78.81 C6.76 80.57, -0.24 71.61, 0 59.11 M19.7 78.81 C5.93 76.94, 0.83 72.11, 0 59.11 M0 59.11 C-1.2 49.45, 2.14 41.03, 0 19.7 M0 59.11 C-0.86 50.53, 0.36 42.54, 0 19.7 M0 19.7 C1.53 5.23, 7.33 0.55, 19.7 0 M0 19.7 C0.44 5.17, 6.27 -0.92, 19.7 0" stroke="#1e1e1e" stroke-width="1" fill="none"></path></g><g stroke-linecap="round" transform="translate(21.016921997070312 110.84745788574219) rotate(0 47.88134765625 27.11865234375)"><path d="M13.56 0 M13.56 0 C30.02 1.5, 43.89 1.22, 82.2 0 M13.56 0 C35.63 1.12, 56.94 1.08, 82.2 0 M82.2 0 C90.66 -1.06, 96.95 6.1, 95.76 13.56 M82.2 0 C89.12 2.12, 97.04 2.44, 95.76 13.56 M95.76 13.56 C94.31 23.52, 97.15 30.29, 95.76 40.68 M95.76 13.56 C95.54 21.4, 95.79 29.58, 95.76 40.68 M95.76 40.68 C96.69 49.53, 92.39 56.2, 82.2 54.24 M95.76 40.68 C96.66 50.05, 89.37 52.09, 82.2 54.24 M82.2 54.24 C61.57 54.46, 40.85 52.82, 13.56 54.24 M82.2 54.24 C64.54 54.12, 45.27 55.72, 13.56 54.24 M13.56 54.24 C6.4 54.52, 0.28 48.31, 0 40.68 M13.56 54.24 C2.96 55.22, 0.79 50.66, 0 40.68 M0 40.68 C-0.98 33.25, -0.32 22.6, 0 13.56 M0 40.68 C0.05 32.5, 0.88 22.39, 0 13.56 M0 13.56 C-1.37 4.03, 4.14 -0.21, 13.56 0 M0 13.56 C-0.82 4.73, 6.74 0.48, 13.56 0" stroke="#1e1e1e" stroke-width="1" fill="none"></path></g><g transform="translate(40.77326965332031 128.36611022949216) rotate(0 28.125 9.599999999999994)"><text x="28.125" y="0" font-family="Cascadia, Segoe UI Emoji" font-size="16px" fill="#1e1e1e" text-anchor="middle" style="white-space: pre;" direction="ltr" dominant-baseline="text-before-edge">header</text></g><g stroke-linecap="round" transform="translate(128.1525115966797 108.66102600097656) rotate(0 89 27.5)"><path d="M13.75 0 M13.75 0 C67.12 -2.29, 121.49 -0.01, 164.25 0 M13.75 0 C54.91 -0.62, 96.02 0.27, 164.25 0 M164.25 0 C173.17 0.56, 179.93 2.87, 178 13.75 M164.25 0 C174.01 -1.29, 177.6 3.6, 178 13.75 M178 13.75 C176.45 23.66, 178.84 31.99, 178 41.25 M178 13.75 C178.78 24.61, 177.6 34.69, 178 41.25 M178 41.25 C179.21 50.02, 171.44 53.38, 164.25 55 M178 41.25 C176.23 51.29, 172.48 53.75, 164.25 55 M164.25 55 C111.69 54.93, 61.47 55.61, 13.75 55 M164.25 55 C104.8 54, 47.33 53.63, 13.75 55 M13.75 55 C4.74 55.98, 0.06 51.96, 0 41.25 M13.75 55 C2.93 53.43, 0.49 51.85, 0 41.25 M0 41.25 C0.89 33.62, -1.59 25.41, 0 13.75 M0 41.25 C-0.15 35.59, 0.68 29.86, 0 13.75 M0 13.75 C0.42 5.79, 3.81 -0.41, 13.75 0 M0 13.75 C0.61 6.28, 3.2 0.09, 13.75 0" stroke="#1e1e1e" stroke-width="1" fill="none"></path></g><g transform="translate(137.4650115966797 126.56102600097654) rotate(0 79.6875 9.599999999999994)"><text x="79.6875" y="0" font-family="Cascadia, Segoe UI Emoji" font-size="16px" fill="#1e1e1e" text-anchor="middle" style="white-space: pre;" direction="ltr" dominant-baseline="text-before-edge">key(1)+page_id(1)</text></g><g stroke-linecap="round" transform="translate(314.9491424560547 107.88978576660156) rotate(0 89 27.5)"><path d="M13.75 0 M13.75 0 C61.12 -0.75, 110.56 1.45, 164.25 0 M13.75 0 C69.39 0.39, 124.35 0.75, 164.25 0 M164.25 0 C172.03 -0.46, 177.25 3.42, 178 13.75 M164.25 0 C175.61 0.32, 178.5 6.87, 178 13.75 M178 13.75 C178.95 19.83, 177.05 24.8, 178 41.25 M178 13.75 C177.68 22.7, 177.79 32.47, 178 41.25 M178 41.25 C178.51 52.09, 172.7 55.19, 164.25 55 M178 41.25 C179.61 49.52, 174.73 55.08, 164.25 55 M164.25 55 C112.51 52.21, 64.37 52.15, 13.75 55 M164.25 55 C130.1 54.56, 96.08 54.68, 13.75 55 M13.75 55 C5.13 54.05, 1.14 50.88, 0 41.25 M13.75 55 C4.92 56.61, 0.17 52.6, 0 41.25 M0 41.25 C1.02 33.71, 0.85 26.12, 0 13.75 M0 41.25 C-0.07 31.21, -0.01 22.7, 0 13.75 M0 13.75 C-1.51 3.65, 5.04 0.02, 13.75 0 M0 13.75 C2.19 6.13, 2.62 -0.75, 13.75 0" stroke="#1e1e1e" stroke-width="1" fill="none"></path></g><g transform="translate(324.2616424560547 125.78978576660154) rotate(0 79.6875 9.599999999999994)"><text x="79.6875" y="0" font-family="Cascadia, Segoe UI Emoji" font-size="16px" fill="#1e1e1e" text-anchor="middle" style="white-space: pre;" direction="ltr" dominant-baseline="text-before-edge">key(2)+page_id(2)</text></g><g stroke-linecap="round" transform="translate(505.33885192871094 109.58473205566406) rotate(0 30 27.5)"><path d="M13.75 0 M13.75 0 C20.39 1.13, 26.5 -0.34, 46.25 0 M13.75 0 C20.52 -1.07, 28.38 0.58, 46.25 0 M46.25 0 C54.64 -1.49, 61.29 3.3, 60 13.75 M46.25 0 C57.52 0.04, 60.95 6.85, 60 13.75 M60 13.75 C61.07 23.1, 61.29 29.51, 60 41.25 M60 13.75 C59.92 22.33, 60.45 29.81, 60 41.25 M60 41.25 C58.7 51.14, 54.02 55.97, 46.25 55 M60 41.25 C59.95 52.1, 57.65 55.5, 46.25 55 M46.25 55 C38.73 55.49, 25.96 53.34, 13.75 55 M46.25 55 C34.68 55.29, 23.75 54.88, 13.75 55 M13.75 55 C5.04 53.78, 0.73 50.19, 0 41.25 M13.75 55 C2.41 56.68, -1.75 48.44, 0 41.25 M0 41.25 C-0.58 32.76, 1.79 24.74, 0 13.75 M0 41.25 C0.3 34.32, -0.35 27.41, 0 13.75 M0 13.75 C-0.48 3.28, 4.28 0.82, 13.75 0 M0 13.75 C-1.81 3.72, 6.78 0.01, 13.75 0" stroke="#1e1e1e" stroke-width="1" fill="none"></path></g><g transform="translate(521.2763519287109 127.48473205566404) rotate(0 14.0625 9.599999999999994)"><text x="14.0625" y="0" font-family="Cascadia, Segoe UI Emoji" font-size="16px" fill="#1e1e1e" text-anchor="middle" style="white-space: pre;" direction="ltr" dominant-baseline="text-before-edge">...</text></g><g stroke-linecap="round"><g transform="translate(37.96604919433594 38.81355285644531) rotate(0 6.110150130093103 32.117752554900946)"><path d="M1.13 0.87 C2.88 11.61, 8.26 53.48, 9.57 63.95 M0.26 0.29 C2.49 10.69, 10.13 51.23, 11.96 62.03" stroke="#1e1e1e" stroke-width="1" fill="none"></path></g><g transform="translate(37.96604919433594 38.81355285644531) rotate(0 6.110150130093103 32.117752554900946)"><path d="M-1.69 35.11 C0.76 39.77, 3.73 47.88, 11.3 61.57 M-4 36.9 C1.49 45.5, 7.47 52.78, 12.04 62.96" stroke="#1e1e1e" stroke-width="1" fill="none"></path></g><g transform="translate(37.96604919433594 38.81355285644531) rotate(0 6.110150130093103 32.117752554900946)"><path d="M18.5 31.46 C16.46 37.12, 14.94 46.04, 11.3 61.57 M16.19 33.25 C14.96 43.12, 14.25 51.61, 12.04 62.96" stroke="#1e1e1e" stroke-width="1" fill="none"></path></g></g><mask></mask><g transform="translate(17.6270751953125 10) rotate(0 32.8125 9.599999999999994)"><text x="0" y="0" font-family="Cascadia, Segoe UI Emoji" font-size="16px" fill="#1e1e1e" text-anchor="start" style="white-space: pre;" direction="ltr" dominant-baseline="text-before-edge">invalid</text></g><g stroke-linecap="round" transform="translate(83.72877502441406 198.98301696777344) rotate(0 319.0678405761719 301.27122497558594)"><path d="M32 0 M32 0 C151.98 0.79, 271.06 0.62, 606.14 0 M32 0 C243.23 0.74, 454.31 1.17, 606.14 0 M606.14 0 C627.74 1.99, 637.33 11.38, 638.14 32 M606.14 0 C628.44 -1.09, 637.81 9.17, 638.14 32 M638.14 32 C638.17 165.16, 638.93 297.3, 638.14 570.54 M638.14 32 C636.33 221.12, 636.66 410.15, 638.14 570.54 M638.14 570.54 C639.01 590.1, 626.51 602.62, 606.14 602.54 M638.14 570.54 C636.86 591.52, 626.38 603.96, 606.14 602.54 M606.14 602.54 C460.55 600.84, 316.25 599.95, 32 602.54 M606.14 602.54 C404.84 600.98, 202.82 601.2, 32 602.54 M32 602.54 C8.84 601.24, -1.94 592.91, 0 570.54 M32 602.54 C9.57 600.65, 1.51 590.57, 0 570.54 M0 570.54 C-0.97 403.05, -2.06 234.81, 0 32 M0 570.54 C0.21 408.36, 0.32 246.25, 0 32 M0 32 C1.6 11.96, 10.41 -0.76, 32 0 M0 32 C0.78 10.27, 12.46 -1.9, 32 0" stroke="#1e1e1e" stroke-width="1" fill="none"></path></g><g stroke-linecap="round" transform="translate(570.9490203857422 110.60169982910156) rotate(0 89 27.5)"><path d="M13.75 0 M13.75 0 C63.27 0.06, 111.66 0.16, 164.25 0 M13.75 0 C57.41 -1.81, 99.85 -0.47, 164.25 0 M164.25 0 C174.06 -1.83, 176.95 3.05, 178 13.75 M164.25 0 C174.36 -1.99, 176.11 2.92, 178 13.75 M178 13.75 C179.23 20.05, 179.68 23.61, 178 41.25 M178 13.75 C177.52 18.77, 176.98 26.42, 178 41.25 M178 41.25 C177.35 51.03, 174.7 56.02, 164.25 55 M178 41.25 C177.7 50.38, 173.15 55.41, 164.25 55 M164.25 55 C105.08 57.21, 46.42 54.56, 13.75 55 M164.25 55 C122.51 55.93, 80.08 55.08, 13.75 55 M13.75 55 C2.77 55.13, 1.38 51.98, 0 41.25 M13.75 55 C5.28 53.81, -0.61 51.09, 0 41.25 M0 41.25 C-0.21 32.69, -1.18 26.53, 0 13.75 M0 41.25 C-0.62 32.64, 0.46 22.87, 0 13.75 M0 13.75 C-1.53 6.14, 5.4 -1.69, 13.75 0 M0 13.75 C0.54 3.04, 3.6 1.91, 13.75 0" stroke="#1e1e1e" stroke-width="1" fill="none"></path></g><g transform="translate(580.2615203857422 128.50169982910154) rotate(0 79.6875 9.599999999999994)"><text x="79.6875" y="0" font-family="Cascadia, Segoe UI Emoji" font-size="16px" fill="#1e1e1e" text-anchor="middle" style="white-space: pre;" direction="ltr" dominant-baseline="text-before-edge">key(n)+page_id(n)</text></g><g transform="translate(100.67793273925781 217.62709045410156) rotate(0 309.375 259.2)"><text x="0" y="0" font-family="Cascadia, Segoe UI Emoji" font-size="16px" fill="#1e1e1e" text-anchor="start" style="white-space: pre;" direction="ltr" dominant-baseline="text-before-edge">BPlusTreeInternalPage();</text><text x="0" y="19.2" font-family="Cascadia, Segoe UI Emoji" font-size="16px" fill="#1e1e1e" text-anchor="start" style="white-space: pre;" direction="ltr" dominant-baseline="text-before-edge">BPlusTreeInternalPage(const BPlusTreeInteranalPage&amp;);</text><text x="0" y="38.4" font-family="Cascadia, Segoe UI Emoji" font-size="16px" fill="#1e1e1e" text-anchor="start" style="white-space: pre;" direction="ltr" dominant-baseline="text-before-edge"></text><text x="0" y="57.599999999999994" font-family="Cascadia, Segoe UI Emoji" font-size="16px" fill="#1e1e1e" text-anchor="start" style="white-space: pre;" direction="ltr" dominant-baseline="text-before-edge">void Init(int);</text><text x="0" y="76.8" font-family="Cascadia, Segoe UI Emoji" font-size="16px" fill="#1e1e1e" text-anchor="start" style="white-space: pre;" direction="ltr" dominant-baseline="text-before-edge"></text><text x="0" y="96" font-family="Cascadia, Segoe UI Emoji" font-size="16px" fill="#1e1e1e" text-anchor="start" style="white-space: pre;" direction="ltr" dominant-baseline="text-before-edge">void SetValueAt(int,const ValueType&amp;);</text><text x="0" y="115.19999999999999" font-family="Cascadia, Segoe UI Emoji" font-size="16px" fill="#1e1e1e" text-anchor="start" style="white-space: pre;" direction="ltr" dominant-baseline="text-before-edge">void InsertFirstOf(const page_id_t&amp;);</text><text x="0" y="134.4" font-family="Cascadia, Segoe UI Emoji" font-size="16px" fill="#1e1e1e" text-anchor="start" style="white-space: pre;" direction="ltr" dominant-baseline="text-before-edge"></text><text x="0" y="153.6" font-family="Cascadia, Segoe UI Emoji" font-size="16px" fill="#1e1e1e" text-anchor="start" style="white-space: pre;" direction="ltr" dominant-baseline="text-before-edge">auto KeyAt(int);</text><text x="0" y="172.79999999999998" font-family="Cascadia, Segoe UI Emoji" font-size="16px" fill="#1e1e1e" text-anchor="start" style="white-space: pre;" direction="ltr" dominant-baseline="text-before-edge"></text><text x="0" y="192" font-family="Cascadia, Segoe UI Emoji" font-size="16px" fill="#1e1e1e" text-anchor="start" style="white-space: pre;" direction="ltr" dominant-baseline="text-before-edge">void SetKeyAt(int,const KeyType&amp;);</text><text x="0" y="211.2" font-family="Cascadia, Segoe UI Emoji" font-size="16px" fill="#1e1e1e" text-anchor="start" style="white-space: pre;" direction="ltr" dominant-baseline="text-before-edge"></text><text x="0" y="230.39999999999998" font-family="Cascadia, Segoe UI Emoji" font-size="16px" fill="#1e1e1e" text-anchor="start" style="white-space: pre;" direction="ltr" dominant-baseline="text-before-edge">auto Insert(const KeyType&amp;,const page_id_t&amp;,const KeyComparator&amp;);</text><text x="0" y="249.6" font-family="Cascadia, Segoe UI Emoji" font-size="16px" fill="#1e1e1e" text-anchor="start" style="white-space: pre;" direction="ltr" dominant-baseline="text-before-edge"></text><text x="0" y="268.8" font-family="Cascadia, Segoe UI Emoji" font-size="16px" fill="#1e1e1e" text-anchor="start" style="white-space: pre;" direction="ltr" dominant-baseline="text-before-edge">auto ValueIndex(..);</text><text x="0" y="288" font-family="Cascadia, Segoe UI Emoji" font-size="16px" fill="#1e1e1e" text-anchor="start" style="white-space: pre;" direction="ltr" dominant-baseline="text-before-edge">auto Lookup(..);</text><text x="0" y="307.2" font-family="Cascadia, Segoe UI Emoji" font-size="16px" fill="#1e1e1e" text-anchor="start" style="white-space: pre;" direction="ltr" dominant-baseline="text-before-edge">auto RemoveKeyAt(..);</text><text x="0" y="326.4" font-family="Cascadia, Segoe UI Emoji" font-size="16px" fill="#1e1e1e" text-anchor="start" style="white-space: pre;" direction="ltr" dominant-baseline="text-before-edge">void EraseAt(..);</text><text x="0" y="345.59999999999997" font-family="Cascadia, Segoe UI Emoji" font-size="16px" fill="#1e1e1e" text-anchor="start" style="white-space: pre;" direction="ltr" dominant-baseline="text-before-edge">void MoveFirstToEndOf(..);</text><text x="0" y="364.8" font-family="Cascadia, Segoe UI Emoji" font-size="16px" fill="#1e1e1e" text-anchor="start" style="white-space: pre;" direction="ltr" dominant-baseline="text-before-edge">void MoveHalfTo(..);</text><text x="0" y="384" font-family="Cascadia, Segoe UI Emoji" font-size="16px" fill="#1e1e1e" text-anchor="start" style="white-space: pre;" direction="ltr" dominant-baseline="text-before-edge">void MoveAllTo(..);</text><text x="0" y="403.2" font-family="Cascadia, Segoe UI Emoji" font-size="16px" fill="#1e1e1e" text-anchor="start" style="white-space: pre;" direction="ltr" dominant-baseline="text-before-edge">void MoveEndoFrontOf(..);</text><text x="0" y="422.4" font-family="Cascadia, Segoe UI Emoji" font-size="16px" fill="#1e1e1e" text-anchor="start" style="white-space: pre;" direction="ltr" dominant-baseline="text-before-edge"></text><text x="0" y="441.59999999999997" font-family="Cascadia, Segoe UI Emoji" font-size="16px" fill="#1e1e1e" text-anchor="start" style="white-space: pre;" direction="ltr" dominant-baseline="text-before-edge">auto ValueAt(int);</text><text x="0" y="460.79999999999995" font-family="Cascadia, Segoe UI Emoji" font-size="16px" fill="#1e1e1e" text-anchor="start" style="white-space: pre;" direction="ltr" dominant-baseline="text-before-edge">auto GetValue(int);</text><text x="0" y="480" font-family="Cascadia, Segoe UI Emoji" font-size="16px" fill="#1e1e1e" text-anchor="start" style="white-space: pre;" direction="ltr" dominant-baseline="text-before-edge"></text><text x="0" y="499.2" font-family="Cascadia, Segoe UI Emoji" font-size="16px" fill="#1e1e1e" text-anchor="start" style="white-space: pre;" direction="ltr" dominant-baseline="text-before-edge">auto ToString();</text></g><g stroke-linecap="round"><g transform="translate(82.88130187988281 743.0508270263672) rotate(0 318.23911690823735 0.7770100528001649)"><path d="M-0.45 0.35 C105.69 0.61, 530.94 0.67, 636.93 0.93 M1.51 -0.51 C107.53 -0.05, 530.17 1.43, 636.24 2.07" stroke="#1e1e1e" stroke-width="1" fill="none"></path></g></g><mask></mask><g transform="translate(103.22029113769531 765.0847625732422) rotate(0 103.125 9.600000000000023)"><text x="0" y="0" font-family="Cascadia, Segoe UI Emoji" font-size="16px" fill="#1e1e1e" text-anchor="start" style="white-space: pre;" direction="ltr" dominant-baseline="text-before-edge">MappingType array_[0];</text></g></svg>