<svg version="1.1" xmlns="http://www.w3.org/2000/svg" viewBox="0 0 705.5933074951172 670.8473358154297" width="705.5933074951172" height="670.8473358154297" filter="invert(93%) hue-rotate(180deg)">
  <!-- svg-source:excalidraw -->
  
  <defs>
    <style class="style-fonts">
      @font-face {
        font-family: "Virgil";
        src: url("https://excalidraw.com/Virgil.woff2");
      }
      @font-face {
        font-family: "Cascadia";
        src: url("https://excalidraw.com/Cascadia.woff2");
      }
    </style>
    
  </defs>
  <rect x="0" y="0" width="705.5933074951172" height="670.8473358154297" fill="#ffffff"></rect><g transform="translate(155.76271057128906 10) rotate(0 181.640625 12)"><text x="0" y="0" font-family="Cascadia, Segoe UI Emoji" font-size="20px" fill="#1e1e1e" text-anchor="start" style="white-space: pre;" direction="ltr" dominant-baseline="text-before-edge">BPlusTreeLeafPage:BPlusTreePage</text></g><g transform="translate(170.1694793701172 47.28814697265625) rotate(0 135.9375 9.599999999999994)"><text x="0" y="0" font-family="Cascadia, Segoe UI Emoji" font-size="16px" fill="#f08c00" text-anchor="start" style="white-space: pre;" direction="ltr" dominant-baseline="text-before-edge">record id = page id + slot id</text></g><g stroke-linecap="round" transform="translate(10 88.81358337402344) rotate(0 342.7966537475586 49.576263427734375)"><path d="M24.79 0 M24.79 0 C253.16 -1.71, 481.33 -1.24, 660.81 0 M24.79 0 C199.92 2.07, 375.3 2.11, 660.81 0 M660.81 0 C675.87 1.11, 684.01 8.77, 685.59 24.79 M660.81 0 C675.65 -0.66, 685.99 10.26, 685.59 24.79 M685.59 24.79 C684.09 39.78, 685.38 55.08, 685.59 74.36 M685.59 24.79 C685.36 34.66, 686.76 45.09, 685.59 74.36 M685.59 74.36 C687.25 91.16, 679.23 100.14, 660.81 99.15 M685.59 74.36 C686.77 89.34, 675.93 97.69, 660.81 99.15 M660.81 99.15 C461.39 101.28, 263.94 100.87, 24.79 99.15 M660.81 99.15 C414.37 96.87, 167.81 96.62, 24.79 99.15 M24.79 99.15 C7.69 100.58, -1.37 90.32, 0 74.36 M24.79 99.15 C6.41 100, 0.34 93.07, 0 74.36 M0 74.36 C1.6 58.94, 1.35 43.64, 0 24.79 M0 74.36 C-1.15 59.95, -0.32 47.26, 0 24.79 M0 24.79 C-1.93 10.1, 10.2 0.64, 24.79 0 M0 24.79 C0.24 8.15, 10.48 -1.57, 24.79 0" stroke="#f08c00" stroke-width="1" fill="none"></path></g><g stroke-linecap="round" transform="translate(23.559310913085938 104.91526794433594) rotate(0 38.5 34.5)"><path d="M17.25 0 M17.25 0 C26.4 0.23, 34.6 -0.59, 59.75 0 M17.25 0 C28.41 0.89, 39.11 -0.77, 59.75 0 M59.75 0 C72.7 -1.55, 78.53 4.43, 77 17.25 M59.75 0 C72.97 -0.53, 78.19 6.82, 77 17.25 M77 17.25 C77.38 23.99, 77.95 32.8, 77 51.75 M77 17.25 C77.2 25.54, 76.98 34.43, 77 51.75 M77 51.75 C78.81 62.28, 71.06 68.66, 59.75 69 M77 51.75 C76.61 64.51, 72.04 69.61, 59.75 69 M59.75 69 C43.39 68.02, 27.56 68.8, 17.25 69 M59.75 69 C49.74 68.47, 41.99 68.73, 17.25 69 M17.25 69 C7.55 68.64, -0.83 63.04, 0 51.75 M17.25 69 C5.55 69.52, 0.31 62.72, 0 51.75 M0 51.75 C1.29 43.76, -0.2 33.32, 0 17.25 M0 51.75 C0.65 40.54, 0.06 31.31, 0 17.25 M0 17.25 C1.15 5.1, 7.02 -0.09, 17.25 0 M0 17.25 C0.85 5.75, 6.67 -0.32, 17.25 0" stroke="#f08c00" stroke-width="1" fill="none"></path></g><g transform="translate(33.93431091308594 129.81526794433591) rotate(0 28.125 9.599999999999994)"><text x="28.125" y="0" font-family="Cascadia, Segoe UI Emoji" font-size="16px" fill="#f08c00" text-anchor="middle" style="white-space: pre;" direction="ltr" dominant-baseline="text-before-edge">header</text></g><g stroke-linecap="round" transform="translate(111.69493103027344 106.61018371582031) rotate(0 70.76271057128906 32.20338439941406)"><path d="M16.1 0 M16.1 0 C57.26 1.63, 95.87 2.79, 125.42 0 M16.1 0 C39.67 -0.05, 62.1 -1.7, 125.42 0 M125.42 0 C136.3 1.08, 139.98 7.13, 141.53 16.1 M125.42 0 C136.4 -0.64, 143.26 6.93, 141.53 16.1 M141.53 16.1 C142.49 23.88, 142.76 32.8, 141.53 48.31 M141.53 16.1 C141.39 26.72, 142.11 39.08, 141.53 48.31 M141.53 48.31 C143.34 59.86, 135.26 64.88, 125.42 64.41 M141.53 48.31 C142.57 60.04, 135.61 65.16, 125.42 64.41 M125.42 64.41 C100.1 66.16, 77.31 62.99, 16.1 64.41 M125.42 64.41 C93.83 64.05, 61.04 63.57, 16.1 64.41 M16.1 64.41 C5.63 65.94, -0.22 59.67, 0 48.31 M16.1 64.41 C5.42 63.95, 1.11 59.11, 0 48.31 M0 48.31 C-1.26 37.19, 1.48 23.43, 0 16.1 M0 48.31 C-0.42 36.52, -0.66 27.5, 0 16.1 M0 16.1 C-0.59 3.94, 3.44 0.79, 16.1 0 M0 16.1 C0.75 3.74, 5.51 -2.15, 16.1 0" stroke="#f08c00" stroke-width="1" fill="none"></path></g><g transform="translate(126.94914245605469 129.4915313720703) rotate(0 60.9375 9.599999999999994)"><text x="0" y="0" font-family="Cascadia, Segoe UI Emoji" font-size="16px" fill="#f08c00" text-anchor="start" style="white-space: pre;" direction="ltr" dominant-baseline="text-before-edge">key(1)+RID(1)</text></g><g stroke-linecap="round" transform="translate(256.25416564941406 107.508544921875) rotate(0 72.03390502929688 32.20338439941406)"><path d="M16.1 0 M16.1 0 C43.09 -1.54, 74.01 -2.66, 127.97 0 M16.1 0 C49.75 0.2, 82.39 0.18, 127.97 0 M127.97 0 C137.47 0.99, 144.88 4.06, 144.07 16.1 M127.97 0 C137.97 -0.62, 143.02 4.86, 144.07 16.1 M144.07 16.1 C144.41 23.52, 143.31 35.95, 144.07 48.31 M144.07 16.1 C144.13 25.7, 144.62 35.72, 144.07 48.31 M144.07 48.31 C142.85 59.19, 138.26 64.65, 127.97 64.41 M144.07 48.31 C145.44 59.49, 138.67 64.25, 127.97 64.41 M127.97 64.41 C97.39 64.15, 67.09 62.62, 16.1 64.41 M127.97 64.41 C98.43 65.26, 68.33 63.72, 16.1 64.41 M16.1 64.41 C5.21 63.53, 1.62 60.93, 0 48.31 M16.1 64.41 C4.86 62.47, -1.14 59.25, 0 48.31 M0 48.31 C1.87 41.44, -0.28 32.7, 0 16.1 M0 48.31 C0.87 37.26, -0.03 25.04, 0 16.1 M0 16.1 C-1.36 4.12, 6.63 -1.2, 16.1 0 M0 16.1 C0.14 7.48, 6.58 -0.27, 16.1 0" stroke="#f08c00" stroke-width="1" fill="none"></path></g><g transform="translate(271.5084991455078 128.6949462890625) rotate(0 60.9375 9.599999999999994)"><text x="0" y="0" font-family="Cascadia, Segoe UI Emoji" font-size="16px" fill="#f08c00" text-anchor="start" style="white-space: pre;" direction="ltr" dominant-baseline="text-before-edge">key(2)+RID(2)</text></g><g stroke-linecap="round" transform="translate(541.6100616455078 107.33901977539062) rotate(0 73.30511474609375 32.20338439941406)"><path d="M16.1 0 M16.1 0 C58.52 -0.38, 100.23 -1.56, 130.51 0 M16.1 0 C43.11 -1.16, 70.02 -0.37, 130.51 0 M130.51 0 C141.12 0.84, 145.64 5.03, 146.61 16.1 M130.51 0 C141.42 -2.03, 147.47 7.11, 146.61 16.1 M146.61 16.1 C148.14 21.91, 148.2 29.94, 146.61 48.31 M146.61 16.1 C145.65 25.44, 146.6 31.98, 146.61 48.31 M146.61 48.31 C146.48 59.99, 141.93 66.39, 130.51 64.41 M146.61 48.31 C144.33 58.37, 139.85 64.85, 130.51 64.41 M130.51 64.41 C91.96 66.67, 53.26 65.5, 16.1 64.41 M130.51 64.41 C93.9 66.02, 57.07 64.05, 16.1 64.41 M16.1 64.41 C6.19 66.07, -0.62 57.72, 0 48.31 M16.1 64.41 C7.54 62.56, 0.17 60.95, 0 48.31 M0 48.31 C-1.31 35.22, 0.37 26.21, 0 16.1 M0 48.31 C0.81 39.47, -0.1 30.49, 0 16.1 M0 16.1 C-0.07 5.8, 6.57 -0.82, 16.1 0 M0 16.1 C-1.65 7.35, 3.21 0.28, 16.1 0" stroke="#f08c00" stroke-width="1" fill="none"></path></g><g transform="translate(551.7796783447266 131.91525268554688) rotate(0 60.9375 9.599999999999994)"><text x="0" y="0" font-family="Cascadia, Segoe UI Emoji" font-size="16px" fill="#f08c00" text-anchor="start" style="white-space: pre;" direction="ltr" dominant-baseline="text-before-edge">key(n)+RID(n)</text></g><g stroke-linecap="round" transform="translate(415.0678253173828 105.440673828125) rotate(0 61.864410400390625 32.20338439941406)"><path d="M16.1 0 M16.1 0 C42.76 0.86, 67.4 -2.42, 107.63 0 M16.1 0 C46.67 1, 75.8 1.04, 107.63 0 M107.63 0 C119.63 -1.95, 123.34 5.41, 123.73 16.1 M107.63 0 C117 1.81, 124.42 4.78, 123.73 16.1 M123.73 16.1 C123.47 28.41, 123.36 35.07, 123.73 48.31 M123.73 16.1 C123.97 27.19, 124.42 40.37, 123.73 48.31 M123.73 48.31 C122.92 58.31, 117.47 63.66, 107.63 64.41 M123.73 48.31 C122.48 57.85, 116.28 64.4, 107.63 64.41 M107.63 64.41 C87.74 64.67, 65.37 64.84, 16.1 64.41 M107.63 64.41 C80.25 64.68, 51.86 64.11, 16.1 64.41 M16.1 64.41 C5.38 64.82, 0.99 57.13, 0 48.31 M16.1 64.41 C6.06 63.85, 1.99 59.71, 0 48.31 M0 48.31 C1.98 40.76, -1.38 31, 0 16.1 M0 48.31 C-0.58 36.29, 0.42 22.09, 0 16.1 M0 16.1 C-0.83 3.86, 3.9 -0.42, 16.1 0 M0 16.1 C0.9 4.76, 4.84 -0.12, 16.1 0" stroke="#f08c00" stroke-width="1" fill="none"></path></g><g transform="translate(462.86973571777344 128.04405822753904) rotate(0 14.0625 9.599999999999994)"><text x="14.0625" y="0" font-family="Cascadia, Segoe UI Emoji" font-size="16px" fill="#f08c00" text-anchor="middle" style="white-space: pre;" direction="ltr" dominant-baseline="text-before-edge">...</text></g><g stroke-linecap="round"><g transform="translate(129.5075283647684 248.30437879021645) rotate(0 -24.456463794858394 -33.89795097822042)"><path d="M-0.61 -1.14 C-8.62 -12.68, -41.14 -57.35, -49.17 -68.67 M1.28 0.87 C-6.81 -10.5, -41.73 -55.6, -50.19 -67.05" stroke="#f08c00" stroke-width="1" fill="none"></path></g><g transform="translate(129.5075283647684 248.30437879021645) rotate(0 -24.456463794858394 -33.89795097822042)"><path d="M-26.89 -51 C-30.08 -53.94, -35.95 -58.32, -48.69 -67.75 M-25.97 -50.23 C-29.6 -53.17, -34.52 -57.82, -50.12 -66.63" stroke="#f08c00" stroke-width="1" fill="none"></path></g><g transform="translate(129.5075283647684 248.30437879021645) rotate(0 -24.456463794858394 -33.89795097822042)"><path d="M-43.24 -38.6 C-43.08 -44.06, -45.52 -51.02, -48.69 -67.75 M-42.33 -37.84 C-42.76 -43.28, -44.41 -50.42, -50.12 -66.63" stroke="#f08c00" stroke-width="1" fill="none"></path></g></g><mask></mask><g transform="translate(130.3390350341797 213.38987731933594) rotate(0 32.8125 9.599999999999994)"><text x="0" y="0" font-family="Cascadia, Segoe UI Emoji" font-size="16px" fill="#f08c00" text-anchor="start" style="white-space: pre;" direction="ltr" dominant-baseline="text-before-edge">16bytes</text></g><g stroke-linecap="round" transform="translate(143.89830017089844 248.9831085205078) rotate(0 236.01693725585938 51.271209716796875)"><path d="M25.64 0 M25.64 0 C125.97 0.59, 225.66 2.06, 446.4 0 M25.64 0 C191.73 0.95, 357.41 0.71, 446.4 0 M446.4 0 C464.43 0.85, 472.55 8.54, 472.03 25.64 M446.4 0 C461.78 1.39, 474.18 8.06, 472.03 25.64 M472.03 25.64 C472.44 44.55, 470.28 64.02, 472.03 76.91 M472.03 25.64 C472.51 40.1, 471.97 54.45, 472.03 76.91 M472.03 76.91 C472.91 92.64, 464.3 101.48, 446.4 102.54 M472.03 76.91 C471.05 92.8, 462.28 102.02, 446.4 102.54 M446.4 102.54 C358.09 102.77, 267.77 101.77, 25.64 102.54 M446.4 102.54 C353.96 104.48, 262.56 104.46, 25.64 102.54 M25.64 102.54 C9.78 101.23, 1.73 95.68, 0 76.91 M25.64 102.54 C8.82 102.99, -0.52 92.65, 0 76.91 M0 76.91 C0.09 65.51, 1.46 55, 0 25.64 M0 76.91 C1.06 62.91, 0.92 49.07, 0 25.64 M0 25.64 C0.25 7.84, 8.04 1.22, 25.64 0 M0 25.64 C1.34 7.37, 10.13 -0.89, 25.64 0" stroke="#f08c00" stroke-width="1" fill="none"></path></g><g stroke-linecap="round" transform="translate(159.1525421142578 262.54237365722656) rotate(0 47.45762634277344 38.13560485839844)"><path d="M19.07 0 M19.07 0 C34.65 -1.85, 47.72 0.92, 75.85 0 M19.07 0 C32.06 0.33, 46.69 -0.02, 75.85 0 M75.85 0 C88.5 -0.53, 93.94 6.69, 94.92 19.07 M75.85 0 C88.93 0.5, 94.48 5.17, 94.92 19.07 M94.92 19.07 C94.97 30.86, 94.72 42.56, 94.92 57.2 M94.92 19.07 C94.81 27.48, 93.87 34.22, 94.92 57.2 M94.92 57.2 C93.82 68.16, 87.33 75.05, 75.85 76.27 M94.92 57.2 C96.63 68.32, 90.03 74.08, 75.85 76.27 M75.85 76.27 C65.19 76.4, 53.6 77.52, 19.07 76.27 M75.85 76.27 C57 76.54, 36.92 77.3, 19.07 76.27 M19.07 76.27 C7.67 76.27, 0.08 70.36, 0 57.2 M19.07 76.27 C4.33 74.98, -0.18 70.38, 0 57.2 M0 57.2 C-1.93 45.57, -0.1 39.2, 0 19.07 M0 57.2 C0.61 50.03, 0.3 40.98, 0 19.07 M0 19.07 C-0.27 6.67, 7.76 -0.13, 19.07 0 M0 19.07 C-1.51 6.3, 5.16 -0.08, 19.07 0" stroke="#f08c00" stroke-width="1" fill="none"></path></g><g transform="translate(169.11016845703125 281.477978515625) rotate(0 37.5 19.19999999999999)"><text x="37.5" y="0" font-family="Cascadia, Segoe UI Emoji" font-size="16px" fill="#f08c00" text-anchor="middle" style="white-space: pre;" direction="ltr" dominant-baseline="text-before-edge">PageType</text><text x="37.5" y="19.2" font-family="Cascadia, Segoe UI Emoji" font-size="16px" fill="#f08c00" text-anchor="middle" style="white-space: pre;" direction="ltr" dominant-baseline="text-before-edge">4</text></g><g stroke-linecap="round" transform="translate(269.796630859375 265.27117919921875) rotate(0 59.5 38.5)"><path d="M19.25 0 M19.25 0 C42.14 -0.26, 63.52 -2.36, 99.75 0 M19.25 0 C44.59 0.04, 72 -1.49, 99.75 0 M99.75 0 C114.41 -1.45, 119.25 5.36, 119 19.25 M99.75 0 C110.91 -0.2, 118.59 7.28, 119 19.25 M119 19.25 C117.3 34.48, 119.18 49.04, 119 57.75 M119 19.25 C118.76 32.13, 118.68 44.11, 119 57.75 M119 57.75 C118.3 69.23, 111.19 78.63, 99.75 77 M119 57.75 C117.95 69.33, 113.57 75.62, 99.75 77 M99.75 77 C68.24 75.53, 34.31 77.17, 19.25 77 M99.75 77 C76.88 76.29, 54 77.63, 19.25 77 M19.25 77 C8.23 77.37, -0.01 68.78, 0 57.75 M19.25 77 C5.6 76.38, 0.64 69.06, 0 57.75 M0 57.75 C-0.64 45.87, 0.93 38.65, 0 19.25 M0 57.75 C-0.84 46.02, 0.48 31.6, 0 19.25 M0 19.25 C0.22 5.32, 4.64 1.52, 19.25 0 M0 19.25 C1.29 8.58, 6.48 0.09, 19.25 0" stroke="#f08c00" stroke-width="1" fill="none"></path></g><g transform="translate(277.734130859375 284.57117919921876) rotate(0 51.5625 19.19999999999999)"><text x="51.5625" y="0" font-family="Cascadia, Segoe UI Emoji" font-size="16px" fill="#f08c00" text-anchor="middle" style="white-space: pre;" direction="ltr" dominant-baseline="text-before-edge">CurrentSize</text><text x="51.5625" y="19.2" font-family="Cascadia, Segoe UI Emoji" font-size="16px" fill="#f08c00" text-anchor="middle" style="white-space: pre;" direction="ltr" dominant-baseline="text-before-edge">4</text></g><g stroke-linecap="round" transform="translate(395.91534423828125 264.44061279296875) rotate(0 47.45762634277344 38.13560485839844)"><path d="M19.07 0 M19.07 0 C34.99 -0.91, 55.25 0.15, 75.85 0 M19.07 0 C36.49 0.28, 53.59 0.04, 75.85 0 M75.85 0 C89.34 0.27, 95.3 5.11, 94.92 19.07 M75.85 0 C88.55 0.22, 92.87 7.68, 94.92 19.07 M94.92 19.07 C94.13 26.47, 96.12 36.83, 94.92 57.2 M94.92 19.07 C95.65 31.9, 95.56 43.6, 94.92 57.2 M94.92 57.2 C95.74 68.29, 86.84 75.18, 75.85 76.27 M94.92 57.2 C93.89 69.6, 89.7 74.25, 75.85 76.27 M75.85 76.27 C56.26 77.41, 36.29 74.48, 19.07 76.27 M75.85 76.27 C59.65 76.43, 42.57 75.22, 19.07 76.27 M19.07 76.27 C6 77.51, -1.2 71.35, 0 57.2 M19.07 76.27 C6.33 76.18, -0.64 70.41, 0 57.2 M0 57.2 C-1.36 43.03, 0.94 25.67, 0 19.07 M0 57.2 C0.17 49.99, 0.3 40.16, 0 19.07 M0 19.07 C-1.11 4.71, 7.79 0.61, 19.07 0 M0 19.07 C1.25 8.31, 4.39 -1.07, 19.07 0" stroke="#f08c00" stroke-width="1" fill="none"></path></g><g transform="translate(410.5604705810547 283.3762176513672) rotate(0 32.8125 19.19999999999999)"><text x="32.8125" y="0" font-family="Cascadia, Segoe UI Emoji" font-size="16px" fill="#f08c00" text-anchor="middle" style="white-space: pre;" direction="ltr" dominant-baseline="text-before-edge">MaxSize</text><text x="32.8125" y="19.2" font-family="Cascadia, Segoe UI Emoji" font-size="16px" fill="#f08c00" text-anchor="middle" style="white-space: pre;" direction="ltr" dominant-baseline="text-before-edge">4</text></g><g stroke-linecap="round" transform="translate(495.796630859375 264.83050537109375) rotate(0 54 38.5)"><path d="M19.25 0 M19.25 0 C36.39 -0.83, 55.07 0.25, 88.75 0 M19.25 0 C40.96 -0.75, 62.17 -0.03, 88.75 0 M88.75 0 C103.01 1.02, 109.33 4.52, 108 19.25 M88.75 0 C99.72 -0.55, 105.75 8.4, 108 19.25 M108 19.25 C107.2 30.55, 109.1 42.31, 108 57.75 M108 19.25 C108.01 31.89, 108.35 45.3, 108 57.75 M108 57.75 C106.44 71.75, 101.93 78.92, 88.75 77 M108 57.75 C107.1 69.96, 103.23 76.06, 88.75 77 M88.75 77 C72.33 77.65, 55.24 75.72, 19.25 77 M88.75 77 C69.26 77.86, 49.85 76.58, 19.25 77 M19.25 77 C7.96 77.12, 1.28 69.93, 0 57.75 M19.25 77 C8.35 79.15, 1.87 70.04, 0 57.75 M0 57.75 C2.14 44.39, 1.37 26.37, 0 19.25 M0 57.75 C-0.44 45.61, 0.54 33.15, 0 19.25 M0 19.25 C-1.47 6.67, 7.05 0.69, 19.25 0 M0 19.25 C0.23 5.08, 4.26 0.44, 19.25 0" stroke="#f08c00" stroke-width="1" fill="none"></path></g><g transform="translate(502.921630859375 284.13050537109376) rotate(0 46.875 19.19999999999999)"><text x="46.875" y="0" font-family="Cascadia, Segoe UI Emoji" font-size="16px" fill="#f08c00" text-anchor="middle" style="white-space: pre;" direction="ltr" dominant-baseline="text-before-edge">NextPageId</text><text x="46.875" y="19.2" font-family="Cascadia, Segoe UI Emoji" font-size="16px" fill="#f08c00" text-anchor="middle" style="white-space: pre;" direction="ltr" dominant-baseline="text-before-edge">4</text></g><g stroke-linecap="round" transform="translate(145.59312438964844 363.3898162841797) rotate(0 226.27117919921875 148.728759765625)"><path d="M32 0 M32 0 C170.03 2.05, 309.82 -0.05, 420.54 0 M32 0 C170.68 -0.04, 308.96 -0.58, 420.54 0 M420.54 0 C442.31 0.34, 453.73 12.35, 452.54 32 M420.54 0 C440.29 0.8, 454.29 11.5, 452.54 32 M452.54 32 C453.1 81.47, 453.2 133.32, 452.54 265.46 M452.54 32 C450.68 96.98, 451.34 160.47, 452.54 265.46 M452.54 265.46 C452.13 287.64, 443.81 299.01, 420.54 297.46 M452.54 265.46 C453.53 285.02, 441.43 298.62, 420.54 297.46 M420.54 297.46 C273.92 298.22, 129.25 297.94, 32 297.46 M420.54 297.46 C295.8 298.73, 172.21 299.21, 32 297.46 M32 297.46 C10.79 296.98, -0.65 287.36, 0 265.46 M32 297.46 C12.53 296.65, -2.17 287.74, 0 265.46 M0 265.46 C-1.39 214.03, 1.43 161.4, 0 32 M0 265.46 C1.59 184.27, 1.93 103.33, 0 32 M0 32 C1.23 9.95, 8.74 -1.94, 32 0 M0 32 C0.93 8.52, 10.66 -0.17, 32 0" stroke="#1e1e1e" stroke-width="1" fill="none"></path></g><g transform="translate(171.8643035888672 384.57627868652344) rotate(0 206.25 96)"><text x="0" y="0" font-family="Cascadia, Segoe UI Emoji" font-size="16px" fill="#1e1e1e" text-anchor="start" style="white-space: pre;" direction="ltr" dominant-baseline="text-before-edge">BPlusTreeLeafPage();</text><text x="0" y="19.2" font-family="Cascadia, Segoe UI Emoji" font-size="16px" fill="#1e1e1e" text-anchor="start" style="white-space: pre;" direction="ltr" dominant-baseline="text-before-edge">BPlusTreeLeafPage(const BPlusTreeLeafPage&amp;);</text><text x="0" y="38.4" font-family="Cascadia, Segoe UI Emoji" font-size="16px" fill="#1e1e1e" text-anchor="start" style="white-space: pre;" direction="ltr" dominant-baseline="text-before-edge"></text><text x="0" y="57.599999999999994" font-family="Cascadia, Segoe UI Emoji" font-size="16px" fill="#1e1e1e" text-anchor="start" style="white-space: pre;" direction="ltr" dominant-baseline="text-before-edge">void Init(int);</text><text x="0" y="76.8" font-family="Cascadia, Segoe UI Emoji" font-size="16px" fill="#1e1e1e" text-anchor="start" style="white-space: pre;" direction="ltr" dominant-baseline="text-before-edge"></text><text x="0" y="96" font-family="Cascadia, Segoe UI Emoji" font-size="16px" fill="#1e1e1e" text-anchor="start" style="white-space: pre;" direction="ltr" dominant-baseline="text-before-edge">auto GetNextPageId();</text><text x="0" y="115.19999999999999" font-family="Cascadia, Segoe UI Emoji" font-size="16px" fill="#1e1e1e" text-anchor="start" style="white-space: pre;" direction="ltr" dominant-baseline="text-before-edge">void SetNextPageId(page_id_t);</text><text x="0" y="134.4" font-family="Cascadia, Segoe UI Emoji" font-size="16px" fill="#1e1e1e" text-anchor="start" style="white-space: pre;" direction="ltr" dominant-baseline="text-before-edge">auto KeyAt(int);</text><text x="0" y="153.6" font-family="Cascadia, Segoe UI Emoji" font-size="16px" fill="#1e1e1e" text-anchor="start" style="white-space: pre;" direction="ltr" dominant-baseline="text-before-edge"></text><text x="0" y="172.79999999999998" font-family="Cascadia, Segoe UI Emoji" font-size="16px" fill="#1e1e1e" text-anchor="start" style="white-space: pre;" direction="ltr" dominant-baseline="text-before-edge">auto ToString();</text></g><g stroke-linecap="round"><g transform="translate(146.4405975341797 580.3390350341797) rotate(0 224.78771320533008 0.9085966013744837)"><path d="M0.87 1.2 C75.73 1.55, 374.94 1.7, 449.7 1.74 M-0.13 0.78 C74.57 0.84, 374.21 0.32, 449.04 0.08" stroke="#1e1e1e" stroke-width="1" fill="none"></path></g></g><mask></mask><g transform="translate(165.93211364746094 594.7457733154297) rotate(0 112.5 19.19999999999999)"><text x="0" y="0" font-family="Cascadia, Segoe UI Emoji" font-size="16px" fill="#1e1e1e" text-anchor="start" style="white-space: pre;" direction="ltr" dominant-baseline="text-before-edge">page_id_t next_page_id_;</text><text x="0" y="19.2" font-family="Cascadia, Segoe UI Emoji" font-size="16px" fill="#1e1e1e" text-anchor="start" style="white-space: pre;" direction="ltr" dominant-baseline="text-before-edge">MappingType array_;</text></g></svg>