<svg version="1.1" xmlns="http://www.w3.org/2000/svg" viewBox="0 0 446.2712097167969 450.50848388671875" width="446.2712097167969" height="450.50848388671875" filter="invert(93%) hue-rotate(180deg)">
  <!-- svg-source:excalidraw -->
  
  <defs>
    <style class="style-fonts">
      @font-face {
        font-family: "Virgil";
        src: url("https://excalidraw.com/Virgil.woff2");
      }
      @font-face {
        font-family: "Cascadia";
        src: url("https://excalidraw.com/Cascadia.woff2");
      }
    </style>
    
  </defs>
  <rect x="0" y="0" width="446.2712097167969" height="450.50848388671875" fill="#ffffff"></rect><g transform="translate(109.15255737304688 10) rotate(0 76.171875 12)"><text x="0" y="0" font-family="Cascadia, Segoe UI Emoji" font-size="20px" fill="#1e1e1e" text-anchor="start" style="white-space: pre;" direction="ltr" dominant-baseline="text-before-edge">BPlusTreePage</text></g><g stroke-linecap="round" transform="translate(10 52.37286376953125) rotate(0 213.13560485839844 194.06781005859375)"><path d="M32 0 M32 0 C133.29 2.74, 232.68 0.68, 394.27 0 M32 0 C125.16 0.22, 217.13 -0.29, 394.27 0 M394.27 0 C413.9 1.83, 425.55 11.5, 426.27 32 M394.27 0 C415.3 -1.41, 424.75 12.16, 426.27 32 M426.27 32 C427.51 107.6, 427.8 181.36, 426.27 356.14 M426.27 32 C427.25 141.18, 426.49 249.69, 426.27 356.14 M426.27 356.14 C426.08 379.01, 417.55 386.52, 394.27 388.14 M426.27 356.14 C424.66 377.3, 413.62 387.22, 394.27 388.14 M394.27 388.14 C273.08 389.23, 149.05 388.63, 32 388.14 M394.27 388.14 C284.47 390.2, 176.35 389.87, 32 388.14 M32 388.14 C9.76 389.58, 1.41 376.31, 0 356.14 M32 388.14 C10.79 388.24, -1.78 378.41, 0 356.14 M0 356.14 C0.07 279.95, 0.21 202.32, 0 32 M0 356.14 C-1.47 273.19, -0.51 189.73, 0 32 M0 32 C-0.42 12.5, 11.71 -1.31, 32 0 M0 32 C1.55 8.83, 10.38 1.98, 32 0" stroke="#1e1e1e" stroke-width="1" fill="none"></path></g><g transform="translate(32.88134765625 68.47457885742188) rotate(0 168.75 134.4)"><text x="0" y="0" font-family="Cascadia, Segoe UI Emoji" font-size="16px" fill="#1e1e1e" text-anchor="start" style="white-space: pre;" direction="ltr" dominant-baseline="text-before-edge">BPlusTreePage();</text><text x="0" y="19.2" font-family="Cascadia, Segoe UI Emoji" font-size="16px" fill="#1e1e1e" text-anchor="start" style="white-space: pre;" direction="ltr" dominant-baseline="text-before-edge">BPlusTreePage(const BPlusTreePage&amp;);</text><text x="0" y="38.4" font-family="Cascadia, Segoe UI Emoji" font-size="16px" fill="#1e1e1e" text-anchor="start" style="white-space: pre;" direction="ltr" dominant-baseline="text-before-edge">~BPlusTreePage();</text><text x="0" y="57.599999999999994" font-family="Cascadia, Segoe UI Emoji" font-size="16px" fill="#1e1e1e" text-anchor="start" style="white-space: pre;" direction="ltr" dominant-baseline="text-before-edge"></text><text x="0" y="76.8" font-family="Cascadia, Segoe UI Emoji" font-size="16px" fill="#1e1e1e" text-anchor="start" style="white-space: pre;" direction="ltr" dominant-baseline="text-before-edge">auto IsLeafPage()-&gt;bool;</text><text x="0" y="96" font-family="Cascadia, Segoe UI Emoji" font-size="16px" fill="#1e1e1e" text-anchor="start" style="white-space: pre;" direction="ltr" dominant-baseline="text-before-edge">void SetPageType(IndexPageType);</text><text x="0" y="115.19999999999999" font-family="Cascadia, Segoe UI Emoji" font-size="16px" fill="#1e1e1e" text-anchor="start" style="white-space: pre;" direction="ltr" dominant-baseline="text-before-edge"></text><text x="0" y="134.4" font-family="Cascadia, Segoe UI Emoji" font-size="16px" fill="#1e1e1e" text-anchor="start" style="white-space: pre;" direction="ltr" dominant-baseline="text-before-edge">auto GetSize()-&gt;int;</text><text x="0" y="153.6" font-family="Cascadia, Segoe UI Emoji" font-size="16px" fill="#1e1e1e" text-anchor="start" style="white-space: pre;" direction="ltr" dominant-baseline="text-before-edge">void SetSize(int);</text><text x="0" y="172.79999999999998" font-family="Cascadia, Segoe UI Emoji" font-size="16px" fill="#1e1e1e" text-anchor="start" style="white-space: pre;" direction="ltr" dominant-baseline="text-before-edge">void IncreaseSize(int);</text><text x="0" y="192" font-family="Cascadia, Segoe UI Emoji" font-size="16px" fill="#1e1e1e" text-anchor="start" style="white-space: pre;" direction="ltr" dominant-baseline="text-before-edge"></text><text x="0" y="211.2" font-family="Cascadia, Segoe UI Emoji" font-size="16px" fill="#1e1e1e" text-anchor="start" style="white-space: pre;" direction="ltr" dominant-baseline="text-before-edge">auto GetMaxSize()-&gt;int;</text><text x="0" y="230.39999999999998" font-family="Cascadia, Segoe UI Emoji" font-size="16px" fill="#1e1e1e" text-anchor="start" style="white-space: pre;" direction="ltr" dominant-baseline="text-before-edge">void SetMaxSize(int);</text><text x="0" y="249.6" font-family="Cascadia, Segoe UI Emoji" font-size="16px" fill="#1e1e1e" text-anchor="start" style="white-space: pre;" direction="ltr" dominant-baseline="text-before-edge">auto GetMinSize()-&gt;int; </text></g><g stroke-linecap="round"><g transform="translate(11.694915771484375 352.37286376953125) rotate(0 210.70034979432825 0.8166795464884444)"><path d="M-1.1 0.46 C69.4 0.41, 351.93 0.79, 422.5 0.88 M0.53 -0.35 C70.88 0.25, 351.22 1.6, 421.35 1.98" stroke="#1e1e1e" stroke-width="1" fill="none"></path></g></g><mask></mask><g transform="translate(27.796630859375 367.62713623046875) rotate(0 117.1875 28.80000000000001)"><text x="0" y="0" font-family="Cascadia, Segoe UI Emoji" font-size="16px" fill="#1e1e1e" text-anchor="start" style="white-space: pre;" direction="ltr" dominant-baseline="text-before-edge">IndexPageType page_type_;</text><text x="0" y="19.2" font-family="Cascadia, Segoe UI Emoji" font-size="16px" fill="#1e1e1e" text-anchor="start" style="white-space: pre;" direction="ltr" dominant-baseline="text-before-edge">int size_;</text><text x="0" y="38.4" font-family="Cascadia, Segoe UI Emoji" font-size="16px" fill="#1e1e1e" text-anchor="start" style="white-space: pre;" direction="ltr" dominant-baseline="text-before-edge">int max_size_;</text></g></svg>