<svg version="1.1" xmlns="http://www.w3.org/2000/svg" viewBox="0 0 542.8814544677734 1039.491470336914" width="542.8814544677734" height="1039.491470336914" filter="invert(93%) hue-rotate(180deg)">
  <!-- svg-source:excalidraw -->
  
  <defs>
    <style class="style-fonts">
      @font-face {
        font-family: "Virgil";
        src: url("https://excalidraw.com/Virgil.woff2");
      }
      @font-face {
        font-family: "Cascadia";
        src: url("https://excalidraw.com/Cascadia.woff2");
      }
    </style>
    
  </defs>
  <rect x="0" y="0" width="542.8814544677734" height="1039.491470336914" fill="#ffffff"></rect><g transform="translate(219.3220977783203 10) rotate(0 41.015625 12)"><text x="0" y="0" font-family="Cascadia, Segoe UI Emoji" font-size="20px" fill="#1e1e1e" text-anchor="start" style="white-space: pre;" direction="ltr" dominant-baseline="text-before-edge">Context</text></g><g stroke-linecap="round" transform="translate(13.389907836914062 44.745758056640625) rotate(0 259.7457733154297 88.1355972290039)"><path d="M32 0 M32 0 C196.53 -0.82, 359.24 0.32, 487.49 0 M32 0 C174.53 1.29, 316.11 1.69, 487.49 0 M487.49 0 C508.88 1.16, 520.77 8.86, 519.49 32 M487.49 0 C510.09 -0.43, 520.16 8.68, 519.49 32 M519.49 32 C520.09 53.48, 519.14 77.67, 519.49 144.27 M519.49 32 C519.1 61.57, 519.09 91.17, 519.49 144.27 M519.49 144.27 C519.48 167.41, 507.33 177.33, 487.49 176.27 M519.49 144.27 C521.51 163.98, 507.08 177.83, 487.49 176.27 M487.49 176.27 C336.54 174.31, 187.02 174.66, 32 176.27 M487.49 176.27 C357.67 174.22, 228.72 174.25, 32 176.27 M32 176.27 C9.53 176.95, 0.31 164.59, 0 144.27 M32 176.27 C9.43 174.44, 1.27 166.9, 0 144.27 M0 144.27 C0.56 109.4, -2.17 75.65, 0 32 M0 144.27 C-0.05 112.09, -0.27 80.83, 0 32 M0 32 C1.64 10.03, 12.34 0.62, 32 0 M0 32 C1.09 11.22, 10 -0.68, 32 0" stroke="#1e1e1e" stroke-width="1" fill="none"></path></g><g transform="translate(32.881439208984375 70.87456359863279) rotate(0 201.5625 67.19999999999999)"><text x="0" y="0" font-family="Cascadia, Segoe UI Emoji" font-size="16px" fill="#1e1e1e" text-anchor="start" style="white-space: pre;" direction="ltr" dominant-baseline="text-before-edge">std::optional&lt;WritePageGuard&gt; header_page_;</text><text x="0" y="19.2" font-family="Cascadia, Segoe UI Emoji" font-size="16px" fill="#1e1e1e" text-anchor="start" style="white-space: pre;" direction="ltr" dominant-baseline="text-before-edge">page_id_t root_page_id;</text><text x="0" y="38.4" font-family="Cascadia, Segoe UI Emoji" font-size="16px" fill="#1e1e1e" text-anchor="start" style="white-space: pre;" direction="ltr" dominant-baseline="text-before-edge">std::deque&lt;WritePageGuard&gt; write_set_;</text><text x="0" y="57.599999999999994" font-family="Cascadia, Segoe UI Emoji" font-size="16px" fill="#1e1e1e" text-anchor="start" style="white-space: pre;" direction="ltr" dominant-baseline="text-before-edge">std::deque&lt;ReadPageGuard&gt; read_set_;</text><text x="0" y="76.8" font-family="Cascadia, Segoe UI Emoji" font-size="16px" fill="#1e1e1e" text-anchor="start" style="white-space: pre;" direction="ltr" dominant-baseline="text-before-edge"></text><text x="0" y="96" font-family="Cascadia, Segoe UI Emoji" font-size="16px" fill="#1e1e1e" text-anchor="start" style="white-space: pre;" direction="ltr" dominant-baseline="text-before-edge">auto IsRootPage(page_id_t);</text><text x="0" y="115.19999999999999" font-family="Cascadia, Segoe UI Emoji" font-size="16px" fill="#1e1e1e" text-anchor="start" style="white-space: pre;" direction="ltr" dominant-baseline="text-before-edge">~Context();</text></g><g transform="translate(251.52552795410156 254.0677947998047) rotate(0 52.734375 12)"><text x="0" y="0" font-family="Cascadia, Segoe UI Emoji" font-size="20px" fill="#1e1e1e" text-anchor="start" style="white-space: pre;" direction="ltr" dominant-baseline="text-before-edge">BPlusTree</text></g><g stroke-linecap="round" transform="translate(160.00010681152344 287.96604919433594) rotate(0 168.22036743164062 370.76271057128906)"><path d="M32 0 M32 0 C133.83 1.76, 235.37 1.03, 304.44 0 M32 0 C111.91 -0.41, 191.53 -0.26, 304.44 0 M304.44 0 C326.16 -1.58, 334.86 12.52, 336.44 32 M304.44 0 C326.84 -1.12, 336.87 11.5, 336.44 32 M336.44 32 C334.34 296.79, 334.08 561.86, 336.44 709.53 M336.44 32 C338.43 260.53, 337.84 489.32, 336.44 709.53 M336.44 709.53 C338.2 731.16, 326.69 742.57, 304.44 741.53 M336.44 709.53 C335.07 731.3, 325.01 740.96, 304.44 741.53 M304.44 741.53 C210.06 739.7, 119.33 741, 32 741.53 M304.44 741.53 C229.16 740.23, 153.43 740.1, 32 741.53 M32 741.53 C8.87 741.63, -0.18 732.49, 0 709.53 M32 741.53 C12.96 739.63, -2.27 729.6, 0 709.53 M0 709.53 C-2.4 526.88, -1.16 342.71, 0 32 M0 709.53 C2.59 442.39, 2.51 175.75, 0 32 M0 32 C0.23 10.61, 12.09 -0.91, 32 0 M0 32 C-0.13 9.97, 8.62 0.06, 32 0" stroke="#1e1e1e" stroke-width="1" fill="none"></path></g><g transform="translate(178.64418029785156 297.28810119628906) rotate(0 121.875 230.39999999999998)"><text x="0" y="0" font-family="Cascadia, Segoe UI Emoji" font-size="16px" fill="#1e1e1e" text-anchor="start" style="white-space: pre;" direction="ltr" dominant-baseline="text-before-edge">BPlusTree(..);</text><text x="0" y="19.2" font-family="Cascadia, Segoe UI Emoji" font-size="16px" fill="#1e1e1e" text-anchor="start" style="white-space: pre;" direction="ltr" dominant-baseline="text-before-edge">auto IsEmpty();</text><text x="0" y="38.4" font-family="Cascadia, Segoe UI Emoji" font-size="16px" fill="#1e1e1e" text-anchor="start" style="white-space: pre;" direction="ltr" dominant-baseline="text-before-edge">auto Insert(..);</text><text x="0" y="57.599999999999994" font-family="Cascadia, Segoe UI Emoji" font-size="16px" fill="#1e1e1e" text-anchor="start" style="white-space: pre;" direction="ltr" dominant-baseline="text-before-edge">auto GetSiblingPageId(..);</text><text x="0" y="76.8" font-family="Cascadia, Segoe UI Emoji" font-size="16px" fill="#1e1e1e" text-anchor="start" style="white-space: pre;" direction="ltr" dominant-baseline="text-before-edge">void ReplaceKeyAt(..);</text><text x="0" y="96" font-family="Cascadia, Segoe UI Emoji" font-size="16px" fill="#1e1e1e" text-anchor="start" style="white-space: pre;" direction="ltr" dominant-baseline="text-before-edge">auto InsertGetKeyAt(..);</text><text x="0" y="115.19999999999999" font-family="Cascadia, Segoe UI Emoji" font-size="16px" fill="#1e1e1e" text-anchor="start" style="white-space: pre;" direction="ltr" dominant-baseline="text-before-edge">auto DeleteGetKeyAt(..);</text><text x="0" y="134.4" font-family="Cascadia, Segoe UI Emoji" font-size="16px" fill="#1e1e1e" text-anchor="start" style="white-space: pre;" direction="ltr" dominant-baseline="text-before-edge">void RemoveEntry(..);</text><text x="0" y="153.6" font-family="Cascadia, Segoe UI Emoji" font-size="16px" fill="#1e1e1e" text-anchor="start" style="white-space: pre;" direction="ltr" dominant-baseline="text-before-edge">void Remove(..);</text><text x="0" y="172.79999999999998" font-family="Cascadia, Segoe UI Emoji" font-size="16px" fill="#1e1e1e" text-anchor="start" style="white-space: pre;" direction="ltr" dominant-baseline="text-before-edge">auto GetValue(..);</text><text x="0" y="192" font-family="Cascadia, Segoe UI Emoji" font-size="16px" fill="#1e1e1e" text-anchor="start" style="white-space: pre;" direction="ltr" dominant-baseline="text-before-edge">auto GetRootPageId();</text><text x="0" y="211.2" font-family="Cascadia, Segoe UI Emoji" font-size="16px" fill="#1e1e1e" text-anchor="start" style="white-space: pre;" direction="ltr" dominant-baseline="text-before-edge">void SetTreeEmpty(..);</text><text x="0" y="230.39999999999998" font-family="Cascadia, Segoe UI Emoji" font-size="16px" fill="#1e1e1e" text-anchor="start" style="white-space: pre;" direction="ltr" dominant-baseline="text-before-edge">void SetRootPageId(..);</text><text x="0" y="249.6" font-family="Cascadia, Segoe UI Emoji" font-size="16px" fill="#1e1e1e" text-anchor="start" style="white-space: pre;" direction="ltr" dominant-baseline="text-before-edge"></text><text x="0" y="268.8" font-family="Cascadia, Segoe UI Emoji" font-size="16px" fill="#1e1e1e" text-anchor="start" style="white-space: pre;" direction="ltr" dominant-baseline="text-before-edge">auto Begin();</text><text x="0" y="288" font-family="Cascadia, Segoe UI Emoji" font-size="16px" fill="#1e1e1e" text-anchor="start" style="white-space: pre;" direction="ltr" dominant-baseline="text-before-edge">auto End();</text><text x="0" y="307.2" font-family="Cascadia, Segoe UI Emoji" font-size="16px" fill="#1e1e1e" text-anchor="start" style="white-space: pre;" direction="ltr" dominant-baseline="text-before-edge">auto Begin(..);</text><text x="0" y="326.4" font-family="Cascadia, Segoe UI Emoji" font-size="16px" fill="#1e1e1e" text-anchor="start" style="white-space: pre;" direction="ltr" dominant-baseline="text-before-edge"></text><text x="0" y="345.59999999999997" font-family="Cascadia, Segoe UI Emoji" font-size="16px" fill="#1e1e1e" text-anchor="start" style="white-space: pre;" direction="ltr" dominant-baseline="text-before-edge">void Print(..);</text><text x="0" y="364.8" font-family="Cascadia, Segoe UI Emoji" font-size="16px" fill="#1e1e1e" text-anchor="start" style="white-space: pre;" direction="ltr" dominant-baseline="text-before-edge">void Draw(..);</text><text x="0" y="384" font-family="Cascadia, Segoe UI Emoji" font-size="16px" fill="#1e1e1e" text-anchor="start" style="white-space: pre;" direction="ltr" dominant-baseline="text-before-edge">auto DrawBPlusTree();</text><text x="0" y="403.2" font-family="Cascadia, Segoe UI Emoji" font-size="16px" fill="#1e1e1e" text-anchor="start" style="white-space: pre;" direction="ltr" dominant-baseline="text-before-edge">void InsertFromFile(..);</text><text x="0" y="422.4" font-family="Cascadia, Segoe UI Emoji" font-size="16px" fill="#1e1e1e" text-anchor="start" style="white-space: pre;" direction="ltr" dominant-baseline="text-before-edge">void RemoveFromFile(..);</text><text x="0" y="441.59999999999997" font-family="Cascadia, Segoe UI Emoji" font-size="16px" fill="#1e1e1e" text-anchor="start" style="white-space: pre;" direction="ltr" dominant-baseline="text-before-edge">void InsertIntoParent(..);</text></g><g stroke-linecap="round"><g transform="translate(160.84754943847656 761.0508193969727) rotate(0 169.00597000308335 0.44492896377107627)"><path d="M-0.33 -0.47 C55.87 0.06, 282 2.12, 338.35 2.65 M1.69 -1.76 C57.73 -1.51, 282.03 0.58, 337.95 1.03" stroke="#1e1e1e" stroke-width="1" fill="none"></path></g></g><mask></mask><g transform="translate(181.18653869628906 775.4576187133789) rotate(0 140.625 38.39999999999998)"><text x="0" y="0" font-family="Cascadia, Segoe UI Emoji" font-size="16px" fill="#1e1e1e" text-anchor="start" style="white-space: pre;" direction="ltr" dominant-baseline="text-before-edge">void ToGraph(..);</text><text x="0" y="19.2" font-family="Cascadia, Segoe UI Emoji" font-size="16px" fill="#1e1e1e" text-anchor="start" style="white-space: pre;" direction="ltr" dominant-baseline="text-before-edge">void PrintTree(..);</text><text x="0" y="38.4" font-family="Cascadia, Segoe UI Emoji" font-size="16px" fill="#1e1e1e" text-anchor="start" style="white-space: pre;" direction="ltr" dominant-baseline="text-before-edge">auto GetKeyAt(..);</text><text x="0" y="57.599999999999994" font-family="Cascadia, Segoe UI Emoji" font-size="16px" fill="#1e1e1e" text-anchor="start" style="white-space: pre;" direction="ltr" dominant-baseline="text-before-edge">auto ToPrintableBPlusTree(..);</text></g><g stroke-linecap="round" transform="translate(168.4746551513672 857.6609878540039) rotate(0 160.16946411132812 80.93218994140625)"><path d="M32 0 M32 0 C134.77 -0.47, 233.1 -1.6, 288.34 0 M32 0 C129.78 0.53, 227.24 -0.93, 288.34 0 M288.34 0 C308.52 -1.72, 320.92 10.32, 320.34 32 M288.34 0 C309.16 -1.68, 321.47 11.86, 320.34 32 M320.34 32 C319.03 58.9, 319.82 83.06, 320.34 129.86 M320.34 32 C318.82 64.6, 320.31 96.17, 320.34 129.86 M320.34 129.86 C321.83 150.04, 311.25 161.05, 288.34 161.86 M320.34 129.86 C319.58 152.44, 307.65 160.96, 288.34 161.86 M288.34 161.86 C229.83 160.25, 171.12 160.44, 32 161.86 M288.34 161.86 C223.2 161.72, 159.51 161.14, 32 161.86 M32 161.86 C10.5 161.33, 0.09 150.76, 0 129.86 M32 161.86 C9.46 160.76, -2.22 151.47, 0 129.86 M0 129.86 C-0.57 91.75, -1.55 54.97, 0 32 M0 129.86 C0.03 92.65, -0.78 54.06, 0 32 M0 32 C-0.88 10.78, 12.13 -1.23, 32 0 M0 32 C1.31 10.8, 10.61 -0.95, 32 0" stroke="#1e1e1e" stroke-width="1" fill="none"></path></g><g stroke-linecap="round"><g transform="translate(99.1583856442121 819.5254287719727) rotate(0 33.56429288307592 37.594563414226286)"><path d="M-0.97 -0.2 C10.33 12.39, 56.41 63.92, 68.1 76.55 M0.73 -1.36 C11.81 11.41, 55.68 61.8, 67.03 74.8" stroke="#1e1e1e" stroke-width="1" fill="none"></path></g><g transform="translate(99.1583856442121 819.5254287719727) rotate(0 33.56429288307592 37.594563414226286)"><path d="M40.43 59.93 C50.72 66.7, 57.64 70.41, 66.84 76.74 M41.74 61.09 C50.4 65.97, 59.16 69.88, 67.23 74.23" stroke="#1e1e1e" stroke-width="1" fill="none"></path></g><g transform="translate(99.1583856442121 819.5254287719727) rotate(0 33.56429288307592 37.594563414226286)"><path d="M55.9 46.44 C61.22 57.52, 63.06 65.66, 66.84 76.74 M57.21 47.6 C60.4 57.2, 63.7 65.88, 67.23 74.23" stroke="#1e1e1e" stroke-width="1" fill="none"></path></g></g><mask></mask><g transform="translate(10 787.3220596313477) rotate(0 65.625 9.600000000000023)"><text x="0" y="0" font-family="Cascadia, Segoe UI Emoji" font-size="16px" fill="#1e1e1e" text-anchor="start" style="white-space: pre;" direction="ltr" dominant-baseline="text-before-edge">member varible</text></g><g transform="translate(187.1186981201172 873.7626724243164) rotate(0 135.9375 67.20000000000005)"><text x="0" y="0" font-family="Cascadia, Segoe UI Emoji" font-size="16px" fill="#1e1e1e" text-anchor="start" style="white-space: pre;" direction="ltr" dominant-baseline="text-before-edge">std::string index_name_;</text><text x="0" y="19.2" font-family="Cascadia, Segoe UI Emoji" font-size="16px" fill="#1e1e1e" text-anchor="start" style="white-space: pre;" direction="ltr" dominant-baseline="text-before-edge">BufferPoolManger *bpm_;</text><text x="0" y="38.4" font-family="Cascadia, Segoe UI Emoji" font-size="16px" fill="#1e1e1e" text-anchor="start" style="white-space: pre;" direction="ltr" dominant-baseline="text-before-edge">KeyComparator comparator_;</text><text x="0" y="57.599999999999994" font-family="Cascadia, Segoe UI Emoji" font-size="16px" fill="#1e1e1e" text-anchor="start" style="white-space: pre;" direction="ltr" dominant-baseline="text-before-edge">std::vector&lt;std::string&gt; log;</text><text x="0" y="76.8" font-family="Cascadia, Segoe UI Emoji" font-size="16px" fill="#1e1e1e" text-anchor="start" style="white-space: pre;" direction="ltr" dominant-baseline="text-before-edge">int leaf_max_size_;</text><text x="0" y="96" font-family="Cascadia, Segoe UI Emoji" font-size="16px" fill="#1e1e1e" text-anchor="start" style="white-space: pre;" direction="ltr" dominant-baseline="text-before-edge">int internal_max_size_;</text><text x="0" y="115.19999999999999" font-family="Cascadia, Segoe UI Emoji" font-size="16px" fill="#1e1e1e" text-anchor="start" style="white-space: pre;" direction="ltr" dominant-baseline="text-before-edge">page_id_t header_page_id;</text></g></svg>