<svg version="1.1" xmlns="http://www.w3.org/2000/svg" viewBox="0 0 435.85679775252936 382.7118225097656" width="435.85679775252936" height="382.7118225097656" filter="invert(93%) hue-rotate(180deg)">
  <!-- svg-source:excalidraw -->
  
  <defs>
    <style class="style-fonts">
      @font-face {
        font-family: "Virgil";
        src: url("https://excalidraw.com/Virgil.woff2");
      }
      @font-face {
        font-family: "Cascadia";
        src: url("https://excalidraw.com/Cascadia.woff2");
      }
    </style>
    
  </defs>
  <rect x="0" y="0" width="435.85679775252936" height="382.7118225097656" fill="#ffffff"></rect><g transform="translate(110.84750366210938 10) rotate(0 82.03125 12)"><text x="0" y="0" font-family="Cascadia, Segoe UI Emoji" font-size="20px" fill="#1e1e1e" text-anchor="start" style="white-space: pre;" direction="ltr" dominant-baseline="text-before-edge">BasicPageGuard</text></g><g stroke-linecap="round" transform="translate(10 44.745758056640625) rotate(0 205.93223571777344 163.9830322265625)"><path d="M32 0 M32 0 C108.39 1.77, 183.76 1.19, 379.86 0 M32 0 C137.31 -1.77, 242.38 -1.1, 379.86 0 M379.86 0 C402.09 -0.35, 413.84 11.05, 411.86 32 M379.86 0 C401.23 0.6, 411.15 10.64, 411.86 32 M411.86 32 C410.8 103.25, 413.24 172.29, 411.86 295.97 M411.86 32 C409.63 116.29, 410.41 199.53, 411.86 295.97 M411.86 295.97 C412.73 317.76, 401.9 328.17, 379.86 327.97 M411.86 295.97 C413.73 315.85, 399.03 330.26, 379.86 327.97 M379.86 327.97 C305.69 328.83, 228.77 327.77, 32 327.97 M379.86 327.97 C308.94 328.44, 237.76 328.61, 32 327.97 M32 327.97 C11.91 327.41, 1.42 316.66, 0 295.97 M32 327.97 C9.54 329.45, -0.48 315.34, 0 295.97 M0 295.97 C1.46 206.28, 0.21 114.64, 0 32 M0 295.97 C0.58 241.57, 1.25 186.53, 0 32 M0 32 C0.18 8.78, 11.54 -0.53, 32 0 M0 32 C1.35 8.68, 8.98 -0.16, 32 0" stroke="#1e1e1e" stroke-width="1" fill="none"></path></g><g transform="translate(26.94921875 64.09490051269532) rotate(0 192.1875 57.60000000000001)"><text x="0" y="0" font-family="Cascadia, Segoe UI Emoji" font-size="16px" fill="#1e1e1e" text-anchor="start" style="white-space: pre;" direction="ltr" dominant-baseline="text-before-edge">BasicPageGuard(BufferPoolManager*,Page*);</text><text x="0" y="19.2" font-family="Cascadia, Segoe UI Emoji" font-size="16px" fill="#1e1e1e" text-anchor="start" style="white-space: pre;" direction="ltr" dominant-baseline="text-before-edge">auto PageId();</text><text x="0" y="38.4" font-family="Cascadia, Segoe UI Emoji" font-size="16px" fill="#1e1e1e" text-anchor="start" style="white-space: pre;" direction="ltr" dominant-baseline="text-before-edge">auto GetData();</text><text x="0" y="57.599999999999994" font-family="Cascadia, Segoe UI Emoji" font-size="16px" fill="#1e1e1e" text-anchor="start" style="white-space: pre;" direction="ltr" dominant-baseline="text-before-edge">auto As();</text><text x="0" y="76.8" font-family="Cascadia, Segoe UI Emoji" font-size="16px" fill="#1e1e1e" text-anchor="start" style="white-space: pre;" direction="ltr" dominant-baseline="text-before-edge">auto GetDataMut();</text><text x="0" y="96" font-family="Cascadia, Segoe UI Emoji" font-size="16px" fill="#1e1e1e" text-anchor="start" style="white-space: pre;" direction="ltr" dominant-baseline="text-before-edge">auto AsMut();</text></g><g stroke-linecap="round"><g transform="translate(10.847503662109375 239.66104125976562) rotate(0 207.1172764994204 1.966755356141391)"><path d="M-0.77 -0.73 C68.27 -0.21, 345.81 2.41, 415.01 3.22 M1.02 1.51 C69.9 2.2, 345.61 4.55, 414.38 4.66" stroke="#1e1e1e" stroke-width="1" fill="none"></path></g></g><mask></mask><g transform="translate(35.42376708984375 264.2373046875) rotate(0 178.125 38.400000000000006)"><text x="0" y="0" font-family="Cascadia, Segoe UI Emoji" font-size="16px" fill="#1e1e1e" text-anchor="start" style="white-space: pre;" direction="ltr" dominant-baseline="text-before-edge">BasicPageGuard(BasicPageGuard &amp;&amp;that);</text><text x="0" y="19.2" font-family="Cascadia, Segoe UI Emoji" font-size="16px" fill="#1e1e1e" text-anchor="start" style="white-space: pre;" direction="ltr" dominant-baseline="text-before-edge">void Drop();</text><text x="0" y="38.4" font-family="Cascadia, Segoe UI Emoji" font-size="16px" fill="#1e1e1e" text-anchor="start" style="white-space: pre;" direction="ltr" dominant-baseline="text-before-edge">auto operator=(BasicPageGuard &amp;&amp;that);</text><text x="0" y="57.599999999999994" font-family="Cascadia, Segoe UI Emoji" font-size="16px" fill="#1e1e1e" text-anchor="start" style="white-space: pre;" direction="ltr" dominant-baseline="text-before-edge">~BasicPageGuard();</text></g><g transform="translate(32.033966064453125 246.440673828125) rotate(0 23.4375 9.599999999999994)"><text x="0" y="0" font-family="Cascadia, Segoe UI Emoji" font-size="16px" fill="#f08c00" text-anchor="start" style="white-space: pre;" direction="ltr" dominant-baseline="text-before-edge">todo:</text></g><g transform="translate(26.949127197265625 181.18646240234375) rotate(0 112.5 28.80000000000001)"><text x="0" y="0" font-family="Cascadia, Segoe UI Emoji" font-size="16px" fill="#e03131" text-anchor="start" style="white-space: pre;" direction="ltr" dominant-baseline="text-before-edge">BufferPoolManager* bmp_;</text><text x="0" y="19.2" font-family="Cascadia, Segoe UI Emoji" font-size="16px" fill="#e03131" text-anchor="start" style="white-space: pre;" direction="ltr" dominant-baseline="text-before-edge">Page* page_;</text><text x="0" y="38.4" font-family="Cascadia, Segoe UI Emoji" font-size="16px" fill="#e03131" text-anchor="start" style="white-space: pre;" direction="ltr" dominant-baseline="text-before-edge">bool is_dirty_;</text></g></svg>