<svg version="1.1" xmlns="http://www.w3.org/2000/svg" viewBox="0 0 1975.4774983723955 1461.2781651814773" width="1975.4774983723955" height="1461.2781651814773" filter="invert(93%) hue-rotate(180deg)">
  <!-- svg-source:excalidraw -->
  
  <defs>
    <style class="style-fonts">
      @font-face {
        font-family: "Virgil";
        src: url("https://excalidraw.com/Virgil.woff2");
      }
      @font-face {
        font-family: "Cascadia";
        src: url("https://excalidraw.com/Cascadia.woff2");
      }
    </style>
    
  </defs>
  <rect x="0" y="0" width="1975.4774983723955" height="1461.2781651814773" fill="#ffffff"></rect><g stroke-linecap="round" transform="translate(474.615990956624 531.5579636891678) rotate(0 416.52539825439453 55.084739685058594)"><path d="M27.54 0 M27.54 0 C326.42 -0.9, 624.7 -0.72, 805.51 0 M27.54 0 C211.63 -3.09, 396.32 -2.87, 805.51 0 M805.51 0 C822.74 0.5, 833.04 9.56, 833.05 27.54 M805.51 0 C824.18 -1.44, 833.16 8.87, 833.05 27.54 M833.05 27.54 C834.06 40, 832.77 56.07, 833.05 82.63 M833.05 27.54 C831.94 49.74, 831.67 70.68, 833.05 82.63 M833.05 82.63 C833.88 102.41, 822.69 111.8, 805.51 110.17 M833.05 82.63 C831.72 101.99, 823.63 109.66, 805.51 110.17 M805.51 110.17 C612.05 106.81, 417.83 107.62, 27.54 110.17 M805.51 110.17 C625.9 111.02, 446.21 110.82, 27.54 110.17 M27.54 110.17 C8.74 108.69, 1.41 99.28, 0 82.63 M27.54 110.17 C10.91 111.59, -1.88 102.08, 0 82.63 M0 82.63 C1.55 63.93, -1.3 47.76, 0 27.54 M0 82.63 C0.41 64.57, 0.79 48.07, 0 27.54 M0 27.54 C-0.81 10.84, 9.67 -0.07, 27.54 0 M0 27.54 C2.25 7.74, 7.9 2, 27.54 0" stroke="#1e1e1e" stroke-width="1" fill="none"></path></g><g stroke-linecap="round" transform="translate(1223.7685330708819 543.4223740895584) rotate(0 36.864410400390625 43.644065856933594)"><path d="M18.43 0 M18.43 0 C29.94 -0.26, 42.29 0.89, 55.3 0 M18.43 0 C25.63 -0.38, 33.59 0.64, 55.3 0 M55.3 0 C68.22 1.4, 75.57 4.3, 73.73 18.43 M55.3 0 C66.86 -2.14, 74.75 7.86, 73.73 18.43 M73.73 18.43 C73.79 32.62, 73.45 45.18, 73.73 68.86 M73.73 18.43 C73.49 32.1, 73.62 48.14, 73.73 68.86 M73.73 68.86 C73.22 80.08, 67.27 86.24, 55.3 87.29 M73.73 68.86 C71.45 79.12, 66.18 88.57, 55.3 87.29 M55.3 87.29 C46.74 86.77, 36.43 88.43, 18.43 87.29 M55.3 87.29 C47.13 87.03, 37.3 87.76, 18.43 87.29 M18.43 87.29 C4.55 88.25, 1.73 80.28, 0 68.86 M18.43 87.29 C8.1 85.98, 0.44 82.85, 0 68.86 M0 68.86 C0.3 54.66, 1.59 37.32, 0 18.43 M0 68.86 C0.67 54.28, 0.24 37.98, 0 18.43 M0 18.43 C-0.28 4.22, 6.18 1.89, 18.43 0 M0 18.43 C0.68 7.73, 4.27 -0.23, 18.43 0" stroke="#1e1e1e" stroke-width="1" fill="none"></path></g><g transform="translate(1254.7735684712725 575.066439946492) rotate(0 5.859375 12)"><text x="5.859375" y="0" font-family="Cascadia, Segoe UI Emoji" font-size="20px" fill="#1e1e1e" text-anchor="middle" style="white-space: pre;" direction="ltr" dominant-baseline="text-before-edge">0</text></g><g stroke-linecap="round" transform="translate(1140.4803555806475 545.6257356007889) rotate(0 36.864410400390625 43.644065856933594)"><path d="M18.43 0 M18.43 0 C27.77 0.09, 42.86 0.64, 55.3 0 M18.43 0 C32.97 0.69, 46.32 -0.58, 55.3 0 M55.3 0 C66.47 1.73, 72.06 6.36, 73.73 18.43 M55.3 0 C67.29 0.73, 75.26 8.02, 73.73 18.43 M73.73 18.43 C73.78 36.15, 73.17 57.67, 73.73 68.86 M73.73 18.43 C74.32 30.74, 73.37 41.66, 73.73 68.86 M73.73 68.86 C73.74 79.92, 65.97 88.07, 55.3 87.29 M73.73 68.86 C72.05 81.66, 66.38 86.1, 55.3 87.29 M55.3 87.29 C40 85.51, 26.9 85.19, 18.43 87.29 M55.3 87.29 C45.82 87.29, 36.13 87.17, 18.43 87.29 M18.43 87.29 C7.35 88.58, 0.13 81.94, 0 68.86 M18.43 87.29 C7.57 85.01, 0.46 82.97, 0 68.86 M0 68.86 C0.64 51.84, 0.13 34.41, 0 18.43 M0 68.86 C0.18 50.77, -0.62 30.9, 0 18.43 M0 18.43 C-1.55 4.55, 6.07 1.31, 18.43 0 M0 18.43 C1.09 6.12, 6.04 -0.77, 18.43 0" stroke="#1e1e1e" stroke-width="1" fill="none"></path></g><g stroke-linecap="round" transform="translate(1059.378671010335 545.7105134328201) rotate(0 36.864410400390625 43.644065856933594)"><path d="M18.43 0 M18.43 0 C34.01 0.92, 45.11 0.31, 55.3 0 M18.43 0 C30.39 -0.08, 44.49 -1.02, 55.3 0 M55.3 0 C67.68 0.01, 72.51 4.53, 73.73 18.43 M55.3 0 C68.49 -1.68, 74.24 4.94, 73.73 18.43 M73.73 18.43 C73.13 29.97, 72.59 43.7, 73.73 68.86 M73.73 18.43 C72.71 29.24, 73.9 39.83, 73.73 68.86 M73.73 68.86 C74.14 82.35, 68.88 87.42, 55.3 87.29 M73.73 68.86 C74.64 82.57, 65.3 87.75, 55.3 87.29 M55.3 87.29 C43.08 88.58, 26.82 88.08, 18.43 87.29 M55.3 87.29 C47.87 87.19, 39.08 86.39, 18.43 87.29 M18.43 87.29 C4.64 85.74, -1.59 81.07, 0 68.86 M18.43 87.29 C7.65 88.38, -0.02 81.04, 0 68.86 M0 68.86 C-0.93 55.06, 1.12 43.92, 0 18.43 M0 68.86 C-0.02 51.28, 1.04 36.3, 0 18.43 M0 18.43 C0.09 6.51, 6.19 -1.13, 18.43 0 M0 18.43 C-2.2 5.72, 7.92 0.79, 18.43 0" stroke="#1e1e1e" stroke-width="1" fill="none"></path></g><g stroke-linecap="round" transform="translate(978.5142300923662 543.1681245168045) rotate(0 36.864410400390625 43.644065856933594)"><path d="M18.43 0 M18.43 0 C25.53 -1.62, 35.86 -1.46, 55.3 0 M18.43 0 C31.2 0.34, 41.68 -0.3, 55.3 0 M55.3 0 C66 0.24, 71.82 5.55, 73.73 18.43 M55.3 0 C67.74 -2, 74.86 6.88, 73.73 18.43 M73.73 18.43 C75.13 37.55, 74.63 57.65, 73.73 68.86 M73.73 18.43 C74.1 29.3, 74.71 39.19, 73.73 68.86 M73.73 68.86 C73.2 81.66, 66.13 88.67, 55.3 87.29 M73.73 68.86 C72.99 83.31, 67.62 88.48, 55.3 87.29 M55.3 87.29 C45.51 86.92, 40.21 87.95, 18.43 87.29 M55.3 87.29 C45.09 87.31, 33 86.99, 18.43 87.29 M18.43 87.29 C7.67 89.25, 0.63 80.54, 0 68.86 M18.43 87.29 C6.84 86.88, -1.95 83.19, 0 68.86 M0 68.86 C0.03 48.14, -1.93 29.32, 0 18.43 M0 68.86 C0.76 49.66, -0.71 29.92, 0 18.43 M0 18.43 C1.74 7.98, 6.42 -1.71, 18.43 0 M0 18.43 C-1.28 7.97, 4.2 -0.33, 18.43 0" stroke="#1e1e1e" stroke-width="1" fill="none"></path></g><g stroke-linecap="round" transform="translate(897.7515347798662 543.2528565724685) rotate(0 36.864410400390625 43.644065856933594)"><path d="M18.43 0 M18.43 0 C30.38 0.55, 43.3 -2.22, 55.3 0 M18.43 0 C30.99 0.78, 42.55 -0.36, 55.3 0 M55.3 0 C68.1 -1.46, 75.11 5.51, 73.73 18.43 M55.3 0 C69.75 0.03, 74.92 4.36, 73.73 18.43 M73.73 18.43 C73.26 31.07, 74.29 41.08, 73.73 68.86 M73.73 18.43 C73.71 33.08, 73.39 49.01, 73.73 68.86 M73.73 68.86 C75.69 81.78, 66.98 87.89, 55.3 87.29 M73.73 68.86 C73.32 79.19, 69.63 89.32, 55.3 87.29 M55.3 87.29 C42.93 85.39, 32.47 88.84, 18.43 87.29 M55.3 87.29 C42.81 87.1, 29.78 88.5, 18.43 87.29 M18.43 87.29 C7.98 87.57, -1.71 80.03, 0 68.86 M18.43 87.29 C7.97 85.35, -0.33 83.29, 0 68.86 M0 68.86 C-0.2 55.71, 1.11 45.25, 0 18.43 M0 68.86 C-0.35 53.76, -0.66 37.14, 0 18.43 M0 18.43 C-1.91 6.4, 7.61 0.23, 18.43 0 M0 18.43 C-2.09 8.09, 3.86 0.43, 18.43 0" stroke="#1e1e1e" stroke-width="1" fill="none"></path></g><g stroke-linecap="round" transform="translate(817.1582730611162 542.4053834279373) rotate(0 36.864410400390625 43.644065856933594)"><path d="M18.43 0 M18.43 0 C28.04 -1.27, 39.07 0.21, 55.3 0 M18.43 0 C31.86 -0.33, 46.19 0.15, 55.3 0 M55.3 0 C67.07 -0.35, 75.26 8.1, 73.73 18.43 M55.3 0 C68.31 -0.69, 74.42 5.74, 73.73 18.43 M73.73 18.43 C74.27 29.64, 74.23 38.98, 73.73 68.86 M73.73 18.43 C73.98 29, 74.57 38.89, 73.73 68.86 M73.73 68.86 C72.66 79.38, 69.32 89.12, 55.3 87.29 M73.73 68.86 C74.05 79.18, 66.3 89.12, 55.3 87.29 M55.3 87.29 C45.86 89.2, 41 87.83, 18.43 87.29 M55.3 87.29 C47.67 87.34, 40.02 86.88, 18.43 87.29 M18.43 87.29 C7.69 86.19, 0.02 79.23, 0 68.86 M18.43 87.29 C6.44 88.97, 0.26 79.05, 0 68.86 M0 68.86 C-0.27 49.49, 0.99 28.68, 0 18.43 M0 68.86 C0.44 51.03, 0.84 35.74, 0 18.43 M0 18.43 C0.74 5.34, 6.57 1.98, 18.43 0 M0 18.43 C-0.45 5.57, 5.02 1.1, 18.43 0" stroke="#1e1e1e" stroke-width="1" fill="none"></path></g><g stroke-linecap="round" transform="translate(736.8701871236162 542.7104676564529) rotate(0 36.864410400390625 43.644065856933594)"><path d="M18.43 0 M18.43 0 C26.45 0.04, 34.33 -1.46, 55.3 0 M18.43 0 C26.31 -0.04, 34.44 -0.46, 55.3 0 M55.3 0 C66.52 -1.76, 75.46 7.98, 73.73 18.43 M55.3 0 C67.91 -1.96, 72.45 7.97, 73.73 18.43 M73.73 18.43 C72.16 30.86, 75.25 40.36, 73.73 68.86 M73.73 18.43 C74.25 29.28, 74.38 39.46, 73.73 68.86 M73.73 68.86 C75.27 80.04, 67.61 85.37, 55.3 87.29 M73.73 68.86 C74.03 82.83, 67.84 85.2, 55.3 87.29 M55.3 87.29 C40.34 87.39, 27.42 85.98, 18.43 87.29 M55.3 87.29 C42.97 86.17, 31.02 87.77, 18.43 87.29 M18.43 87.29 C6.88 86.49, 0.43 83.12, 0 68.86 M18.43 87.29 C5.69 86.71, -1.13 82.24, 0 68.86 M0 68.86 C0.87 55.81, 1.17 47.51, 0 18.43 M0 68.86 C-0.56 51.39, -0.16 33.32, 0 18.43 M0 18.43 C-0.69 6.91, 6.62 -1.29, 18.43 0 M0 18.43 C-1.19 4.76, 5.45 -0.99, 18.43 0" stroke="#1e1e1e" stroke-width="1" fill="none"></path></g><g stroke-linecap="round" transform="translate(652.0989774068194 542.5918534596756) rotate(0 36.864410400390625 43.644065856933594)"><path d="M18.43 0 M18.43 0 C24.66 -0.58, 36.13 -1.79, 55.3 0 M18.43 0 C31.48 0.72, 45.87 0.11, 55.3 0 M55.3 0 C68.01 0.54, 73.25 7.69, 73.73 18.43 M55.3 0 C66.32 0.03, 71.53 6.44, 73.73 18.43 M73.73 18.43 C75.48 35.26, 74.16 55.3, 73.73 68.86 M73.73 18.43 C74.2 32.84, 73.31 48.88, 73.73 68.86 M73.73 68.86 C71.89 82.01, 68.95 88.03, 55.3 87.29 M73.73 68.86 C72.81 81.63, 69.86 86.84, 55.3 87.29 M55.3 87.29 C43.74 86.25, 34.55 88.03, 18.43 87.29 M55.3 87.29 C47.56 87.19, 39.49 86.83, 18.43 87.29 M18.43 87.29 C7.19 86.55, 0.87 80.46, 0 68.86 M18.43 87.29 C7.03 87.84, -1.49 79.95, 0 68.86 M0 68.86 C1.12 56.48, -0.3 42.94, 0 18.43 M0 68.86 C0.6 48.61, -0.11 29.58, 0 18.43 M0 18.43 C1.4 4.94, 6.69 -1.19, 18.43 0 M0 18.43 C2.21 6.83, 6.21 2.28, 18.43 0" stroke="#1e1e1e" stroke-width="1" fill="none"></path></g><g stroke-linecap="round" transform="translate(567.97608311971 541.519809087117) rotate(0 36.864410400390625 43.644065856933594)"><path d="M18.43 0 M18.43 0 C31.41 -0.51, 45.29 -0.29, 55.3 0 M18.43 0 C32.03 1.04, 46.87 1.01, 55.3 0 M55.3 0 C67.35 -0.67, 72.75 6.72, 73.73 18.43 M55.3 0 C69.35 -1.89, 73.96 5.75, 73.73 18.43 M73.73 18.43 C73.35 30.45, 75.69 39.29, 73.73 68.86 M73.73 18.43 C73.5 32.06, 72.64 45.67, 73.73 68.86 M73.73 68.86 C74.95 79.26, 67 86.12, 55.3 87.29 M73.73 68.86 C74.01 82.59, 66.28 88.33, 55.3 87.29 M55.3 87.29 C45.57 86.51, 33.59 85.45, 18.43 87.29 M55.3 87.29 C41.49 87.24, 27.55 86.34, 18.43 87.29 M18.43 87.29 C6.97 86.23, 0.77 80.06, 0 68.86 M18.43 87.29 C7.67 87.41, 1.18 80.51, 0 68.86 M0 68.86 C0.77 56.22, 1.32 41.25, 0 18.43 M0 68.86 C0.46 51.62, -0.57 35.24, 0 18.43 M0 18.43 C1.63 7.01, 6.66 1.83, 18.43 0 M0 18.43 C1.07 5.55, 8.39 1.23, 18.43 0" stroke="#1e1e1e" stroke-width="1" fill="none"></path></g><g stroke-linecap="round" transform="translate(489.7346204121904 544.1044953664139) rotate(0 36.864410400390625 43.644065856933594)"><path d="M18.43 0 M18.43 0 C29.83 -1.19, 37.24 -1.6, 55.3 0 M18.43 0 C33.01 -0.69, 47.33 -0.07, 55.3 0 M55.3 0 C69.12 -1.64, 73.93 5.8, 73.73 18.43 M55.3 0 C65.54 1.82, 72.83 5.25, 73.73 18.43 M73.73 18.43 C73.48 36.55, 75.08 55.42, 73.73 68.86 M73.73 18.43 C73.85 33.23, 72.95 49.33, 73.73 68.86 M73.73 68.86 C73.97 82.4, 66.45 88.2, 55.3 87.29 M73.73 68.86 C73.88 78.9, 68.37 89.1, 55.3 87.29 M55.3 87.29 C47.67 85.24, 34.77 87.99, 18.43 87.29 M55.3 87.29 C43.65 86.53, 31.57 86.52, 18.43 87.29 M18.43 87.29 C7.47 87.4, 1.03 80.6, 0 68.86 M18.43 87.29 C5.57 88.73, -0.54 82.39, 0 68.86 M0 68.86 C0.2 51.96, -1.82 34.02, 0 18.43 M0 68.86 C0.94 56.92, 0.38 45.04, 0 18.43 M0 18.43 C0.93 5.63, 8.1 1.07, 18.43 0 M0 18.43 C-1.06 5.92, 4.28 -1.36, 18.43 0" stroke="#1e1e1e" stroke-width="1" fill="none"></path></g><g transform="translate(428.0396512349443 496.5621331532791) rotate(0 35.15625 12)"><text x="0" y="0" font-family="Cascadia, Segoe UI Emoji" font-size="20px" fill="#1e1e1e" text-anchor="start" style="white-space: pre;" direction="ltr" dominant-baseline="text-before-edge">pages_</text></g><g stroke-linecap="round"><g transform="translate(1225.7091763814287 474.31642087300565) rotate(0 14.66906080347951 43.869571008333004)"><path d="M1.12 -0.75 C5.86 13.74, 24.44 72.62, 29.1 87.29 M0.24 1.47 C4.81 16.08, 23.69 74.03, 28.41 88.49" stroke="#1e1e1e" stroke-width="1" fill="none"></path></g><g transform="translate(1225.7091763814287 474.31642087300565) rotate(0 14.66906080347951 43.869571008333004)"><path d="M8.67 65.69 C15.45 73.81, 21.96 82.7, 28.52 89.52 M9.69 65.41 C15.51 72.01, 20 77.94, 29.06 87.79" stroke="#1e1e1e" stroke-width="1" fill="none"></path></g><g transform="translate(1225.7091763814287 474.31642087300565) rotate(0 14.66906080347951 43.869571008333004)"><path d="M28.18 59.33 C28.09 69.88, 27.71 81.02, 28.52 89.52 M29.2 59.05 C29.69 67.51, 28.86 75.17, 29.06 87.79" stroke="#1e1e1e" stroke-width="1" fill="none"></path></g></g><mask></mask><g transform="translate(1170.7853787740069 577.3969224294021) rotate(0 5.859375 12)"><text x="0" y="0" font-family="Cascadia, Segoe UI Emoji" font-size="20px" fill="#1e1e1e" text-anchor="start" style="white-space: pre;" direction="ltr" dominant-baseline="text-before-edge">1</text></g><g transform="translate(1086.5311673482256 577.8545640309646) rotate(0 5.859375 12)"><text x="0" y="0" font-family="Cascadia, Segoe UI Emoji" font-size="20px" fill="#1e1e1e" text-anchor="start" style="white-space: pre;" direction="ltr" dominant-baseline="text-before-edge">2</text></g><g transform="translate(1006.9379666646319 576.0918229420975) rotate(0 5.859375 12)"><text x="0" y="0" font-family="Cascadia, Segoe UI Emoji" font-size="20px" fill="#1e1e1e" text-anchor="start" style="white-space: pre;" direction="ltr" dominant-baseline="text-before-edge">3</text></g><g transform="translate(932.4632962544756 579.4477799733475) rotate(0 5.859375 12)"><text x="0" y="0" font-family="Cascadia, Segoe UI Emoji" font-size="20px" fill="#1e1e1e" text-anchor="start" style="white-space: pre;" direction="ltr" dominant-baseline="text-before-edge">4</text></g><g transform="translate(847.98877843221 575.9901841481521) rotate(0 5.859375 12)"><text x="0" y="0" font-family="Cascadia, Segoe UI Emoji" font-size="20px" fill="#1e1e1e" text-anchor="start" style="white-space: pre;" direction="ltr" dominant-baseline="text-before-edge">5</text></g><g transform="translate(768.6159146626787 576.0749162038162) rotate(0 5.859375 12)"><text x="0" y="0" font-family="Cascadia, Segoe UI Emoji" font-size="20px" fill="#1e1e1e" text-anchor="start" style="white-space: pre;" direction="ltr" dominant-baseline="text-before-edge">6</text></g><g transform="translate(689.0904935201006 579.54946454366) rotate(0 5.859375 12)"><text x="0" y="0" font-family="Cascadia, Segoe UI Emoji" font-size="20px" fill="#1e1e1e" text-anchor="start" style="white-space: pre;" direction="ltr" dominant-baseline="text-before-edge">7</text></g><g transform="translate(597.6837247212725 579.8545487721756) rotate(0 5.859375 12)"><text x="0" y="0" font-family="Cascadia, Segoe UI Emoji" font-size="20px" fill="#1e1e1e" text-anchor="start" style="white-space: pre;" direction="ltr" dominant-baseline="text-before-edge">8</text></g><g transform="translate(521.141366322835 579.7358659108475) rotate(0 5.859375 12)"><text x="0" y="0" font-family="Cascadia, Segoe UI Emoji" font-size="20px" fill="#1e1e1e" text-anchor="start" style="white-space: pre;" direction="ltr" dominant-baseline="text-before-edge">9</text></g><g stroke-linecap="round" transform="translate(454.5524342854814 766.9329083760574) rotate(0 416.52539825439453 55.084739685058594)"><path d="M27.54 0 M27.54 0 C184.12 -1.78, 340.07 -1.76, 805.51 0 M27.54 0 C302.11 0, 576.15 0, 805.51 0 M805.51 0 C821.94 1.12, 833.4 8.74, 833.05 27.54 M805.51 0 C821.94 1.38, 831.36 10.01, 833.05 27.54 M833.05 27.54 C831.48 45.06, 833.04 66.08, 833.05 82.63 M833.05 27.54 C834.03 49.01, 832.8 69.83, 833.05 82.63 M833.05 82.63 C834.16 102.16, 821.88 111.11, 805.51 110.17 M833.05 82.63 C831.73 100.19, 824.11 109.9, 805.51 110.17 M805.51 110.17 C589.19 112.31, 371.99 112.12, 27.54 110.17 M805.51 110.17 C636.87 113.02, 468.04 112.91, 27.54 110.17 M27.54 110.17 C7.22 110.37, 0.32 100.48, 0 82.63 M27.54 110.17 C7.64 112.34, 0.86 101.61, 0 82.63 M0 82.63 C-0.42 69.88, -1.37 57.37, 0 27.54 M0 82.63 C0.53 69.01, -0.64 55.74, 0 27.54 M0 27.54 C0.22 8.26, 7.97 0.28, 27.54 0 M0 27.54 C1.98 8.97, 10.32 1.58, 27.54 0" stroke="#1e1e1e" stroke-width="1" fill="none"></path></g><g stroke-linecap="round" transform="translate(1203.7049763997393 778.797318776448) rotate(0 36.864410400390625 43.644065856933594)"><path d="M18.43 0 M18.43 0 C30.56 -1.03, 44.55 -0.96, 55.3 0 M18.43 0 C29.25 -0.57, 38.72 0.9, 55.3 0 M55.3 0 C67.94 -0.44, 72.05 7.34, 73.73 18.43 M55.3 0 C65.9 0.83, 74.96 5.82, 73.73 18.43 M73.73 18.43 C73.42 37.48, 75.2 59.27, 73.73 68.86 M73.73 18.43 C73.16 31.87, 74.51 47.75, 73.73 68.86 M73.73 68.86 C71.74 82.09, 66.44 86.6, 55.3 87.29 M73.73 68.86 C73.97 80.87, 67.08 86.49, 55.3 87.29 M55.3 87.29 C39.93 86.38, 26.1 85.69, 18.43 87.29 M55.3 87.29 C39.92 86.78, 25.28 87.33, 18.43 87.29 M18.43 87.29 C6.47 86.78, -1.34 83.03, 0 68.86 M18.43 87.29 C7 87.91, -1.62 81.99, 0 68.86 M0 68.86 C-1.11 57.2, -1.12 47.02, 0 18.43 M0 68.86 C-0.69 52.63, -0.38 36.58, 0 18.43 M0 18.43 C-1.21 6.43, 7.87 -0.19, 18.43 0 M0 18.43 C1.14 7.72, 6.42 -0.67, 18.43 0" stroke="#1e1e1e" stroke-width="1" fill="none"></path></g><g transform="translate(1234.71001180013 810.4413846333816) rotate(0 5.859375 12)"><text x="5.859375" y="0" font-family="Cascadia, Segoe UI Emoji" font-size="20px" fill="#1e1e1e" text-anchor="middle" style="white-space: pre;" direction="ltr" dominant-baseline="text-before-edge">0</text></g><g stroke-linecap="round" transform="translate(1120.416798909505 781.0006802876785) rotate(0 36.864410400390625 43.644065856933594)"><path d="M18.43 0 M18.43 0 C26.89 1.72, 33.98 0.61, 55.3 0 M18.43 0 C26.3 -0.43, 32.99 0.39, 55.3 0 M55.3 0 C66.12 0.72, 74.8 5.86, 73.73 18.43 M55.3 0 C69.55 -1.71, 71.49 6.22, 73.73 18.43 M73.73 18.43 C73.89 33.44, 73.91 45.13, 73.73 68.86 M73.73 18.43 C73.01 29.32, 73.44 38.92, 73.73 68.86 M73.73 68.86 C73.94 80.91, 67.15 86.6, 55.3 87.29 M73.73 68.86 C75.42 81.5, 67.19 85.45, 55.3 87.29 M55.3 87.29 C47.66 86.6, 35.94 85.29, 18.43 87.29 M55.3 87.29 C46.05 87.07, 35.82 88.27, 18.43 87.29 M18.43 87.29 C6.89 87.83, -1.41 81.88, 0 68.86 M18.43 87.29 C4.59 87.03, -0.11 79.8, 0 68.86 M0 68.86 C0.61 55.53, -0.36 37.91, 0 18.43 M0 68.86 C-0.66 55.45, 0.81 41.68, 0 18.43 M0 18.43 C0.99 7.52, 6.39 -0.59, 18.43 0 M0 18.43 C1.08 5.03, 6.71 -0.23, 18.43 0" stroke="#1e1e1e" stroke-width="1" fill="none"></path></g><g stroke-linecap="round" transform="translate(1039.3151143391924 781.0854581197098) rotate(0 36.864410400390625 43.644065856933594)"><path d="M18.43 0 M18.43 0 C25.42 0.11, 34.27 -2.2, 55.3 0 M18.43 0 C30.72 0.68, 43.95 0.44, 55.3 0 M55.3 0 C68.65 -0.29, 75.44 4.65, 73.73 18.43 M55.3 0 C65.34 0.07, 73.28 8.27, 73.73 18.43 M73.73 18.43 C73.37 36.93, 71.78 59.68, 73.73 68.86 M73.73 18.43 C72.65 36.16, 73.33 54.47, 73.73 68.86 M73.73 68.86 C73.29 80.45, 69.05 87.6, 55.3 87.29 M73.73 68.86 C73.33 79.3, 66.62 85.37, 55.3 87.29 M55.3 87.29 C46.74 85.5, 37.94 85.25, 18.43 87.29 M55.3 87.29 C43.2 88.14, 32.81 87.46, 18.43 87.29 M18.43 87.29 C4.74 88.03, -1.35 80.92, 0 68.86 M18.43 87.29 C6.04 85.95, 0.06 79.79, 0 68.86 M0 68.86 C-0.73 49.31, -0.71 30.79, 0 18.43 M0 68.86 C1.17 55.96, 0.8 43.94, 0 18.43 M0 18.43 C0.24 5.56, 7.09 -0.97, 18.43 0 M0 18.43 C0.57 5.91, 4.24 -0.34, 18.43 0" stroke="#1e1e1e" stroke-width="1" fill="none"></path></g><g stroke-linecap="round" transform="translate(958.4506734212237 778.5430692036941) rotate(0 36.864410400390625 43.644065856933594)"><path d="M18.43 0 M18.43 0 C30.42 -2, 47.19 0.28, 55.3 0 M18.43 0 C27.95 0.14, 39.47 -0.36, 55.3 0 M55.3 0 C69.3 -1.49, 71.78 6.21, 73.73 18.43 M55.3 0 C67.13 2.12, 75.98 5.8, 73.73 18.43 M73.73 18.43 C71.79 36.88, 74.83 51.11, 73.73 68.86 M73.73 18.43 C73.54 35.82, 73.22 53.09, 73.73 68.86 M73.73 68.86 C75.2 81.45, 67.24 85.69, 55.3 87.29 M73.73 68.86 C72.76 79.23, 65.82 89.45, 55.3 87.29 M55.3 87.29 C44.08 85.01, 34.86 87.29, 18.43 87.29 M55.3 87.29 C45.54 87.91, 34.34 88, 18.43 87.29 M18.43 87.29 C4.79 87.07, -0.09 79.98, 0 68.86 M18.43 87.29 C6.21 85.94, 1.83 81.5, 0 68.86 M0 68.86 C-0.46 49.05, -0.76 27.59, 0 18.43 M0 68.86 C0.06 53.7, -0.31 36.88, 0 18.43 M0 18.43 C0.94 5.17, 6.64 -0.2, 18.43 0 M0 18.43 C-1.91 5.8, 4 -1.2, 18.43 0" stroke="#1e1e1e" stroke-width="1" fill="none"></path></g><g stroke-linecap="round" transform="translate(877.6879781087237 778.6278012593582) rotate(0 36.864410400390625 43.644065856933594)"><path d="M18.43 0 M18.43 0 C31.32 0.71, 41.54 -1.32, 55.3 0 M18.43 0 C32.23 -0.28, 45.82 -0.88, 55.3 0 M55.3 0 C65.63 0.06, 73.33 7.99, 73.73 18.43 M55.3 0 C69.84 -0.35, 74.74 5.82, 73.73 18.43 M73.73 18.43 C74.43 27.6, 74.2 39.6, 73.73 68.86 M73.73 18.43 C73.56 31.47, 74.52 45.36, 73.73 68.86 M73.73 68.86 C73.38 79.54, 66.74 85.62, 55.3 87.29 M73.73 68.86 C71.96 83.3, 67.12 86.91, 55.3 87.29 M55.3 87.29 C47.61 87.25, 39.01 85.59, 18.43 87.29 M55.3 87.29 C40.06 87.76, 25.55 87.28, 18.43 87.29 M18.43 87.29 C6.05 86.12, 0.06 79.97, 0 68.86 M18.43 87.29 C7.98 87.64, 2.24 80.39, 0 68.86 M0 68.86 C-0.76 53.54, 0.44 42.36, 0 18.43 M0 68.86 C-0.13 53.9, 0.22 39.05, 0 18.43 M0 18.43 C0.49 5.94, 4.49 -0.3, 18.43 0 M0 18.43 C-2.15 4.94, 8.23 -0.11, 18.43 0" stroke="#1e1e1e" stroke-width="1" fill="none"></path></g><g stroke-linecap="round" transform="translate(797.0947163899737 777.780328114827) rotate(0 36.864410400390625 43.644065856933594)"><path d="M18.43 0 M18.43 0 C25.5 -1.74, 34.64 -1.53, 55.3 0 M18.43 0 C31.68 -0.69, 42.23 0.08, 55.3 0 M55.3 0 C67.19 1.85, 75.69 5.84, 73.73 18.43 M55.3 0 C68.59 -0.32, 71.92 4, 73.73 18.43 M73.73 18.43 C74.96 35.22, 73.33 54.51, 73.73 68.86 M73.73 18.43 C74.35 33.12, 73.45 46.7, 73.73 68.86 M73.73 68.86 C72.89 79.48, 66.05 89.16, 55.3 87.29 M73.73 68.86 C73.27 80.76, 65.61 86.26, 55.3 87.29 M55.3 87.29 C47.35 86.01, 42.3 88.09, 18.43 87.29 M55.3 87.29 C42.57 87.31, 31.15 86.84, 18.43 87.29 M18.43 87.29 C6.2 86.11, 1.59 81.45, 0 68.86 M18.43 87.29 C8.38 86.54, -0.46 80.42, 0 68.86 M0 68.86 C0.52 54.9, 0.05 38.49, 0 18.43 M0 68.86 C0.41 49.78, 0.19 31.58, 0 18.43 M0 18.43 C-1.66 5.84, 4.28 -1.05, 18.43 0 M0 18.43 C2.08 6.04, 5.86 -1.24, 18.43 0" stroke="#1e1e1e" stroke-width="1" fill="none"></path></g><g stroke-linecap="round" transform="translate(716.8066304524737 778.0854123433426) rotate(0 36.864410400390625 43.644065856933594)"><path d="M18.43 0 M18.43 0 C31.34 -1.16, 42.57 1.38, 55.3 0 M18.43 0 C27.99 0.31, 39.3 1.2, 55.3 0 M55.3 0 C69.54 -0.3, 74.6 5.86, 73.73 18.43 M55.3 0 C65.77 -2.15, 75.01 7.49, 73.73 18.43 M73.73 18.43 C73.28 28.74, 73.73 38.2, 73.73 68.86 M73.73 18.43 C73.93 31.01, 73.68 44.36, 73.73 68.86 M73.73 68.86 C72.19 83.02, 67.18 86.96, 55.3 87.29 M73.73 68.86 C71.75 80.11, 65.33 87.52, 55.3 87.29 M55.3 87.29 C45.53 87.79, 32.53 85.64, 18.43 87.29 M55.3 87.29 C42.83 86.66, 30.49 86.66, 18.43 87.29 M18.43 87.29 C7.74 87.6, 1.94 80.49, 0 68.86 M18.43 87.29 C5.68 86.57, 0.25 80.08, 0 68.86 M0 68.86 C-0.26 57.77, 1.3 44.94, 0 18.43 M0 68.86 C0.01 55.1, -1.07 41.4, 0 18.43 M0 18.43 C-1.87 5.1, 7.95 -0.09, 18.43 0 M0 18.43 C-0.28 4.9, 7.19 -2.04, 18.43 0" stroke="#1e1e1e" stroke-width="1" fill="none"></path></g><g stroke-linecap="round" transform="translate(632.0354207356768 777.9667981465652) rotate(0 36.864410400390625 43.644065856933594)"><path d="M18.43 0 M18.43 0 C27.13 1.34, 34.09 1.98, 55.3 0 M18.43 0 C26.55 0.91, 36.03 -0.16, 55.3 0 M55.3 0 C68.46 -0.28, 72.15 4.28, 73.73 18.43 M55.3 0 C68.87 1.35, 71.44 7.23, 73.73 18.43 M73.73 18.43 C73.32 30.23, 72.86 44.37, 73.73 68.86 M73.73 18.43 C73.22 33.5, 72.87 51.18, 73.73 68.86 M73.73 68.86 C73.33 80.81, 65.87 86.39, 55.3 87.29 M73.73 68.86 C71.47 81.38, 67.96 86.71, 55.3 87.29 M55.3 87.29 C47.25 86.02, 38.86 86.07, 18.43 87.29 M55.3 87.29 C44.67 86.49, 34.79 87.23, 18.43 87.29 M18.43 87.29 C8.09 86.63, -0.4 80.52, 0 68.86 M18.43 87.29 C6.4 86.23, -1.39 81.47, 0 68.86 M0 68.86 C1.42 49.62, -0.54 30.85, 0 18.43 M0 68.86 C-0.95 56.03, -1.06 42.98, 0 18.43 M0 18.43 C1.81 6.05, 5.9 -1.08, 18.43 0 M0 18.43 C1.05 4.1, 4.88 2.08, 18.43 0" stroke="#1e1e1e" stroke-width="1" fill="none"></path></g><g stroke-linecap="round" transform="translate(547.9125264485674 776.8947537740066) rotate(0 36.864410400390625 43.644065856933594)"><path d="M18.43 0 M18.43 0 C26.5 1.51, 33.65 -2.15, 55.3 0 M18.43 0 C30.59 -0.49, 41.23 -0.48, 55.3 0 M55.3 0 C66.01 -1.87, 74.84 7.31, 73.73 18.43 M55.3 0 C65.29 1.08, 72.41 5.35, 73.73 18.43 M73.73 18.43 C72.98 35.55, 73.98 49.39, 73.73 68.86 M73.73 18.43 C72.75 30.46, 73.32 40.44, 73.73 68.86 M73.73 68.86 C72.01 80.25, 65.62 87.49, 55.3 87.29 M73.73 68.86 C74.1 80.56, 66.04 89.46, 55.3 87.29 M55.3 87.29 C43.6 85.68, 30.21 86.93, 18.43 87.29 M55.3 87.29 C47.19 87.23, 38.45 86.74, 18.43 87.29 M18.43 87.29 C5.74 86.66, 0.22 80.22, 0 68.86 M18.43 87.29 C4.75 87.61, 1.98 80.93, 0 68.86 M0 68.86 C-0.93 52.18, -1.32 34.11, 0 18.43 M0 68.86 C-0.52 53.71, 1.32 39.57, 0 18.43 M0 18.43 C-0.24 5.06, 7.06 -1.78, 18.43 0 M0 18.43 C-1.27 8.23, 4.01 -0.81, 18.43 0" stroke="#1e1e1e" stroke-width="1" fill="none"></path></g><g stroke-linecap="round" transform="translate(469.6710637410478 779.4794400533035) rotate(0 36.864410400390625 43.644065856933594)"><path d="M18.43 0 M18.43 0 C29.97 -2.27, 44.55 -0.71, 55.3 0 M18.43 0 C33.33 -0.09, 46.57 -0.88, 55.3 0 M55.3 0 C68.7 1.17, 71.74 7.09, 73.73 18.43 M55.3 0 C66.27 -0.79, 73.97 5.87, 73.73 18.43 M73.73 18.43 C73.86 32.11, 71.95 45.65, 73.73 68.86 M73.73 18.43 C73.14 29.19, 72.48 39.83, 73.73 68.86 M73.73 68.86 C71.76 81.35, 67.91 86.78, 55.3 87.29 M73.73 68.86 C72.19 83.31, 68.44 87.91, 55.3 87.29 M55.3 87.29 C46.61 86.94, 37.19 87.1, 18.43 87.29 M55.3 87.29 C47.38 87.02, 37.31 87.03, 18.43 87.29 M18.43 87.29 C6.36 86.37, -1.21 81.43, 0 68.86 M18.43 87.29 C8.13 87.07, 1.14 82.72, 0 68.86 M0 68.86 C-0.83 53.61, -0.05 35.73, 0 18.43 M0 68.86 C1.38 54.44, 0.35 39.57, 0 18.43 M0 18.43 C0.91 4.37, 5.04 1.81, 18.43 0 M0 18.43 C-2.13 5.33, 6.18 2.06, 18.43 0" stroke="#1e1e1e" stroke-width="1" fill="none"></path></g><g transform="translate(407.9760945638017 721.3438542683914) rotate(0 100.3125 12)"><text x="0" y="0" font-family="Cascadia, Segoe UI Emoji" font-size="20px" fill="#1e1e1e" text-anchor="start" style="white-space: pre;" direction="ltr" dominant-baseline="text-before-edge">free_list_(初始化)</text></g><g mask="url(#mask-stncCpjuiDDHDj0xl8nRG)" stroke-linecap="round"><g transform="translate(1377.4226780592662 725.1559615020287) rotate(0 -71.28313788372941 30.403016751189995)"><path d="M-0.24 1.11 C-23.71 10.89, -118.26 49.12, -142 58.72 M-1.82 0.64 C-25.24 10.61, -118.78 50.28, -142.33 60.16" stroke="#1e1e1e" stroke-width="1" fill="none"></path></g><g transform="translate(1377.4226780592662 725.1559615020287) rotate(0 -71.28313788372941 30.403016751189995)"><path d="M-118.5 41.7 C-125.1 44.71, -129.53 46.39, -144.2 61.28 M-120.92 39.4 C-128.33 47.05, -136.53 54.14, -141.6 60.32" stroke="#1e1e1e" stroke-width="1" fill="none"></path></g><g transform="translate(1377.4226780592662 725.1559615020287) rotate(0 -71.28313788372941 30.403016751189995)"><path d="M-110.52 60.61 C-118.74 59.77, -124.78 57.63, -144.2 61.28 M-112.94 58.3 C-123.02 59.21, -134.08 59.53, -141.6 60.32" stroke="#1e1e1e" stroke-width="1" fill="none"></path></g></g><mask id="mask-stncCpjuiDDHDj0xl8nRG"><rect x="0" y="0" fill="#fff" width="1620.5980518379338" height="884.0557378133133"></rect><rect x="1268.3349911699324" y="745.005849657671" fill="#000" width="75" height="19.2" opacity="1"></rect></mask><g transform="translate(1268.3349911699324 745.005849657671) rotate(0 37.80454900560437 10.553128595547804)"><text x="37.5" y="0" font-family="Cascadia, Segoe UI Emoji" font-size="16px" fill="#1e1e1e" text-anchor="middle" style="white-space: pre;" direction="ltr" dominant-baseline="text-before-edge">frame_id</text></g><g transform="translate(1150.7218221028643 812.7718671162918) rotate(0 5.859375 12)"><text x="0" y="0" font-family="Cascadia, Segoe UI Emoji" font-size="20px" fill="#1e1e1e" text-anchor="start" style="white-space: pre;" direction="ltr" dominant-baseline="text-before-edge">1</text></g><g transform="translate(1066.467610677083 813.2295087178543) rotate(0 5.859375 12)"><text x="0" y="0" font-family="Cascadia, Segoe UI Emoji" font-size="20px" fill="#1e1e1e" text-anchor="start" style="white-space: pre;" direction="ltr" dominant-baseline="text-before-edge">2</text></g><g transform="translate(986.8744099934893 811.4667676289871) rotate(0 5.859375 12)"><text x="0" y="0" font-family="Cascadia, Segoe UI Emoji" font-size="20px" fill="#1e1e1e" text-anchor="start" style="white-space: pre;" direction="ltr" dominant-baseline="text-before-edge">3</text></g><g transform="translate(912.399739583333 814.8227246602371) rotate(0 5.859375 12)"><text x="0" y="0" font-family="Cascadia, Segoe UI Emoji" font-size="20px" fill="#1e1e1e" text-anchor="start" style="white-space: pre;" direction="ltr" dominant-baseline="text-before-edge">4</text></g><g transform="translate(827.9252217610674 811.3651288350418) rotate(0 5.859375 12)"><text x="0" y="0" font-family="Cascadia, Segoe UI Emoji" font-size="20px" fill="#1e1e1e" text-anchor="start" style="white-space: pre;" direction="ltr" dominant-baseline="text-before-edge">5</text></g><g transform="translate(748.5523579915362 811.4498608907058) rotate(0 5.859375 12)"><text x="0" y="0" font-family="Cascadia, Segoe UI Emoji" font-size="20px" fill="#1e1e1e" text-anchor="start" style="white-space: pre;" direction="ltr" dominant-baseline="text-before-edge">6</text></g><g transform="translate(669.026936848958 814.9244092305496) rotate(0 5.859375 12)"><text x="0" y="0" font-family="Cascadia, Segoe UI Emoji" font-size="20px" fill="#1e1e1e" text-anchor="start" style="white-space: pre;" direction="ltr" dominant-baseline="text-before-edge">7</text></g><g transform="translate(577.6201680501299 815.2294934590652) rotate(0 5.859375 12)"><text x="0" y="0" font-family="Cascadia, Segoe UI Emoji" font-size="20px" fill="#1e1e1e" text-anchor="start" style="white-space: pre;" direction="ltr" dominant-baseline="text-before-edge">8</text></g><g transform="translate(501.07780965169235 815.1108105977371) rotate(0 5.859375 12)"><text x="0" y="0" font-family="Cascadia, Segoe UI Emoji" font-size="20px" fill="#1e1e1e" text-anchor="start" style="white-space: pre;" direction="ltr" dominant-baseline="text-before-edge">9</text></g><g transform="translate(435.03545125325485 926.405328114827) rotate(0 114.453125 12)"><text x="0" y="0" font-family="Cascadia, Segoe UI Emoji" font-size="20px" fill="#1e1e1e" text-anchor="start" style="white-space: pre;" direction="ltr" dominant-baseline="text-before-edge">replacer_(初始化为空)</text></g><g transform="translate(356.0099232991533 984.3291753133133) rotate(0 294.765625 24)"><text x="0" y="0" font-family="Cascadia, Segoe UI Emoji" font-size="20px" fill="#1e1e1e" text-anchor="start" style="white-space: pre;" direction="ltr" dominant-baseline="text-before-edge">page_table_:</text><text x="0" y="24" font-family="Cascadia, Segoe UI Emoji" font-size="20px" fill="#1e1e1e" text-anchor="start" style="white-space: pre;" direction="ltr" dominant-baseline="text-before-edge">存储page_id与frame_id的映射，也是所有正在使用的frame_id</text></g><g stroke-linecap="round" transform="translate(530.3743871053057 1045.5578358968094) rotate(0 168.9618682861328 202.86016464233398)"><path d="M32 0 M32 0 C126.15 -0.24, 216.56 1.71, 305.92 0 M32 0 C126.06 1.8, 220.33 1.71, 305.92 0 M305.92 0 C328.87 -1.67, 336.77 11.94, 337.92 32 M305.92 0 C326.45 1.81, 336.09 12.37, 337.92 32 M337.92 32 C336.57 113.04, 337.26 194.47, 337.92 373.72 M337.92 32 C335.94 108.43, 336.32 184.21, 337.92 373.72 M337.92 373.72 C336.55 395.55, 326.78 406.58, 305.92 405.72 M337.92 373.72 C339.01 393.42, 329.43 404.03, 305.92 405.72 M305.92 405.72 C236.75 405.54, 165.87 404.04, 32 405.72 M305.92 405.72 C210.49 407.58, 113.07 407.45, 32 405.72 M32 405.72 C9.95 405.5, -1.67 394.81, 0 373.72 M32 405.72 C9.04 405.49, -0.65 395.67, 0 373.72 M0 373.72 C-1.09 260.03, -1.64 145.29, 0 32 M0 373.72 C0.64 263.38, 0.78 154.44, 0 32 M0 32 C-0.45 9.87, 10.87 0.73, 32 0 M0 32 C-0.35 10.79, 9.2 -1.3, 32 0" stroke="#1e1e1e" stroke-width="1" fill="none"></path></g><g stroke-linecap="round" transform="translate(545.2048619588213 1062.5070317586258) rotate(0 153.07201385498047 33.36862564086914)"><path d="M16.68 0 M16.68 0 C122.78 -2.59, 227.91 -1.41, 289.46 0 M16.68 0 C75.2 -2.42, 132.53 -2.09, 289.46 0 M289.46 0 C299.56 -1.66, 305.7 4.97, 306.14 16.68 M289.46 0 C298.98 -0.08, 306.76 5.38, 306.14 16.68 M306.14 16.68 C306.97 25.37, 307.36 33.56, 306.14 50.05 M306.14 16.68 C306.36 26.06, 306.14 33.12, 306.14 50.05 M306.14 50.05 C305.96 62.12, 300.36 66.49, 289.46 66.74 M306.14 50.05 C307.78 62.13, 301.09 66.35, 289.46 66.74 M289.46 66.74 C192.15 66.82, 92.31 66.01, 16.68 66.74 M289.46 66.74 C194.57 69.38, 100.16 67.91, 16.68 66.74 M16.68 66.74 C5.63 67.29, -0.49 61.27, 0 50.05 M16.68 66.74 C7.22 66.82, 2.24 61.62, 0 50.05 M0 50.05 C-0.81 39.47, -0.9 24.2, 0 16.68 M0 50.05 C-0.74 37.13, 0.04 24.28, 0 16.68 M0 16.68 C1.89 4.19, 5.83 -1.15, 16.68 0 M0 16.68 C-0.09 4.01, 3.76 -0.9, 16.68 0" stroke="#1e1e1e" stroke-width="1" fill="none"></path></g><g stroke-linecap="round" transform="translate(558.9761479695635 1076.2782414754226) rotate(0 63.02959442138672 21.186447143554688)"><path d="M10.59 0 M10.59 0 C46.02 2.31, 85.21 0.52, 115.47 0 M10.59 0 C40.3 0.07, 69.6 -0.39, 115.47 0 M115.47 0 C121.5 1.94, 124.47 4.73, 126.06 10.59 M115.47 0 C122.38 0.46, 126.87 4.67, 126.06 10.59 M126.06 10.59 C125 20.01, 127.84 28.59, 126.06 31.78 M126.06 10.59 C126.26 18.28, 125.53 24.97, 126.06 31.78 M126.06 31.78 C124.23 37.44, 120.61 41.47, 115.47 42.37 M126.06 31.78 C124.2 38.87, 121.46 43.52, 115.47 42.37 M115.47 42.37 C91.08 41.57, 63.6 43.81, 10.59 42.37 M115.47 42.37 C84.63 42.12, 52.91 41.88, 10.59 42.37 M10.59 42.37 C2.2 42.02, -0.62 37.95, 0 31.78 M10.59 42.37 C5.32 42.04, 1.1 38.96, 0 31.78 M0 31.78 C0.13 27.63, 1.75 19.31, 0 10.59 M0 31.78 C0.51 26.04, 0.85 20.19, 0 10.59 M0 10.59 C-1.12 4.16, 3.96 -0.65, 10.59 0 M0 10.59 C-0.44 5.55, 4.78 -1.8, 10.59 0" stroke="#1e1e1e" stroke-width="1" fill="none"></path></g><g transform="translate(580.9901173909502 1085.4646886189773) rotate(0 41.015625 12)"><text x="41.015625" y="0" font-family="Cascadia, Segoe UI Emoji" font-size="20px" fill="#1e1e1e" text-anchor="middle" style="white-space: pre;" direction="ltr" dominant-baseline="text-before-edge">page_id</text></g><g stroke-linecap="round" transform="translate(703.0439122517901 1079.4561894734695) rotate(0 67.79655456542969 18.008460998535156)"><path d="M9 0 M9 0 C49.53 0.02, 91.55 -1.45, 126.59 0 M9 0 C33.18 -0.62, 58.88 -0.2, 126.59 0 M126.59 0 C134.59 0.05, 134.52 1.78, 135.59 9 M126.59 0 C134.01 1.71, 136.53 5.22, 135.59 9 M135.59 9 C134.6 15.34, 134.34 20.5, 135.59 27.01 M135.59 9 C135.34 12.51, 135.57 17.21, 135.59 27.01 M135.59 27.01 C135.77 32.94, 130.65 37.64, 126.59 36.02 M135.59 27.01 C136.79 32.33, 133.45 33.76, 126.59 36.02 M126.59 36.02 C95.21 35.39, 69.5 38.01, 9 36.02 M126.59 36.02 C98 34.76, 67.77 34.78, 9 36.02 M9 36.02 C3.28 37.58, 0.05 32.68, 0 27.01 M9 36.02 C2.67 35.76, -0.25 31.39, 0 27.01 M0 27.01 C1.28 23.1, 0.63 17.52, 0 9 M0 27.01 C-0.45 19.99, -0.12 15.22, 0 9 M0 9 C0.07 1.59, 1.52 -1.04, 9 0 M0 9 C-1.02 1.55, 3.46 -0.67, 9 0" stroke="#1e1e1e" stroke-width="1" fill="none"></path></g><g transform="translate(723.9654668172197 1085.4646504720047) rotate(0 46.875 12)"><text x="46.875" y="0" font-family="Cascadia, Segoe UI Emoji" font-size="20px" fill="#1e1e1e" text-anchor="middle" style="white-space: pre;" direction="ltr" dominant-baseline="text-before-edge">frame_id</text></g><g stroke-linecap="round"><g transform="translate(396.8998463948564 1181.151135762532) rotate(0 86.3937061056029 -36.542354731960245)"><path d="M0.26 -0.66 C28.94 -12.75, 142.89 -60.71, 171.67 -73.11 M-1.07 1.61 C28.02 -10.75, 144.95 -62.05, 173.86 -74.69" stroke="#1e1e1e" stroke-width="1" fill="none"></path></g><g transform="translate(396.8998463948564 1181.151135762532) rotate(0 86.3937061056029 -36.542354731960245)"><path d="M151.05 -55.65 C159.66 -58.98, 162.09 -64.33, 174.14 -74.11 M151.56 -53.51 C157.74 -58.96, 160.82 -64.22, 173.68 -75.13" stroke="#1e1e1e" stroke-width="1" fill="none"></path></g><g transform="translate(396.8998463948564 1181.151135762532) rotate(0 86.3937061056029 -36.542354731960245)"><path d="M142.82 -74.45 C153.5 -72.87, 158.09 -73.29, 174.14 -74.11 M143.33 -72.31 C151.44 -73.58, 156.35 -74.65, 173.68 -75.13" stroke="#1e1e1e" stroke-width="1" fill="none"></path></g></g><mask></mask><g transform="translate(298.38288625081344 1194.9222691853836) rotate(0 82.03125 12)"><text x="0" y="0" font-family="Cascadia, Segoe UI Emoji" font-size="20px" fill="#1e1e1e" text-anchor="start" style="white-space: pre;" direction="ltr" dominant-baseline="text-before-edge">AllocatePage()</text></g><g stroke-linecap="round"><g transform="translate(1012.3659642537432 1014.032519658406) rotate(0 -87.70982233139222 37.391406579711486)"><path d="M0.77 0.23 C-28.32 12.98, -145.94 63.01, -175.08 75.48 M-0.29 -0.7 C-29.52 11.76, -147.15 60.68, -176.19 73.5" stroke="#1e1e1e" stroke-width="1" fill="none"></path></g><g transform="translate(1012.3659642537432 1014.032519658406) rotate(0 -87.70982233139222 37.391406579711486)"><path d="M-153.91 52.51 C-159.6 59.5, -165.91 65.01, -174.29 75.2 M-154.99 53.97 C-162.44 59.72, -169.64 68.63, -175.49 73.5" stroke="#1e1e1e" stroke-width="1" fill="none"></path></g><g transform="translate(1012.3659642537432 1014.032519658406) rotate(0 -87.70982233139222 37.391406579711486)"><path d="M-145.85 71.38 C-153.43 73.61, -161.8 74.31, -174.29 75.2 M-146.94 72.84 C-157.18 71.98, -167.23 74.22, -175.49 73.5" stroke="#1e1e1e" stroke-width="1" fill="none"></path></g></g><mask></mask><g transform="translate(1035.67086537679 964.2444070180252) rotate(0 195.46875 96)"><text x="0" y="0" font-family="Cascadia, Segoe UI Emoji" font-size="20px" fill="#1e1e1e" text-anchor="start" style="white-space: pre;" direction="ltr" dominant-baseline="text-before-edge">if NewPage:</text><text x="0" y="24" font-family="Cascadia, Segoe UI Emoji" font-size="20px" fill="#1e1e1e" text-anchor="start" style="white-space: pre;" direction="ltr" dominant-baseline="text-before-edge">1.free list</text><text x="0" y="48" font-family="Cascadia, Segoe UI Emoji" font-size="20px" fill="#1e1e1e" text-anchor="start" style="white-space: pre;" direction="ltr" dominant-baseline="text-before-edge">2.replacer_-&gt;Evict(&amp;frame_id)</text><text x="0" y="72" font-family="Cascadia, Segoe UI Emoji" font-size="20px" fill="#1e1e1e" text-anchor="start" style="white-space: pre;" direction="ltr" dominant-baseline="text-before-edge"></text><text x="0" y="96" font-family="Cascadia, Segoe UI Emoji" font-size="20px" fill="#1e1e1e" text-anchor="start" style="white-space: pre;" direction="ltr" dominant-baseline="text-before-edge">if FetchPage:</text><text x="0" y="120" font-family="Cascadia, Segoe UI Emoji" font-size="20px" fill="#1e1e1e" text-anchor="start" style="white-space: pre;" direction="ltr" dominant-baseline="text-before-edge">1.若已存在映射，返回pages_[frame_id]</text><text x="0" y="144" font-family="Cascadia, Segoe UI Emoji" font-size="20px" fill="#1e1e1e" text-anchor="start" style="white-space: pre;" direction="ltr" dominant-baseline="text-before-edge">2.free list</text><text x="0" y="168" font-family="Cascadia, Segoe UI Emoji" font-size="20px" fill="#1e1e1e" text-anchor="start" style="white-space: pre;" direction="ltr" dominant-baseline="text-before-edge">3.replacer_-&gt;Evict(&amp;frame_id)</text></g><g stroke-linecap="round" transform="translate(821.687939961751 247.67664273579862) rotate(0 290.7839584350586 106.46184921264648)"><path d="M32 0 M32 0 C215.44 -1.04, 398.43 -0.96, 549.57 0 M32 0 C208.52 1.83, 385.12 1.91, 549.57 0 M549.57 0 C571.26 -1.27, 582.14 11.02, 581.57 32 M549.57 0 C572.85 0.46, 580.23 12.52, 581.57 32 M581.57 32 C581.44 81.98, 581.37 134.47, 581.57 180.92 M581.57 32 C583.23 77.71, 583.17 121.93, 581.57 180.92 M581.57 180.92 C580.18 202.12, 570.85 212.87, 549.57 212.92 M581.57 180.92 C581.83 204.32, 569.73 212.81, 549.57 212.92 M549.57 212.92 C391.45 212.02, 232.7 212.67, 32 212.92 M549.57 212.92 C434.99 210.94, 320 211.27, 32 212.92 M32 212.92 C11.3 211.83, 1.65 200.53, 0 180.92 M32 212.92 C11.39 215.01, -1.85 203.32, 0 180.92 M0 180.92 C1.02 146.39, 1.56 110.29, 0 32 M0 180.92 C-0.65 130.77, -0.26 82.8, 0 32 M0 32 C0.57 10.94, 9.33 -0.42, 32 0 M0 32 C0.39 11.74, 11.32 2.04, 32 0" stroke="#1e1e1e" stroke-width="1" fill="none"></path></g><g transform="translate(1013.4251530965166 139.62576230366972) rotate(0 123.046875 24)"><text x="0" y="0" font-family="Cascadia, Segoe UI Emoji" font-size="20px" fill="#1e1e1e" text-anchor="start" style="white-space: pre;" direction="ltr" dominant-baseline="text-before-edge">内存page</text><text x="0" y="24" font-family="Cascadia, Segoe UI Emoji" font-size="20px" fill="#1e1e1e" text-anchor="start" style="white-space: pre;" direction="ltr" dominant-baseline="text-before-edge">Page* pages[frame_id]</text></g><g transform="translate(893.7217839558916 215.89693387349394) rotate(0 46.875 12)"><text x="0" y="0" font-family="Cascadia, Segoe UI Emoji" font-size="20px" fill="#1e1e1e" text-anchor="start" style="white-space: pre;" direction="ltr" dominant-baseline="text-before-edge">metadata</text></g><g transform="translate(1226.3491185506182 195.76979001363065) rotate(0 43.4375 24)"><text x="0" y="0" font-family="Cascadia, Segoe UI Emoji" font-size="20px" fill="#1e1e1e" text-anchor="start" style="white-space: pre;" direction="ltr" dominant-baseline="text-before-edge">硬盘page</text><text x="0" y="24" font-family="Cascadia, Segoe UI Emoji" font-size="20px" fill="#1e1e1e" text-anchor="start" style="white-space: pre;" direction="ltr" dominant-baseline="text-before-edge">data</text></g><g stroke-linecap="round" transform="translate(833.3405431111651 261.44781430562284) rotate(0 122.88135528564453 95.33897399902344)"><path d="M32 0 M32 0 C79.57 -0.12, 128.48 0.58, 213.76 0 M32 0 C92.02 2.57, 151.72 2.52, 213.76 0 M213.76 0 C235.44 0.53, 247.21 10.68, 245.76 32 M213.76 0 C234.99 2.24, 247.31 9.67, 245.76 32 M245.76 32 C247.86 75.77, 247.6 120.37, 245.76 158.68 M245.76 32 C246.43 82.06, 246.7 131.92, 245.76 158.68 M245.76 158.68 C247.28 180.32, 236.98 189.03, 213.76 190.68 M245.76 158.68 C243.84 181.95, 234.53 188.68, 213.76 190.68 M213.76 190.68 C173.1 191.57, 135.53 189.44, 32 190.68 M213.76 190.68 C163.55 189.38, 114.99 190.17, 32 190.68 M32 190.68 C10.72 192.07, 1.99 179.15, 0 158.68 M32 190.68 C11.3 192.1, 0.38 179.91, 0 158.68 M0 158.68 C1 114.89, 2.18 74.07, 0 32 M0 158.68 C-0.22 131.51, 0.97 103.24, 0 32 M0 32 C-0.81 12.47, 12.1 0.63, 32 0 M0 32 C0.39 10.04, 12.14 -0.11, 32 0" stroke="#1e1e1e" stroke-width="1" fill="none"></path></g><g stroke-linecap="round" transform="translate(849.2303593953447 273.10037930806425) rotate(0 109.11018371582031 17)"><path d="M8.5 0 M8.5 0 C86.13 -3.41, 161.87 -0.98, 209.72 0 M8.5 0 C55.03 -1.35, 100.57 -0.82, 209.72 0 M209.72 0 C213.8 -1.3, 218.73 2.52, 218.22 8.5 M209.72 0 C214.71 -1.62, 219.61 2.41, 218.22 8.5 M218.22 8.5 C217.43 13.81, 217.64 18.05, 218.22 25.5 M218.22 8.5 C217.72 14.86, 217.79 20.63, 218.22 25.5 M218.22 25.5 C219.1 31.07, 214.06 33.83, 209.72 34 M218.22 25.5 C216.56 33.18, 215.65 35.23, 209.72 34 M209.72 34 C157.59 34.08, 106.4 35.95, 8.5 34 M209.72 34 C153.95 32.43, 99.17 32.96, 8.5 34 M8.5 34 C1.77 32.85, 1.72 33.14, 0 25.5 M8.5 34 C2.33 32.15, -1.2 30.65, 0 25.5 M0 25.5 C1.67 18.9, 1.59 14.17, 0 8.5 M0 25.5 C0 21.08, -0.41 16.4, 0 8.5 M0 8.5 C0.64 2.77, 3.25 -1.93, 8.5 0 M0 8.5 C0.39 4.74, 1.43 -1.09, 8.5 0" stroke="#1e1e1e" stroke-width="1" fill="none"></path></g><g transform="translate(917.3249181111651 278.10037930806425) rotate(0 41.015625 12)"><text x="41.015625" y="0" font-family="Cascadia, Segoe UI Emoji" font-size="20px" fill="#1e1e1e" text-anchor="middle" style="white-space: pre;" direction="ltr" dominant-baseline="text-before-edge">page_id</text></g><g transform="translate(1248.5947545369463 491.3206322987869) rotate(0 46.875 12)"><text x="0" y="0" font-family="Cascadia, Segoe UI Emoji" font-size="20px" fill="#1e1e1e" text-anchor="start" style="white-space: pre;" direction="ltr" dominant-baseline="text-before-edge">frame_id</text></g><g stroke-linecap="round" transform="translate(850.2897008260088 315.47323544820097) rotate(0 109.63977813720703 17)"><path d="M8.5 0 M8.5 0 C57.09 2.5, 106.54 2.21, 210.78 0 M8.5 0 C59.56 -0.87, 112.01 0.45, 210.78 0 M210.78 0 C218.43 -0.2, 217.64 3.24, 219.28 8.5 M210.78 0 C216.01 -0.05, 220.96 1, 219.28 8.5 M219.28 8.5 C220.37 12.79, 218.47 16.4, 219.28 25.5 M219.28 8.5 C219.66 14.61, 219.37 21.79, 219.28 25.5 M219.28 25.5 C220.57 30.74, 217.37 33.1, 210.78 34 M219.28 25.5 C218.79 31.04, 214.57 35.51, 210.78 34 M210.78 34 C133.7 33.62, 58.76 33.2, 8.5 34 M210.78 34 C166.64 36.24, 121.63 34.6, 8.5 34 M8.5 34 C1.38 35.41, -1.32 29.69, 0 25.5 M8.5 34 C3.92 35.37, 1.13 32.42, 0 25.5 M0 25.5 C-0.93 20.8, -0.11 14.99, 0 8.5 M0 25.5 C0.13 20.69, -0.55 15.7, 0 8.5 M0 8.5 C-1.87 2.34, 3.32 -1.31, 8.5 0 M0 8.5 C1.65 2.06, 3.13 -2.02, 8.5 0" stroke="#1e1e1e" stroke-width="1" fill="none"></path></g><g transform="translate(907.1951039632158 320.47323544820097) rotate(0 52.734375 12)"><text x="52.734375" y="0" font-family="Cascadia, Segoe UI Emoji" font-size="20px" fill="#1e1e1e" text-anchor="middle" style="white-space: pre;" direction="ltr" dominant-baseline="text-before-edge">is_dirty_</text></g><g stroke-linecap="round" transform="translate(846.0524495442705 359.53257687886503) rotate(0 109.63977813720703 17)"><path d="M8.5 0 M8.5 0 C59.18 -0.51, 107.59 -1.27, 210.78 0 M8.5 0 C84.67 0.5, 160.61 1.15, 210.78 0 M210.78 0 C216.51 -0.58, 220.48 4.11, 219.28 8.5 M210.78 0 C215.19 0.26, 217.79 2.16, 219.28 8.5 M219.28 8.5 C218.05 13.46, 219.44 19.3, 219.28 25.5 M219.28 8.5 C218.94 13.84, 220.03 19.96, 219.28 25.5 M219.28 25.5 C221.16 32.31, 217.03 32.88, 210.78 34 M219.28 25.5 C219.22 32.44, 217.46 34.41, 210.78 34 M210.78 34 C136.97 31.93, 61.28 33.34, 8.5 34 M210.78 34 C165.12 34.65, 118.5 35.64, 8.5 34 M8.5 34 C2.51 34.01, 0.5 33.15, 0 25.5 M8.5 34 C4.02 33.77, -1.47 31.51, 0 25.5 M0 25.5 C-1.16 21.24, -0.24 17.74, 0 8.5 M0 25.5 C0.17 19.01, -0.49 12.33, 0 8.5 M0 8.5 C0.25 1.59, 1.07 1.15, 8.5 0 M0 8.5 C-1.92 3.22, 2.39 -1.92, 8.5 0" stroke="#1e1e1e" stroke-width="1" fill="none"></path></g><g transform="translate(897.0984776814776 364.53257687886503) rotate(0 58.59375 12)"><text x="58.59375" y="0" font-family="Cascadia, Segoe UI Emoji" font-size="20px" fill="#1e1e1e" text-anchor="middle" style="white-space: pre;" direction="ltr" dominant-baseline="text-before-edge">pin_count_</text></g><g stroke-linecap="round" transform="translate(1094.9930699666338 275.4732259114578) rotate(0 147.77542114257812 86.33476257324219)"><path d="M32 0 M32 0 C101.42 -0.69, 172.31 -0.33, 263.55 0 M32 0 C109.97 -0.04, 188.89 0.19, 263.55 0 M263.55 0 C286.78 0.85, 295.82 11.38, 295.55 32 M263.55 0 C286.11 -1.84, 294.9 9.38, 295.55 32 M295.55 32 C293.59 64.39, 296.1 94.63, 295.55 140.67 M295.55 32 C295.82 70.02, 295 108.51, 295.55 140.67 M295.55 140.67 C297.13 161.26, 285.14 173.04, 263.55 172.67 M295.55 140.67 C295.65 160.52, 283.86 173.28, 263.55 172.67 M263.55 172.67 C202.08 171.89, 140.67 171.83, 32 172.67 M263.55 172.67 C214.78 172.4, 166.43 171.73, 32 172.67 M32 172.67 C12.32 174.62, 0.11 162.48, 0 140.67 M32 172.67 C9.4 171.78, -0.17 160.67, 0 140.67 M0 140.67 C0.76 110.65, 2.08 81.91, 0 32 M0 140.67 C-0.07 109.22, -1 78.93, 0 32 M0 32 C-1.44 12.44, 12.24 -0.76, 32 0 M0 32 C-2.06 10.53, 9.48 -0.14, 32 0" stroke="#1e1e1e" stroke-width="1" fill="none"></path></g><g stroke-linecap="round"><g transform="translate(704.1032536824541 329.4986470540359) rotate(0 72.02749793584925 -0.06459051686174888)"><path d="M0.54 -0.21 C24.61 -0.34, 120.95 -0.4, 144.69 -0.2 M-0.64 -1.36 C23.31 -1.36, 119.75 1.14, 144.07 1.23" stroke="#1e1e1e" stroke-width="1" fill="none"></path></g><g transform="translate(704.1032536824541 329.4986470540359) rotate(0 72.02749793584925 -0.06459051686174888)"><path d="M115.38 12.08 C124.47 5.96, 135.59 4.94, 142.21 3.17 M116.26 10.75 C123.29 8.17, 132.23 4.99, 143.74 2.16" stroke="#1e1e1e" stroke-width="1" fill="none"></path></g><g transform="translate(704.1032536824541 329.4986470540359) rotate(0 72.02749793584925 -0.06459051686174888)"><path d="M115.71 -8.44 C124.8 -7.95, 135.81 -2.36, 142.21 3.17 M116.59 -9.76 C123.5 -6.5, 132.35 -3.83, 143.74 2.16" stroke="#1e1e1e" stroke-width="1" fill="none"></path></g></g><mask></mask><g transform="translate(305.7980855305986 285.0071080525711) rotate(0 189.921875 36)"><text x="0" y="0" font-family="Cascadia, Segoe UI Emoji" font-size="20px" fill="#1e1e1e" text-anchor="start" style="white-space: pre;" direction="ltr" dominant-baseline="text-before-edge">is_dirty_:</text><text x="0" y="24" font-family="Cascadia, Segoe UI Emoji" font-size="20px" fill="#1e1e1e" text-anchor="start" style="white-space: pre;" direction="ltr" dominant-baseline="text-before-edge">if true,说明被修改过，需要调用</text><text x="0" y="48" font-family="Cascadia, Segoe UI Emoji" font-size="20px" fill="#1e1e1e" text-anchor="start" style="white-space: pre;" direction="ltr" dominant-baseline="text-before-edge">disk_manager_-&gt;WritePage(...)刷盘</text></g><g stroke-linecap="round" transform="translate(847.5564702351885 406.60877354939726) rotate(0 109.63977813720703 17)"><path d="M8.5 0 M8.5 0 C79.31 -0.27, 152.98 0.48, 210.78 0 M8.5 0 C61.57 0.94, 116.41 0.78, 210.78 0 M210.78 0 C217.89 -1.47, 220.45 3.65, 219.28 8.5 M210.78 0 C215.09 0.02, 219.54 3.07, 219.28 8.5 M219.28 8.5 C220.85 15.14, 218.85 23.03, 219.28 25.5 M219.28 8.5 C220 12.07, 220.03 16.17, 219.28 25.5 M219.28 25.5 C219.5 31.02, 214.82 33.23, 210.78 34 M219.28 25.5 C217.62 30.53, 217.19 34.86, 210.78 34 M210.78 34 C130.39 33.51, 53.1 33.24, 8.5 34 M210.78 34 C132.07 32.72, 51.98 33.18, 8.5 34 M8.5 34 C2.14 33.46, -1.37 31.26, 0 25.5 M8.5 34 C1.63 34.84, -1.07 29.87, 0 25.5 M0 25.5 C1.14 18.62, -1.31 11.2, 0 8.5 M0 25.5 C0.46 21.75, 0.02 17.4, 0 8.5 M0 8.5 C-1.94 4.52, 3.61 1, 8.5 0 M0 8.5 C-0.08 1.74, 0.65 -0.29, 8.5 0" stroke="#1e1e1e" stroke-width="1" fill="none"></path></g><g transform="translate(910.3212483723955 411.60877354939726) rotate(0 46.875 12)"><text x="46.875" y="0" font-family="Cascadia, Segoe UI Emoji" font-size="20px" fill="#1e1e1e" text-anchor="middle" style="white-space: pre;" direction="ltr" dominant-baseline="text-before-edge">rwlatch_</text></g><g transform="translate(1402.1962483723955 657.8883870442703) rotate(0 281.640625 72)"><text x="0" y="0" font-family="Cascadia, Segoe UI Emoji" font-size="20px" fill="#1e1e1e" text-anchor="start" style="white-space: pre;" direction="ltr" dominant-baseline="text-before-edge">free_list_存储随时可以调用的frame_id</text><text x="0" y="24" font-family="Cascadia, Segoe UI Emoji" font-size="20px" fill="#1e1e1e" text-anchor="start" style="white-space: pre;" direction="ltr" dominant-baseline="text-before-edge">一旦使用将会移动到replacer_中管理</text><text x="0" y="48" font-family="Cascadia, Segoe UI Emoji" font-size="20px" fill="#1e1e1e" text-anchor="start" style="white-space: pre;" direction="ltr" dominant-baseline="text-before-edge">但只有replacer_-&gt;SerEvictable(..)设置为true</text><text x="0" y="72" font-family="Cascadia, Segoe UI Emoji" font-size="20px" fill="#1e1e1e" text-anchor="start" style="white-space: pre;" direction="ltr" dominant-baseline="text-before-edge">才可以淘汰（供调用New或Fetch）</text><text x="0" y="96" font-family="Cascadia, Segoe UI Emoji" font-size="20px" fill="#1e1e1e" text-anchor="start" style="white-space: pre;" direction="ltr" dominant-baseline="text-before-edge">在buffer pool manager中，pin_count_&gt;0等价于不可淘汰</text><text x="0" y="120" font-family="Cascadia, Segoe UI Emoji" font-size="20px" fill="#1e1e1e" text-anchor="start" style="white-space: pre;" direction="ltr" dominant-baseline="text-before-edge">只有调用DeletePage(..)才会加入free_list_</text></g><g stroke-linecap="round"><g transform="translate(747.2881825764975 106.045176188151) rotate(0 54.63343032027285 83.37785685317432)"><path d="M-0.55 0.43 C17.65 28.45, 91.4 139.29, 109.82 167.14 M1.36 -0.39 C19.44 27.35, 91.36 137.6, 109.42 165.27" stroke="#1e1e1e" stroke-width="1" fill="none"></path></g><g transform="translate(747.2881825764975 106.045176188151) rotate(0 54.63343032027285 83.37785685317432)"><path d="M86.14 149.04 C94.57 155.69, 103.72 159.66, 110.4 166.8 M85.78 147.14 C92.68 152.32, 97.29 157.55, 108.89 164.53" stroke="#1e1e1e" stroke-width="1" fill="none"></path></g><g transform="translate(747.2881825764975 106.045176188151) rotate(0 54.63343032027285 83.37785685317432)"><path d="M103.33 137.82 C105.58 148.36, 108.65 156.3, 110.4 166.8 M102.97 135.93 C105.49 144, 105.62 152.16, 108.89 164.53" stroke="#1e1e1e" stroke-width="1" fill="none"></path></g></g><mask></mask><g transform="translate(570.7345326741539 10) rotate(0 274.375 36)"><text x="0" y="0" font-family="Cascadia, Segoe UI Emoji" font-size="20px" fill="#1e1e1e" text-anchor="start" style="white-space: pre;" direction="ltr" dominant-baseline="text-before-edge">page_id:</text><text x="0" y="24" font-family="Cascadia, Segoe UI Emoji" font-size="20px" fill="#1e1e1e" text-anchor="start" style="white-space: pre;" direction="ltr" dominant-baseline="text-before-edge">标记硬盘page的id，刷盘时data与page_id一起存储</text><text x="0" y="48" font-family="Cascadia, Segoe UI Emoji" font-size="20px" fill="#1e1e1e" text-anchor="start" style="white-space: pre;" direction="ltr" dominant-baseline="text-before-edge">FetchPage时根据disk_manager_-&gt;ReadPage(..)读disk</text></g><g stroke-linecap="round"><g transform="translate(292.48588562011736 478.9265696207683) rotate(0 273.7927691393671 -47.865680053085086)"><path d="M0.32 0.79 C91.59 -15.41, 457.45 -80.44, 548.56 -96.52 M-0.97 0.15 C90.1 -15.93, 456.18 -78.9, 547.89 -95.23" stroke="#1e1e1e" stroke-width="1" fill="none"></path></g><g transform="translate(292.48588562011736 478.9265696207683) rotate(0 273.7927691393671 -47.865680053085086)"><path d="M523.19 -79.38 C530.91 -87.8, 542.23 -91.99, 546.31 -95.16 M522.28 -81.08 C526.95 -84.47, 532.78 -86.3, 547.84 -96.16" stroke="#1e1e1e" stroke-width="1" fill="none"></path></g><g transform="translate(292.48588562011736 478.9265696207683) rotate(0 273.7927691393671 -47.865680053085086)"><path d="M519.66 -99.6 C528.83 -100.34, 541.5 -96.84, 546.31 -95.16 M518.75 -101.29 C524.33 -100.29, 530.93 -97.68, 547.84 -96.16" stroke="#1e1e1e" stroke-width="1" fill="none"></path></g></g><mask></mask><g transform="translate(10 440.7908376057943) rotate(0 134.453125 48)"><text x="0" y="0" font-family="Cascadia, Segoe UI Emoji" font-size="20px" fill="#1e1e1e" text-anchor="start" style="white-space: pre;" direction="ltr" dominant-baseline="text-before-edge">pin_count_</text><text x="0" y="24" font-family="Cascadia, Segoe UI Emoji" font-size="20px" fill="#1e1e1e" text-anchor="start" style="white-space: pre;" direction="ltr" dominant-baseline="text-before-edge">&gt;0等价与replacer_不可淘汰</text><text x="0" y="48" font-family="Cascadia, Segoe UI Emoji" font-size="20px" fill="#1e1e1e" text-anchor="start" style="white-space: pre;" direction="ltr" dominant-baseline="text-before-edge">调用UnpinPage使其--，</text><text x="0" y="72" font-family="Cascadia, Segoe UI Emoji" font-size="20px" fill="#1e1e1e" text-anchor="start" style="white-space: pre;" direction="ltr" dominant-baseline="text-before-edge">==0可淘汰</text></g><g stroke-linecap="round"><g transform="translate(1514.870056152344 104.73436991373717) rotate(0 -97.92563852825197 83.17836019587239)"><path d="M-0.9 -0.79 C-33.43 26.78, -163.28 138.03, -196.04 165.78 M0.83 1.4 C-31.73 29.12, -164.05 139.57, -196.68 167.15" stroke="#1e1e1e" stroke-width="1" fill="none"></path></g><g transform="translate(1514.870056152344 104.73436991373717) rotate(0 -97.92563852825197 83.17836019587239)"><path d="M-183.01 142.12 C-185.57 145.59, -189.07 152.32, -196.51 165.55 M-182.58 141.79 C-185.36 147.19, -188.72 154.46, -196.02 167.25" stroke="#1e1e1e" stroke-width="1" fill="none"></path></g><g transform="translate(1514.870056152344 104.73436991373717) rotate(0 -97.92563852825197 83.17836019587239)"><path d="M-169.82 157.84 C-175.43 157.63, -181.94 160.76, -196.51 165.55 M-169.38 157.51 C-175.58 158.9, -182.23 162.25, -196.02 167.25" stroke="#1e1e1e" stroke-width="1" fill="none"></path></g></g><mask></mask><g transform="translate(1536.903991699219 50.497065226237225) rotate(0 208.203125 36)"><text x="0" y="0" font-family="Cascadia, Segoe UI Emoji" font-size="20px" fill="#1e1e1e" text-anchor="start" style="white-space: pre;" direction="ltr" dominant-baseline="text-before-edge">disk_manager_-&gt;WritePage(..)刷盘</text><text x="0" y="24" font-family="Cascadia, Segoe UI Emoji" font-size="20px" fill="#1e1e1e" text-anchor="start" style="white-space: pre;" direction="ltr" dominant-baseline="text-before-edge">disk_manager_-&gt;ReadPage(..)从盘中读取</text><text x="0" y="48" font-family="Cascadia, Segoe UI Emoji" font-size="20px" fill="#1e1e1e" text-anchor="start" style="white-space: pre;" direction="ltr" dominant-baseline="text-before-edge">ResetMemory()清空</text></g></svg>