<svg version="1.1" xmlns="http://www.w3.org/2000/svg" viewBox="0 0 1003.0508499145508 726.7796325683594" width="1003.0508499145508" height="726.7796325683594" filter="invert(93%) hue-rotate(180deg)">
  <!-- svg-source:excalidraw -->
  
  <defs>
    <style class="style-fonts">
      @font-face {
        font-family: "Virgil";
        src: url("https://excalidraw.com/Virgil.woff2");
      }
      @font-face {
        font-family: "Cascadia";
        src: url("https://excalidraw.com/Cascadia.woff2");
      }
    </style>
    
  </defs>
  <rect x="0" y="0" width="1003.0508499145508" height="726.7796325683594" fill="#ffffff"></rect><g stroke-linecap="round" transform="translate(404.9152603149414 10) rotate(0 47.88136291503906 22.881362915039062)"><path d="M11.44 0 M11.44 0 C33.81 1.93, 53.76 0.93, 84.32 0 M11.44 0 C39.08 0.97, 64.4 -0.11, 84.32 0 M84.32 0 C92.52 1.78, 97.72 2.78, 95.76 11.44 M84.32 0 C91.34 -0.76, 97.17 2.38, 95.76 11.44 M95.76 11.44 C96.51 21.66, 97.46 29, 95.76 34.32 M95.76 11.44 C94.94 16.95, 95.56 24.57, 95.76 34.32 M95.76 34.32 C95.86 42.47, 90.3 47.68, 84.32 45.76 M95.76 34.32 C94.19 40.79, 93.13 44.14, 84.32 45.76 M84.32 45.76 C58.07 45.06, 34.24 45.77, 11.44 45.76 M84.32 45.76 C59.11 45.84, 33.52 45.71, 11.44 45.76 M11.44 45.76 C2.93 46.44, -1.17 41.68, 0 34.32 M11.44 45.76 C3.76 45.55, -1.25 42.34, 0 34.32 M0 34.32 C-0.2 27.57, 1.03 17.89, 0 11.44 M0 34.32 C0.99 27.27, 0.55 20.11, 0 11.44 M0 11.44 C-0.2 3.65, 2.36 0.46, 11.44 0 M0 11.44 C-0.33 1.69, 4.31 -1.68, 11.44 0" stroke="#1e1e1e" stroke-width="1" fill="none"></path></g><g transform="translate(444.79662322998047 23.281362915039068) rotate(0 8 9.599999999999994)"><text x="8" y="0" font-family="Cascadia, Segoe UI Emoji" font-size="16px" fill="#1e1e1e" text-anchor="middle" style="white-space: pre;" direction="ltr" dominant-baseline="text-before-edge">锁</text></g><g stroke-linecap="round"><g transform="translate(450.67798614501953 64.23728942871094) rotate(0 0.3227479211986122 30.28478620827663)"><path d="M-0.81 -0.05 C-0.64 10.14, 1.27 51.48, 1.45 61.7 M0.97 -1.13 C0.99 8.67, 1.11 49.29, 0.82 59.93" stroke="#1e1e1e" stroke-width="1" fill="none"></path></g><g transform="translate(450.67798614501953 64.23728942871094) rotate(0 0.3227479211986122 30.28478620827663)"><path d="M-9.24 32.65 C-4.51 40.4, -1.82 49.22, 1.15 61.52 M-9.25 31.56 C-6.48 41.18, -2.59 49.39, 1.04 59.2" stroke="#1e1e1e" stroke-width="1" fill="none"></path></g><g transform="translate(450.67798614501953 64.23728942871094) rotate(0 0.3227479211986122 30.28478620827663)"><path d="M11.28 32.86 C9.05 40.4, 4.78 49.15, 1.15 61.52 M11.27 31.76 C7.25 41.43, 4.35 49.56, 1.04 59.2" stroke="#1e1e1e" stroke-width="1" fill="none"></path></g></g><mask></mask><g transform="translate(359.1525344848633 158.30511474609375) rotate(0 116.375 9.599999999999994)"><text x="0" y="0" font-family="Cascadia, Segoe UI Emoji" font-size="16px" fill="#1e1e1e" text-anchor="start" style="white-space: pre;" direction="ltr" dominant-baseline="text-before-edge">在page_table_找有无page_id</text></g><g stroke-linecap="round" transform="translate(344.74576568603516 132.03390502929688) rotate(0 129.23728942871094 38.135589599609375)"><path d="M19.07 0 M19.07 0 C83.02 0.63, 146.56 -0.14, 239.41 0 M19.07 0 C83.56 0.84, 147.87 0.68, 239.41 0 M239.41 0 C252.89 0.44, 258.05 7.77, 258.47 19.07 M239.41 0 C252.31 -0.79, 257.92 6.74, 258.47 19.07 M258.47 19.07 C256.24 34.98, 258.78 48.64, 258.47 57.2 M258.47 19.07 C259.41 28.43, 257.84 39.01, 258.47 57.2 M258.47 57.2 C256.78 69.36, 250.46 75.24, 239.41 76.27 M258.47 57.2 C260.6 71.32, 252.85 74.51, 239.41 76.27 M239.41 76.27 C189.02 76.78, 137.49 76.41, 19.07 76.27 M239.41 76.27 C155 77.5, 71.73 77.95, 19.07 76.27 M19.07 76.27 C8.19 75.95, -0.55 71.08, 0 57.2 M19.07 76.27 C5.58 74.37, 0.57 69.03, 0 57.2 M0 57.2 C-1.76 48.54, -1.15 35.17, 0 19.07 M0 57.2 C0.48 43.59, -0.03 29.68, 0 19.07 M0 19.07 C-1.71 4.9, 5.05 1.94, 19.07 0 M0 19.07 C1.61 5.31, 7.54 -0.74, 19.07 0" stroke="#1e1e1e" stroke-width="1" fill="none"></path></g><g stroke-linecap="round"><g transform="translate(611.694953918457 171.86441040039062) rotate(0 84.2840874828538 74.92909252808664)"><path d="M1.16 0.84 C21.84 1.92, 95.33 -20.43, 123.18 5.7 C151.03 31.84, 160.83 132.08, 168.26 157.63 M0.31 0.24 C20.86 1.04, 94.12 -22.47, 121.95 3.91 C149.77 30.28, 159.69 133.04, 167.29 158.51" stroke="#1e1e1e" stroke-width="1" fill="none"></path></g><g transform="translate(611.694953918457 171.86441040039062) rotate(0 84.2840874828538 74.92909252808664)"><path d="M153.13 131.95 C156.13 137.89, 157.22 142.87, 168.16 159.87 M150.93 133.5 C155.82 140.22, 161.61 148.57, 167.01 158.03" stroke="#1e1e1e" stroke-width="1" fill="none"></path></g><g transform="translate(611.694953918457 171.86441040039062) rotate(0 84.2840874828538 74.92909252808664)"><path d="M173.26 127.94 C171.65 134.99, 168.18 140.88, 168.16 159.87 M171.05 129.5 C170.12 137.36, 170.07 146.88, 167.01 158.03" stroke="#1e1e1e" stroke-width="1" fill="none"></path></g></g><mask></mask><g transform="translate(686.271125793457 126.10171508789062) rotate(0 24 9.599999999999994)"><text x="0" y="0" font-family="Cascadia, Segoe UI Emoji" font-size="16px" fill="#1e1e1e" text-anchor="start" style="white-space: pre;" direction="ltr" dominant-baseline="text-before-edge">找到了</text></g><g transform="translate(691.3559646606445 353.2203369140625) rotate(0 147 19.19999999999999)"><text x="0" y="0" font-family="Cascadia, Segoe UI Emoji" font-size="16px" fill="#1e1e1e" text-anchor="start" style="white-space: pre;" direction="ltr" dominant-baseline="text-before-edge">说明page_id在buffer pool</text><text x="0" y="19.2" font-family="Cascadia, Segoe UI Emoji" font-size="16px" fill="#1e1e1e" text-anchor="start" style="white-space: pre;" direction="ltr" dominant-baseline="text-before-edge">利用page_table_找到对应的page*返回</text></g><g stroke-linecap="round" transform="translate(669.3219680786133 340.5085144042969) rotate(0 161.86444091796875 33.474578857421875)"><path d="M16.74 0 M16.74 0 C114.01 0, 211.46 1.03, 306.99 0 M16.74 0 C78.71 0.8, 139.32 0.83, 306.99 0 M306.99 0 C317.22 1.47, 325.31 6.93, 323.73 16.74 M306.99 0 C319.81 -0.22, 323.88 5.18, 323.73 16.74 M323.73 16.74 C325.24 31.72, 323.62 43.78, 323.73 50.21 M323.73 16.74 C323.96 29.94, 322.91 41.85, 323.73 50.21 M323.73 50.21 C322.32 61.02, 318.35 66.4, 306.99 66.95 M323.73 50.21 C324.5 61.57, 319.97 68.61, 306.99 66.95 M306.99 66.95 C213.79 69.96, 120.33 69.14, 16.74 66.95 M306.99 66.95 C214.06 66.02, 121.18 65.75, 16.74 66.95 M16.74 66.95 C7.42 68.51, 1.84 63.25, 0 50.21 M16.74 66.95 C6.82 65.65, 1.85 59.84, 0 50.21 M0 50.21 C-1.42 41.55, -1.41 35.12, 0 16.74 M0 50.21 C-0.06 43.03, 0.68 36, 0 16.74 M0 16.74 C0.4 6.93, 3.77 0.05, 16.74 0 M0 16.74 C-1.6 3.9, 6.18 -1.12, 16.74 0" stroke="#1e1e1e" stroke-width="1" fill="none"></path></g><g stroke-linecap="round"><g transform="translate(426.9491653442383 215.93222045898438) rotate(0 -34.75451167747377 58.87265190294477)"><path d="M0.72 -0.51 C-10.85 19.15, -58.4 97.38, -70.23 117.09 M-0.37 1.83 C-11.48 21.72, -56.68 98.73, -67.9 118.26" stroke="#1e1e1e" stroke-width="1" fill="none"></path></g><g transform="translate(426.9491653442383 215.93222045898438) rotate(0 -34.75451167747377 58.87265190294477)"><path d="M-63.46 87.51 C-65.24 94.45, -65.41 100.84, -68.67 116.86 M-62.48 88.93 C-63.42 96.16, -65.56 104.66, -68.63 118.52" stroke="#1e1e1e" stroke-width="1" fill="none"></path></g><g transform="translate(426.9491653442383 215.93222045898438) rotate(0 -34.75451167747377 58.87265190294477)"><path d="M-45.72 97.82 C-51.57 102.46, -55.88 106.44, -68.67 116.86 M-44.74 99.24 C-50.67 103.67, -57.79 109.28, -68.63 118.52" stroke="#1e1e1e" stroke-width="1" fill="none"></path></g></g><mask></mask><g transform="translate(413.3898391723633 257.4576416015625) rotate(0 80 19.19999999999999)"><text x="0" y="0" font-family="Cascadia, Segoe UI Emoji" font-size="16px" fill="#1e1e1e" text-anchor="start" style="white-space: pre;" direction="ltr" dominant-baseline="text-before-edge">没找到</text><text x="0" y="19.2" font-family="Cascadia, Segoe UI Emoji" font-size="16px" fill="#1e1e1e" text-anchor="start" style="white-space: pre;" direction="ltr" dominant-baseline="text-before-edge">从磁盘上找（读上来）</text></g><g transform="translate(714.2373123168945 421.0169372558594) rotate(0 128.5 38.39999999999998)"><text x="0" y="0" font-family="Cascadia, Segoe UI Emoji" font-size="16px" fill="#1e1e1e" text-anchor="start" style="white-space: pre;" direction="ltr" dominant-baseline="text-before-edge">记录page的访问：</text><text x="0" y="19.2" font-family="Cascadia, Segoe UI Emoji" font-size="16px" fill="#1e1e1e" text-anchor="start" style="white-space: pre;" direction="ltr" dominant-baseline="text-before-edge">1.pin_count_++</text><text x="0" y="38.4" font-family="Cascadia, Segoe UI Emoji" font-size="16px" fill="#1e1e1e" text-anchor="start" style="white-space: pre;" direction="ltr" dominant-baseline="text-before-edge">2.replacer_记录frame访问</text><text x="0" y="57.599999999999994" font-family="Cascadia, Segoe UI Emoji" font-size="16px" fill="#1e1e1e" text-anchor="start" style="white-space: pre;" direction="ltr" dominant-baseline="text-before-edge">3.replacer+标记non_evictable</text></g><g transform="translate(276.94913482666016 357.4576110839844) rotate(0 58.1875 9.599999999999994)"><text x="0" y="0" font-family="Cascadia, Segoe UI Emoji" font-size="16px" fill="#1e1e1e" text-anchor="start" style="white-space: pre;" direction="ltr" dominant-baseline="text-before-edge">从free_list找</text></g><g stroke-linecap="round" transform="translate(259.1525344848633 340.50848388671875) rotate(0 78.81356811523438 25.847457885742188)"><path d="M12.92 0 M12.92 0 C59.57 -1.46, 104.52 1.78, 144.7 0 M12.92 0 C52.43 1.9, 90.98 1.43, 144.7 0 M144.7 0 C151.88 -1.24, 157.2 5.59, 157.63 12.92 M144.7 0 C153.3 -0.6, 158.03 4.68, 157.63 12.92 M157.63 12.92 C158.98 21.81, 156.17 33.4, 157.63 38.77 M157.63 12.92 C158.04 22.34, 157.91 33.91, 157.63 38.77 M157.63 38.77 C159.29 46.66, 154.54 51.34, 144.7 51.69 M157.63 38.77 C155.4 49.02, 154.85 51.57, 144.7 51.69 M144.7 51.69 C94.7 48.91, 44.57 51.95, 12.92 51.69 M144.7 51.69 C118.39 53.25, 90.77 52.42, 12.92 51.69 M12.92 51.69 C5.1 52.38, 1.64 48.68, 0 38.77 M12.92 51.69 C2.03 52.78, 0.05 48.48, 0 38.77 M0 38.77 C-0.58 29.74, 0.3 24.32, 0 12.92 M0 38.77 C0.17 31.6, 1.01 23.22, 0 12.92 M0 12.92 C0 2.7, 5.83 -1.59, 12.92 0 M0 12.92 C1.49 5.42, 2.91 -1.19, 12.92 0" stroke="#1e1e1e" stroke-width="1" fill="none"></path></g><g stroke-linecap="round"><g transform="translate(424.40677642822266 367.6271057128906) rotate(0 53.038543893398185 124.93894432150628)"><path d="M-0.07 0.37 C17.41 0.59, 90.46 -42.97, 104.2 1.91 C117.95 46.79, 86.27 225.37, 82.39 269.66 M-1.56 -0.47 C15.82 -0.63, 89.28 -44.37, 103.24 0.35 C117.19 45.07, 85.88 223.2, 82.17 267.85" stroke="#1e1e1e" stroke-width="1" fill="none"></path></g><g transform="translate(424.40677642822266 367.6271057128906) rotate(0 53.038543893398185 124.93894432150628)"><path d="M76.19 238.53 C79.1 247.43, 80.63 252.18, 80.5 268.84 M75.01 237.75 C78.69 249.26, 81.24 260.86, 82.44 268.48" stroke="#1e1e1e" stroke-width="1" fill="none"></path></g><g transform="translate(424.40677642822266 367.6271057128906) rotate(0 53.038543893398185 124.93894432150628)"><path d="M96.55 241.13 C94.5 249.39, 91.07 253.5, 80.5 268.84 M95.36 240.35 C91.16 251.01, 85.81 261.6, 82.44 268.48" stroke="#1e1e1e" stroke-width="1" fill="none"></path></g></g><mask></mask><g transform="translate(416.6270217895508 580.9424499511719) rotate(0 61.5 9.600000000000023)"><text x="0" y="0" font-family="Cascadia, Segoe UI Emoji" font-size="16px" fill="#1e1e1e" text-anchor="start" style="white-space: pre;" direction="ltr" dominant-baseline="text-before-edge">找到了frame_id</text></g><g stroke-linecap="round"><g transform="translate(321.86441802978516 403.2203369140625) rotate(0 2.7103648214740588 30.78763494641521)"><path d="M-0.17 0.25 C1.11 10.62, 5.73 51.01, 7.13 61.1 M-1.71 -0.66 C-0.59 9.94, 4.34 51.86, 5.93 62.24" stroke="#1e1e1e" stroke-width="1" fill="none"></path></g><g transform="translate(321.86441802978516 403.2203369140625) rotate(0 2.7103648214740588 30.78763494641521)"><path d="M-7.53 34.81 C-5.9 43.52, -2.8 51.05, 6.07 64.22 M-7.17 35.95 C-5.03 44.22, -0.37 51.63, 6.59 62.77" stroke="#1e1e1e" stroke-width="1" fill="none"></path></g><g transform="translate(321.86441802978516 403.2203369140625) rotate(0 2.7103648214740588 30.78763494641521)"><path d="M12.82 32.12 C9.2 41.49, 7.07 49.71, 6.07 64.22 M13.18 33.26 C9.2 42.19, 7.77 50.41, 6.59 62.77" stroke="#1e1e1e" stroke-width="1" fill="none"></path></g></g><mask></mask><g transform="translate(342.7118606567383 413.0101379394531) rotate(0 24 9.600000000000023)"><text x="0" y="0" font-family="Cascadia, Segoe UI Emoji" font-size="16px" fill="#1e1e1e" text-anchor="start" style="white-space: pre;" direction="ltr" dominant-baseline="text-before-edge">没找到</text></g><g stroke-linecap="round" transform="translate(241.3559341430664 476.1017150878906) rotate(0 115.25424194335938 42.372894287109375)"><path d="M21.19 0 M21.19 0 C71.88 -0.22, 124.9 -1.09, 209.32 0 M21.19 0 C82.32 -0.17, 142.86 -0.32, 209.32 0 M209.32 0 C224.55 1.53, 228.75 5.5, 230.51 21.19 M209.32 0 C224.26 2.12, 229.31 7.67, 230.51 21.19 M230.51 21.19 C228.57 32.08, 232.03 45.79, 230.51 63.56 M230.51 21.19 C230.66 30.86, 229.51 40.51, 230.51 63.56 M230.51 63.56 C230 78.29, 221.78 86.12, 209.32 84.75 M230.51 63.56 C231.11 78.6, 224.56 82.58, 209.32 84.75 M209.32 84.75 C155.61 85.99, 104.42 83.62, 21.19 84.75 M209.32 84.75 C141.61 84.34, 74.3 83.79, 21.19 84.75 M21.19 84.75 C6.19 83.91, 0.97 79.5, 0 63.56 M21.19 84.75 C6.09 83.13, 1.65 78.64, 0 63.56 M0 63.56 C-0.62 46.02, 1.9 31.4, 0 21.19 M0 63.56 C-0.78 50.75, -0.07 38.78, 0 21.19 M0 21.19 C0.43 5.37, 7.12 -1.2, 21.19 0 M0 21.19 C0.15 4.86, 8.94 1.42, 21.19 0" stroke="#1e1e1e" stroke-width="1" fill="none"></path></g><g transform="translate(260.8473892211914 504.9152526855469) rotate(0 100.9375 9.600000000000023)"><text x="0" y="0" font-family="Cascadia, Segoe UI Emoji" font-size="16px" fill="#1e1e1e" text-anchor="start" style="white-space: pre;" direction="ltr" dominant-baseline="text-before-edge">从replacer_淘汰一个page</text></g><g transform="translate(10 443.8984069824219) rotate(0 155 96)"><text x="0" y="0" font-family="Cascadia, Segoe UI Emoji" font-size="16px" fill="#1e1e1e" text-anchor="start" style="white-space: pre;" direction="ltr" dominant-baseline="text-before-edge">replacer_淘汰：</text><text x="0" y="19.2" font-family="Cascadia, Segoe UI Emoji" font-size="16px" fill="#1e1e1e" text-anchor="start" style="white-space: pre;" direction="ltr" dominant-baseline="text-before-edge">1.若旧page脏，写回磁盘</text><text x="0" y="38.4" font-family="Cascadia, Segoe UI Emoji" font-size="16px" fill="#1e1e1e" text-anchor="start" style="white-space: pre;" direction="ltr" dominant-baseline="text-before-edge">2.page_table_删除旧映射</text><text x="0" y="57.599999999999994" font-family="Cascadia, Segoe UI Emoji" font-size="16px" fill="#1e1e1e" text-anchor="start" style="white-space: pre;" direction="ltr" dominant-baseline="text-before-edge"></text><text x="0" y="76.8" font-family="Cascadia, Segoe UI Emoji" font-size="16px" fill="#1e1e1e" text-anchor="start" style="white-space: pre;" direction="ltr" dominant-baseline="text-before-edge">找到frame_id：</text><text x="0" y="96" font-family="Cascadia, Segoe UI Emoji" font-size="16px" fill="#1e1e1e" text-anchor="start" style="white-space: pre;" direction="ltr" dominant-baseline="text-before-edge">1.page_table_增加新映射</text><text x="0" y="115.19999999999999" font-family="Cascadia, Segoe UI Emoji" font-size="16px" fill="#1e1e1e" text-anchor="start" style="white-space: pre;" direction="ltr" dominant-baseline="text-before-edge">2.标记非脏</text><text x="0" y="134.4" font-family="Cascadia, Segoe UI Emoji" font-size="16px" fill="#1e1e1e" text-anchor="start" style="white-space: pre;" direction="ltr" dominant-baseline="text-before-edge">3.pin_count_记为1</text><text x="0" y="153.6" font-family="Cascadia, Segoe UI Emoji" font-size="16px" fill="#1e1e1e" text-anchor="start" style="white-space: pre;" direction="ltr" dominant-baseline="text-before-edge">4.从disk读page-&gt;data</text><text x="0" y="172.79999999999998" font-family="Cascadia, Segoe UI Emoji" font-size="16px" fill="#1e1e1e" text-anchor="start" style="white-space: pre;" direction="ltr" dominant-baseline="text-before-edge">5.replacer_记录frame的访问和使用状态</text></g><g stroke-linecap="round" transform="translate(400.67798614501953 637.9660949707031) rotate(0 73.728759765625 39.406768798828125)"><path d="M19.7 0 M19.7 0 C41.67 0.21, 68.51 2.09, 127.75 0 M19.7 0 C51.04 0.96, 82.8 1.29, 127.75 0 M127.75 0 C138.93 -1.76, 146.23 7.78, 147.46 19.7 M127.75 0 C139.74 -0.83, 149.36 5.55, 147.46 19.7 M147.46 19.7 C146.97 34.64, 147.82 48.98, 147.46 59.11 M147.46 19.7 C147.85 28.56, 146.64 36.58, 147.46 59.11 M147.46 59.11 C147.17 72.49, 141.74 77.98, 127.75 78.81 M147.46 59.11 C145.57 70.43, 139.31 80.31, 127.75 78.81 M127.75 78.81 C92.1 78.35, 55.28 76.96, 19.7 78.81 M127.75 78.81 C104.78 77.93, 82.14 79.1, 19.7 78.81 M19.7 78.81 C5.91 78.04, 1.81 74.21, 0 59.11 M19.7 78.81 C6.38 77.28, 1.05 74.04, 0 59.11 M0 59.11 C-1.38 49.08, -0.36 41.84, 0 19.7 M0 59.11 C0.6 49.86, 0.3 38.89, 0 19.7 M0 19.7 C-0.99 6.22, 5.23 -1.3, 19.7 0 M0 19.7 C1.45 8.65, 7.76 -1.65, 19.7 0" stroke="#1e1e1e" stroke-width="1" fill="none"></path></g><g transform="translate(428.64408111572266 671.0169982910156) rotate(0 39.4375 9.600000000000023)"><text x="0" y="0" font-family="Cascadia, Segoe UI Emoji" font-size="16px" fill="#1e1e1e" text-anchor="start" style="white-space: pre;" direction="ltr" dominant-baseline="text-before-edge">返回page*</text></g><g stroke-linecap="round"><g transform="translate(385.42374420166016 569.3220520019531) rotate(0 26.251289948443883 33.645786595055824)"><path d="M0.88 0.27 C9.55 11.36, 44.16 55.32, 52.63 66.29 M-0.12 -0.64 C8.35 10.71, 42.68 56.59, 51.72 67.93" stroke="#1e1e1e" stroke-width="1" fill="none"></path></g><g transform="translate(385.42374420166016 569.3220520019531) rotate(0 26.251289948443883 33.645786595055824)"><path d="M26.85 51.97 C35.48 55.78, 43.96 61.57, 50.34 66.62 M27.15 52.44 C33.36 57.24, 42.63 62.59, 52.57 67.51" stroke="#1e1e1e" stroke-width="1" fill="none"></path></g><g transform="translate(385.42374420166016 569.3220520019531) rotate(0 26.251289948443883 33.645786595055824)"><path d="M43.12 39.46 C46.07 47.74, 48.89 57.88, 50.34 66.62 M43.42 39.93 C44.52 48.69, 48.7 57.95, 52.57 67.51" stroke="#1e1e1e" stroke-width="1" fill="none"></path></g></g><mask></mask></svg>