<svg version="1.1" xmlns="http://www.w3.org/2000/svg" viewBox="0 0 1175.8202321251206 938.7168628309289" width="1175.8202321251206" height="938.7168628309289" filter="invert(93%) hue-rotate(180deg)">
  <!-- svg-source:excalidraw -->
  
  <defs>
    <style class="style-fonts">
      @font-face {
        font-family: "Virgil";
        src: url("https://excalidraw.com/Virgil.woff2");
      }
      @font-face {
        font-family: "Cascadia";
        src: url("https://excalidraw.com/Cascadia.woff2");
      }
    </style>
    
  </defs>
  <rect x="0" y="0" width="1175.8202321251206" height="938.7168628309289" fill="#ffffff"></rect><g transform="translate(694.7486604330611 459.9515745126406) rotate(0 201.5625 19.19999999999999)"><text x="0" y="0" font-family="Cascadia, Segoe UI Emoji" font-size="16px" fill="#1e1e1e" text-anchor="start" style="white-space: pre;" direction="ltr" dominant-baseline="text-before-edge">leaf page中查找</text><text x="0" y="19.2" font-family="Cascadia, Segoe UI Emoji" font-size="16px" fill="#1e1e1e" text-anchor="start" style="white-space: pre;" direction="ltr" dominant-baseline="text-before-edge">int i = leaf_page-&gt;Lookup(key,comparator_);</text></g><g transform="translate(156.73022499450337 138.4668973312407) rotate(0 70.3125 9.600000000000001)"><text x="0" y="0" font-family="Cascadia, Segoe UI Emoji" font-size="16px" fill="#1e1e1e" text-anchor="start" style="white-space: pre;" direction="ltr" dominant-baseline="text-before-edge">header_page_id_</text></g><g stroke-linecap="round"><g transform="translate(310.76923738023027 55.809928965121884) rotate(0 0.5968422567647735 82.66972950435728)"><path d="M-0.58 -1.08 C-0.2 26.45, 1.65 137, 1.78 164.81 M1.31 0.96 C1.63 28.74, 0.92 139.24, 1.12 166.42" stroke="#1e1e1e" stroke-width="1" fill="none"></path></g><g transform="translate(310.76923738023027 55.809928965121884) rotate(0 0.5968422567647735 82.66972950435728)"><path d="M-10.93 139.15 C-6.38 143.67, -2.11 152.72, -0.65 166.64 M-9.28 137.72 C-6.34 146.17, -2.99 153.45, 0.44 166.5" stroke="#1e1e1e" stroke-width="1" fill="none"></path></g><g transform="translate(310.76923738023027 55.809928965121884) rotate(0 0.5968422567647735 82.66972950435728)"><path d="M9.59 139.15 C8.91 143.58, 7.96 152.62, -0.65 166.64 M11.24 137.73 C8.94 146.11, 7.05 153.39, 0.44 166.5" stroke="#1e1e1e" stroke-width="1" fill="none"></path></g></g><mask></mask><g transform="translate(338.61631144610897 121.14644322588245) rotate(0 107.8125 19.2)"><text x="0" y="0" font-family="Cascadia, Segoe UI Emoji" font-size="16px" fill="#1e1e1e" text-anchor="start" style="white-space: pre;" direction="ltr" dominant-baseline="text-before-edge">bpm_-&gt;FetchPageRead(..)</text><text x="0" y="19.2" font-family="Cascadia, Segoe UI Emoji" font-size="16px" fill="#1e1e1e" text-anchor="start" style="white-space: pre;" direction="ltr" dominant-baseline="text-before-edge">guard_.As()</text></g><g stroke-linecap="round" transform="translate(247.04249349029328 235.15373173025043) rotate(0 69.49153137207031 33.05084991455078)"><path d="M16.53 0 M16.53 0 C40.28 1.76, 65.28 1.07, 122.46 0 M16.53 0 C58.28 0.05, 99.39 0.62, 122.46 0 M122.46 0 C132.89 0.16, 139.92 4.86, 138.98 16.53 M122.46 0 C133.44 -0.4, 139.09 5, 138.98 16.53 M138.98 16.53 C139.72 25.62, 139.83 33.43, 138.98 49.58 M138.98 16.53 C138.32 26.61, 138.81 37.49, 138.98 49.58 M138.98 49.58 C138.2 61.5, 132.52 64.88, 122.46 66.1 M138.98 49.58 C140.46 61.37, 134.48 67.83, 122.46 66.1 M122.46 66.1 C88.99 65.72, 54.89 66.84, 16.53 66.1 M122.46 66.1 C99.78 67.75, 76.77 67.17, 16.53 66.1 M16.53 66.1 C5.53 65.51, -1.1 60.78, 0 49.58 M16.53 66.1 C4.91 66.24, 0.41 59.71, 0 49.58 M0 49.58 C-1.22 43.22, -0.51 34.8, 0 16.53 M0 49.58 C-0.4 42.94, 0.47 35.6, 0 16.53 M0 16.53 C-0.13 5.57, 5.3 -1.71, 16.53 0 M0 16.53 C0.56 6.17, 3.81 -1.38, 16.53 0" stroke="#1e1e1e" stroke-width="1" fill="none"></path></g><g transform="translate(266.53404012115266 258.03507938650046) rotate(0 51.5625 9.599999999999994)"><text x="0" y="0" font-family="Cascadia, Segoe UI Emoji" font-size="16px" fill="#1e1e1e" text-anchor="start" style="white-space: pre;" direction="ltr" dominant-baseline="text-before-edge">header page</text></g><g stroke-linecap="round"><g transform="translate(315.85460770427403 315.8126218122702) rotate(0 2.270458944721156 67.11352049118106)"><path d="M-0.49 1.01 C0.32 23.34, 4.02 110.71, 5.03 132.81 M1.45 0.5 C2.08 23.02, 3.46 111.36, 4.06 133.73" stroke="#1e1e1e" stroke-width="1" fill="none"></path></g><g transform="translate(315.85460770427403 315.8126218122702) rotate(0 2.270458944721156 67.11352049118106)"><path d="M-5.09 105.69 C-5.58 115.47, -0.81 122.94, 4.86 132.67 M-7.17 106.7 C-2.32 116.3, 1.44 124.27, 4.25 132.83" stroke="#1e1e1e" stroke-width="1" fill="none"></path></g><g transform="translate(315.85460770427403 315.8126218122702) rotate(0 2.270458944721156 67.11352049118106)"><path d="M15.43 105.26 C8.46 115.09, 6.75 122.7, 4.86 132.67 M13.35 106.27 C11.02 116.15, 7.6 124.26, 4.25 132.83" stroke="#1e1e1e" stroke-width="1" fill="none"></path></g></g><mask></mask><g transform="translate(166.83119182078985 372.77633653524833) rotate(0 60.9375 9.599999999999994)"><text x="0" y="0" font-family="Cascadia, Segoe UI Emoji" font-size="16px" fill="#1e1e1e" text-anchor="start" style="white-space: pre;" direction="ltr" dominant-baseline="text-before-edge">root_page_id_</text></g><g stroke-linecap="round" transform="translate(251.6506575113541 461.22100332142315) rotate(0 70.76266479492188 36.864410400390625)"><path d="M18.43 0 M18.43 0 C53.37 2.84, 84.42 2.78, 123.09 0 M18.43 0 C41.7 1.14, 64.07 1.5, 123.09 0 M123.09 0 C135.33 -1.75, 143.2 6.04, 141.53 18.43 M123.09 0 C135.97 0, 140.52 5.26, 141.53 18.43 M141.53 18.43 C142.04 26.25, 143.2 37.46, 141.53 55.3 M141.53 18.43 C140.97 29.4, 141.49 38.42, 141.53 55.3 M141.53 55.3 C140.07 66.95, 134.56 73.47, 123.09 73.73 M141.53 55.3 C142.27 67.79, 135.63 71.96, 123.09 73.73 M123.09 73.73 C101.61 73.41, 77.08 74.65, 18.43 73.73 M123.09 73.73 C97.63 74.18, 73.65 74.76, 18.43 73.73 M18.43 73.73 C4.87 74.94, 1.68 68.56, 0 55.3 M18.43 73.73 C5.52 73.76, -1.54 69.38, 0 55.3 M0 55.3 C-0.98 46.33, -1.73 35.38, 0 18.43 M0 55.3 C0.51 47.93, -0.59 39.91, 0 18.43 M0 18.43 C-0.65 5.62, 5.17 0.26, 18.43 0 M0 18.43 C1.6 4.54, 5.03 1.63, 18.43 0" stroke="#1e1e1e" stroke-width="1" fill="none"></path></g><g transform="translate(284.70162186682285 485.7972362315794) rotate(0 42.1875 9.599999999999994)"><text x="0" y="0" font-family="Cascadia, Segoe UI Emoji" font-size="16px" fill="#1e1e1e" text-anchor="start" style="white-space: pre;" direction="ltr" dominant-baseline="text-before-edge">root page</text></g><g transform="translate(348.93208882939325 358.7456590862837) rotate(0 107.8125 19.19999999999999)"><text x="0" y="0" font-family="Cascadia, Segoe UI Emoji" font-size="16px" fill="#1e1e1e" text-anchor="start" style="white-space: pre;" direction="ltr" dominant-baseline="text-before-edge">bpm_-&gt;FetchPageRead(..)</text><text x="0" y="19.2" font-family="Cascadia, Segoe UI Emoji" font-size="16px" fill="#1e1e1e" text-anchor="start" style="white-space: pre;" direction="ltr" dominant-baseline="text-before-edge">guard_.As()</text></g><g stroke-linecap="round"><g transform="translate(327.3975527415665 543.4245403087278) rotate(0 1.861446214910444 59.26534497607636)"><path d="M0.28 0.62 C0.93 20.41, 4.21 98.12, 4.76 117.57 M-1.04 -0.1 C-0.59 19.91, 2.75 98.95, 3.92 118.63" stroke="#1e1e1e" stroke-width="1" fill="none"></path></g><g transform="translate(327.3975527415665 543.4245403087278) rotate(0 1.861446214910444 59.26534497607636)"><path d="M-6.68 91.33 C-5.18 99.57, -1.33 109.96, 4.95 118.89 M-7 90.82 C-4.84 97.98, -1.17 103.41, 4.82 118.29" stroke="#1e1e1e" stroke-width="1" fill="none"></path></g><g transform="translate(327.3975527415665 543.4245403087278) rotate(0 1.861446214910444 59.26534497607636)"><path d="M13.82 90.32 C7.74 98.99, 4.03 109.74, 4.95 118.89 M13.5 89.81 C10.88 97.04, 9.78 102.7, 4.82 118.29" stroke="#1e1e1e" stroke-width="1" fill="none"></path></g></g><mask></mask><g stroke-linecap="round" transform="translate(260.2991189996203 665.6895638531985) rotate(0 70.76266479492188 36.864410400390625)"><path d="M18.43 0 M18.43 0 C47.93 1.09, 82.12 1.14, 123.09 0 M18.43 0 C53.66 0.97, 88.67 -0.4, 123.09 0 M123.09 0 C136.18 1.56, 143.49 7.32, 141.53 18.43 M123.09 0 C135.36 -1.92, 139.85 4.18, 141.53 18.43 M141.53 18.43 C142.43 29.63, 143.36 37.12, 141.53 55.3 M141.53 18.43 C140.9 32.98, 142.14 46.02, 141.53 55.3 M141.53 55.3 C143.05 67.04, 136.94 72, 123.09 73.73 M141.53 55.3 C142.5 66.94, 135.31 72.65, 123.09 73.73 M123.09 73.73 C82.8 75.39, 44.42 74.85, 18.43 73.73 M123.09 73.73 C85.15 74.14, 46.33 72.78, 18.43 73.73 M18.43 73.73 C4.2 73.55, 1.6 69.5, 0 55.3 M18.43 73.73 C8.23 73.75, -1.34 69.2, 0 55.3 M0 55.3 C0.05 41.83, -1.38 29.54, 0 18.43 M0 55.3 C0.21 45.42, 0.89 36.12, 0 18.43 M0 18.43 C0 4.66, 5.08 0.63, 18.43 0 M0 18.43 C-1.62 4.7, 5.36 1.83, 18.43 0" stroke="#1e1e1e" stroke-width="1" fill="none"></path></g><g transform="translate(274.61811591714786 694.3273198755676) rotate(0 60.9375 9.600000000000023)"><text x="0" y="0" font-family="Cascadia, Segoe UI Emoji" font-size="16px" fill="#1e1e1e" text-anchor="start" style="white-space: pre;" direction="ltr" dominant-baseline="text-before-edge">internal page</text></g><g transform="translate(10 594.022530010929) rotate(0 145.3125 9.599999999999994)"><text x="0" y="0" font-family="Cascadia, Segoe UI Emoji" font-size="16px" fill="#1e1e1e" text-anchor="start" style="white-space: pre;" direction="ltr" dominant-baseline="text-before-edge">while(!root_page-&gt;IsLeafPage())</text></g><g transform="translate(345.6386057984806 561.2330394711618) rotate(0 189.1875 28.799999999999983)"><text x="0" y="0" font-family="Cascadia, Segoe UI Emoji" font-size="16px" fill="#1e1e1e" text-anchor="start" style="white-space: pre;" direction="ltr" dominant-baseline="text-before-edge">int i = root_page-&gt;Lookup(..);</text><text x="0" y="19.2" font-family="Cascadia, Segoe UI Emoji" font-size="16px" fill="#1e1e1e" text-anchor="start" style="white-space: pre;" direction="ltr" dominant-baseline="text-before-edge">二分（在internal page使用Search函数Lookup）</text><text x="0" y="38.4" font-family="Cascadia, Segoe UI Emoji" font-size="16px" fill="#1e1e1e" text-anchor="start" style="white-space: pre;" direction="ltr" dominant-baseline="text-before-edge">遍历过的page_id入列ctx.read_set_</text></g><g stroke-linecap="round"><g transform="translate(328.0704488927022 747.2062438616549) rotate(0 1.3397624616613655 45.869119690934156)"><path d="M-0.55 0.96 C-0.26 16.08, 0.48 75.26, 0.92 90.41 M1.36 0.42 C2.11 15.67, 3.2 75.84, 3.23 91.32" stroke="#1e1e1e" stroke-width="1" fill="none"></path></g><g transform="translate(328.0704488927022 747.2062438616549) rotate(0 1.3397624616613655 45.869119690934156)"><path d="M-5.75 61.97 C-6.98 70.41, -2.13 76.33, 2.83 92 M-7.41 63.14 C-3.62 71.11, 0.17 79.4, 3.77 91.31" stroke="#1e1e1e" stroke-width="1" fill="none"></path></g><g transform="translate(328.0704488927022 747.2062438616549) rotate(0 1.3397624616613655 45.869119690934156)"><path d="M14.77 61.73 C8.82 70.13, 8.95 76.11, 2.83 92 M13.11 62.9 C10.62 71.07, 8.12 79.44, 3.77 91.31" stroke="#1e1e1e" stroke-width="1" fill="none"></path></g></g><mask></mask><g stroke-linecap="round" transform="translate(249.95908808505806 841.6142604234626) rotate(0 91.87921468461468 43.551301203733146)"><path d="M21.78 0 M21.78 0 C57.01 -1.3, 88.95 -2.27, 161.98 0 M21.78 0 C60.09 0.2, 96.18 0.54, 161.98 0 M161.98 0 C175.19 1.84, 182.81 6.31, 183.76 21.78 M161.98 0 C177.08 1.05, 183.56 7.87, 183.76 21.78 M183.76 21.78 C183.16 37.51, 184.45 49.68, 183.76 65.33 M183.76 21.78 C183.77 34.46, 184.55 46.45, 183.76 65.33 M183.76 65.33 C182.55 79.59, 174.73 85.43, 161.98 87.1 M183.76 65.33 C182.62 80.77, 175.54 88, 161.98 87.1 M161.98 87.1 C121.25 87.74, 79.7 87.68, 21.78 87.1 M161.98 87.1 C128.97 88.6, 93.7 87.38, 21.78 87.1 M21.78 87.1 C8.52 85.88, 1.52 78.95, 0 65.33 M21.78 87.1 C5.59 88.63, -1.95 79.64, 0 65.33 M0 65.33 C0.31 54.09, -1.75 40.85, 0 21.78 M0 65.33 C0.59 51.85, 0.41 38.4, 0 21.78 M0 21.78 C-1.1 8.64, 5.63 1.17, 21.78 0 M0 21.78 C0.87 8.44, 8 -1.81, 21.78 0" stroke="#1e1e1e" stroke-width="1" fill="none"></path></g><g transform="translate(22.69149891046885 766.430926112007) rotate(0 138.4375 19.19999999999999)"><text x="0" y="0" font-family="Cascadia, Segoe UI Emoji" font-size="16px" fill="#1e1e1e" text-anchor="start" style="white-space: pre;" direction="ltr" dominant-baseline="text-before-edge">找到LeafPage</text><text x="0" y="19.2" font-family="Cascadia, Segoe UI Emoji" font-size="16px" fill="#1e1e1e" text-anchor="start" style="white-space: pre;" direction="ltr" dominant-baseline="text-before-edge">目标leaf page id在read_set_最后</text></g><g transform="translate(298.2869307388055 878.1411490682535) rotate(0 42.1875 9.600000000000023)"><text x="0" y="0" font-family="Cascadia, Segoe UI Emoji" font-size="16px" fill="#1e1e1e" text-anchor="start" style="white-space: pre;" direction="ltr" dominant-baseline="text-before-edge">leaf page</text></g><g transform="translate(260.0133354818953 16.588275217202437) rotate(0 56.25 9.600000000000001)"><text x="0" y="0" font-family="Cascadia, Segoe UI Emoji" font-size="16px" fill="#1e1e1e" text-anchor="start" style="white-space: pre;" direction="ltr" dominant-baseline="text-before-edge">GetKeyAt(..)</text></g><g transform="translate(828.8158509054598 10) rotate(0 56.24999999999994 9.600000000000001)"><text x="0" y="0" font-family="Cascadia, Segoe UI Emoji" font-size="16px" fill="#1e1e1e" text-anchor="start" style="white-space: pre;" direction="ltr" dominant-baseline="text-before-edge">GetValue(..)</text></g><g stroke-linecap="round"><g transform="translate(883.841983169089 35.71150578896243) rotate(0 -0.11424953773246216 64.67741497184429)"><path d="M-0.8 0.63 C-0.85 22.33, -0.17 108.01, -0.14 129.45 M0.98 -0.09 C0.74 21.35, -0.76 106.57, -1.21 127.79" stroke="#1e1e1e" stroke-width="1" fill="none"></path></g><g transform="translate(883.841983169089 35.71150578896243) rotate(0 -0.11424953773246216 64.67741497184429)"><path d="M-9.89 99.03 C-6.6 107.16, -3.91 117.37, -1.08 127.66 M-11.17 99.92 C-8.19 108.51, -5.36 118.02, -1.1 127.13" stroke="#1e1e1e" stroke-width="1" fill="none"></path></g><g transform="translate(883.841983169089 35.71150578896243) rotate(0 -0.11424953773246216 64.67741497184429)"><path d="M10.63 99.42 C7.53 107.29, 3.81 117.38, -1.08 127.66 M9.35 100.31 C5.73 108.64, 1.95 118.02, -1.1 127.13" stroke="#1e1e1e" stroke-width="1" fill="none"></path></g></g><mask></mask><g transform="translate(724.1331251032159 73.36050408490445) rotate(0 72.25 19.2)"><text x="0" y="0" font-family="Cascadia, Segoe UI Emoji" font-size="16px" fill="#1e1e1e" text-anchor="start" style="white-space: pre;" direction="ltr" dominant-baseline="text-before-edge">GetKeyAt(..)</text><text x="0" y="19.2" font-family="Cascadia, Segoe UI Emoji" font-size="16px" fill="#1e1e1e" text-anchor="start" style="white-space: pre;" direction="ltr" dominant-baseline="text-before-edge">获取leaf page id</text></g><g stroke-linecap="round" transform="translate(752.5995029903787 169.7787127951241) rotate(0 156.10563817759208 34.43506627248277)"><path d="M17.22 0 M17.22 0 C115.57 2.31, 215.65 1.22, 294.99 0 M17.22 0 C81.03 2.33, 144.88 2.73, 294.99 0 M294.99 0 C305.15 1.56, 313.42 5.6, 312.21 17.22 M294.99 0 C305.35 0.02, 312.58 4.69, 312.21 17.22 M312.21 17.22 C310.33 30.02, 312.82 41.3, 312.21 51.65 M312.21 17.22 C312.45 30.89, 312.62 43.39, 312.21 51.65 M312.21 51.65 C314.08 64.12, 305.24 67.87, 294.99 68.87 M312.21 51.65 C313.24 65.19, 304.95 71.17, 294.99 68.87 M294.99 68.87 C228 69.17, 159.29 69.03, 17.22 68.87 M294.99 68.87 C222.56 68.75, 149.62 69.84, 17.22 68.87 M17.22 68.87 C3.85 67.44, -0.35 63.81, 0 51.65 M17.22 68.87 C3.86 70.14, -0.91 63.96, 0 51.65 M0 51.65 C-0.56 44.3, -0.59 35.54, 0 17.22 M0 51.65 C-0.53 44.42, -0.02 35.96, 0 17.22 M0 17.22 C1.5 4.96, 4.77 -1.73, 17.22 0 M0 17.22 C1.28 7.29, 7.51 0.28, 17.22 0" stroke="#1e1e1e" stroke-width="1" fill="none"></path></g><g transform="translate(789.3303814358034 192.73537955341172) rotate(0 125.18749999999994 9.600000000000001)"><text x="0" y="0" font-family="Cascadia, Segoe UI Emoji" font-size="16px" fill="#1e1e1e" text-anchor="start" style="white-space: pre;" direction="ltr" dominant-baseline="text-before-edge">leaf_page_guard在ctx.back()</text></g><g stroke-linecap="round"><g transform="translate(902.2772771210521 241.40363476947593) rotate(0 1.8642587017478718 62.01032741383789)"><path d="M1.16 -0.55 C1.93 19.78, 3.33 102.56, 3.42 123.04 M0.31 1.77 C1.09 22.83, 2.2 104.33, 2.81 124.57" stroke="#1e1e1e" stroke-width="1" fill="none"></path></g><g transform="translate(902.2772771210521 241.40363476947593) rotate(0 1.8642587017478718 62.01032741383789)"><path d="M-8.96 97.71 C-5.64 100.27, -4.67 106.25, 3.06 123.15 M-7.65 97.36 C-5.72 103.62, -3.71 109.51, 2.06 124.89" stroke="#1e1e1e" stroke-width="1" fill="none"></path></g><g transform="translate(902.2772771210521 241.40363476947593) rotate(0 1.8642587017478718 62.01032741383789)"><path d="M11.56 97.27 C10.77 100.12, 7.63 106.19, 3.06 123.15 M12.87 96.93 C10.33 103.4, 7.88 109.38, 2.06 124.89" stroke="#1e1e1e" stroke-width="1" fill="none"></path></g></g><mask></mask><g transform="translate(602.9217949947566 277.2161618917032) rotate(0 145.31249999999994 19.200000000000003)"><text x="0" y="0" font-family="Cascadia, Segoe UI Emoji" font-size="16px" fill="#1e1e1e" text-anchor="start" style="white-space: pre;" direction="ltr" dominant-baseline="text-before-edge">leaf_page_guard.As&lt;LeafPage&gt;();</text><text x="0" y="19.2" font-family="Cascadia, Segoe UI Emoji" font-size="16px" fill="#1e1e1e" text-anchor="start" style="white-space: pre;" direction="ltr" dominant-baseline="text-before-edge">获取leaf page</text></g><g stroke-linecap="round" transform="translate(783.8206041718765 371.7977836918683) rotate(0 114.78356526411778 33.51678108433691)"><path d="M16.76 0 M16.76 0 C83.85 0.27, 152.13 -0.77, 212.81 0 M16.76 0 C56.25 0.23, 97.69 0.48, 212.81 0 M212.81 0 C225.67 0.91, 228.2 6.75, 229.57 16.76 M212.81 0 C224.44 -0.89, 227.54 7, 229.57 16.76 M229.57 16.76 C227.63 25.63, 230.05 36.09, 229.57 50.28 M229.57 16.76 C229.69 29.87, 230.01 41.23, 229.57 50.28 M229.57 50.28 C228.54 61.48, 224.84 65.12, 212.81 67.03 M229.57 50.28 C231.84 63.22, 226.09 64.75, 212.81 67.03 M212.81 67.03 C153.92 66.13, 95.52 65.9, 16.76 67.03 M212.81 67.03 C164.4 65.72, 114.06 65.54, 16.76 67.03 M16.76 67.03 C6.36 67.92, -1.92 61.34, 0 50.28 M16.76 67.03 C6.95 68.93, 0.63 60.92, 0 50.28 M0 50.28 C1.35 38.43, -1.5 29.11, 0 16.76 M0 50.28 C0.33 37.72, -0.18 24.27, 0 16.76 M0 16.76 C-1.18 7.1, 7.23 -1.03, 16.76 0 M0 16.76 C0.67 5.23, 7.53 1.33, 16.76 0" stroke="#1e1e1e" stroke-width="1" fill="none"></path></g><g transform="translate(850.8542986106529 395.6726695032505) rotate(0 46.875 9.599999999999994)"><text x="0" y="0" font-family="Cascadia, Segoe UI Emoji" font-size="16px" fill="#1e1e1e" text-anchor="start" style="white-space: pre;" direction="ltr" dominant-baseline="text-before-edge">*leaf_page</text></g><g stroke-linecap="round"><g transform="translate(927.4166771187133 450.7688549012845) rotate(0 1.6337380680240585 48.42487754730851)"><path d="M0.47 -0.7 C1.03 15.39, 3.47 81.1, 4.01 97.55 M-0.75 1.55 C-0.43 17.77, 2.32 79.79, 2.88 95.53" stroke="#1e1e1e" stroke-width="1" fill="none"></path></g><g transform="translate(927.4166771187133 450.7688549012845) rotate(0 1.6337380680240585 48.42487754730851)"><path d="M-9.66 67.2 C-3.87 76.54, 0.95 85.55, 2.43 96.83 M-8.14 67.25 C-3.22 77.63, -0.2 89.26, 2.63 94.54" stroke="#1e1e1e" stroke-width="1" fill="none"></path></g><g transform="translate(927.4166771187133 450.7688549012845) rotate(0 1.6337380680240585 48.42487754730851)"><path d="M10.84 66.38 C9.35 76.08, 6.89 85.39, 2.43 96.83 M12.37 66.43 C9.41 77.07, 4.55 89.02, 2.63 94.54" stroke="#1e1e1e" stroke-width="1" fill="none"></path></g></g><mask></mask><g stroke-linecap="round" transform="translate(765.4551649491644 552.6966590040397) rotate(0 200.18253358797807 47.290794366319716)"><path d="M23.65 0 M23.65 0 C97.59 -0.79, 173.56 0.09, 376.72 0 M23.65 0 C132.98 2.28, 243.41 1.47, 376.72 0 M376.72 0 C391.81 -0.81, 400.38 9.03, 400.37 23.65 M376.72 0 C391.62 -1.06, 398.61 8.46, 400.37 23.65 M400.37 23.65 C401.07 41.92, 399 56.31, 400.37 70.94 M400.37 23.65 C400.83 41.41, 400.96 58.66, 400.37 70.94 M400.37 70.94 C401.18 86.47, 391.76 93.99, 376.72 94.58 M400.37 70.94 C402.59 87.37, 391.43 96.46, 376.72 94.58 M376.72 94.58 C289.1 92.89, 200.44 91.47, 23.65 94.58 M376.72 94.58 C253.44 96.23, 130.83 96.14, 23.65 94.58 M23.65 94.58 C8.63 93.9, 1.37 87.66, 0 70.94 M23.65 94.58 C6.56 92.9, -1.05 88.53, 0 70.94 M0 70.94 C-1.37 54.99, -1.1 41.66, 0 23.65 M0 70.94 C-1.18 55.57, 0.42 39.77, 0 23.65 M0 23.65 C1.97 8.31, 8.27 1.08, 23.65 0 M0 23.65 C-1.2 6.04, 7.65 -0.72, 23.65 0" stroke="#1e1e1e" stroke-width="1" fill="none"></path></g><g transform="translate(771.8831612661852 591.2639094206017) rotate(0 192.1875 9.599999999999994)"><text x="0" y="0" font-family="Cascadia, Segoe UI Emoji" font-size="16px" fill="#1e1e1e" text-anchor="start" style="white-space: pre;" direction="ltr" dominant-baseline="text-before-edge">result-&gt;push_back(leaf_page-&gt;ValueAt(i));</text></g></svg>