<svg version="1.1" xmlns="http://www.w3.org/2000/svg" viewBox="0 0 1718.2446101925339 868.0876096452525" width="1718.2446101925339" height="868.0876096452525" filter="invert(93%) hue-rotate(180deg)">
  <!-- svg-source:excalidraw -->
  
  <defs>
    <style class="style-fonts">
      @font-face {
        font-family: "Virgil";
        src: url("https://excalidraw.com/Virgil.woff2");
      }
      @font-face {
        font-family: "Cascadia";
        src: url("https://excalidraw.com/Cascadia.woff2");
      }
    </style>
    
  </defs>
  <rect x="0" y="0" width="1718.2446101925339" height="868.0876096452525" fill="#ffffff"></rect><g transform="translate(285.3630880620494 268.39998416288586) rotate(0 212.375 19.19999999999999)"><text x="0" y="0" font-family="Cascadia, Segoe UI Emoji" font-size="16px" fill="#1e1e1e" text-anchor="start" style="white-space: pre;" direction="ltr" dominant-baseline="text-before-edge">如果是空树，新建一个root page，直接插入该root page</text><text x="0" y="19.2" font-family="Cascadia, Segoe UI Emoji" font-size="16px" fill="#1e1e1e" text-anchor="start" style="white-space: pre;" direction="ltr" dominant-baseline="text-before-edge">root_page_id_ == INVALID_PAGE_ID</text></g><g transform="translate(501.3026958406625 10) rotate(0 257.5 24)"><text x="257.5" y="0" font-family="Cascadia, Segoe UI Emoji" font-size="20px" fill="#1e1e1e" text-anchor="middle" style="white-space: pre;" direction="ltr" dominant-baseline="text-before-edge">InsertGetKeyAt</text><text x="257.5" y="24" font-family="Cascadia, Segoe UI Emoji" font-size="20px" fill="#1e1e1e" text-anchor="middle" style="white-space: pre;" direction="ltr" dominant-baseline="text-before-edge">返回要insert的new (key,value)pair所在的page ID</text></g><g stroke-linecap="round" transform="translate(709.8697045195934 174.6384224705227) rotate(0 81.77969360351562 29.237289428710938)"><path d="M14.62 0 M14.62 0 C62.04 -0.26, 108.98 -1.83, 148.94 0 M14.62 0 C57.46 0.16, 100.01 0.58, 148.94 0 M148.94 0 C158.57 1.92, 161.94 6.06, 163.56 14.62 M148.94 0 C156.89 -1.07, 162.36 6.21, 163.56 14.62 M163.56 14.62 C162.76 23.22, 163.33 36.2, 163.56 43.86 M163.56 14.62 C163.2 21.3, 163.96 30, 163.56 43.86 M163.56 43.86 C165.08 54.52, 158.12 59.99, 148.94 58.47 M163.56 43.86 C162.01 55.74, 156.42 60.13, 148.94 58.47 M148.94 58.47 C107.46 57.06, 65.4 59.17, 14.62 58.47 M148.94 58.47 C115.55 57.2, 79.68 56.46, 14.62 58.47 M14.62 58.47 C4.5 56.68, -1.87 52.64, 0 43.86 M14.62 58.47 C3.43 57.29, -2.05 54.11, 0 43.86 M0 43.86 C-1.71 33.08, -0.79 24.88, 0 14.62 M0 43.86 C0.37 34.72, 0.75 28.13, 0 14.62 M0 14.62 C1.35 3.9, 6.76 -0.16, 14.62 0 M0 14.62 C1.98 3.71, 4.21 1.11, 14.62 0" stroke="#1e1e1e" stroke-width="1" fill="none"></path></g><g transform="translate(718.1282189238902 194.12993858380395) rotate(0 72.25 9.599999999999994)"><text x="72.25" y="0" font-family="Cascadia, Segoe UI Emoji" font-size="16px" fill="#1e1e1e" text-anchor="middle" style="white-space: pre;" direction="ltr" dominant-baseline="text-before-edge">获取root page id</text></g><g transform="translate(1136.3696101925339 95.43972945516407) rotate(0 285.9375 19.200000000000003)"><text x="0" y="0" font-family="Cascadia, Segoe UI Emoji" font-size="16px" fill="#1e1e1e" text-anchor="start" style="white-space: pre;" direction="ltr" dominant-baseline="text-before-edge">1.header_page_guard = bpm_-&gt;FetchPageWrite(header_page_id_);)</text><text x="0" y="19.2" font-family="Cascadia, Segoe UI Emoji" font-size="16px" fill="#1e1e1e" text-anchor="start" style="white-space: pre;" direction="ltr" dominant-baseline="text-before-edge">2.*header_page = header_page_guard.template AsMut&lt;..&gt;();</text></g><g stroke-linecap="round" transform="translate(973.3445999583562 90.43395300166429) rotate(0 73.95994706587354 23.882904052734375)"><path d="M11.94 0 M11.94 0 C43.81 -0.85, 76.12 -0.66, 135.98 0 M11.94 0 C57.01 1.33, 101.29 0.63, 135.98 0 M135.98 0 C142.3 -1.07, 146.25 5.75, 147.92 11.94 M135.98 0 C146.01 0.55, 149.84 1.83, 147.92 11.94 M147.92 11.94 C149.71 19.93, 149.35 27.84, 147.92 35.82 M147.92 11.94 C147.06 20.41, 148.65 28.33, 147.92 35.82 M147.92 35.82 C148.01 43.58, 142.7 47.46, 135.98 47.77 M147.92 35.82 C147.27 42.64, 142.93 49.51, 135.98 47.77 M135.98 47.77 C88.71 46.86, 46.62 47.7, 11.94 47.77 M135.98 47.77 C100.3 49.03, 62.56 48.2, 11.94 47.77 M11.94 47.77 C4.36 48.5, 1.43 43.61, 0 35.82 M11.94 47.77 C4.09 48.94, 1.7 43.67, 0 35.82 M0 35.82 C1.79 29.52, 1.53 23.82, 0 11.94 M0 35.82 C-0.14 25.91, -0.67 17.68, 0 11.94 M0 11.94 C-0.72 3.98, 5.33 1.55, 11.94 0 M0 11.94 C-1.06 2.54, 3.51 0, 11.94 0" stroke="#1e1e1e" stroke-width="1" fill="none"></path></g><g transform="translate(985.6712323713532 103.53107103255923) rotate(0 63.43750000000003 9.599999999999994)"><text x="0" y="0" font-family="Cascadia, Segoe UI Emoji" font-size="16px" fill="#1e1e1e" text-anchor="start" style="white-space: pre;" direction="ltr" dominant-baseline="text-before-edge">获取当前页page*</text></g><g stroke-linecap="round"><g transform="translate(1038.5589822389418 142.05182853433473) rotate(0 0.2805478948293114 21.22254733845591)"><path d="M-0.68 -0.97 C-0.46 6.18, 1.15 34.56, 1.24 41.78 M1.16 1.13 C1.25 8.6, 0.25 36.87, 0.43 43.42" stroke="#1e1e1e" stroke-width="1" fill="none"></path></g><g transform="translate(1038.5589822389418 142.05182853433473) rotate(0 0.2805478948293114 21.22254733845591)"><path d="M-8.13 24.23 C-4.34 27.82, -1.32 33.8, 1.03 42.76 M-6.62 23.05 C-5.08 28.89, -2.85 33.61, -0.03 43.88" stroke="#1e1e1e" stroke-width="1" fill="none"></path></g><g transform="translate(1038.5589822389418 142.05182853433473) rotate(0 0.2805478948293114 21.22254733845591)"><path d="M6.11 24.36 C5.69 27.83, 4.52 33.77, 1.03 42.76 M7.61 23.18 C5.6 29, 4.29 33.69, -0.03 43.88" stroke="#1e1e1e" stroke-width="1" fill="none"></path></g></g><mask></mask><g stroke-linecap="round" transform="translate(969.2644940901032 191.35846915933473) rotate(0 76.00000000000003 34)"><path d="M17 0 M17 0 C50.64 -2.23, 82.1 -0.85, 135 0 M17 0 C59.42 -0.89, 104.3 -0.92, 135 0 M135 0 C145.52 -0.89, 150.88 7.11, 152 17 M135 0 C147.74 -1.94, 151.3 5.74, 152 17 M152 17 C153.27 26.47, 150.89 35.49, 152 51 M152 17 C152.38 24.93, 152.04 33.11, 152 51 M152 51 C152.38 64.01, 147.2 68.32, 135 68 M152 51 C150.26 62.5, 147.16 66.7, 135 68 M135 68 C105.3 68.92, 78.24 68.82, 17 68 M135 68 C94.47 67.81, 54.38 66.76, 17 68 M17 68 C4.49 68.86, -1.37 62.21, 0 51 M17 68 C6.15 67.51, -1.17 63.51, 0 51 M0 51 C-1.02 45, -0.69 38.15, 0 17 M0 51 C0.04 44.37, -0.45 36.37, 0 17 M0 17 C-1.5 4.86, 4.02 -1.16, 17 0 M0 17 C1.22 6.67, 5.45 -0.44, 17 0" stroke="#1e1e1e" stroke-width="1" fill="none"></path></g><g transform="translate(977.1394940901032 196.55846915933472) rotate(0 68.12500000000003 28.80000000000001)"><text x="68.125" y="0" font-family="Cascadia, Segoe UI Emoji" font-size="16px" fill="#1e1e1e" text-anchor="middle" style="white-space: pre;" direction="ltr" dominant-baseline="text-before-edge">上下文记录header</text><text x="68.125" y="19.2" font-family="Cascadia, Segoe UI Emoji" font-size="16px" fill="#1e1e1e" text-anchor="middle" style="white-space: pre;" direction="ltr" dominant-baseline="text-before-edge">page</text><text x="68.125" y="38.4" font-family="Cascadia, Segoe UI Emoji" font-size="16px" fill="#1e1e1e" text-anchor="middle" style="white-space: pre;" direction="ltr" dominant-baseline="text-before-edge">以便析构释放锁</text></g><g transform="translate(1145.1473287847055 217.55259424811317) rotate(0 150 9.599999999999994)"><text x="0" y="0" font-family="Cascadia, Segoe UI Emoji" font-size="16px" fill="#1e1e1e" text-anchor="start" style="white-space: pre;" direction="ltr" dominant-baseline="text-before-edge">ctx.header_page_ = std::move(..)</text></g><g stroke-linecap="round"><g transform="translate(967.1812421369782 106.61268058511598) rotate(0 -46.99536410245028 44.29892800071022)"><path d="M0 0 C-15.67 14.77, -78.33 73.83, -93.99 88.6 M0 0 C-15.67 14.77, -78.33 73.83, -93.99 88.6" stroke="#1e1e1e" stroke-width="1" fill="none"></path></g></g><mask></mask><g stroke-linecap="round" transform="translate(971.0334482804442 308.46174064370973) rotate(0 81.5 34)"><path d="M17 0 M17 0 C46.37 0, 75.75 0, 146 0 M17 0 C63.43 0, 109.85 0, 146 0 M146 0 C157.33 0, 163 5.67, 163 17 M146 0 C157.33 0, 163 5.67, 163 17 M163 17 C163 28.56, 163 40.13, 163 51 M163 17 C163 24.47, 163 31.95, 163 51 M163 51 C163 62.33, 157.33 68, 146 68 M163 51 C163 62.33, 157.33 68, 146 68 M146 68 C94.87 68, 43.73 68, 17 68 M146 68 C106.72 68, 67.44 68, 17 68 M17 68 C5.67 68, 0 62.33, 0 51 M17 68 C5.67 68, 0 62.33, 0 51 M0 51 C0 42.79, 0 34.58, 0 17 M0 51 C0 42.46, 0 33.92, 0 17 M0 17 C0 5.67, 5.67 0, 17 0 M0 17 C0 5.67, 5.67 0, 17 0" stroke="#1e1e1e" stroke-width="1" fill="none"></path></g><g transform="translate(980.2834482804442 313.6617406437097) rotate(0 72.25 28.80000000000001)"><text x="72.25" y="0" font-family="Cascadia, Segoe UI Emoji" font-size="16px" fill="#1e1e1e" text-anchor="middle" style="white-space: pre;" direction="ltr" dominant-baseline="text-before-edge">从header </text><text x="72.25" y="19.2" font-family="Cascadia, Segoe UI Emoji" font-size="16px" fill="#1e1e1e" text-anchor="middle" style="white-space: pre;" direction="ltr" dominant-baseline="text-before-edge">page获取root_pag</text><text x="72.25" y="38.4" font-family="Cascadia, Segoe UI Emoji" font-size="16px" fill="#1e1e1e" text-anchor="middle" style="white-space: pre;" direction="ltr" dominant-baseline="text-before-edge">e_id</text></g><g stroke-linecap="round"><g transform="translate(1044.9932982449327 266.8592071298603) rotate(0 0 16.56394264914772)"><path d="M0 0 C0 5.52, 0 27.61, 0 33.13 M0 0 C0 5.52, 0 27.61, 0 33.13" stroke="#1e1e1e" stroke-width="1" fill="none"></path></g><g transform="translate(1044.9932982449327 266.8592071298603) rotate(0 0 16.56394264914772)"><path d="M-5.67 17.56 C-4.15 21.73, -2.63 25.9, 0 33.13 M-5.67 17.56 C-4.32 21.26, -2.97 24.96, 0 33.13" stroke="#1e1e1e" stroke-width="1" fill="none"></path></g><g transform="translate(1044.9932982449327 266.8592071298603) rotate(0 0 16.56394264914772)"><path d="M5.67 17.56 C4.15 21.73, 2.63 25.9, 0 33.13 M5.67 17.56 C4.32 21.26, 2.97 24.96, 0 33.13" stroke="#1e1e1e" stroke-width="1" fill="none"></path></g></g><mask></mask><g stroke-linecap="round"><g transform="translate(971.8037674388249 346.9825258887381) rotate(0 -49.69184181906962 -58.936836936257095)"><path d="M0 0 C-16.56 -19.65, -82.82 -98.23, -99.38 -117.87 M0 0 C-16.56 -19.65, -82.82 -98.23, -99.38 -117.87" stroke="#1e1e1e" stroke-width="1" fill="none"></path></g></g><mask></mask><g stroke-linecap="round"><g transform="translate(702.9285621387538 206.76676661139442) rotate(0 -106.92148090953758 104.21860046356761)"><path d="M0 0 C-31.84 3.34, -155.62 -15.02, -191.06 20.03 C-226.5 55.08, -209.04 178.61, -212.63 210.32 M0 0 C-31.84 3.34, -155.62 -15.02, -191.06 20.03 C-226.5 55.08, -209.04 178.61, -212.63 210.32" stroke="#1e1e1e" stroke-width="1" fill="none"></path></g><g transform="translate(702.9285621387538 206.76676661139442) rotate(0 -106.92148090953758 104.21860046356761)"><path d="M-223.16 182.23 C-220.8 188.53, -218.44 194.83, -212.63 210.32 M-223.16 182.23 C-220.13 190.32, -217.1 198.41, -212.63 210.32" stroke="#1e1e1e" stroke-width="1" fill="none"></path></g><g transform="translate(702.9285621387538 206.76676661139442) rotate(0 -106.92148090953758 104.21860046356761)"><path d="M-202.64 182.04 C-204.88 188.38, -207.12 194.72, -212.63 210.32 M-202.64 182.04 C-205.52 190.19, -208.4 198.33, -212.63 210.32" stroke="#1e1e1e" stroke-width="1" fill="none"></path></g></g><mask></mask><g stroke-linecap="round" transform="translate(388.59881138413726 417.0904193990364) rotate(0 105.5 30)"><path d="M15 0 M15 0 C57.92 0, 100.85 0, 196 0 M15 0 C65.43 0, 115.85 0, 196 0 M196 0 C206 0, 211 5, 211 15 M196 0 C206 0, 211 5, 211 15 M211 15 C211 22.14, 211 29.28, 211 45 M211 15 C211 21.78, 211 28.56, 211 45 M211 45 C211 55, 206 60, 196 60 M211 45 C211 55, 206 60, 196 60 M196 60 C143.03 60, 90.06 60, 15 60 M196 60 C136.08 60, 76.16 60, 15 60 M15 60 C5 60, 0 55, 0 45 M15 60 C5 60, 0 55, 0 45 M0 45 C0 34.69, 0 24.39, 0 15 M0 45 C0 37.67, 0 30.34, 0 15 M0 15 C0 5, 5 0, 15 0 M0 15 C0 5, 5 0, 15 0" stroke="#1e1e1e" stroke-width="1" fill="none"></path></g><g transform="translate(395.09881138413726 427.8904193990364) rotate(0 99 19.19999999999999)"><text x="99" y="0" font-family="Cascadia, Segoe UI Emoji" font-size="16px" fill="#1e1e1e" text-anchor="middle" style="white-space: pre;" direction="ltr" dominant-baseline="text-before-edge">bpm_中Fetch并New个root</text><text x="99" y="19.2" font-family="Cascadia, Segoe UI Emoji" font-size="16px" fill="#1e1e1e" text-anchor="middle" style="white-space: pre;" direction="ltr" dominant-baseline="text-before-edge">_page_id_对应的page*</text></g><g transform="translate(32.52340736567771 427.7066087371641) rotate(0 168.75 19.19999999999999)"><text x="0" y="0" font-family="Cascadia, Segoe UI Emoji" font-size="16px" fill="#1e1e1e" text-anchor="start" style="white-space: pre;" direction="ltr" dominant-baseline="text-before-edge">1.bpm_-&gt;NewPageGuard(&amp;root_page_id_)</text><text x="0" y="19.2" font-family="Cascadia, Segoe UI Emoji" font-size="16px" fill="#1e1e1e" text-anchor="start" style="white-space: pre;" direction="ltr" dominant-baseline="text-before-edge">2.bpm-&gt;FetchPageWrite(root_page_id)</text></g><g stroke-linecap="round" transform="translate(398.5504470045398 534.2693972715069) rotate(0 101.8754282830534 29.834941426277965)"><path d="M14.92 0 M14.92 0 C59.08 0, 103.25 0, 188.83 0 M14.92 0 C74.95 0, 134.99 0, 188.83 0 M188.83 0 C198.78 0, 203.75 4.97, 203.75 14.92 M188.83 0 C198.78 0, 203.75 4.97, 203.75 14.92 M203.75 14.92 C203.75 26.15, 203.75 37.38, 203.75 44.75 M203.75 14.92 C203.75 23.51, 203.75 32.11, 203.75 44.75 M203.75 44.75 C203.75 54.7, 198.78 59.67, 188.83 59.67 M203.75 44.75 C203.75 54.7, 198.78 59.67, 188.83 59.67 M188.83 59.67 C149.97 59.67, 111.11 59.67, 14.92 59.67 M188.83 59.67 C127.28 59.67, 65.73 59.67, 14.92 59.67 M14.92 59.67 C4.97 59.67, 0 54.7, 0 44.75 M14.92 59.67 C4.97 59.67, 0 54.7, 0 44.75 M0 44.75 C0 34.99, 0 25.22, 0 14.92 M0 44.75 C0 38.22, 0 31.69, 0 14.92 M0 14.92 C0 4.97, 4.97 0, 14.92 0 M0 14.92 C0 4.97, 4.97 0, 14.92 0" stroke="#1e1e1e" stroke-width="1" fill="none"></path></g><g transform="translate(406.1133752875932 544.9043386977849) rotate(0 94.3125 19.19999999999999)"><text x="94.3125" y="0" font-family="Cascadia, Segoe UI Emoji" font-size="16px" fill="#1e1e1e" text-anchor="middle" style="white-space: pre;" direction="ltr" dominant-baseline="text-before-edge">page_guard强转为AsMut</text><text x="94.3125" y="19.2" font-family="Cascadia, Segoe UI Emoji" font-size="16px" fill="#1e1e1e" text-anchor="middle" style="white-space: pre;" direction="ltr" dominant-baseline="text-before-edge">  Leaf Page</text></g><g stroke-linecap="round"><g transform="translate(494.60444694981 481.1486376766788) rotate(0 0 24.01347378196317)"><path d="M0 0 C0 8, 0 40.02, 0 48.03 M0 0 C0 8, 0 40.02, 0 48.03" stroke="#1e1e1e" stroke-width="1" fill="none"></path></g><g transform="translate(494.60444694981 481.1486376766788) rotate(0 0 24.01347378196317)"><path d="M-8.21 25.46 C-6.22 30.95, -4.22 36.44, 0 48.03 M-8.21 25.46 C-6.19 31.03, -4.16 36.6, 0 48.03" stroke="#1e1e1e" stroke-width="1" fill="none"></path></g><g transform="translate(494.60444694981 481.1486376766788) rotate(0 0 24.01347378196317)"><path d="M8.21 25.46 C6.22 30.95, 4.22 36.44, 0 48.03 M8.21 25.46 C6.19 31.03, 4.16 36.6, 0 48.03" stroke="#1e1e1e" stroke-width="1" fill="none"></path></g></g><mask></mask><g stroke-linecap="round" transform="translate(365.02445263753185 633.2339148530111) rotate(0 133 17)"><path d="M8.5 0 M8.5 0 C105.03 0, 201.56 0, 257.5 0 M8.5 0 C76.21 0, 143.92 0, 257.5 0 M257.5 0 C263.17 0, 266 2.83, 266 8.5 M257.5 0 C263.17 0, 266 2.83, 266 8.5 M266 8.5 C266 13, 266 17.5, 266 25.5 M266 8.5 C266 12.33, 266 16.16, 266 25.5 M266 25.5 C266 31.17, 263.17 34, 257.5 34 M266 25.5 C266 31.17, 263.17 34, 257.5 34 M257.5 34 C188.87 34, 120.24 34, 8.5 34 M257.5 34 C175.94 34, 94.38 34, 8.5 34 M8.5 34 C2.83 34, 0 31.17, 0 25.5 M8.5 34 C2.83 34, 0 31.17, 0 25.5 M0 25.5 C0 19.59, 0 13.69, 0 8.5 M0 25.5 C0 21.49, 0 17.47, 0 8.5 M0 8.5 C0 2.83, 2.83 0, 8.5 0 M0 8.5 C0 2.83, 2.83 0, 8.5 0" stroke="#1e1e1e" stroke-width="1" fill="none"></path></g><g transform="translate(407.83695263753185 640.6339148530112) rotate(0 90.1875 9.600000000000023)"><text x="90.1875" y="0" font-family="Cascadia, Segoe UI Emoji" font-size="16px" fill="#1e1e1e" text-anchor="middle" style="white-space: pre;" direction="ltr" dominant-baseline="text-before-edge">leaf page修改内部信息</text></g><g stroke-linecap="round"><g transform="translate(494.7446839651939 598.3052924176031) rotate(0 0.1893087486645264 15.645100122197448)"><path d="M0 0 C0.06 5.22, 0.32 26.08, 0.38 31.29 M0 0 C0.06 5.22, 0.32 26.08, 0.38 31.29" stroke="#1e1e1e" stroke-width="1" fill="none"></path></g><g transform="translate(494.7446839651939 598.3052924176031) rotate(0 0.1893087486645264 15.645100122197448)"><path d="M-5.15 16.65 C-3.74 20.39, -2.33 24.12, 0.38 31.29 M-5.15 16.65 C-3.55 20.9, -1.95 25.14, 0.38 31.29" stroke="#1e1e1e" stroke-width="1" fill="none"></path></g><g transform="translate(494.7446839651939 598.3052924176031) rotate(0 0.1893087486645264 15.645100122197448)"><path d="M5.55 16.52 C4.23 20.29, 2.91 24.06, 0.38 31.29 M5.55 16.52 C4.05 20.8, 2.55 25.08, 0.38 31.29" stroke="#1e1e1e" stroke-width="1" fill="none"></path></g></g><mask></mask><g transform="translate(10 600.4883247687276) rotate(0 173.1875 67.19999999999999)"><text x="0" y="0" font-family="Cascadia, Segoe UI Emoji" font-size="16px" fill="#1e1e1e" text-anchor="start" style="white-space: pre;" direction="ltr" dominant-baseline="text-before-edge">leaf page设置：</text><text x="0" y="19.2" font-family="Cascadia, Segoe UI Emoji" font-size="16px" fill="#1e1e1e" text-anchor="start" style="white-space: pre;" direction="ltr" dominant-baseline="text-before-edge">1.SetPageType</text><text x="0" y="38.4" font-family="Cascadia, Segoe UI Emoji" font-size="16px" fill="#1e1e1e" text-anchor="start" style="white-space: pre;" direction="ltr" dominant-baseline="text-before-edge">2.SetMaxSize</text><text x="0" y="57.599999999999994" font-family="Cascadia, Segoe UI Emoji" font-size="16px" fill="#1e1e1e" text-anchor="start" style="white-space: pre;" direction="ltr" dominant-baseline="text-before-edge">3.SetNextPageId</text><text x="0" y="76.8" font-family="Cascadia, Segoe UI Emoji" font-size="16px" fill="#1e1e1e" text-anchor="start" style="white-space: pre;" direction="ltr" dominant-baseline="text-before-edge">4.SetSize</text><text x="0" y="96" font-family="Cascadia, Segoe UI Emoji" font-size="16px" fill="#1e1e1e" text-anchor="start" style="white-space: pre;" direction="ltr" dominant-baseline="text-before-edge"></text><text x="0" y="115.19999999999999" font-family="Cascadia, Segoe UI Emoji" font-size="16px" fill="#1e1e1e" text-anchor="start" style="white-space: pre;" direction="ltr" dominant-baseline="text-before-edge">自定义函数SetRootPageId修改root_page_id</text></g><g stroke-linecap="round" transform="translate(373.0816161381309 723.4665126648524) rotate(0 132.4380384249214 29.834967630632264)"><path d="M14.92 0 M14.92 0 C62.74 0, 110.56 0, 249.96 0 M14.92 0 C75.77 0, 136.63 0, 249.96 0 M249.96 0 C259.9 0, 264.88 4.97, 264.88 14.92 M249.96 0 C259.9 0, 264.88 4.97, 264.88 14.92 M264.88 14.92 C264.88 25.45, 264.88 35.98, 264.88 44.75 M264.88 14.92 C264.88 25.39, 264.88 35.86, 264.88 44.75 M264.88 44.75 C264.88 54.7, 259.9 59.67, 249.96 59.67 M264.88 44.75 C264.88 54.7, 259.9 59.67, 249.96 59.67 M249.96 59.67 C168.05 59.67, 86.14 59.67, 14.92 59.67 M249.96 59.67 C197.24 59.67, 144.52 59.67, 14.92 59.67 M14.92 59.67 C4.97 59.67, 0 54.7, 0 44.75 M14.92 59.67 C4.97 59.67, 0 54.7, 0 44.75 M0 44.75 C0 35.81, 0 26.86, 0 14.92 M0 44.75 C0 34, 0 23.25, 0 14.92 M0 14.92 C0 4.97, 4.97 0, 14.92 0 M0 14.92 C0 4.97, 4.97 0, 14.92 0" stroke="#1e1e1e" stroke-width="1" fill="none"></path></g><g transform="translate(382.5196545630523 734.1014802954846) rotate(0 123 19.19999999999999)"><text x="123" y="0" font-family="Cascadia, Segoe UI Emoji" font-size="16px" fill="#1e1e1e" text-anchor="middle" style="white-space: pre;" direction="ltr" dominant-baseline="text-before-edge">上下文重设root_page_id且writ</text><text x="123" y="19.2" font-family="Cascadia, Segoe UI Emoji" font-size="16px" fill="#1e1e1e" text-anchor="middle" style="white-space: pre;" direction="ltr" dominant-baseline="text-before-edge">e_set_加锁</text></g><g stroke-linecap="round"><g transform="translate(498.2427315679629 673.9842014653916) rotate(0 1.091542379916575 22.921944504223802)"><path d="M0 0 C0.36 7.64, 1.82 38.2, 2.18 45.84 M0 0 C0.36 7.64, 1.82 38.2, 2.18 45.84" stroke="#1e1e1e" stroke-width="1" fill="none"></path></g><g transform="translate(498.2427315679629 673.9842014653916) rotate(0 1.091542379916575 22.921944504223802)"><path d="M-6.68 24.68 C-4.32 30.32, -1.96 35.96, 2.18 45.84 M-6.68 24.68 C-3.36 32.6, -0.05 40.52, 2.18 45.84" stroke="#1e1e1e" stroke-width="1" fill="none"></path></g><g transform="translate(498.2427315679629 673.9842014653916) rotate(0 1.091542379916575 22.921944504223802)"><path d="M9 23.93 C7.18 29.77, 5.37 35.61, 2.18 45.84 M9 23.93 C6.45 32.13, 3.9 40.33, 2.18 45.84" stroke="#1e1e1e" stroke-width="1" fill="none"></path></g></g><mask></mask><g stroke-linecap="round" transform="translate(393.4566546269038 815.154395499165) rotate(0 116.06521717842512 21.466607073043747)"><path d="M10.73 0 M10.73 0 C57.06 0, 103.39 0, 221.4 0 M10.73 0 C94.83 0, 178.92 0, 221.4 0 M221.4 0 C228.55 0, 232.13 3.58, 232.13 10.73 M221.4 0 C228.55 0, 232.13 3.58, 232.13 10.73 M232.13 10.73 C232.13 17.52, 232.13 24.3, 232.13 32.2 M232.13 10.73 C232.13 18.29, 232.13 25.84, 232.13 32.2 M232.13 32.2 C232.13 39.36, 228.55 42.93, 221.4 42.93 M232.13 32.2 C232.13 39.36, 228.55 42.93, 221.4 42.93 M221.4 42.93 C140.01 42.93, 58.62 42.93, 10.73 42.93 M221.4 42.93 C152.92 42.93, 84.45 42.93, 10.73 42.93 M10.73 42.93 C3.58 42.93, 0 39.36, 0 32.2 M10.73 42.93 C3.58 42.93, 0 39.36, 0 32.2 M0 32.2 C0 23.78, 0 15.36, 0 10.73 M0 32.2 C0 23.68, 0 15.16, 0 10.73 M0 10.73 C0 3.58, 3.58 0, 10.73 0 M0 10.73 C0 3.58, 3.58 0, 10.73 0" stroke="#1e1e1e" stroke-width="1" fill="none"></path></g><g transform="translate(443.89687180532894 827.0210025722088) rotate(0 65.625 9.600000000000023)"><text x="65.625" y="0" font-family="Cascadia, Segoe UI Emoji" font-size="16px" fill="#1e1e1e" text-anchor="middle" style="white-space: pre;" direction="ltr" dominant-baseline="text-before-edge">return page_id</text></g><g stroke-linecap="round"><g transform="translate(506.2473232786423 788.2301551396015) rotate(0 0.3638474599721917 12.370604004219558)"><path d="M0 0 C0.12 4.12, 0.61 20.62, 0.73 24.74 M0 0 C0.12 4.12, 0.61 20.62, 0.73 24.74" stroke="#1e1e1e" stroke-width="1" fill="none"></path></g><g transform="translate(506.2473232786423 788.2301551396015) rotate(0 0.3638474599721917 12.370604004219558)"><path d="M-3.85 13.24 C-2.72 16.07, -1.6 18.89, 0.73 24.74 M-3.85 13.24 C-2.54 16.53, -1.23 19.81, 0.73 24.74" stroke="#1e1e1e" stroke-width="1" fill="none"></path></g><g transform="translate(506.2473232786423 788.2301551396015) rotate(0 0.3638474599721917 12.370604004219558)"><path d="M4.62 12.99 C3.66 15.88, 2.7 18.77, 0.73 24.74 M4.62 12.99 C3.51 16.35, 2.39 19.71, 0.73 24.74" stroke="#1e1e1e" stroke-width="1" fill="none"></path></g></g><mask></mask><g stroke-linecap="round" transform="translate(702.7214140757862 387.452158326976) rotate(0 101.51159392525831 28.37959089292073)"><path d="M14.19 0 M14.19 0 C71.19 0, 128.19 0, 188.83 0 M14.19 0 C81.35 0, 148.51 0, 188.83 0 M188.83 0 C198.29 0, 203.02 4.73, 203.02 14.19 M188.83 0 C198.29 0, 203.02 4.73, 203.02 14.19 M203.02 14.19 C203.02 23.53, 203.02 32.87, 203.02 42.57 M203.02 14.19 C203.02 20.18, 203.02 26.17, 203.02 42.57 M203.02 42.57 C203.02 52.03, 198.29 56.76, 188.83 56.76 M203.02 42.57 C203.02 52.03, 198.29 56.76, 188.83 56.76 M188.83 56.76 C126.23 56.76, 63.63 56.76, 14.19 56.76 M188.83 56.76 C133.12 56.76, 77.4 56.76, 14.19 56.76 M14.19 56.76 C4.73 56.76, 0 52.03, 0 42.57 M14.19 56.76 C4.73 56.76, 0 52.03, 0 42.57 M0 42.57 C0 32.86, 0 23.15, 0 14.19 M0 42.57 C0 34.08, 0 25.59, 0 14.19 M0 14.19 C0 4.73, 4.73 0, 14.19 0 M0 14.19 C0 4.73, 4.73 0, 14.19 0" stroke="#1e1e1e" stroke-width="1" fill="none"></path></g><g transform="translate(717.3580080010445 396.63174921989673) rotate(0 86.875 19.200000000000017)"><text x="86.875" y="0" font-family="Cascadia, Segoe UI Emoji" font-size="16px" fill="#1e1e1e" text-anchor="middle" style="white-space: pre;" direction="ltr" dominant-baseline="text-before-edge">获取root page*</text><text x="86.875" y="19.2" font-family="Cascadia, Segoe UI Emoji" font-size="16px" fill="#1e1e1e" text-anchor="middle" style="white-space: pre;" direction="ltr" dominant-baseline="text-before-edge">上下文write_set_记录</text></g><g stroke-linecap="round"><g transform="translate(797.3200503855219 239.7327886267663) rotate(0 0 69.12975958570664)"><path d="M0 0 C0 23.04, 0 115.22, 0 138.26 M0 0 C0 23.04, 0 115.22, 0 138.26" stroke="#1e1e1e" stroke-width="1" fill="none"></path></g><g transform="translate(797.3200503855219 239.7327886267663) rotate(0 0 69.12975958570664)"><path d="M-10.26 110.07 C-6.57 120.21, -2.88 130.36, 0 138.26 M-10.26 110.07 C-6.39 120.7, -2.52 131.33, 0 138.26" stroke="#1e1e1e" stroke-width="1" fill="none"></path></g><g transform="translate(797.3200503855219 239.7327886267663) rotate(0 0 69.12975958570664)"><path d="M10.26 110.07 C6.57 120.21, 2.88 130.36, 0 138.26 M10.26 110.07 C6.39 120.7, 2.52 131.33, 0 138.26" stroke="#1e1e1e" stroke-width="1" fill="none"></path></g></g><mask></mask><g transform="translate(646.5796309088645 317.8092217018674) rotate(0 150 9.599999999999994)"><text x="0" y="0" font-family="Cascadia, Segoe UI Emoji" font-size="16px" fill="#1e1e1e" text-anchor="start" style="white-space: pre;" direction="ltr" dominant-baseline="text-before-edge">root_page_id_ != INVALID_PAGE_ID</text></g><g stroke-linecap="round" transform="translate(696.8999333292943 530.9799777737342) rotate(0 116.42905153622017 33.10951615731892)"><path d="M16.55 0 M16.55 0 C81.91 0, 147.26 0, 216.3 0 M16.55 0 C79.21 0, 141.87 0, 216.3 0 M216.3 0 C227.34 0, 232.86 5.52, 232.86 16.55 M216.3 0 C227.34 0, 232.86 5.52, 232.86 16.55 M232.86 16.55 C232.86 28.08, 232.86 39.6, 232.86 49.66 M232.86 16.55 C232.86 23.67, 232.86 30.79, 232.86 49.66 M232.86 49.66 C232.86 60.7, 227.34 66.22, 216.3 66.22 M232.86 49.66 C232.86 60.7, 227.34 66.22, 216.3 66.22 M216.3 66.22 C139.42 66.22, 62.54 66.22, 16.55 66.22 M216.3 66.22 C162.25 66.22, 108.19 66.22, 16.55 66.22 M16.55 66.22 C5.52 66.22, 0 60.7, 0 49.66 M16.55 66.22 C5.52 66.22, 0 60.7, 0 49.66 M0 49.66 C0 40.07, 0 30.48, 0 16.55 M0 49.66 C0 42.61, 0 35.55, 0 16.55 M0 16.55 C0 5.52, 5.52 0, 16.55 0 M0 16.55 C0 5.52, 5.52 0, 16.55 0" stroke="#1e1e1e" stroke-width="1" fill="none"></path></g><g transform="translate(739.1414848655145 554.489493931053) rotate(0 74.1875 9.600000000000023)"><text x="74.1875" y="0" font-family="Cascadia, Segoe UI Emoji" font-size="16px" fill="#1e1e1e" text-anchor="middle" style="white-space: pre;" direction="ltr" dominant-baseline="text-before-edge">搜索目标leaf page</text></g><g stroke-linecap="round"><g transform="translate(802.4137838033608 448.7519192638635) rotate(0 1.455363635534411 41.1140161527581)"><path d="M0 0 C0.49 13.7, 2.43 68.52, 2.91 82.23 M0 0 C0.49 13.7, 2.43 68.52, 2.91 82.23" stroke="#1e1e1e" stroke-width="1" fill="none"></path></g><g transform="translate(802.4137838033608 448.7519192638635) rotate(0 1.455363635534411 41.1140161527581)"><path d="M-8.34 54.42 C-4.54 63.81, -0.74 73.2, 2.91 82.23 M-8.34 54.42 C-4.46 64.01, -0.58 73.6, 2.91 82.23" stroke="#1e1e1e" stroke-width="1" fill="none"></path></g><g transform="translate(802.4137838033608 448.7519192638635) rotate(0 1.455363635534411 41.1140161527581)"><path d="M12.17 53.69 C9.04 63.33, 5.92 72.97, 2.91 82.23 M12.17 53.69 C8.98 63.53, 5.78 73.37, 2.91 82.23" stroke="#1e1e1e" stroke-width="1" fill="none"></path></g></g><mask></mask><g transform="translate(694.7168485694613 473.4931272723026) rotate(0 145.3125 9.600000000000023)"><text x="0" y="0" font-family="Cascadia, Segoe UI Emoji" font-size="16px" fill="#1e1e1e" text-anchor="start" style="white-space: pre;" direction="ltr" dominant-baseline="text-before-edge">while(!root_page-&gt;IsLeafPage())</text></g><g stroke-linecap="round" transform="translate(1021.4460240534647 447.29652942397485) rotate(0 116.49999999999997 34)"><path d="M17 0 M17 0 C80.22 0, 143.44 0, 216 0 M17 0 C80.34 0, 143.69 0, 216 0 M216 0 C227.33 0, 233 5.67, 233 17 M216 0 C227.33 0, 233 5.67, 233 17 M233 17 C233 25.36, 233 33.71, 233 51 M233 17 C233 28.51, 233 40.03, 233 51 M233 51 C233 62.33, 227.33 68, 216 68 M233 51 C233 62.33, 227.33 68, 216 68 M216 68 C150.16 68, 84.31 68, 17 68 M216 68 C170.91 68, 125.82 68, 17 68 M17 68 C5.67 68, 0 62.33, 0 51 M17 68 C5.67 68, 0 62.33, 0 51 M0 51 C0 43.02, 0 35.04, 0 17 M0 51 C0 37.57, 0 24.13, 0 17 M0 17 C0 5.67, 5.67 0, 17 0 M0 17 C0 5.67, 5.67 0, 17 0" stroke="#1e1e1e" stroke-width="1" fill="none"></path></g><g transform="translate(1029.0085240534647 452.4965294239749) rotate(0 108.93749999999997 28.80000000000001)"><text x="108.9375" y="0" font-family="Cascadia, Segoe UI Emoji" font-size="16px" fill="#1e1e1e" text-anchor="middle" style="white-space: pre;" direction="ltr" dominant-baseline="text-before-edge">Internal </text><text x="108.9375" y="19.2" font-family="Cascadia, Segoe UI Emoji" font-size="16px" fill="#1e1e1e" text-anchor="middle" style="white-space: pre;" direction="ltr" dominant-baseline="text-before-edge">page中Lookup第一个满足&gt;=k</text><text x="108.9375" y="38.4" font-family="Cascadia, Segoe UI Emoji" font-size="16px" fill="#1e1e1e" text-anchor="middle" style="white-space: pre;" direction="ltr" dominant-baseline="text-before-edge">ey的child page地址</text></g><g transform="translate(1276.1344768415033 465.4884831529145) rotate(0 97.625 9.600000000000023)"><text x="0" y="0" font-family="Cascadia, Segoe UI Emoji" font-size="16px" fill="#1e1e1e" text-anchor="start" style="white-space: pre;" direction="ltr" dominant-baseline="text-before-edge">与Search的GetKeyAt一样</text></g><g stroke-linecap="round" transform="translate(1025.084315222706 557.9040871115258) rotate(0 115.70138282063016 34)"><path d="M17 0 M17 0 C82.97 0, 148.95 0, 214.4 0 M17 0 C69.48 0, 121.96 0, 214.4 0 M214.4 0 C225.74 0, 231.4 5.67, 231.4 17 M214.4 0 C225.74 0, 231.4 5.67, 231.4 17 M231.4 17 C231.4 29.8, 231.4 42.59, 231.4 51 M231.4 17 C231.4 30.03, 231.4 43.05, 231.4 51 M231.4 51 C231.4 62.33, 225.74 68, 214.4 68 M231.4 51 C231.4 62.33, 225.74 68, 214.4 68 M214.4 68 C172.52 68, 130.63 68, 17 68 M214.4 68 C166.1 68, 117.8 68, 17 68 M17 68 C5.67 68, 0 62.33, 0 51 M17 68 C5.67 68, 0 62.33, 0 51 M0 51 C0 42.76, 0 34.52, 0 17 M0 51 C0 37.69, 0 24.37, 0 17 M0 17 C0 5.67, 5.67 0, 17 0 M0 17 C0 5.67, 5.67 0, 17 0" stroke="#1e1e1e" stroke-width="1" fill="none"></path></g><g transform="translate(1060.5356980433362 563.1040871115258) rotate(0 80.25 28.80000000000001)"><text x="80.25" y="0" font-family="Cascadia, Segoe UI Emoji" font-size="16px" fill="#1e1e1e" text-anchor="middle" style="white-space: pre;" direction="ltr" dominant-baseline="text-before-edge">获取page </text><text x="80.25" y="19.2" font-family="Cascadia, Segoe UI Emoji" font-size="16px" fill="#1e1e1e" text-anchor="middle" style="white-space: pre;" direction="ltr" dominant-baseline="text-before-edge">guard,强转为AsMut </text><text x="80.25" y="38.4" font-family="Cascadia, Segoe UI Emoji" font-size="16px" fill="#1e1e1e" text-anchor="middle" style="white-space: pre;" direction="ltr" dominant-baseline="text-before-edge">Internal page</text></g><g stroke-linecap="round"><g transform="translate(1135.6918991146113 519.3370162807503) rotate(0 0.36383435779504225 16.736655604291172)"><path d="M0 0 C0.12 5.58, 0.61 27.89, 0.73 33.47 M0 0 C0.12 5.58, 0.61 27.89, 0.73 33.47" stroke="#1e1e1e" stroke-width="1" fill="none"></path></g><g transform="translate(1135.6918991146113 519.3370162807503) rotate(0 0.36383435779504225 16.736655604291172)"><path d="M-5.34 17.87 C-3.66 22.18, -1.99 26.48, 0.73 33.47 M-5.34 17.87 C-3.18 23.43, -1.02 28.99, 0.73 33.47" stroke="#1e1e1e" stroke-width="1" fill="none"></path></g><g transform="translate(1135.6918991146113 519.3370162807503) rotate(0 0.36383435779504225 16.736655604291172)"><path d="M6.11 17.62 C4.62 22, 3.14 26.37, 0.73 33.47 M6.11 17.62 C4.19 23.27, 2.27 28.92, 0.73 33.47" stroke="#1e1e1e" stroke-width="1" fill="none"></path></g></g><mask></mask><g stroke-linecap="round" transform="translate(1036.727106387386 684.6953950779416) rotate(0 121.88664551620849 31.290278857457963)"><path d="M15.65 0 M15.65 0 C93.77 0, 171.89 0, 228.13 0 M15.65 0 C79.55 0, 143.45 0, 228.13 0 M228.13 0 C238.56 0, 243.77 5.22, 243.77 15.65 M228.13 0 C238.56 0, 243.77 5.22, 243.77 15.65 M243.77 15.65 C243.77 23.5, 243.77 31.36, 243.77 46.94 M243.77 15.65 C243.77 26.67, 243.77 37.7, 243.77 46.94 M243.77 46.94 C243.77 57.37, 238.56 62.58, 228.13 62.58 M243.77 46.94 C243.77 57.37, 238.56 62.58, 228.13 62.58 M228.13 62.58 C152.22 62.58, 76.32 62.58, 15.65 62.58 M228.13 62.58 C153.79 62.58, 79.46 62.58, 15.65 62.58 M15.65 62.58 C5.22 62.58, 0 57.37, 0 46.94 M15.65 62.58 C5.22 62.58, 0 57.37, 0 46.94 M0 46.94 C0 38.85, 0 30.76, 0 15.65 M0 46.94 C0 39.47, 0 32, 0 15.65 M0 15.65 C0 5.22, 5.22 0, 15.65 0 M0 15.65 C0 5.22, 5.22 0, 15.65 0" stroke="#1e1e1e" stroke-width="1" fill="none"></path></g><g stroke-linecap="round"><g transform="translate(1129.7074599526882 628.6638820076901) rotate(0 2.608071628489313 24.37733434411257)"><path d="M0 0 C0.87 8.13, 4.35 40.63, 5.22 48.75" stroke="#1e1e1e" stroke-width="1.5" fill="none" stroke-dasharray="8 9"></path></g><g transform="translate(1129.7074599526882 628.6638820076901) rotate(0 2.608071628489313 24.37733434411257)"><path d="M-5.57 26.74 C-2.98 32.03, -0.39 37.31, 5.22 48.75" stroke="#1e1e1e" stroke-width="1.5" fill="none"></path></g><g transform="translate(1129.7074599526882 628.6638820076901) rotate(0 2.608071628489313 24.37733434411257)"><path d="M11.1 24.96 C9.69 30.67, 8.28 36.39, 5.22 48.75" stroke="#1e1e1e" stroke-width="1.5" fill="none"></path></g></g><mask></mask><g transform="translate(1148.7901849365971 631.5745568700502) rotate(0 88.8125 19.19999999999999)"><text x="0" y="0" font-family="Cascadia, Segoe UI Emoji" font-size="16px" fill="#1e1e1e" text-anchor="start" style="white-space: pre;" direction="ltr" dominant-baseline="text-before-edge">crabbing lock</text><text x="0" y="19.2" font-family="Cascadia, Segoe UI Emoji" font-size="16px" fill="#1e1e1e" text-anchor="start" style="white-space: pre;" direction="ltr" dominant-baseline="text-before-edge">if:该page不会发生分裂</text></g><g transform="translate(1045.2555493456207 696.1200218905879) rotate(0 117.1875 19.19999999999999)"><text x="0" y="0" font-family="Cascadia, Segoe UI Emoji" font-size="16px" fill="#1e1e1e" text-anchor="start" style="white-space: pre;" direction="ltr" dominant-baseline="text-before-edge">ctx.header_page_.reset();</text><text x="0" y="19.2" font-family="Cascadia, Segoe UI Emoji" font-size="16px" fill="#1e1e1e" text-anchor="start" style="white-space: pre;" direction="ltr" dominant-baseline="text-before-edge">ctx.write_set_.clear();</text></g><g stroke-linecap="round"><g transform="translate(1025.811892223055 460.5694214099988) rotate(0 -46.57162323492349 42.20551922614311)"><path d="M0 0 C-15.52 14.07, -77.62 70.34, -93.14 84.41 M0 0 C-15.52 14.07, -77.62 70.34, -93.14 84.41" stroke="#1e1e1e" stroke-width="1" fill="none"></path></g></g><mask></mask><g stroke-linecap="round"><g transform="translate(1037.4548013073302 729.083946655209) rotate(0 -53.84844141259549 -68.03824341014445)"><path d="M0 0 C-17.95 -22.68, -89.75 -113.4, -107.7 -136.08 M0 0 C-17.95 -22.68, -89.75 -113.4, -107.7 -136.08" stroke="#1e1e1e" stroke-width="1" fill="none"></path></g></g><mask></mask><g stroke-linecap="round" transform="translate(720.185607373895 657.5965354521634) rotate(0 105.87767172968438 30.1987888862501)"><path d="M15.1 0 M15.1 0 C60.34 0, 105.58 0, 196.66 0 M15.1 0 C75.94 0, 136.77 0, 196.66 0 M196.66 0 C206.72 0, 211.76 5.03, 211.76 15.1 M196.66 0 C206.72 0, 211.76 5.03, 211.76 15.1 M211.76 15.1 C211.76 26.6, 211.76 38.09, 211.76 45.3 M211.76 15.1 C211.76 26.33, 211.76 37.56, 211.76 45.3 M211.76 45.3 C211.76 55.36, 206.72 60.4, 196.66 60.4 M211.76 45.3 C211.76 55.36, 206.72 60.4, 196.66 60.4 M196.66 60.4 C135.84 60.4, 75.03 60.4, 15.1 60.4 M196.66 60.4 C151.39 60.4, 106.13 60.4, 15.1 60.4 M15.1 60.4 C5.03 60.4, 0 55.36, 0 45.3 M15.1 60.4 C5.03 60.4, 0 55.36, 0 45.3 M0 45.3 C0 34.38, 0 23.47, 0 15.1 M0 45.3 C0 38.87, 0 32.45, 0 15.1 M0 15.1 C0 5.03, 5.03 0, 15.1 0 M0 15.1 C0 5.03, 5.03 0, 15.1 0" stroke="#1e1e1e" stroke-width="1" fill="none"></path></g><g transform="translate(732.3132791035794 678.1953243384135) rotate(0 93.75 9.600000000000023)"><text x="93.75" y="0" font-family="Cascadia, Segoe UI Emoji" font-size="16px" fill="#1e1e1e" text-anchor="middle" style="white-space: pre;" direction="ltr" dominant-baseline="text-before-edge">return root_page_id;</text></g><g stroke-linecap="round"><g transform="translate(816.9965035672572 604.4758020616894) rotate(0 -0.0986251750501026 23.649639424168186)"><path d="M0 0 C-0.03 7.88, -0.16 39.42, -0.2 47.3 M0 0 C-0.03 7.88, -0.16 39.42, -0.2 47.3" stroke="#1e1e1e" stroke-width="1" fill="none"></path></g><g transform="translate(816.9965035672572 604.4758020616894) rotate(0 -0.0986251750501026 23.649639424168186)"><path d="M-8.19 25.04 C-6.19 30.62, -4.19 36.19, -0.2 47.3 M-8.19 25.04 C-5.2 33.37, -2.21 41.69, -0.2 47.3" stroke="#1e1e1e" stroke-width="1" fill="none"></path></g><g transform="translate(816.9965035672572 604.4758020616894) rotate(0 -0.0986251750501026 23.649639424168186)"><path d="M7.98 25.11 C5.94 30.67, 3.89 36.22, -0.2 47.3 M7.98 25.11 C4.92 33.41, 1.87 41.71, -0.2 47.3" stroke="#1e1e1e" stroke-width="1" fill="none"></path></g></g><mask></mask></svg>