<svg version="1.1" xmlns="http://www.w3.org/2000/svg" viewBox="0 0 1957.5530433654785 1514.301615124657" width="1957.5530433654785" height="1514.301615124657" filter="invert(93%) hue-rotate(180deg)">
  <!-- svg-source:excalidraw -->
  
  <defs>
    <style class="style-fonts">
      @font-face {
        font-family: "Virgil";
        src: url("https://excalidraw.com/Virgil.woff2");
      }
      @font-face {
        font-family: "Cascadia";
        src: url("https://excalidraw.com/Cascadia.woff2");
      }
      @font-face {
        font-family: "Assistant";
        src: url("https://excalidraw.com/Assistant-Regular.woff2");
      }
    </style>
    
  </defs>
  <g stroke-linecap="round" transform="translate(864.9752171834308 10) rotate(0 95.33894856770837 40.96043904622394)"><path d="M20.48 0 C75.83 -1.53, 131.66 0.1, 170.2 0 M20.48 0 C67.85 -1.26, 116.63 -1.37, 170.2 0 M170.2 0 C184.08 0.63, 192.64 5.94, 190.68 20.48 M170.2 0 C183.5 2.25, 191.22 7.43, 190.68 20.48 M190.68 20.48 C191.11 32.22, 189.04 44.79, 190.68 61.44 M190.68 20.48 C189.82 30.64, 190.09 38.91, 190.68 61.44 M190.68 61.44 C192.38 74.47, 182.69 81.04, 170.2 81.92 M190.68 61.44 C189.55 74.42, 184.57 83.29, 170.2 81.92 M170.2 81.92 C126.97 81.84, 85.02 84.64, 20.48 81.92 M170.2 81.92 C121.87 80.32, 75.12 80.25, 20.48 81.92 M20.48 81.92 C5.19 80.03, 1.71 76.41, 0 61.44 M20.48 81.92 C8.83 80.69, 0.68 74.11, 0 61.44 M0 61.44 C-0.73 51.8, 1.89 38.48, 0 20.48 M0 61.44 C0.13 53.53, -0.16 43.97, 0 20.48 M0 20.48 C-1.36 5.33, 7.18 -0.58, 20.48 0 M0 20.48 C-0.95 7.05, 8.29 2.14, 20.48 0" stroke="#1e1e1e" stroke-width="1" fill="none"></path></g><g transform="translate(884.7516657511392 41.36043904622394) rotate(0 75.5625 9.599999999999998)"><text x="75.5625" y="0" font-family="Cascadia, Segoe UI Emoji" font-size="16px" fill="#1e1e1e" text-anchor="middle" style="white-space: pre;" direction="ltr" dominant-baseline="text-before-edge">获取root page的id</text></g><g transform="translate(1075.0740687052407 40.01417795817059) rotate(0 201.5625 9.600000000000001)"><text x="0" y="0" font-family="Cascadia, Segoe UI Emoji" font-size="16px" fill="#1e1e1e" text-anchor="start" style="white-space: pre;" direction="ltr" dominant-baseline="text-before-edge">page_id_t root_page_id = ctx.root_page_id_;</text></g><g transform="translate(702.213897705078 372.450631459554) rotate(0 92.9375 28.80000000000001)"><text x="92.9375" y="0" font-family="Cascadia, Segoe UI Emoji" font-size="16px" fill="#1e1e1e" text-anchor="middle" style="white-space: pre;" direction="ltr" dominant-baseline="text-before-edge">若root page不存在</text><text x="92.9375" y="19.2" font-family="Cascadia, Segoe UI Emoji" font-size="16px" fill="#1e1e1e" text-anchor="middle" style="white-space: pre;" direction="ltr" dominant-baseline="text-before-edge">创建一个new root page</text><text x="92.9375" y="38.4" font-family="Cascadia, Segoe UI Emoji" font-size="16px" fill="#1e1e1e" text-anchor="middle" style="white-space: pre;" direction="ltr" dominant-baseline="text-before-edge">key-value对作为入口</text></g><g stroke-linecap="round"><g transform="translate(958.7867533951628 96.81498845418295) rotate(0 1.5867025789624165 38.659535424830224)"><path d="M-0.56 0.78 C0.02 13.6, 2.83 63.5, 3.34 76.17 M1.34 0.14 C1.79 13.13, 2.47 64.15, 2.48 77.1" stroke="#1e1e1e" stroke-width="1" fill="none"></path></g><g transform="translate(958.7867533951628 96.81498845418295) rotate(0 1.5867025789624165 38.659535424830224)"><path d="M-8.01 49 C-3.87 57.45, -4.04 64.17, 2.48 77.1 M-8.01 49 C-6.18 57.2, -2.01 63.05, 2.48 77.1" stroke="#1e1e1e" stroke-width="1" fill="none"></path></g><g transform="translate(958.7867533951628 96.81498845418295) rotate(0 1.5867025789624165 38.659535424830224)"><path d="M12.51 48.83 C10.72 57.23, 4.61 64, 2.48 77.1 M12.51 48.83 C9.03 57.2, 7.89 63.09, 2.48 77.1" stroke="#1e1e1e" stroke-width="1" fill="none"></path></g></g><mask></mask><g stroke-linecap="round" transform="translate(653.0614471435546 184.73872502644855) rotate(0 321.5041923522949 35.296592712402344)"><path d="M402.5 9 C444.08 14.63, 488.83 18.05, 562.51 27 M402.5 9 C457.49 14.13, 514.35 21.11, 562.51 27 M562.51 27 C644.39 34.63, 641.54 36.2, 562.51 45 M562.51 27 C644.15 36.65, 640.71 36.64, 562.51 45 M562.51 45 C529.31 50.23, 497.39 52.92, 402.5 61.59 M562.51 45 C512.26 48.7, 462.9 54.17, 402.5 61.59 M402.5 61.59 C323.75 69.58, 323.63 69.84, 241.5 61.59 M402.5 61.59 C323.07 69.8, 320.22 69.82, 241.5 61.59 M241.5 61.59 C182.59 54.68, 121.24 49.56, 80.5 45 M241.5 61.59 C191.36 57.03, 142.88 53.07, 80.5 45 M80.5 45 C1.16 36.91, -0.07 35.33, 80.5 27 M80.5 45 C-0.5 35.41, 0.99 34.31, 80.5 27 M80.5 27 C112.54 25.97, 146.15 18.93, 241.5 9 M80.5 27 C118.1 23.48, 155.61 20.5, 241.5 9 M241.5 9 C322.15 -1.19, 321.57 -1.34, 402.5 9 M241.5 9 C322.95 1.18, 320.87 1.89, 402.5 9" stroke="#1e1e1e" stroke-width="1" fill="none"></path></g><g transform="translate(820.126043319702 210.28702138264973) rotate(0 154.6875 9.599999999999994)"><text x="154.6875" y="0" font-family="Cascadia, Segoe UI Emoji" font-size="16px" fill="#1e1e1e" text-anchor="middle" style="white-space: pre;" direction="ltr" dominant-baseline="text-before-edge">root_page_id == leaf_page_left_id</text></g><g stroke-linecap="round" transform="translate(694.3749999999999 355.2894910176595) rotate(0 99.57624435424805 42.372894287109375)"><path d="M21.19 0 C54.72 0.63, 86.44 -0.57, 177.97 0 M21.19 0 C73.49 -0.16, 124.57 0.08, 177.97 0 M177.97 0 C192.93 1.93, 199.76 5.56, 199.15 21.19 M177.97 0 C193.63 -1.42, 200.64 7.88, 199.15 21.19 M199.15 21.19 C198.1 35.08, 199.16 49.14, 199.15 63.56 M199.15 21.19 C198.49 37.58, 199.62 54.26, 199.15 63.56 M199.15 63.56 C200.1 77.52, 190.14 85.67, 177.97 84.75 M199.15 63.56 C196.93 78.75, 194.07 82.78, 177.97 84.75 M177.97 84.75 C125.42 85.1, 71.55 85.58, 21.19 84.75 M177.97 84.75 C115.03 84.2, 53.04 84.43, 21.19 84.75 M21.19 84.75 C7.82 83.61, 1.8 75.85, 0 63.56 M21.19 84.75 C7.86 85.82, 1.14 77.33, 0 63.56 M0 63.56 C1.35 54.65, -0.91 44.42, 0 21.19 M0 63.56 C-0.1 51.68, -0.39 39.62, 0 21.19 M0 21.19 C1.13 5.74, 7.27 1.85, 21.19 0 M0 21.19 C1.36 7.31, 5.72 -2.27, 21.19 0" stroke="#1e1e1e" stroke-width="1" fill="none"></path></g><g mask="url(#mask-MsB3M7MofEKkeuli_Xj_W)" stroke-linecap="round"><g transform="translate(932.7223587036132 256.7725690205892) rotate(0 -72.6087861375025 46.610164642333984)"><path d="M-1.01 -0.13 C-18.3 3.48, -80.64 7.38, -104.82 22.73 C-129 38.09, -139.15 80.28, -146.08 92.02 M0.66 -1.24 C-16.69 3.04, -81.69 8.31, -105.74 23.97 C-129.79 39.63, -136.81 80.99, -143.65 92.71" stroke="#1e1e1e" stroke-width="1" fill="none"></path></g><g transform="translate(932.7223587036132 256.7725690205892) rotate(0 -72.6087861375025 46.610164642333984)"><path d="M-142.95 62.72 C-143.05 69.16, -143.93 73.98, -143.65 92.71 M-142.95 62.72 C-144.02 68.97, -143.81 74.15, -143.65 92.71" stroke="#1e1e1e" stroke-width="1" fill="none"></path></g><g transform="translate(932.7223587036132 256.7725690205892) rotate(0 -72.6087861375025 46.610164642333984)"><path d="M-123.84 70.18 C-128.05 74.88, -132.98 78.12, -143.65 92.71 M-123.84 70.18 C-128.66 74.94, -132.27 78.63, -143.65 92.71" stroke="#1e1e1e" stroke-width="1" fill="none"></path></g></g><mask id="mask-MsB3M7MofEKkeuli_Xj_W"><rect x="0" y="0" fill="#fff" width="1177.9399309786181" height="449.99289830525714"></rect><rect x="823.1619644165038" y="270.4776990254719" fill="#000" width="9.375" height="19.2" opacity="1"></rect></mask><g transform="translate(823.1619644165038 270.477699025472) rotate(0 36.85014495021397 32.02922840592453)"><text x="4.6875" y="0" font-family="Cascadia, Segoe UI Emoji" font-size="16px" fill="#1e1e1e" text-anchor="middle" style="white-space: pre;" direction="ltr" dominant-baseline="text-before-edge">Y</text></g><g stroke-linecap="round" transform="translate(656.2393569946289 495.12011845906574) rotate(0 136.65252685546875 31.25)"><path d="M15.63 0 C64.54 -1.5, 112.48 0.33, 257.68 0 M15.63 0 C91.31 0.44, 165.88 -0.29, 257.68 0 M257.68 0 C266.98 -0.53, 273.36 6.12, 273.31 15.63 M257.68 0 C269.2 1.48, 274.2 6.01, 273.31 15.63 M273.31 15.63 C275.27 20.87, 271.78 29.19, 273.31 46.88 M273.31 15.63 C273.59 23.31, 272.62 29.76, 273.31 46.88 M273.31 46.88 C274.99 56.04, 266.45 63.15, 257.68 62.5 M273.31 46.88 C275.46 58.49, 266.7 61.06, 257.68 62.5 M257.68 62.5 C184.14 63.25, 111.89 62.93, 15.63 62.5 M257.68 62.5 C207.79 61, 158.09 60.99, 15.63 62.5 M15.63 62.5 C5.02 60.76, -1.18 56.06, 0 46.88 M15.63 62.5 C6.07 63.72, 1.29 56.21, 0 46.88 M0 46.88 C1.76 35.47, 0.21 27.45, 0 15.63 M0 46.88 C0.45 35.59, 0.03 26.19, 0 15.63 M0 15.63 C0.81 6.25, 6.02 0.03, 15.63 0 M0 15.63 C-1.57 5.18, 5.64 -2, 15.63 0" stroke="#1e1e1e" stroke-width="1" fill="none"></path></g><g transform="translate(692.5168838500977 516.7701184590658) rotate(0 100.375 9.600000000000023)"><text x="100.375" y="0" font-family="Cascadia, Segoe UI Emoji" font-size="16px" fill="#1e1e1e" text-anchor="middle" style="white-space: pre;" direction="ltr" dominant-baseline="text-before-edge">leaf page作为root page</text></g><g stroke-linecap="round"><g transform="translate(790.7732772827148 448.5098584493001) rotate(0 -1.0593414306640625 21.716156005859375)"><path d="M-0.4 -0.52 C-0.89 6.7, -2.25 35.99, -2.55 43.39 M0.39 0.41 C0.04 7.71, -1.04 36.96, -1.54 44.07" stroke="#1e1e1e" stroke-width="1" fill="none"></path></g><g transform="translate(790.7732772827148 448.5098584493001) rotate(0 -1.0593414306640625 21.716156005859375)"><path d="M-7.93 23.29 C-6.49 30.2, -3.26 38.52, -1.54 44.07 M-7.93 23.29 C-5.24 30.87, -2.81 39.56, -1.54 44.07" stroke="#1e1e1e" stroke-width="1" fill="none"></path></g><g transform="translate(790.7732772827148 448.5098584493001) rotate(0 -1.0593414306640625 21.716156005859375)"><path d="M6.92 24.05 C2.88 30.63, 0.62 38.66, -1.54 44.07 M6.92 24.05 C3.88 31.36, 0.57 39.77, -1.54 44.07" stroke="#1e1e1e" stroke-width="1" fill="none"></path></g></g><mask></mask><g transform="translate(291.6736602783203 507.83198674519855) rotate(0 178.125 28.80000000000001)"><text x="0" y="0" font-family="Cascadia, Segoe UI Emoji" font-size="16px" fill="#1e1e1e" text-anchor="start" style="white-space: pre;" direction="ltr" dominant-baseline="text-before-edge">page_id_t root_page_new_id;</text><text x="0" y="19.2" font-family="Cascadia, Segoe UI Emoji" font-size="16px" fill="#1e1e1e" text-anchor="start" style="white-space: pre;" direction="ltr" dominant-baseline="text-before-edge">bpm_-&gt;NewPageGuard(&amp;root_page_new_id);</text><text x="0" y="38.4" font-family="Cascadia, Segoe UI Emoji" font-size="16px" fill="#1e1e1e" text-anchor="start" style="white-space: pre;" direction="ltr" dominant-baseline="text-before-edge"></text></g><g stroke-linecap="round" transform="translate(639.2900848388672 618.0015118916829) rotate(0 160.48730850219727 25.42369842529297)"><path d="M12.71 0 C96.98 1.24, 180.09 2.85, 308.26 0 M12.71 0 C103.05 2.32, 194.1 1.87, 308.26 0 M308.26 0 C317.63 1.66, 320.1 4.34, 320.97 12.71 M308.26 0 C318.56 -2.27, 322.84 1.96, 320.97 12.71 M320.97 12.71 C322.48 20.17, 321.63 25.13, 320.97 38.14 M320.97 12.71 C320.14 17.95, 320.08 24.43, 320.97 38.14 M320.97 38.14 C321.79 46.48, 318.36 51.8, 308.26 50.85 M320.97 38.14 C319.01 46.9, 316.91 50.12, 308.26 50.85 M308.26 50.85 C217.36 52.31, 129.15 53.07, 12.71 50.85 M308.26 50.85 C222.43 51.64, 136.79 52.11, 12.71 50.85 M12.71 50.85 C3.37 52.82, -1.66 46.51, 0 38.14 M12.71 50.85 C2.56 50.42, 1.64 45.87, 0 38.14 M0 38.14 C-1.25 29.65, -1.72 18.22, 0 12.71 M0 38.14 C-0.51 31.83, -0.55 26.65, 0 12.71 M0 12.71 C1.76 6.04, 4.44 1.23, 12.71 0 M0 12.71 C-1.85 5.1, 2.77 0.88, 12.71 0" stroke="#1e1e1e" stroke-width="1" fill="none"></path></g><g transform="translate(659.4023933410645 633.8252103169759) rotate(0 140.375 9.600000000000023)"><text x="140.375" y="0" font-family="Cascadia, Segoe UI Emoji" font-size="16px" fill="#1e1e1e" text-anchor="middle" style="white-space: pre;" direction="ltr" dominant-baseline="text-before-edge">找到应该插入key-value的leaf page</text></g><g stroke-linecap="round"><g transform="translate(785.4766464233398 565.0352795918782) rotate(0 0 23.305130004882812)"><path d="M-0.5 -0.12 C-0.35 7.57, 0.45 38.4, 0.48 46.25 M0.24 -0.66 C0.39 7.09, 0.2 38.97, 0.29 46.76" stroke="#1e1e1e" stroke-width="1" fill="none"></path></g><g transform="translate(785.4766464233398 565.0352795918782) rotate(0 0 23.305130004882812)"><path d="M-7.72 24.88 C-6.13 30.67, -4.78 34.05, 0.29 46.76 M-7.72 24.88 C-5.29 32.75, -1.7 41.21, 0.29 46.76" stroke="#1e1e1e" stroke-width="1" fill="none"></path></g><g transform="translate(785.4766464233398 565.0352795918782) rotate(0 0 23.305130004882812)"><path d="M8.22 24.85 C6.25 30.57, 4.05 33.96, 0.29 46.76 M8.22 24.85 C4.77 32.74, 2.49 41.21, 0.29 46.76" stroke="#1e1e1e" stroke-width="1" fill="none"></path></g></g><mask></mask><g transform="translate(10 624.3574841817219) rotate(0 309.375 76.80000000000001)"><text x="0" y="0" font-family="Cascadia, Segoe UI Emoji" font-size="16px" fill="#1e1e1e" text-anchor="start" style="white-space: pre;" direction="ltr" dominant-baseline="text-before-edge">auto root_page_new_guard = bpm_-&gt;FetchPageWrite(root_page_new_id);</text><text x="0" y="19.2" font-family="Cascadia, Segoe UI Emoji" font-size="16px" fill="#1e1e1e" text-anchor="start" style="white-space: pre;" direction="ltr" dominant-baseline="text-before-edge">auto *root_page_new = root_page_new_guard.template AsMut&lt;..&gt;();</text><text x="0" y="38.4" font-family="Cascadia, Segoe UI Emoji" font-size="16px" fill="#1e1e1e" text-anchor="start" style="white-space: pre;" direction="ltr" dominant-baseline="text-before-edge">root_page_new-&gt;SetPageType(IndexPageType::INTERNAL_PAGE);</text><text x="0" y="57.599999999999994" font-family="Cascadia, Segoe UI Emoji" font-size="16px" fill="#1e1e1e" text-anchor="start" style="white-space: pre;" direction="ltr" dominant-baseline="text-before-edge">root_page_new-&gt;SetMaxSize(..);</text><text x="0" y="76.8" font-family="Cascadia, Segoe UI Emoji" font-size="16px" fill="#1e1e1e" text-anchor="start" style="white-space: pre;" direction="ltr" dominant-baseline="text-before-edge">root_page_new-&gt;SetSize(0);</text><text x="0" y="96" font-family="Cascadia, Segoe UI Emoji" font-size="16px" fill="#1e1e1e" text-anchor="start" style="white-space: pre;" direction="ltr" dominant-baseline="text-before-edge">root_page_new-&gt;InsertFirstOf(..);</text><text x="0" y="115.19999999999999" font-family="Cascadia, Segoe UI Emoji" font-size="16px" fill="#1e1e1e" text-anchor="start" style="white-space: pre;" direction="ltr" dominant-baseline="text-before-edge">root_oage_new-&gt;Insert(..,..,..);</text><text x="0" y="134.4" font-family="Cascadia, Segoe UI Emoji" font-size="16px" fill="#1e1e1e" text-anchor="start" style="white-space: pre;" direction="ltr" dominant-baseline="text-before-edge">SetRootPageId(..,..);</text></g><g stroke-linecap="round" transform="translate(1096.917381286621 369.0606625874837) rotate(0 229.34322357177734 54.55514907836914)"><path d="M27.28 0 C175.69 1.92, 322.79 2.08, 431.41 0 M27.28 0 C119.02 -0.59, 211.02 -0.85, 431.41 0 M431.41 0 C451.25 0.42, 460.14 10.56, 458.69 27.28 M431.41 0 C450.06 -1.7, 457.21 9.41, 458.69 27.28 M458.69 27.28 C458.17 44.9, 460.33 60.44, 458.69 81.83 M458.69 27.28 C458.3 39.82, 458.6 53.87, 458.69 81.83 M458.69 81.83 C458.7 99.57, 450.07 109.98, 431.41 109.11 M458.69 81.83 C459.67 100.19, 451.54 107.61, 431.41 109.11 M431.41 109.11 C305.37 109.97, 181.97 109.8, 27.28 109.11 M431.41 109.11 C300.08 109.61, 167.97 110.35, 27.28 109.11 M27.28 109.11 C8.04 109.83, 0.78 101.1, 0 81.83 M27.28 109.11 C10.13 109.2, 0.67 101.42, 0 81.83 M0 81.83 C-0.44 68.98, -0.18 56.32, 0 27.28 M0 81.83 C-0.24 62.2, -1.32 42.9, 0 27.28 M0 27.28 C0.83 8.2, 8.21 0.38, 27.28 0 M0 27.28 C-0.22 10.83, 10.53 2.14, 27.28 0" stroke="#1e1e1e" stroke-width="1" fill="none"></path></g><g mask="url(#mask-TUTmTWgFOX0drLMW2HeUY)" stroke-linecap="round"><g transform="translate(1053.4852981567383 253.59465916951496) rotate(0 130.31062677603438 54.55507278442383)"><path d="M-0.81 -0.21 C20.91 3.43, 87.55 3.57, 131.32 21.69 C175.09 39.81, 240.07 93.95, 261.81 108.51 M0.97 -1.36 C22.52 2.44, 87.46 4.46, 130.91 22.94 C174.36 41.42, 240.34 94.98, 261.67 109.51" stroke="#1e1e1e" stroke-width="1" fill="none"></path></g><g transform="translate(1053.4852981567383 253.59465916951496) rotate(0 130.31062677603438 54.55507278442383)"><path d="M232.87 101.1 C243.67 106.26, 254.25 109.79, 261.67 109.51 M232.87 101.1 C239.31 103.43, 246.55 105.34, 261.67 109.51" stroke="#1e1e1e" stroke-width="1" fill="none"></path></g><g transform="translate(1053.4852981567383 253.59465916951496) rotate(0 130.31062677603438 54.55507278442383)"><path d="M245.02 84.56 C251.09 96.04, 256.97 105.98, 261.67 109.51 M245.02 84.56 C248.57 91.02, 252.77 97.06, 261.67 109.51" stroke="#1e1e1e" stroke-width="1" fill="none"></path></g></g><mask id="mask-TUTmTWgFOX0drLMW2HeUY"><rect x="0" y="0" fill="#fff" width="1414.106551708807" height="462.7048047383626"></rect><rect x="1179.094352722168" y="266.24040959676097" fill="#000" width="9.375" height="19.2" opacity="1"></rect></mask><g transform="translate(1179.094352722168 266.2404095967611) rotate(0 4.893331140542756 41.42810703829866)"><text x="4.6875" y="0" font-family="Cascadia, Segoe UI Emoji" font-size="16px" fill="#1e1e1e" text-anchor="middle" style="white-space: pre;" direction="ltr" dominant-baseline="text-before-edge">N</text></g><g transform="translate(1122.341423034668 387.0692761739095) rotate(0 211.5 48)"><text x="0" y="0" font-family="Cascadia, Segoe UI Emoji" font-size="16px" fill="#1e1e1e" text-anchor="start" style="white-space: pre;" direction="ltr" dominant-baseline="text-before-edge">1.将ctx.write_set_.back()作为parent_page_guard</text><text x="0" y="19.2" font-family="Cascadia, Segoe UI Emoji" font-size="16px" fill="#1e1e1e" text-anchor="start" style="white-space: pre;" direction="ltr" dominant-baseline="text-before-edge">2.PageId()获取parent_page_id</text><text x="0" y="38.4" font-family="Cascadia, Segoe UI Emoji" font-size="16px" fill="#1e1e1e" text-anchor="start" style="white-space: pre;" direction="ltr" dominant-baseline="text-before-edge">3.ctx.write_set_.pop_back();</text><text x="0" y="57.599999999999994" font-family="Cascadia, Segoe UI Emoji" font-size="16px" fill="#1e1e1e" text-anchor="start" style="white-space: pre;" direction="ltr" dominant-baseline="text-before-edge">4.设置指针*parent_page</text><text x="0" y="76.8" font-family="Cascadia, Segoe UI Emoji" font-size="16px" fill="#1e1e1e" text-anchor="start" style="white-space: pre;" direction="ltr" dominant-baseline="text-before-edge"></text></g><g stroke-linecap="round" transform="translate(1028.0614852905273 602.1115430196126) rotate(0 310.91102600097656 48.72882843017578)"><path d="M388.75 12.25 C420.74 17.36, 452.99 23.15, 544.07 36.75 M388.75 12.25 C426.11 20.29, 464.52 26.2, 544.07 36.75 M544.07 36.75 C622.36 50.98, 620.76 50.2, 544.07 61.25 M544.07 36.75 C622.05 50.61, 623.59 48.98, 544.07 61.25 M544.07 61.25 C503.49 69.63, 461.95 75.39, 388.75 85.21 M544.07 61.25 C505.43 67.31, 464.82 73.69, 388.75 85.21 M388.75 85.21 C309.71 95.94, 311.36 99.32, 233.25 85.21 M388.75 85.21 C311.15 95.45, 310.39 97.18, 233.25 85.21 M233.25 85.21 C187.76 78.89, 140.54 71.58, 77.75 61.25 M233.25 85.21 C195.3 80, 154.53 74.22, 77.75 61.25 M77.75 61.25 C-1.01 48.73, 1.26 50.58, 77.75 36.75 M77.75 61.25 C1.34 47.31, 0.83 47.89, 77.75 36.75 M77.75 36.75 C119.75 27.97, 162.57 22.37, 233.25 12.25 M77.75 36.75 C127.12 28.08, 175.84 20.3, 233.25 12.25 M233.25 12.25 C310.48 1.25, 310 0.07, 388.75 12.25 M233.25 12.25 C311.02 0.03, 312.75 -0.52, 388.75 12.25" stroke="#1e1e1e" stroke-width="1" fill="none"></path></g><g transform="translate(1118.1251907348633 641.6455396016438) rotate(0 234.375 9.600000000000023)"><text x="0" y="0" font-family="Cascadia, Segoe UI Emoji" font-size="16px" fill="#1e1e1e" text-anchor="start" style="white-space: pre;" direction="ltr" dominant-baseline="text-before-edge">parent_page-&gt;GetSize() &lt; parent_page-&gt;GetMaxSize()</text></g><g mask="url(#mask-3V56kYTsIbfmLvl1GtU9R)" stroke-linecap="round"><g transform="translate(1331.6729440902689 484.52700932820636) rotate(0 -0.18921485143158634 56.48671717082152)"><path d="M-0.56 0.63 C-0.36 19.55, 0.45 95.08, 0.56 113.63 M1.34 -0.09 C1.53 18.48, 0.39 93.05, 0.11 111.85" stroke="#1e1e1e" stroke-width="1" fill="none"></path></g><g transform="translate(1331.6729440902689 484.52700932820636) rotate(0 -0.18921485143158634 56.48671717082152)"><path d="M-9.74 83.51 C-6.26 92.05, -3.81 98.26, 0.11 111.85 M-9.74 83.51 C-8.5 90.41, -5.2 95.63, 0.11 111.85" stroke="#1e1e1e" stroke-width="1" fill="none"></path></g><g transform="translate(1331.6729440902689 484.52700932820636) rotate(0 -0.18921485143158634 56.48671717082152)"><path d="M10.78 83.81 C9.24 92.18, 6.68 98.32, 0.11 111.85 M10.78 83.81 C7.64 90.8, 6.55 95.95, 0.11 111.85" stroke="#1e1e1e" stroke-width="1" fill="none"></path></g></g><mask id="mask-3V56kYTsIbfmLvl1GtU9R"><rect x="0" y="0" fill="#fff" width="1432.051373793132" height="697.5004436698493"></rect><rect x="1247.9212292388372" y="521.8137264990279" fill="#000" width="167.125" height="38.4" opacity="1"></rect></mask><g transform="translate(1247.9212292388372 521.8137264990279) rotate(0 84.15331247892547 19.483391631008203)"><text x="83.5625" y="0" font-family="Cascadia, Segoe UI Emoji" font-size="16px" fill="#1e1e1e" text-anchor="middle" style="white-space: pre;" direction="ltr" dominant-baseline="text-before-edge">parent_page空间是否</text><text x="83.5625" y="19.2" font-family="Cascadia, Segoe UI Emoji" font-size="16px" fill="#1e1e1e" text-anchor="middle" style="white-space: pre;" direction="ltr" dominant-baseline="text-before-edge">够？</text></g><g stroke-linecap="round" transform="translate(989.9259948730469 779.0185101826985) rotate(0 106.99151992797852 26.48303985595703)"><path d="M13.24 0 C54.19 3.46, 92.26 1.51, 200.74 0 M13.24 0 C58.04 -1.05, 100.79 -0.45, 200.74 0 M200.74 0 C210.38 0.25, 213.41 4.64, 213.98 13.24 M200.74 0 C211.07 -0.58, 214.66 3.69, 213.98 13.24 M213.98 13.24 C212.35 25.68, 213.85 35.16, 213.98 39.72 M213.98 13.24 C213.52 21.03, 214.11 28.99, 213.98 39.72 M213.98 39.72 C215.59 49.3, 207.71 51.85, 200.74 52.97 M213.98 39.72 C214.75 48.33, 210.33 53.45, 200.74 52.97 M200.74 52.97 C133.75 52.32, 63.85 52.25, 13.24 52.97 M200.74 52.97 C130.5 52.48, 58.78 52.61, 13.24 52.97 M13.24 52.97 C2.44 52.25, 1.83 48.76, 0 39.72 M13.24 52.97 C3.24 51.94, -1.54 46.37, 0 39.72 M0 39.72 C1.51 33.7, -0.96 26.84, 0 13.24 M0 39.72 C0.92 32.16, 0.93 22.86, 0 13.24 M0 13.24 C0.66 2.75, 4.89 0.74, 13.24 0 M0 13.24 C1.98 6.58, 4.03 -1.45, 13.24 0" stroke="#1e1e1e" stroke-width="1" fill="none"></path></g><g transform="translate(1064.9175148010254 795.9015500386556) rotate(0 32 9.600000000000023)"><text x="32" y="0" font-family="Cascadia, Segoe UI Emoji" font-size="16px" fill="#1e1e1e" text-anchor="middle" style="white-space: pre;" direction="ltr" dominant-baseline="text-before-edge">直接插入</text></g><g mask="url(#mask-Z8dNER3BvVSrZqjQ_B773)" stroke-linecap="round"><g transform="translate(1321.4938735961914 701.6879590352376) rotate(0 -115.12125514675702 34.95765686035156)"><path d="M0.56 0.34 C-26.34 3.46, -121.72 6.67, -160.26 18.16 C-198.8 29.65, -219.04 60.86, -230.67 69.29 M-0.6 -0.52 C-27.78 2.85, -122.86 7.97, -161.37 19.77 C-199.88 31.57, -220.27 62.04, -231.65 70.28" stroke="#1e1e1e" stroke-width="1" fill="none"></path></g><g transform="translate(1321.4938735961914 701.6879590352376) rotate(0 -115.12125514675702 34.95765686035156)"><path d="M-218.32 43.4 C-223.11 53.53, -228.67 63.89, -231.65 70.28 M-218.32 43.4 C-221.41 50.9, -223.92 57.1, -231.65 70.28" stroke="#1e1e1e" stroke-width="1" fill="none"></path></g><g transform="translate(1321.4938735961914 701.6879590352376) rotate(0 -115.12125514675702 34.95765686035156)"><path d="M-204.16 58.26 C-214.45 62.61, -225.58 67.13, -231.65 70.28 M-204.16 58.26 C-210.79 61.94, -216.81 64.45, -231.65 70.28" stroke="#1e1e1e" stroke-width="1" fill="none"></path></g></g><mask id="mask-Z8dNER3BvVSrZqjQ_B773"><rect x="0" y="0" fill="#fff" width="1651.7363838897054" height="871.6032727559407"></rect><rect x="1156.8486785888672" y="710.0963818868" fill="#000" width="9.375" height="19.2" opacity="1"></rect></mask><g transform="translate(1156.8486785888672 710.0963818868001) rotate(0 49.098969021464455 26.469005718985557)"><text x="4.6875" y="0" font-family="Cascadia, Segoe UI Emoji" font-size="16px" fill="#1e1e1e" text-anchor="middle" style="white-space: pre;" direction="ltr" dominant-baseline="text-before-edge">Y</text></g><g transform="translate(1186.9600296020508 732.4082501729329) rotate(0 8 9.600000000000023)"><text x="0" y="0" font-family="Cascadia, Segoe UI Emoji" font-size="16px" fill="#1e1e1e" text-anchor="start" style="white-space: pre;" direction="ltr" dominant-baseline="text-before-edge">够</text></g><g stroke-linecap="round" transform="translate(1420.0107955932617 769.4845898946126) rotate(0 247.88131713867182 79.4491577148437)"><path d="M32 0 C142.93 -2.28, 252.62 -0.89, 463.76 0 M32 0 C195.14 -1.47, 358.93 -1.59, 463.76 0 M463.76 0 C487.08 -0.92, 494.88 10.34, 495.76 32 M463.76 0 C485.82 -1.03, 494.33 9.09, 495.76 32 M495.76 32 C496.93 59.33, 497.33 88.92, 495.76 126.9 M495.76 32 C497.24 61.88, 496.18 91, 495.76 126.9 M495.76 126.9 C494.06 146.85, 485.64 157.4, 463.76 158.9 M495.76 126.9 C493.61 147.08, 484.54 160.28, 463.76 158.9 M463.76 158.9 C328.77 160.68, 195.84 161.42, 32 158.9 M463.76 158.9 C291.19 160.74, 118.52 160.3, 32 158.9 M32 158.9 C10.28 159.86, 0.25 148.74, 0 126.9 M32 158.9 C12.7 157.25, -1.74 148.73, 0 126.9 M0 126.9 C1.73 96.86, -1.51 63.73, 0 32 M0 126.9 C-0.25 95.73, -0.48 64.94, 0 32 M0 32 C1.78 9.04, 10.45 -0.15, 32 0 M0 32 C0.77 12.91, 8.62 -1.63, 32 0" stroke="#1e1e1e" stroke-width="1" fill="none"></path></g><g mask="url(#mask-SFlag96zASXGs_PHhlrwb)" stroke-linecap="round"><g transform="translate(1371.2820053100586 696.3914044698079) rotate(0 100.91279117815947 32.83897399902344)"><path d="M-1.07 -0.85 C13.07 2.06, 51.29 7.41, 85.21 18.64 C119.12 29.87, 182.97 58.7, 202.43 66.53 M0.57 1.32 C15.07 4.39, 54.04 6.3, 87.6 16.85 C121.17 27.4, 182.86 56.33, 201.98 64.63" stroke="#1e1e1e" stroke-width="1" fill="none"></path></g><g transform="translate(1371.2820053100586 696.3914044698079) rotate(0 100.91279117815947 32.83897399902344)"><path d="M172.06 62.48 C180.65 62.47, 193.1 65.19, 201.98 64.63 M172.06 62.48 C183.91 63.4, 194.59 64.58, 201.98 64.63" stroke="#1e1e1e" stroke-width="1" fill="none"></path></g><g transform="translate(1371.2820053100586 696.3914044698079) rotate(0 100.91279117815947 32.83897399902344)"><path d="M180.44 43.75 C186.41 49.91, 196.07 58.88, 201.98 64.63 M180.44 43.75 C189.21 51.61, 196.78 59.74, 201.98 64.63" stroke="#1e1e1e" stroke-width="1" fill="none"></path></g></g><mask id="mask-SFlag96zASXGs_PHhlrwb"><rect x="0" y="0" fill="#fff" width="1673.1075876663776" height="862.0693524678547"></rect><rect x="1452.399559020996" y="704.7998273213703" fill="#000" width="9.375" height="19.2" opacity="1"></rect></mask><g transform="translate(1452.399559020996 704.7998273213705) rotate(0 19.563669870577783 24.431093537062452)"><text x="4.6875" y="0" font-family="Cascadia, Segoe UI Emoji" font-size="16px" fill="#1e1e1e" text-anchor="middle" style="white-space: pre;" direction="ltr" dominant-baseline="text-before-edge">N</text></g><g transform="translate(1511.1124801635742 719.6963818868) rotate(0 55.4375 9.600000000000023)"><text x="0" y="0" font-family="Cascadia, Segoe UI Emoji" font-size="16px" fill="#1e1e1e" text-anchor="start" style="white-space: pre;" direction="ltr" dominant-baseline="text-before-edge">内部节点split</text></g><g transform="translate(1445.434455871582 779.0185101826985) rotate(0 222.25 67.19999999999999)"><text x="0" y="0" font-family="Cascadia, Segoe UI Emoji" font-size="16px" fill="#1e1e1e" text-anchor="start" style="white-space: pre;" direction="ltr" dominant-baseline="text-before-edge">1.Lookup查找parent_page的index</text><text x="0" y="19.2" font-family="Cascadia, Segoe UI Emoji" font-size="16px" fill="#1e1e1e" text-anchor="start" style="white-space: pre;" direction="ltr" dominant-baseline="text-before-edge">2.bpm_-&gt;NewPageGuarded(..)获取parent_page_new_id</text><text x="0" y="38.4" font-family="Cascadia, Segoe UI Emoji" font-size="16px" fill="#1e1e1e" text-anchor="start" style="white-space: pre;" direction="ltr" dominant-baseline="text-before-edge">3.bpm-&gt;FetchPageWrite(..);</text><text x="0" y="57.599999999999994" font-family="Cascadia, Segoe UI Emoji" font-size="16px" fill="#1e1e1e" text-anchor="start" style="white-space: pre;" direction="ltr" dominant-baseline="text-before-edge">4.auto *parent_page_new</text><text x="0" y="76.8" font-family="Cascadia, Segoe UI Emoji" font-size="16px" fill="#1e1e1e" text-anchor="start" style="white-space: pre;" direction="ltr" dominant-baseline="text-before-edge">5.parent_page_new-&gt;SetPageType(..);</text><text x="0" y="96" font-family="Cascadia, Segoe UI Emoji" font-size="16px" fill="#1e1e1e" text-anchor="start" style="white-space: pre;" direction="ltr" dominant-baseline="text-before-edge">6.parent_page_new-&gt;SetMaxSize(..);</text><text x="0" y="115.19999999999999" font-family="Cascadia, Segoe UI Emoji" font-size="16px" fill="#1e1e1e" text-anchor="start" style="white-space: pre;" direction="ltr" dominant-baseline="text-before-edge">7.parent_page-&gt;MoveHalfTo(..);</text></g><g stroke-linecap="round" transform="translate(1395.6461906433105 974.9930890401204) rotate(0 259.53393936157227 68)"><path d="M325 17.25 C375.13 29.84, 422.14 45.48, 454.07 51.75 M325 17.25 C356.59 26.73, 389.31 35.95, 454.07 51.75 M454.07 51.75 C520.89 68.81, 518.05 70.02, 454.07 86.25 M454.07 51.75 C520.88 68.64, 521.16 70.22, 454.07 86.25 M454.07 86.25 C418.39 96.96, 384.42 105.12, 325 118.75 M454.07 86.25 C417.51 93.85, 381.28 103.75, 325 118.75 M325 118.75 C260.35 137.59, 258.94 136.29, 195 118.75 M325 118.75 C261.03 137.65, 261.61 133.97, 195 118.75 M195 118.75 C157.18 107.25, 116.47 100.76, 65 86.25 M195 118.75 C167.99 112.31, 141.57 105.84, 65 86.25 M65 86.25 C1.27 70.83, -0.78 68.66, 65 51.75 M65 86.25 C1.1 69.83, 1.14 68.82, 65 51.75 M65 51.75 C99 42.23, 137.87 30.7, 195 17.25 M65 51.75 C100.62 42.5, 137.72 33.77, 195 17.25 M195 17.25 C260.53 0.85, 259.76 -1.13, 325 17.25 M195 17.25 C262.09 -1.6, 261.07 -2.14, 325 17.25" stroke="#1e1e1e" stroke-width="1" fill="none"></path></g><g transform="translate(1533.5381603240967 1014.1930890401204) rotate(0 121.875 28.799999999999955)"><text x="121.875" y="0" font-family="Cascadia, Segoe UI Emoji" font-size="16px" fill="#1e1e1e" text-anchor="middle" style="white-space: pre;" direction="ltr" dominant-baseline="text-before-edge">index &gt;= ((parent_page-</text><text x="121.875" y="19.2" font-family="Cascadia, Segoe UI Emoji" font-size="16px" fill="#1e1e1e" text-anchor="middle" style="white-space: pre;" direction="ltr" dominant-baseline="text-before-edge">&gt;GetMaxSize() + 1) + 1) / </text><text x="121.875" y="38.4" font-family="Cascadia, Segoe UI Emoji" font-size="16px" fill="#1e1e1e" text-anchor="middle" style="white-space: pre;" direction="ltr" dominant-baseline="text-before-edge">2</text></g><g stroke-linecap="round"><g transform="translate(1644.5869636535645 931.8150933583577) rotate(0 1.5889739990234375 19.06778335571289)"><path d="M-0.29 -0.34 C0.22 5.95, 2.81 31.2, 3.45 37.69 M0.56 0.68 C0.99 7.02, 2.68 31.98, 3.16 38.17" stroke="#1e1e1e" stroke-width="1" fill="none"></path></g><g transform="translate(1644.5869636535645 931.8150933583577) rotate(0 1.5889739990234375 19.06778335571289)"><path d="M-4.66 20.7 C-2.38 27.62, 0.32 34.26, 3.16 38.17 M-4.66 20.7 C-1.87 27.22, 1.08 34.61, 3.16 38.17" stroke="#1e1e1e" stroke-width="1" fill="none"></path></g><g transform="translate(1644.5869636535645 931.8150933583577) rotate(0 1.5889739990234375 19.06778335571289)"><path d="M8.4 19.76 C5.88 26.99, 3.78 33.98, 3.16 38.17 M8.4 19.76 C6.1 26.62, 3.97 34.38, 3.16 38.17" stroke="#1e1e1e" stroke-width="1" fill="none"></path></g></g><mask></mask><g stroke-linecap="round" transform="translate(1354.3325996398926 1204.0608437856038) rotate(0 134.53388214111328 43.961830139160156)"><path d="M21.98 0 C106.01 -0.64, 186.59 0.32, 247.09 0 M21.98 0 C84.01 0.4, 145.48 -0.04, 247.09 0 M247.09 0 C262.88 1.56, 267.26 6.84, 269.07 21.98 M247.09 0 C263.3 0.57, 267.11 9.5, 269.07 21.98 M269.07 21.98 C270.56 39.05, 270.04 57.11, 269.07 65.94 M269.07 21.98 C268.5 36.76, 268.3 50.45, 269.07 65.94 M269.07 65.94 C267.61 80.29, 260.92 87.75, 247.09 87.92 M269.07 65.94 C270.03 80.81, 260.32 87.33, 247.09 87.92 M247.09 87.92 C195.61 86.72, 141.79 88.44, 21.98 87.92 M247.09 87.92 C174.49 88.48, 102.02 87.71, 21.98 87.92 M21.98 87.92 C6.35 86.06, -1.68 80.58, 0 65.94 M21.98 87.92 C6.09 85.83, 0.05 78.79, 0 65.94 M0 65.94 C-1.39 51.49, 1.28 37.7, 0 21.98 M0 65.94 C-1.22 51.93, 0.53 38.73, 0 21.98 M0 21.98 C1.43 9.32, 5.43 -1.11, 21.98 0 M0 21.98 C2.13 8.59, 7.58 -1.25, 21.98 0" stroke="#1e1e1e" stroke-width="1" fill="none"></path></g><g mask="url(#mask-0_bJc_fzM4JTUD7r5XUx-)" stroke-linecap="round"><g transform="translate(1636.1123847961426 1120.3744729359944) rotate(0 -84.4388603644548 41.31355285644531)"><path d="M-0.08 -0.4 C-21.16 2.53, -98.12 2.75, -126.39 16.41 C-154.65 30.07, -162.71 70.54, -169.68 81.55 M-1.58 -1.65 C-22.86 1.01, -99.9 0.57, -127.51 14.56 C-155.11 28.55, -160.52 70.81, -167.21 82.31" stroke="#1e1e1e" stroke-width="1" fill="none"></path></g><g transform="translate(1636.1123847961426 1120.3744729359944) rotate(0 -84.4388603644548 41.31355285644531)"><path d="M-167.06 52.31 C-168.05 61.07, -166.57 69.59, -167.21 82.31 M-167.06 52.31 C-166.14 59.45, -166.14 65.88, -167.21 82.31" stroke="#1e1e1e" stroke-width="1" fill="none"></path></g><g transform="translate(1636.1123847961426 1120.3744729359944) rotate(0 -84.4388603644548 41.31355285644531)"><path d="M-147.81 59.43 C-154.71 65.97, -159.2 72.28, -167.21 82.31 M-147.81 59.43 C-150.99 65.05, -155.03 69.99, -167.21 82.31" stroke="#1e1e1e" stroke-width="1" fill="none"></path></g></g><mask id="mask-0_bJc_fzM4JTUD7r5XUx-"><rect x="0" y="0" fill="#fff" width="1904.990105525052" height="1303.001578648885"></rect><rect x="1505.3655052185059" y="1126.664289220174" fill="#000" width="9.375" height="19.2" opacity="1"></rect></mask><g transform="translate(1505.3655052185059 1126.6642892201744) rotate(0 45.86684469337483 34.03842846290195)"><text x="4.6875" y="0" font-family="Cascadia, Segoe UI Emoji" font-size="16px" fill="#1e1e1e" text-anchor="middle" style="white-space: pre;" direction="ltr" dominant-baseline="text-before-edge">Y</text></g><g transform="translate(1539.7140312194824 1155.3319390614827) rotate(0 32 9.600000000000023)"><text x="0" y="0" font-family="Cascadia, Segoe UI Emoji" font-size="16px" fill="#1e1e1e" text-anchor="start" style="white-space: pre;" direction="ltr" dominant-baseline="text-before-edge">右边页面</text></g><g transform="translate(1368.0827522277832 1229.9930795033772) rotate(0 113.375 19.200000000000045)"><text x="0" y="0" font-family="Cascadia, Segoe UI Emoji" font-size="16px" fill="#1e1e1e" text-anchor="start" style="white-space: pre;" direction="ltr" dominant-baseline="text-before-edge">1.第一个元素移动到左边的末尾</text><text x="0" y="19.2" font-family="Cascadia, Segoe UI Emoji" font-size="16px" fill="#1e1e1e" text-anchor="start" style="white-space: pre;" direction="ltr" dominant-baseline="text-before-edge">2.插入</text></g><g stroke-linecap="round" transform="translate(1766.4090156555176 1205.1201852162678) rotate(0 90.57201385498047 42.902565002441406)"><path d="M21.45 0 C65.14 -2.74, 106.42 0.39, 159.69 0 M21.45 0 C65.87 -1.09, 110.93 -1.67, 159.69 0 M159.69 0 C174.75 -0.19, 180.65 8.37, 181.14 21.45 M159.69 0 C175.51 1.45, 180.89 7.41, 181.14 21.45 M181.14 21.45 C180.31 35.76, 182.4 44.82, 181.14 64.35 M181.14 21.45 C181.64 35.75, 180.05 51.74, 181.14 64.35 M181.14 64.35 C181.01 76.67, 175.06 87.17, 159.69 85.81 M181.14 64.35 C180.86 80.72, 173.38 87.77, 159.69 85.81 M159.69 85.81 C116.28 86.33, 75 86.84, 21.45 85.81 M159.69 85.81 C112.16 84.61, 62.64 84.32, 21.45 85.81 M21.45 85.81 C8.16 86.61, 0.1 80.35, 0 64.35 M21.45 85.81 C8.2 84.66, -1.62 80.45, 0 64.35 M0 64.35 C0.07 49.89, -1.41 33.23, 0 21.45 M0 64.35 C0.63 47.6, 0.93 29.53, 0 21.45 M0 21.45 C-1.56 8.36, 7.45 1.38, 21.45 0 M0 21.45 C-0.22 5.15, 8.7 -0.52, 21.45 0" stroke="#1e1e1e" stroke-width="1" fill="none"></path></g><g transform="translate(1808.981029510498 1238.4227502187093) rotate(0 48 9.600000000000023)"><text x="48" y="0" font-family="Cascadia, Segoe UI Emoji" font-size="16px" fill="#1e1e1e" text-anchor="middle" style="white-space: pre;" direction="ltr" dominant-baseline="text-before-edge">插入左边页面</text></g><g mask="url(#mask-2-aaBt_SWkyLQrFbyy9Rl)" stroke-linecap="round"><g transform="translate(1702.8495979309082 1104.484618504842) rotate(0 67.796630859375 47.13981628417969)"><path d="M1.15 0.47 C15.01 5.65, 60.33 15.18, 82.62 30.83 C104.91 46.49, 125.87 84.05, 134.89 94.43 M0.29 -0.32 C14.13 4.99, 59.37 15.85, 82.23 31.88 C105.08 47.9, 128.79 85.53, 137.41 95.83" stroke="#1e1e1e" stroke-width="1" fill="none"></path></g><g transform="translate(1702.8495979309082 1104.484618504842) rotate(0 67.796630859375 47.13981628417969)"><path d="M112.35 79.33 C119.52 85.07, 123.56 86.35, 137.41 95.83 M112.35 79.33 C120.31 84.04, 128.69 90.82, 137.41 95.83" stroke="#1e1e1e" stroke-width="1" fill="none"></path></g><g transform="translate(1702.8495979309082 1104.484618504842) rotate(0 67.796630859375 47.13981628417969)"><path d="M128.82 67.08 C131.76 76.1, 131.59 80.52, 137.41 95.83 M128.82 67.08 C131.74 75.47, 134.98 86.08, 137.41 95.83" stroke="#1e1e1e" stroke-width="1" fill="none"></path></g></g><mask id="mask-2-aaBt_SWkyLQrFbyy9Rl"><rect x="0" y="0" fill="#fff" width="1938.4428596496582" height="1298.7642510732014"></rect><rect x="1779.72993850708" y="1126.664289220174" fill="#000" width="9.375" height="19.2" opacity="1"></rect></mask><g transform="translate(1779.72993850708 1126.6642892201744) rotate(0 -8.029886049339524 25.572397401491116)"><text x="4.6875" y="0" font-family="Cascadia, Segoe UI Emoji" font-size="16px" fill="#1e1e1e" text-anchor="middle" style="white-space: pre;" direction="ltr" dominant-baseline="text-before-edge">N</text></g><g stroke-linecap="round" transform="translate(1567.3254915873204 1390.9541419801258) rotate(0 171.08051300048828 56.673736572265625)"><path d="M28.34 0 C134.98 1.34, 241.28 0.81, 313.82 0 M28.34 0 C89.92 1.55, 151.5 2.03, 313.82 0 M313.82 0 C332.93 1.71, 341.25 7.91, 342.16 28.34 M313.82 0 C334.69 1.18, 344.12 7.32, 342.16 28.34 M342.16 28.34 C341.67 44.55, 341.66 56.1, 342.16 85.01 M342.16 28.34 C341.38 47.55, 341.51 65.03, 342.16 85.01 M342.16 85.01 C343.77 102.49, 331.93 112.32, 313.82 113.35 M342.16 85.01 C342.53 103.64, 334.46 112.01, 313.82 113.35 M313.82 113.35 C247.88 115.48, 180.25 115.9, 28.34 113.35 M313.82 113.35 C241.24 113.72, 168.95 113.46, 28.34 113.35 M28.34 113.35 C8.38 111.52, 0.47 104.4, 0 85.01 M28.34 113.35 C7.26 113.02, 1.15 102.92, 0 85.01 M0 85.01 C-0.07 71.55, 1 61.21, 0 28.34 M0 85.01 C-0.18 66.19, 0.59 44.82, 0 28.34 M0 28.34 C-0.99 7.81, 9.59 -1.92, 28.34 0 M0 28.34 C0.75 10.78, 9.38 0.87, 28.34 0" stroke="#1e1e1e" stroke-width="1" fill="none"></path></g><g stroke-linecap="round"><g transform="translate(1519.5806180382797 1293.4965614137195) rotate(0 109.36651572759436 46.08051300048828)"><path d="M-0.04 1.14 C36.53 16.47, 182.91 76.87, 219.5 91.96 M-1.51 0.69 C34.96 16.21, 182.19 78.05, 218.95 93.39" stroke="#1e1e1e" stroke-width="1" fill="none"></path></g><g transform="translate(1519.5806180382797 1293.4965614137195) rotate(0 109.36651572759436 46.08051300048828)"><path d="M188.99 91.96 C200.08 93.69, 207.04 94.08, 218.95 93.39 M188.99 91.96 C196.7 92.32, 204.07 92.43, 218.95 93.39" stroke="#1e1e1e" stroke-width="1" fill="none"></path></g><g transform="translate(1519.5806180382797 1293.4965614137195) rotate(0 109.36651572759436 46.08051300048828)"><path d="M196.92 73.04 C205.58 80.56, 210.1 86.76, 218.95 93.39 M196.92 73.04 C202.56 78.32, 207.86 83.37, 218.95 93.39" stroke="#1e1e1e" stroke-width="1" fill="none"></path></g></g><mask></mask><g stroke-linecap="round"><g transform="translate(1849.5478037902026 1294.5558265504383) rotate(0 -54.393714361678576 43.43223571777344)"><path d="M0.28 0.1 C-18.09 14.46, -90.88 71.82, -109.17 86.24 M-1.04 -0.9 C-19.68 13.61, -92.06 72.66, -110.32 87.45" stroke="#1e1e1e" stroke-width="1" fill="none"></path></g><g transform="translate(1849.5478037902026 1294.5558265504383) rotate(0 -54.393714361678576 43.43223571777344)"><path d="M-94.92 61.71 C-100.65 70.97, -107.76 80.35, -110.32 87.45 M-94.92 61.71 C-99.43 69.68, -103.03 76.04, -110.32 87.45" stroke="#1e1e1e" stroke-width="1" fill="none"></path></g><g transform="translate(1849.5478037902026 1294.5558265504383) rotate(0 -54.393714361678576 43.43223571777344)"><path d="M-81.97 77.63 C-92.68 80.82, -104.75 84.1, -110.32 87.45 M-81.97 77.63 C-90.25 81, -97.49 82.89, -110.32 87.45" stroke="#1e1e1e" stroke-width="1" fill="none"></path></g></g><mask></mask><g transform="translate(1570.8000704447422 1421.6532996949695) rotate(0 160.25 28.799999999999955)"><text x="0" y="0" font-family="Cascadia, Segoe UI Emoji" font-size="16px" fill="#1e1e1e" text-anchor="start" style="white-space: pre;" direction="ltr" dominant-baseline="text-before-edge">1.把1号位置上的Key，value转移到0号位置</text><text x="0" y="19.2" font-family="Cascadia, Segoe UI Emoji" font-size="16px" fill="#1e1e1e" text-anchor="start" style="white-space: pre;" direction="ltr" dominant-baseline="text-before-edge">2.key删掉</text><text x="0" y="38.4" font-family="Cascadia, Segoe UI Emoji" font-size="16px" fill="#1e1e1e" text-anchor="start" style="white-space: pre;" direction="ltr" dominant-baseline="text-before-edge">3.保留value</text></g></svg>