<svg version="1.1" xmlns="http://www.w3.org/2000/svg" viewBox="0 0 413.5164897274226 330.1695556640625" width="413.5164897274226" height="330.1695556640625" filter="invert(93%) hue-rotate(180deg)">
  <!-- svg-source:excalidraw -->
  
  <defs>
    <style class="style-fonts">
      @font-face {
        font-family: "Virgil";
        src: url("https://excalidraw.com/Virgil.woff2");
      }
      @font-face {
        font-family: "Cascadia";
        src: url("https://excalidraw.com/Cascadia.woff2");
      }
    </style>
    
  </defs>
  <rect x="0" y="0" width="413.5164897274226" height="330.1695556640625" fill="#ffffff"></rect><g transform="translate(115.93222045898438 10) rotate(0 76.171875 12)"><text x="0" y="0" font-family="Cascadia, Segoe UI Emoji" font-size="20px" fill="#1e1e1e" text-anchor="start" style="white-space: pre;" direction="ltr" dominant-baseline="text-before-edge">ReadPageGuard</text></g><g stroke-linecap="round" transform="translate(10 55.76268005371094) rotate(0 195.33895874023438 132.20343780517578)"><path d="M32 0 M32 0 C128.57 -0.79, 221.88 -2.48, 358.68 0 M32 0 C150.29 0.84, 269.97 1.24, 358.68 0 M358.68 0 C381.15 0.51, 392.41 10.05, 390.68 32 M358.68 0 C381.9 1.07, 388.96 12.49, 390.68 32 M390.68 32 C390.92 81.54, 392.05 132.89, 390.68 232.41 M390.68 32 C391.35 98.21, 391.12 163.68, 390.68 232.41 M390.68 232.41 C389.95 254.75, 380.16 263.44, 358.68 264.41 M390.68 232.41 C388.82 256.03, 381.64 264.93, 358.68 264.41 M358.68 264.41 C252.76 265.82, 148.56 265.52, 32 264.41 M358.68 264.41 C231.25 262.95, 103.99 263.24, 32 264.41 M32 264.41 C9.9 265.67, 0.79 253.08, 0 232.41 M32 264.41 C9.83 263.35, -0.63 252.13, 0 232.41 M0 232.41 C-0.71 186.12, -2.16 141.5, 0 32 M0 232.41 C-0.19 162.62, 1.4 91.32, 0 32 M0 32 C0.49 10.18, 12.39 -1.39, 32 0 M0 32 C-2.14 11.11, 12.3 2.21, 32 0" stroke="#1e1e1e" stroke-width="1" fill="none"></path></g><g transform="translate(21.016998291015625 72.71185302734375) rotate(0 187.5 19.19999999999999)"><text x="0" y="0" font-family="Cascadia, Segoe UI Emoji" font-size="16px" fill="#1e1e1e" text-anchor="start" style="white-space: pre;" direction="ltr" dominant-baseline="text-before-edge">ReadPageGuard(BufferPoolManager*,Page*);</text><text x="0" y="19.2" font-family="Cascadia, Segoe UI Emoji" font-size="16px" fill="#1e1e1e" text-anchor="start" style="white-space: pre;" direction="ltr" dominant-baseline="text-before-edge">auto operator=(const ReadPageGuard&amp;);</text></g><g stroke-linecap="round"><g transform="translate(10.84747314453125 261.69488525390625) rotate(0 196.31410168718546 0.5993212010435514)"><path d="M0.93 0.02 C36.88 0.17, 149.23 1.04, 214.52 0.99 C279.81 0.94, 362.99 -0.01, 392.67 -0.28 M-0.04 -1.01 C36.4 -0.73, 151.5 1.84, 216.85 2.16 C282.2 2.48, 362.7 1.22, 392.06 0.89" stroke="#1e1e1e" stroke-width="1" fill="none"></path></g></g><mask></mask><g transform="translate(23.559356689453125 281.1864318847656) rotate(0 103.125 9.599999999999994)"><text x="0" y="0" font-family="Cascadia, Segoe UI Emoji" font-size="16px" fill="#f08c00" text-anchor="start" style="white-space: pre;" direction="ltr" dominant-baseline="text-before-edge">BasicPageGuard guard_;</text></g><g transform="translate(17.62713623046875 123.559326171875) rotate(0 173.4375 38.400000000000006)"><text x="0" y="0" font-family="Cascadia, Segoe UI Emoji" font-size="16px" fill="#e03131" text-anchor="start" style="white-space: pre;" direction="ltr" dominant-baseline="text-before-edge">ReadPageGuard(ReadPageGuard &amp;&amp;that);</text><text x="0" y="19.2" font-family="Cascadia, Segoe UI Emoji" font-size="16px" fill="#e03131" text-anchor="start" style="white-space: pre;" direction="ltr" dominant-baseline="text-before-edge">auto operator=(ReadPageGuard &amp;&amp;that);</text><text x="0" y="38.4" font-family="Cascadia, Segoe UI Emoji" font-size="16px" fill="#e03131" text-anchor="start" style="white-space: pre;" direction="ltr" dominant-baseline="text-before-edge">void Drop();</text><text x="0" y="57.599999999999994" font-family="Cascadia, Segoe UI Emoji" font-size="16px" fill="#e03131" text-anchor="start" style="white-space: pre;" direction="ltr" dominant-baseline="text-before-edge">~ReadPageGuard();</text></g><g transform="translate(19.322052001953125 210) rotate(0 70.3125 19.19999999999999)"><text x="0" y="0" font-family="Cascadia, Segoe UI Emoji" font-size="16px" fill="#1e1e1e" text-anchor="start" style="white-space: pre;" direction="ltr" dominant-baseline="text-before-edge">auto PageId();</text><text x="0" y="19.2" font-family="Cascadia, Segoe UI Emoji" font-size="16px" fill="#1e1e1e" text-anchor="start" style="white-space: pre;" direction="ltr" dominant-baseline="text-before-edge">auto GetData();</text></g></svg>