<svg version="1.1" xmlns="http://www.w3.org/2000/svg" viewBox="0 0 644.7065124511719 566.6101684570312" width="644.7065124511719" height="566.6101684570312" filter="invert(93%) hue-rotate(180deg)">
  <!-- svg-source:excalidraw -->
  
  <defs>
    <style class="style-fonts">
      @font-face {
        font-family: "Virgil";
        src: url("https://excalidraw.com/Virgil.woff2");
      }
      @font-face {
        font-family: "Cascadia";
        src: url("https://excalidraw.com/Cascadia.woff2");
      }
      @font-face {
        font-family: "Assistant";
        src: url("https://excalidraw.com/Assistant-Regular.woff2");
      }
    </style>
    
  </defs>
  <rect x="0" y="0" width="644.7065124511719" height="566.6101684570312" fill="#ffffff"></rect><g stroke-linecap="round" transform="translate(159.15249633789062 36.27117919921875) rotate(0 64.40676879882812 30.932205200195312)"><path d="M15.47 0 C37.56 1.17, 55.22 1.85, 113.35 0 M15.47 0 C53.94 -0.57, 93.07 0.48, 113.35 0 M113.35 0 C124.54 -0.94, 130.16 7.04, 128.81 15.47 M113.35 0 C125.38 0.64, 129.56 3.47, 128.81 15.47 M128.81 15.47 C129.89 26.29, 130.67 36.63, 128.81 46.4 M128.81 15.47 C129.75 23.19, 128.04 28.67, 128.81 46.4 M128.81 46.4 C129.27 58.16, 121.9 61.72, 113.35 61.86 M128.81 46.4 C128.51 58.2, 122.2 63.81, 113.35 61.86 M113.35 61.86 C78.61 60.99, 46.58 62.38, 15.47 61.86 M113.35 61.86 C89.39 62.31, 65.55 61.98, 15.47 61.86 M15.47 61.86 C4.67 62.83, 0.59 55.96, 0 46.4 M15.47 61.86 C5.71 63.79, 1.16 56.71, 0 46.4 M0 46.4 C-0.56 40.93, -1.67 33.47, 0 15.47 M0 46.4 C-0.5 36.2, -0.78 24.83, 0 15.47 M0 15.47 C-1.21 5.39, 4.08 -1.41, 15.47 0 M0 15.47 C-0.89 5.01, 6.45 1.34, 15.47 0" stroke="#1e1e1e" stroke-width="2" fill="none"></path></g><g transform="translate(185.98114013671875 55.20338439941406) rotate(0 37.578125 12)"><text x="37.578125" y="0" font-family="Cascadia, Segoe UI Emoji" font-size="20px" fill="#1e1e1e" text-anchor="middle" style="white-space: pre;" direction="ltr" dominant-baseline="text-before-edge">创建ctx</text></g><g transform="translate(184.57620239257812 10) rotate(0 35.15625 12)"><text x="0" y="0" font-family="Cascadia, Segoe UI Emoji" font-size="20px" fill="#1e1e1e" text-anchor="start" style="white-space: pre;" direction="ltr" dominant-baseline="text-before-edge">Remove</text></g><g stroke-linecap="round" transform="translate(93.89822387695312 150.677978515625) rotate(0 143.2203826904297 41)"><path d="M20.5 0 C79.15 1.25, 136.71 0.37, 265.94 0 M20.5 0 C114.75 1.18, 208.1 0.59, 265.94 0 M265.94 0 C280.96 1.5, 288.4 8.47, 286.44 20.5 M265.94 0 C281.41 2, 284.38 5.29, 286.44 20.5 M286.44 20.5 C287.54 30.01, 286.94 39, 286.44 61.5 M286.44 20.5 C286.05 33.49, 285.22 45.51, 286.44 61.5 M286.44 61.5 C287.51 73.31, 280.65 81.75, 265.94 82 M286.44 61.5 C286.48 75.81, 278.44 82.48, 265.94 82 M265.94 82 C216.15 79.78, 167.04 82.12, 20.5 82 M265.94 82 C184.51 81.37, 100.9 81.31, 20.5 82 M20.5 82 C5.09 83.95, 1.49 75.91, 0 61.5 M20.5 82 C8.72 79.79, -2.17 73.12, 0 61.5 M0 61.5 C-0.07 53.07, -0.71 42.83, 0 20.5 M0 61.5 C-0.27 47.92, -0.36 34.62, 0 20.5 M0 20.5 C-0.61 6.41, 7.33 1.26, 20.5 0 M0 20.5 C-0.6 5.32, 6.6 0.01, 20.5 0" stroke="#1e1e1e" stroke-width="2" fill="none"></path></g><g transform="translate(105.08735656738281 167.677978515625) rotate(0 132.03125 24)"><text x="132.03125" y="0" font-family="Cascadia, Segoe UI Emoji" font-size="20px" fill="#1e1e1e" text-anchor="middle" style="white-space: pre;" direction="ltr" dominant-baseline="text-before-edge">DeleteGetKeyAt获取要删除</text><text x="132.03125" y="24" font-family="Cascadia, Segoe UI Emoji" font-size="20px" fill="#1e1e1e" text-anchor="middle" style="white-space: pre;" direction="ltr" dominant-baseline="text-before-edge">的leaf_page_id</text></g><g transform="translate(410.6440124511719 185.83050537109375) rotate(0 112.03125 12)"><text x="0" y="0" font-family="Cascadia, Segoe UI Emoji" font-size="20px" fill="#1e1e1e" text-anchor="start" style="white-space: pre;" direction="ltr" dominant-baseline="text-before-edge">DeleteGetKeyAt自定义</text></g><g stroke-linecap="round"><g transform="translate(227.79653930664062 102.37287902832031) rotate(0 1.27117919921875 22.88135528564453)"><path d="M-0.21 0.46 C0.18 8.13, 2.1 38.4, 2.58 45.87 M0.68 0.22 C0.98 7.72, 1.88 37.39, 2.16 44.95" stroke="#1e1e1e" stroke-width="2" fill="none"></path></g><g transform="translate(227.79653930664062 102.37287902832031) rotate(0 1.27117919921875 22.88135528564453)"><path d="M-6.39 23.69 C-2.65 31.07, -0.36 38.52, 2.16 44.95 M-6.39 23.69 C-4.16 27.67, -2.35 31.98, 2.16 44.95" stroke="#1e1e1e" stroke-width="2" fill="none"></path></g><g transform="translate(227.79653930664062 102.37287902832031) rotate(0 1.27117919921875 22.88135528564453)"><path d="M9.27 23.17 C7.64 30.7, 4.55 38.33, 2.16 44.95 M9.27 23.17 C8.31 27.22, 6.92 31.64, 2.16 44.95" stroke="#1e1e1e" stroke-width="2" fill="none"></path></g></g><mask></mask><g stroke-linecap="round" transform="translate(10 266.7796936035156) rotate(0 237.28810119628906 62.203369140625)"><path d="M297.5 15.75 C334.32 24.9, 369.58 35.51, 415.08 47.25 M297.5 15.75 C339.19 27.61, 379.6 39.2, 415.08 47.25 M415.08 47.25 C472.89 62.84, 472.61 63.92, 415.08 78.75 M415.08 47.25 C476.01 64.88, 474.84 63.83, 415.08 78.75 M415.08 78.75 C384.3 87.83, 354.67 93.85, 297.5 108.66 M415.08 78.75 C377.87 88.23, 341.64 97.66, 297.5 108.66 M297.5 108.66 C237.54 125.96, 239.12 124.9, 178.5 108.66 M297.5 108.66 C235.98 125.64, 238.49 125.97, 178.5 108.66 M178.5 108.66 C131.85 96.82, 90.76 84.91, 59.5 78.75 M178.5 108.66 C140.38 98.61, 104.15 88.55, 59.5 78.75 M59.5 78.75 C-0.22 64.55, -0.44 61.16, 59.5 47.25 M59.5 78.75 C-0.28 61.95, 0.66 62.24, 59.5 47.25 M59.5 47.25 C101.92 36.47, 138.79 24.91, 178.5 15.75 M59.5 47.25 C97.88 38.13, 138.26 27.37, 178.5 15.75 M178.5 15.75 C239.6 -1.97, 236.1 -0.25, 297.5 15.75 M178.5 15.75 C236.34 0.43, 239.45 -0.7, 297.5 15.75" stroke="#1e1e1e" stroke-width="2" fill="none"></path></g><g transform="translate(135.81592559814453 304.8813781738281) rotate(0 111.328125 24)"><text x="111.328125" y="0" font-family="Cascadia, Segoe UI Emoji" font-size="20px" fill="#1e1e1e" text-anchor="middle" style="white-space: pre;" direction="ltr" dominant-baseline="text-before-edge">ctx.root_page_id_ </text><text x="111.328125" y="24" font-family="Cascadia, Segoe UI Emoji" font-size="20px" fill="#1e1e1e" text-anchor="middle" style="white-space: pre;" direction="ltr" dominant-baseline="text-before-edge">== INVALID_PAGE_ID?</text></g><g stroke-linecap="round"><g transform="translate(233.72872924804688 238.81356811523438) rotate(0 1.694915771484375 14.406784057617188)"><path d="M-0.09 -0.09 C0.42 4.83, 2.89 24.25, 3.5 28.99 M-0.81 -0.61 C-0.38 4.18, 2.44 23.23, 3.13 28.11" stroke="#1e1e1e" stroke-width="2" fill="none"></path></g><g transform="translate(233.72872924804688 238.81356811523438) rotate(0 1.694915771484375 14.406784057617188)"><path d="M-3.73 15.33 C-1.37 20.23, 1.53 25.09, 3.13 28.11 M-3.73 15.33 C-2.43 17.69, -0.81 20.48, 3.13 28.11" stroke="#1e1e1e" stroke-width="2" fill="none"></path></g><g transform="translate(233.72872924804688 238.81356811523438) rotate(0 1.694915771484375 14.406784057617188)"><path d="M6.09 13.91 C4.8 19.33, 4.05 24.71, 3.13 28.11 M6.09 13.91 C5.36 16.55, 4.96 19.64, 3.13 28.11" stroke="#1e1e1e" stroke-width="2" fill="none"></path></g></g><mask></mask><g stroke-linecap="round" transform="translate(24.40667724609375 460.847412109375) rotate(0 79.23728942871094 47.457611083984375)"><path d="M23.73 0 C63.77 -0.13, 108.8 -1.11, 134.75 0 M23.73 0 C50.47 0.44, 78.13 0.09, 134.75 0 M134.75 0 C150.61 -0.25, 156.63 6.47, 158.47 23.73 M134.75 0 C150.07 -1.57, 158 10.13, 158.47 23.73 M158.47 23.73 C158.33 39.93, 158.54 55.14, 158.47 71.19 M158.47 23.73 C159.49 39.59, 159.41 57.56, 158.47 71.19 M158.47 71.19 C160.29 87.21, 149.64 93.98, 134.75 94.92 M158.47 71.19 C160.05 87.29, 150.24 93.29, 134.75 94.92 M134.75 94.92 C97.34 95.84, 57.9 92.4, 23.73 94.92 M134.75 94.92 C100.29 95, 65.9 95.59, 23.73 94.92 M23.73 94.92 C9.17 94.68, 1.9 85.84, 0 71.19 M23.73 94.92 C9.78 93.19, 0.73 87.01, 0 71.19 M0 71.19 C0.38 52.51, 0 37.52, 0 23.73 M0 71.19 C0.83 54.06, -0.23 35.55, 0 23.73 M0 23.73 C0.24 8, 9.09 0.68, 23.73 0 M0 23.73 C1.61 8.52, 9.88 -1.32, 23.73 0" stroke="#1e1e1e" stroke-width="2" fill="none"></path></g><g transform="translate(68.48771667480469 496.3050231933594) rotate(0 35.15625 12)"><text x="35.15625" y="0" font-family="Cascadia, Segoe UI Emoji" font-size="20px" fill="#1e1e1e" text-anchor="middle" style="white-space: pre;" direction="ltr" dominant-baseline="text-before-edge">return</text></g><g stroke-linecap="round" transform="translate(337.1186218261719 456.610107421875) rotate(0 100.84744262695312 50.000030517578125)"><path d="M25 0 C80.61 -1.13, 135.87 0.86, 176.69 0 M25 0 C81.61 -1.38, 140.35 -2.31, 176.69 0 M176.69 0 C195.18 -1.74, 201.49 9.15, 201.69 25 M176.69 0 C193.59 0.12, 200.11 6.93, 201.69 25 M201.69 25 C202.21 40.03, 202.42 57.33, 201.69 75 M201.69 25 C201.58 42.81, 201.07 59.07, 201.69 75 M201.69 75 C202.73 92.27, 192.98 101.28, 176.69 100 M201.69 75 C201.45 93.19, 192.07 97.98, 176.69 100 M176.69 100 C132.95 100.69, 84.31 100.58, 25 100 M176.69 100 C137.74 98.93, 98.98 99.48, 25 100 M25 100 C7.33 100.82, 0.22 90.64, 0 75 M25 100 C8.94 98.07, 0.49 92.58, 0 75 M0 75 C-0.67 58.57, -0.08 41.67, 0 25 M0 75 C-0.61 63.67, 0.21 51.47, 0 25 M0 25 C-0.51 9.98, 8.44 -0.23, 25 0 M0 25 C1.63 7.54, 6.69 -2.09, 25 0" stroke="#1e1e1e" stroke-width="2" fill="none"></path></g><g transform="translate(353.512939453125 494.6101379394531) rotate(0 84.453125 12)"><text x="84.453125" y="0" font-family="Cascadia, Segoe UI Emoji" font-size="20px" fill="#1e1e1e" text-anchor="middle" style="white-space: pre;" direction="ltr" dominant-baseline="text-before-edge">RemoveEntry删除</text></g><g mask="url(#mask-MNirYBQJwgdEGEw65kfPK)" stroke-linecap="round"><g transform="translate(228.64401245117188 399.83050537109375) rotate(0 -56.355926513671875 25)"><path d="M-1.08 -0.01 C-13.9 3.71, -57.64 14.19, -76.16 22.7 C-94.67 31.21, -106.22 46.36, -112.17 51.05 M0.55 -1.06 C-12.48 2.82, -58.18 15.76, -77.04 24.14 C-95.91 32.53, -106.97 45.16, -112.65 49.25" stroke="#1e1e1e" stroke-width="2" fill="none"></path></g><g transform="translate(228.64401245117188 399.83050537109375) rotate(0 -56.355926513671875 25)"><path d="M-101.43 29.5 C-105.46 36.75, -109.8 44.62, -112.65 49.25 M-101.43 29.5 C-105.39 36.26, -110.91 45.12, -112.65 49.25" stroke="#1e1e1e" stroke-width="2" fill="none"></path></g><g transform="translate(228.64401245117188 399.83050537109375) rotate(0 -56.355926513671875 25)"><path d="M-91.36 41.34 C-99.07 44.2, -107.06 47.79, -112.65 49.25 M-91.36 41.34 C-99.31 43.58, -108.72 47.85, -112.65 49.25" stroke="#1e1e1e" stroke-width="2" fill="none"></path></g></g><mask id="mask-MNirYBQJwgdEGEw65kfPK"><rect x="0" y="0" fill="#fff" width="441.3558654785156" height="549.8305053710938"></rect><rect x="146.51345825195312" y="410.71185302734375" fill="#000" width="11.71875" height="24" opacity="1"></rect></mask><g transform="translate(146.51345825195312 410.71185302734375) rotate(0 26.083166241962488 14.109869885100068)"><text x="5.859375" y="0" font-family="Cascadia, Segoe UI Emoji" font-size="20px" fill="#1e1e1e" text-anchor="middle" style="white-space: pre;" direction="ltr" dominant-baseline="text-before-edge">Y</text></g><g mask="url(#mask-v0UVIrTlnEwuaqUHtH1Qs)" stroke-linecap="round"><g transform="translate(287.1185607910156 395.59326171875) rotate(0 79.2373046875 25.423736572265625)"><path d="M1.07 -0.85 C16.32 1.36, 64.57 4.77, 90.86 13.28 C117.16 21.78, 147.74 43.74, 158.86 50.18 M0.18 1.33 C15.41 3.16, 64.11 3.15, 90.46 11.45 C116.81 19.75, 147.15 44.74, 158.3 51.15" stroke="#1e1e1e" stroke-width="2" fill="none"></path></g><g transform="translate(287.1185607910156 395.59326171875) rotate(0 79.2373046875 25.423736572265625)"><path d="M129.18 43.9 C135.02 47.17, 144.62 47.89, 158.3 51.15 M129.18 43.9 C137 46.11, 143.37 46.73, 158.3 51.15" stroke="#1e1e1e" stroke-width="2" fill="none"></path></g><g transform="translate(287.1185607910156 395.59326171875) rotate(0 79.2373046875 25.423736572265625)"><path d="M140.65 26.89 C143.65 34.49, 150.39 39.45, 158.3 51.15 M140.65 26.89 C145.53 33.35, 149.1 38.14, 158.3 51.15" stroke="#1e1e1e" stroke-width="2" fill="none"></path></g></g><mask id="mask-v0UVIrTlnEwuaqUHtH1Qs"><rect x="0" y="0" fill="#fff" width="545.5931701660156" height="546.4407348632812"></rect><rect x="371.0897521972656" y="396.30511474609375" fill="#000" width="11.71875" height="24" opacity="1"></rect></mask><g transform="translate(371.0897521972656 396.30511474609375) rotate(0 -4.453612241102348 24.43972676704641)"><text x="5.859375" y="0" font-family="Cascadia, Segoe UI Emoji" font-size="20px" fill="#1e1e1e" text-anchor="middle" style="white-space: pre;" direction="ltr" dominant-baseline="text-before-edge">N</text></g></svg>