<svg version="1.1" xmlns="http://www.w3.org/2000/svg" viewBox="0 0 328.4745178222656 293.7287902832031" width="328.4745178222656" height="293.7287902832031" filter="invert(93%) hue-rotate(180deg)">
  <!-- svg-source:excalidraw -->
  
  <defs>
    <style class="style-fonts">
      @font-face {
        font-family: "Virgil";
        src: url("https://excalidraw.com/Virgil.woff2");
      }
      @font-face {
        font-family: "Cascadia";
        src: url("https://excalidraw.com/Cascadia.woff2");
      }
    </style>
    
  </defs>
  <rect x="0" y="0" width="328.4745178222656" height="293.7287902832031" fill="#ffffff"></rect><g transform="translate(112.54238891601562 10) rotate(0 17.578125 12)"><text x="0" y="0" font-family="Cascadia, Segoe UI Emoji" font-size="20px" fill="#1e1e1e" text-anchor="start" style="white-space: pre;" direction="ltr" dominant-baseline="text-before-edge">RID</text></g><g stroke-linecap="round" transform="translate(10 48.135589599609375) rotate(0 154.2372589111328 117.79660034179688)"><path d="M32 0 M32 0 C84.16 -0.71, 131.93 -2.23, 276.47 0 M32 0 C127.33 1.95, 222.57 1.43, 276.47 0 M276.47 0 C299.22 -0.93, 308.77 10.58, 308.47 32 M276.47 0 C297.38 -2.17, 309.33 11.54, 308.47 32 M308.47 32 C308.24 76.16, 307.01 124.2, 308.47 203.59 M308.47 32 C309.47 72.45, 310.7 113.02, 308.47 203.59 M308.47 203.59 C307.61 224.74, 298.77 237.17, 276.47 235.59 M308.47 203.59 C307.15 224.37, 299.72 236.87, 276.47 235.59 M276.47 235.59 C211.2 235.69, 144.5 235.33, 32 235.59 M276.47 235.59 C215.43 237.56, 153.48 236.58, 32 235.59 M32 235.59 C9.66 237.22, 1.69 224, 0 203.59 M32 235.59 C11.59 234.14, 0.39 227.09, 0 203.59 M0 203.59 C-1.01 170.94, -1.39 133.34, 0 32 M0 203.59 C-0.59 157.2, -2.17 110.44, 0 32 M0 32 C-0.02 11.05, 10.46 0.6, 32 0 M0 32 C-1.88 8.46, 11.07 -0.77, 32 0" stroke="#1e1e1e" stroke-width="1" fill="none"></path></g><g transform="translate(21.016937255859375 67.62710571289062) rotate(0 135.9375 67.19999999999999)"><text x="0" y="0" font-family="Cascadia, Segoe UI Emoji" font-size="16px" fill="#1e1e1e" text-anchor="start" style="white-space: pre;" direction="ltr" dominant-baseline="text-before-edge">RID();</text><text x="0" y="19.2" font-family="Cascadia, Segoe UI Emoji" font-size="16px" fill="#1e1e1e" text-anchor="start" style="white-space: pre;" direction="ltr" dominant-baseline="text-before-edge">RID(page_id_t,uint32_t);</text><text x="0" y="38.4" font-family="Cascadia, Segoe UI Emoji" font-size="16px" fill="#1e1e1e" text-anchor="start" style="white-space: pre;" direction="ltr" dominant-baseline="text-before-edge">auto Get();</text><text x="0" y="57.599999999999994" font-family="Cascadia, Segoe UI Emoji" font-size="16px" fill="#1e1e1e" text-anchor="start" style="white-space: pre;" direction="ltr" dominant-baseline="text-before-edge">auto GetPageId();</text><text x="0" y="76.8" font-family="Cascadia, Segoe UI Emoji" font-size="16px" fill="#1e1e1e" text-anchor="start" style="white-space: pre;" direction="ltr" dominant-baseline="text-before-edge">auto GetSlotNum();</text><text x="0" y="96" font-family="Cascadia, Segoe UI Emoji" font-size="16px" fill="#1e1e1e" text-anchor="start" style="white-space: pre;" direction="ltr" dominant-baseline="text-before-edge">auto Set(page_id_t,uint32_t);</text><text x="0" y="115.19999999999999" font-family="Cascadia, Segoe UI Emoji" font-size="16px" fill="#1e1e1e" text-anchor="start" style="white-space: pre;" direction="ltr" dominant-baseline="text-before-edge">auto ToString();</text></g><g stroke-linecap="round"><g transform="translate(10.84747314453125 208.3050994873047) rotate(0 153.2543445960153 -0.1828788746148291)"><path d="M-0.31 0.53 C50.39 0.27, 253.68 -0.71, 304.73 -0.89 M1.73 -0.24 C52.72 -0.42, 256.22 0.05, 306.82 0.17" stroke="#1e1e1e" stroke-width="1" fill="none"></path></g></g><mask></mask><g transform="translate(25.254241943359375 226.9491729736328) rotate(0 89.0625 19.19999999999999)"><text x="0" y="0" font-family="Cascadia, Segoe UI Emoji" font-size="16px" fill="#1e1e1e" text-anchor="start" style="white-space: pre;" direction="ltr" dominant-baseline="text-before-edge">page_id_t page_id_;</text><text x="0" y="19.2" font-family="Cascadia, Segoe UI Emoji" font-size="16px" fill="#1e1e1e" text-anchor="start" style="white-space: pre;" direction="ltr" dominant-baseline="text-before-edge">uint32_t slot_num;</text></g></svg>