<?xml version="1.0" encoding="UTF-8" standalone="no"?>
<!DOCTYPE svg PUBLIC "-//W3C//DTD SVG 1.1//EN" "http://www.w3.org/Graphics/SVG/1.1/DTD/svg11.dtd">
<svg width="100%" height="100%" viewBox="0 0 459 418" version="1.1" xmlns="http://www.w3.org/2000/svg" xmlns:xlink="http://www.w3.org/1999/xlink" xml:space="preserve" xmlns:serif="http://www.serif.com/" style="fill-rule:evenodd;clip-rule:evenodd;stroke-linejoin:round;stroke-miterlimit:10;">
    <g transform="matrix(1,0,0,1,-340.55,-24.0774)">
        <path d="M421.963,65.037C421.963,42.693 440.076,24.58 462.42,24.58C473.15,24.58 483.44,28.842 491.027,36.43C498.614,44.017 502.877,54.307 502.877,65.037C502.877,87.38 484.764,105.493 462.42,105.493C440.076,105.493 421.963,87.38 421.963,65.037L421.963,65.037Z" style="fill:rgb(239,239,239);"/>
    </g>
    <g transform="matrix(1,0,0,1,-340.55,-24.0774)">
        <path d="M421.963,65.037C421.963,42.693 440.076,24.58 462.42,24.58C473.15,24.58 483.44,28.842 491.027,36.43C498.614,44.017 502.877,54.307 502.877,65.037C502.877,87.38 484.764,105.493 462.42,105.493C440.076,105.493 421.963,87.38 421.963,65.037L421.963,65.037Z" style="fill:none;stroke:black;stroke-width:1px;"/>
    </g>
    <g transform="matrix(1,0,0,1,-340.55,-24.0774)">
        <path d="M447.565,71.957L447.565,62.285L449.034,62.285L449.034,63.754C449.409,63.066 449.753,62.613 450.065,62.394C450.388,62.175 450.742,62.066 451.128,62.066C451.68,62.066 452.242,62.243 452.815,62.597L452.253,64.113C451.846,63.873 451.445,63.754 451.049,63.754C450.685,63.754 450.362,63.863 450.081,64.082C449.799,64.3 449.596,64.597 449.471,64.972C449.284,65.556 449.19,66.196 449.19,66.894L449.19,71.957L447.565,71.957ZM453.184,67.113C453.184,65.321 453.679,63.998 454.668,63.144C455.502,62.425 456.517,62.066 457.715,62.066C459.049,62.066 460.137,62.504 460.981,63.379C461.825,64.243 462.246,65.446 462.246,66.988C462.246,68.228 462.059,69.207 461.684,69.925C461.309,70.634 460.762,71.186 460.043,71.582C459.335,71.978 458.559,72.175 457.715,72.175C456.361,72.175 455.267,71.743 454.434,70.879C453.601,70.004 453.184,68.748 453.184,67.113ZM454.871,67.113C454.871,68.353 455.137,69.285 455.668,69.91C456.21,70.524 456.892,70.832 457.715,70.832C458.528,70.832 459.205,70.524 459.746,69.91C460.288,69.285 460.559,68.337 460.559,67.066C460.559,65.868 460.288,64.962 459.746,64.347C459.205,63.733 458.528,63.425 457.715,63.425C456.892,63.425 456.21,63.733 455.668,64.347C455.137,64.952 454.871,65.873 454.871,67.113ZM463.56,67.113C463.56,65.321 464.054,63.998 465.044,63.144C465.877,62.425 466.893,62.066 468.091,62.066C469.424,62.066 470.513,62.504 471.357,63.379C472.2,64.243 472.622,65.446 472.622,66.988C472.622,68.228 472.435,69.207 472.06,69.925C471.685,70.634 471.138,71.186 470.419,71.582C469.711,71.978 468.935,72.175 468.091,72.175C466.737,72.175 465.643,71.743 464.81,70.879C463.976,70.004 463.56,68.748 463.56,67.113ZM465.247,67.113C465.247,68.353 465.513,69.285 466.044,69.91C466.586,70.524 467.268,70.832 468.091,70.832C468.903,70.832 469.58,70.524 470.122,69.91C470.664,69.285 470.935,68.337 470.935,67.066C470.935,65.868 470.664,64.962 470.122,64.347C469.58,63.733 468.903,63.425 468.091,63.425C467.268,63.425 466.586,63.733 466.044,64.347C465.513,64.952 465.247,65.873 465.247,67.113ZM478.123,70.488L478.357,71.941C477.899,72.035 477.487,72.082 477.123,72.082C476.529,72.082 476.066,71.988 475.732,71.8C475.409,71.613 475.18,71.368 475.045,71.066C474.909,70.754 474.842,70.108 474.842,69.129L474.842,63.55L473.638,63.55L473.638,62.285L474.842,62.285L474.842,59.894L476.467,58.91L476.467,62.285L478.123,62.285L478.123,63.55L476.467,63.55L476.467,69.222C476.467,69.681 476.493,69.978 476.545,70.113C476.607,70.248 476.701,70.358 476.826,70.441C476.961,70.514 477.154,70.55 477.404,70.55C477.581,70.55 477.821,70.53 478.123,70.488Z" style="fill-rule:nonzero;"/>
    </g>
    <g transform="matrix(1,0,0,1,-340.55,-24.0774)">
        <path d="M421.963,232.614C421.963,210.271 440.076,192.157 462.42,192.157C473.15,192.157 483.44,196.42 491.027,204.007C498.614,211.594 502.877,221.884 502.877,232.614C502.877,254.958 484.764,273.071 462.42,273.071C440.076,273.071 421.963,254.958 421.963,232.614L421.963,232.614Z" style="fill:rgb(239,239,239);"/>
    </g>
    <g transform="matrix(1,0,0,1,-340.55,-24.0774)">
        <path d="M421.963,232.614C421.963,210.271 440.076,192.157 462.42,192.157C473.15,192.157 483.44,196.42 491.027,204.007C498.614,211.594 502.877,221.884 502.877,232.614C502.877,254.958 484.764,273.071 462.42,273.071C440.076,273.071 421.963,254.958 421.963,232.614L421.963,232.614Z" style="fill:none;stroke:black;stroke-width:1px;"/>
    </g>
    <g transform="matrix(1,0,0,1,-340.55,-24.0774)">
        <path d="M447.504,229.414L447.504,219.867L448.801,219.867L453.817,227.367L453.817,219.867L455.02,219.867L455.02,229.414L453.723,229.414L448.707,221.914L448.707,229.414L447.504,229.414ZM456.551,225.961C456.551,224.68 456.911,223.732 457.629,223.117C458.223,222.607 458.947,222.352 459.801,222.352C460.749,222.352 461.525,222.664 462.129,223.289C462.734,223.904 463.036,224.763 463.036,225.867C463.036,226.753 462.9,227.451 462.629,227.961C462.369,228.471 461.984,228.867 461.473,229.149C460.963,229.43 460.405,229.57 459.801,229.57C458.833,229.57 458.046,229.263 457.442,228.649C456.848,228.024 456.551,227.128 456.551,225.961ZM457.754,225.961C457.754,226.846 457.947,227.508 458.333,227.945C458.728,228.383 459.218,228.602 459.801,228.602C460.385,228.602 460.869,228.383 461.254,227.945C461.64,227.498 461.833,226.82 461.833,225.914C461.833,225.06 461.635,224.414 461.239,223.977C460.853,223.539 460.374,223.32 459.801,223.32C459.218,223.32 458.728,223.539 458.333,223.977C457.947,224.414 457.754,225.076 457.754,225.961ZM468.886,229.414L468.886,228.539C468.448,229.227 467.802,229.57 466.948,229.57C466.406,229.57 465.901,229.419 465.433,229.117C464.974,228.815 464.615,228.393 464.354,227.852C464.104,227.3 463.979,226.669 463.979,225.961C463.979,225.274 464.094,224.649 464.323,224.086C464.552,223.524 464.896,223.096 465.354,222.805C465.823,222.503 466.339,222.352 466.901,222.352C467.318,222.352 467.688,222.44 468.011,222.617C468.344,222.784 468.61,223.008 468.808,223.289L468.808,219.867L469.979,219.867L469.979,229.414L468.886,229.414ZM465.183,225.961C465.183,226.846 465.37,227.508 465.745,227.945C466.12,228.383 466.563,228.602 467.073,228.602C467.584,228.602 468.016,228.393 468.37,227.977C468.724,227.56 468.901,226.925 468.901,226.07C468.901,225.123 468.719,224.43 468.354,223.992C467.99,223.544 467.542,223.32 467.011,223.32C466.49,223.32 466.052,223.534 465.698,223.961C465.354,224.378 465.183,225.044 465.183,225.961ZM476.548,227.195L477.751,227.336C477.564,228.044 477.21,228.596 476.689,228.992C476.178,229.378 475.522,229.57 474.72,229.57C473.71,229.57 472.908,229.258 472.314,228.633C471.72,228.008 471.423,227.138 471.423,226.024C471.423,224.857 471.72,223.956 472.314,223.32C472.918,222.675 473.699,222.352 474.658,222.352C475.585,222.352 476.34,222.664 476.923,223.289C477.506,223.914 477.798,224.8 477.798,225.945L477.798,226.258L472.642,226.258C472.684,227.018 472.897,227.602 473.283,228.008C473.668,228.404 474.147,228.602 474.72,228.602C475.158,228.602 475.527,228.492 475.829,228.274C476.131,228.044 476.371,227.685 476.548,227.195ZM472.704,225.289L476.564,225.289C476.512,224.716 476.366,224.284 476.126,223.992C475.751,223.534 475.267,223.305 474.673,223.305C474.131,223.305 473.678,223.487 473.314,223.852C472.949,224.206 472.746,224.685 472.704,225.289Z" style="fill-rule:nonzero;"/>
    </g>
    <g transform="matrix(1,0,0,1,-340.55,-24.0774)">
        <path d="M463.682,245.414L462.511,245.414L462.511,237.945C462.229,238.216 461.86,238.487 461.401,238.758C460.943,239.029 460.531,239.232 460.167,239.367L460.167,238.227C460.823,237.925 461.396,237.555 461.886,237.117C462.375,236.669 462.719,236.242 462.917,235.836L463.682,235.836L463.682,245.414Z" style="fill-rule:nonzero;"/>
    </g>
    <g transform="matrix(1,0,0,1,-340.55,-24.0774)">
        <path d="M341.05,400.194C341.05,377.851 359.163,359.738 381.507,359.738C392.236,359.738 402.527,364 410.114,371.587C417.701,379.174 421.963,389.464 421.963,400.194C421.963,422.538 403.85,440.651 381.507,440.651C359.163,440.651 341.05,422.538 341.05,400.194L341.05,400.194Z" style="fill:rgb(207,226,243);"/>
    </g>
    <g transform="matrix(1,0,0,1,-340.55,-24.0774)">
        <path d="M341.05,400.194C341.05,377.851 359.163,359.738 381.507,359.738C392.236,359.738 402.527,364 410.114,371.587C417.701,379.174 421.963,389.464 421.963,400.194C421.963,422.538 403.85,440.651 381.507,440.651C359.163,440.651 341.05,422.538 341.05,400.194L341.05,400.194Z" style="fill:none;stroke:black;stroke-width:1px;"/>
    </g>
    <g transform="matrix(1,0,0,1,-340.55,-24.0774)">
        <path d="M383.272,407.114L381.631,407.114L381.631,396.661C381.235,397.036 380.715,397.416 380.069,397.802C379.433,398.177 378.86,398.458 378.35,398.645L378.35,397.052C379.267,396.625 380.069,396.104 380.756,395.489C381.444,394.875 381.928,394.281 382.209,393.708L383.272,393.708L383.272,407.114Z" style="fill-rule:nonzero;"/>
    </g>
    <g transform="matrix(1,0,0,1,-340.55,-24.0774)">
        <path d="M529.31,400.194C529.31,377.851 547.423,359.738 569.766,359.738C580.496,359.738 590.787,364 598.374,371.587C605.961,379.174 610.223,389.464 610.223,400.194C610.223,422.538 592.11,440.651 569.766,440.651C547.423,440.651 529.31,422.538 529.31,400.194Z" style="fill:rgb(207,226,243);"/>
    </g>
    <g transform="matrix(1,0,0,1,-340.55,-24.0774)">
        <path d="M529.31,400.194C529.31,377.851 547.423,359.738 569.766,359.738C580.496,359.738 590.787,364 598.374,371.587C605.961,379.174 610.223,389.464 610.223,400.194C610.223,422.538 592.11,440.651 569.766,440.651C547.423,440.651 529.31,422.538 529.31,400.194Z" style="fill:none;stroke:black;stroke-width:1px;"/>
    </g>
    <g transform="matrix(1,0,0,1,-340.55,-24.0774)">
        <path d="M561.764,407.114L558.077,397.442L559.811,397.442L561.889,403.239C562.108,403.864 562.316,404.51 562.514,405.177C562.649,404.666 562.853,404.057 563.123,403.349L565.264,397.442L566.952,397.442L563.295,407.114L561.764,407.114ZM574.717,405.927C574.102,406.437 573.514,406.802 572.952,407.02C572.399,407.229 571.8,407.333 571.155,407.333C570.092,407.333 569.274,407.073 568.702,406.552C568.129,406.031 567.842,405.369 567.842,404.567C567.842,404.088 567.952,403.656 568.17,403.27C568.389,402.875 568.67,402.562 569.014,402.333C569.368,402.093 569.764,401.911 570.202,401.786C570.514,401.703 570.998,401.619 571.655,401.536C572.978,401.38 573.951,401.192 574.576,400.974C574.587,400.744 574.592,400.604 574.592,400.552C574.592,399.885 574.436,399.411 574.123,399.13C573.707,398.765 573.082,398.583 572.248,398.583C571.478,398.583 570.91,398.718 570.545,398.989C570.181,399.26 569.91,399.734 569.733,400.411L568.123,400.192C568.269,399.515 568.509,398.968 568.842,398.552C569.175,398.125 569.66,397.797 570.295,397.567C570.931,397.338 571.66,397.224 572.483,397.224C573.316,397.224 573.988,397.323 574.498,397.52C575.019,397.708 575.399,397.953 575.639,398.255C575.889,398.547 576.061,398.916 576.155,399.364C576.207,399.645 576.233,400.151 576.233,400.88L576.233,403.067C576.233,404.588 576.269,405.552 576.342,405.958C576.415,406.354 576.55,406.739 576.748,407.114L575.045,407.114C574.868,406.77 574.759,406.375 574.717,405.927ZM574.576,402.255C573.983,402.505 573.092,402.713 571.905,402.88C571.228,402.974 570.748,403.083 570.467,403.208C570.186,403.333 569.967,403.51 569.811,403.739C569.665,403.968 569.592,404.229 569.592,404.52C569.592,404.958 569.759,405.323 570.092,405.614C570.425,405.906 570.91,406.052 571.545,406.052C572.17,406.052 572.728,405.916 573.217,405.645C573.717,405.364 574.082,404.984 574.311,404.505C574.488,404.13 574.576,403.583 574.576,402.864L574.576,402.255ZM578.733,407.114L578.733,393.755L580.374,393.755L580.374,407.114L578.733,407.114Z" style="fill-rule:nonzero;"/>
    </g>
    <g transform="matrix(1,0,0,1,-340.55,-24.0774)">
        <path d="M462.42,105.493L462.42,192.171" style="fill:none;"/>
    </g>
    <g transform="matrix(1,0,0,1,-340.55,-24.0774)">
        <path d="M462.42,105.493L462.42,186.171" style="fill:none;stroke:black;stroke-width:1px;stroke-dasharray:4,3;"/>
    </g>
    <g transform="matrix(1,0,0,1,-340.55,-24.0774)">
        <path d="M460.768,186.171L462.42,190.709L464.072,186.171L460.768,186.171Z" style="stroke:black;stroke-width:1px;stroke-linejoin:miter;"/>
    </g>
    <g transform="matrix(1,0,0,1,-340.55,-24.0774)">
        <path d="M433.813,261.221L381.498,359.741" style="fill:none;"/>
    </g>
    <g transform="matrix(1,0,0,1,-340.55,-24.0774)">
        <path d="M433.813,261.221L384.312,354.442" style="fill:none;stroke:black;stroke-width:1px;stroke-dasharray:4,3;"/>
    </g>
    <g transform="matrix(1,0,0,1,-340.55,-24.0774)">
        <path d="M382.853,353.667L382.183,358.45L385.771,355.216L382.853,353.667Z" style="stroke:black;stroke-width:1px;stroke-linejoin:miter;"/>
    </g>
    <g transform="matrix(1,0,0,1,-340.55,-24.0774)">
        <path d="M491.027,261.221L569.767,359.741" style="fill:none;"/>
    </g>
    <g transform="matrix(1,0,0,1,-340.55,-24.0774)">
        <path d="M491.027,261.221L566.021,355.054" style="fill:none;stroke:black;stroke-width:1px;stroke-dasharray:4,3;"/>
    </g>
    <g transform="matrix(1,0,0,1,-340.55,-24.0774)">
        <path d="M564.731,356.085L568.855,358.599L567.312,354.023L564.731,356.085Z" style="stroke:black;stroke-width:1px;stroke-linejoin:miter;"/>
    </g>
    <g transform="matrix(1,0,0,1,-340.55,-24.0774)">
        <rect x="677.113" y="127.818" width="40.441" height="42.016" style="fill-opacity:0;"/>
    </g>
    <g transform="matrix(1,0,0,1,-340.55,-24.0774)">
        <path d="M693.66,153.55C693.045,154.06 692.457,154.425 691.894,154.644C691.342,154.852 690.743,154.956 690.097,154.956C689.035,154.956 688.217,154.696 687.644,154.175C687.071,153.654 686.785,152.993 686.785,152.191C686.785,151.712 686.894,151.279 687.113,150.894C687.332,150.498 687.613,150.185 687.957,149.956C688.311,149.717 688.707,149.534 689.144,149.409C689.457,149.326 689.941,149.243 690.597,149.159C691.92,149.003 692.894,148.816 693.519,148.597C693.529,148.368 693.535,148.227 693.535,148.175C693.535,147.508 693.378,147.034 693.066,146.753C692.649,146.389 692.024,146.206 691.191,146.206C690.42,146.206 689.852,146.342 689.488,146.613C689.123,146.883 688.852,147.357 688.675,148.034L687.066,147.816C687.212,147.139 687.451,146.592 687.785,146.175C688.118,145.748 688.602,145.42 689.238,145.191C689.873,144.962 690.602,144.847 691.425,144.847C692.259,144.847 692.931,144.946 693.441,145.144C693.962,145.331 694.342,145.576 694.582,145.878C694.832,146.17 695.003,146.54 695.097,146.988C695.149,147.269 695.175,147.774 695.175,148.503L695.175,150.691C695.175,152.212 695.212,153.175 695.285,153.581C695.358,153.977 695.493,154.363 695.691,154.738L693.988,154.738C693.811,154.394 693.701,153.998 693.66,153.55ZM693.519,149.878C692.925,150.128 692.035,150.337 690.847,150.503C690.17,150.597 689.691,150.706 689.41,150.831C689.128,150.956 688.91,151.133 688.753,151.363C688.608,151.592 688.535,151.852 688.535,152.144C688.535,152.581 688.701,152.946 689.035,153.238C689.368,153.529 689.852,153.675 690.488,153.675C691.113,153.675 691.67,153.54 692.16,153.269C692.66,152.988 693.024,152.607 693.253,152.128C693.431,151.753 693.519,151.206 693.519,150.488L693.519,149.878Z" style="fill-rule:nonzero;"/>
    </g>
    <g transform="matrix(1,0,0,1,-340.55,-24.0774)">
        <path d="M636.659,230.69C636.659,208.347 654.772,190.234 677.115,190.234C687.845,190.234 698.136,194.496 705.723,202.083C713.31,209.67 717.572,219.961 717.572,230.69C717.572,253.034 699.459,271.147 677.115,271.147C654.772,271.147 636.659,253.034 636.659,230.69L636.659,230.69Z" style="fill:rgb(207,226,243);"/>
    </g>
    <g transform="matrix(1,0,0,1,-340.55,-24.0774)">
        <path d="M636.659,230.69C636.659,208.347 654.772,190.234 677.115,190.234C687.845,190.234 698.136,194.496 705.723,202.083C713.31,209.67 717.572,219.961 717.572,230.69C717.572,253.034 699.459,271.147 677.115,271.147C654.772,271.147 636.659,253.034 636.659,230.69L636.659,230.69Z" style="fill:none;stroke:black;stroke-width:1px;"/>
    </g>
    <g transform="matrix(1,0,0,1,-340.55,-24.0774)">
        <path d="M662.2,227.49L662.2,217.943L663.497,217.943L668.512,225.443L668.512,217.943L669.715,217.943L669.715,227.49L668.419,227.49L663.403,219.99L663.403,227.49L662.2,227.49ZM671.247,224.037C671.247,222.756 671.606,221.808 672.325,221.193C672.919,220.683 673.643,220.428 674.497,220.428C675.445,220.428 676.221,220.74 676.825,221.365C677.429,221.98 677.731,222.839 677.731,223.943C677.731,224.829 677.596,225.527 677.325,226.037C677.065,226.548 676.679,226.943 676.169,227.225C675.658,227.506 675.101,227.647 674.497,227.647C673.528,227.647 672.742,227.339 672.137,226.725C671.544,226.1 671.247,225.204 671.247,224.037ZM672.45,224.037C672.45,224.923 672.643,225.584 673.028,226.022C673.424,226.459 673.913,226.678 674.497,226.678C675.08,226.678 675.565,226.459 675.95,226.022C676.335,225.574 676.528,224.897 676.528,223.99C676.528,223.136 676.33,222.49 675.934,222.053C675.549,221.615 675.07,221.397 674.497,221.397C673.913,221.397 673.424,221.615 673.028,222.053C672.643,222.49 672.45,223.152 672.45,224.037ZM683.581,227.49L683.581,226.615C683.144,227.303 682.498,227.647 681.644,227.647C681.102,227.647 680.597,227.495 680.128,227.193C679.67,226.891 679.31,226.469 679.05,225.928C678.8,225.376 678.675,224.745 678.675,224.037C678.675,223.35 678.789,222.725 679.019,222.162C679.248,221.6 679.592,221.173 680.05,220.881C680.519,220.579 681.034,220.428 681.597,220.428C682.013,220.428 682.383,220.516 682.706,220.693C683.039,220.86 683.305,221.084 683.503,221.365L683.503,217.943L684.675,217.943L684.675,227.49L683.581,227.49ZM679.878,224.037C679.878,224.923 680.066,225.584 680.441,226.022C680.816,226.459 681.258,226.678 681.769,226.678C682.279,226.678 682.711,226.469 683.066,226.053C683.42,225.636 683.597,225.001 683.597,224.147C683.597,223.199 683.414,222.506 683.05,222.068C682.685,221.62 682.237,221.397 681.706,221.397C681.185,221.397 680.748,221.61 680.394,222.037C680.05,222.454 679.878,223.12 679.878,224.037ZM691.244,225.272L692.447,225.412C692.259,226.12 691.905,226.673 691.384,227.068C690.874,227.454 690.218,227.647 689.415,227.647C688.405,227.647 687.603,227.334 687.009,226.709C686.415,226.084 686.119,225.214 686.119,224.1C686.119,222.933 686.415,222.032 687.009,221.397C687.613,220.751 688.395,220.428 689.353,220.428C690.28,220.428 691.035,220.74 691.619,221.365C692.202,221.99 692.494,222.876 692.494,224.022L692.494,224.334L687.337,224.334C687.379,225.094 687.593,225.678 687.978,226.084C688.363,226.48 688.843,226.678 689.415,226.678C689.853,226.678 690.223,226.568 690.525,226.35C690.827,226.12 691.067,225.761 691.244,225.272ZM687.4,223.365L691.259,223.365C691.207,222.792 691.061,222.36 690.822,222.068C690.447,221.61 689.962,221.381 689.369,221.381C688.827,221.381 688.374,221.563 688.009,221.928C687.645,222.282 687.442,222.761 687.4,223.365Z" style="fill-rule:nonzero;"/>
    </g>
    <g transform="matrix(1,0,0,1,-340.55,-24.0774)">
        <path d="M680.112,242.365L680.112,243.49L673.815,243.49C673.805,243.209 673.852,242.938 673.956,242.678C674.112,242.251 674.368,241.829 674.722,241.412C675.076,240.995 675.586,240.511 676.253,239.959C677.295,239.115 677.998,238.443 678.362,237.943C678.727,237.443 678.909,236.975 678.909,236.537C678.909,236.068 678.743,235.678 678.409,235.365C678.076,235.042 677.644,234.881 677.112,234.881C676.539,234.881 676.081,235.053 675.737,235.397C675.404,235.73 675.237,236.193 675.237,236.787L674.034,236.678C674.118,235.772 674.425,235.084 674.956,234.615C675.498,234.147 676.222,233.912 677.128,233.912C678.045,233.912 678.769,234.167 679.3,234.678C679.842,235.178 680.112,235.803 680.112,236.553C680.112,236.938 680.034,237.318 679.878,237.693C679.722,238.058 679.461,238.443 679.097,238.85C678.732,239.256 678.128,239.813 677.284,240.522C676.586,241.115 676.133,241.522 675.925,241.74C675.727,241.949 675.565,242.157 675.44,242.365L680.112,242.365Z" style="fill-rule:nonzero;"/>
    </g>
    <g transform="matrix(1,0,0,1,-340.55,-24.0774)">
        <path d="M717.57,400.194C717.57,377.851 735.683,359.738 758.026,359.738C768.756,359.738 779.046,364 786.633,371.587C794.221,379.174 798.483,389.464 798.483,400.194C798.483,422.538 780.37,440.651 758.026,440.651C735.683,440.651 717.57,422.538 717.57,400.194Z" style="fill:rgb(207,226,243);"/>
    </g>
    <g transform="matrix(1,0,0,1,-340.55,-24.0774)">
        <path d="M717.57,400.194C717.57,377.851 735.683,359.738 758.026,359.738C768.756,359.738 779.046,364 786.633,371.587C794.221,379.174 798.483,389.464 798.483,400.194C798.483,422.538 780.37,440.651 758.026,440.651C735.683,440.651 717.57,422.538 717.57,400.194Z" style="fill:none;stroke:black;stroke-width:1px;"/>
    </g>
    <g transform="matrix(1,0,0,1,-340.55,-24.0774)">
        <path d="M762.229,405.536L762.229,407.114L753.401,407.114C753.39,406.718 753.453,406.338 753.588,405.974C753.818,405.369 754.177,404.776 754.667,404.192C755.167,403.609 755.885,402.937 756.823,402.177C758.271,400.989 759.25,400.047 759.76,399.349C760.271,398.651 760.526,397.994 760.526,397.38C760.526,396.724 760.292,396.177 759.823,395.739C759.364,395.291 758.76,395.067 758.01,395.067C757.219,395.067 756.583,395.307 756.104,395.786C755.635,396.255 755.401,396.906 755.401,397.739L753.713,397.567C753.828,396.307 754.26,395.349 755.01,394.692C755.771,394.036 756.781,393.708 758.042,393.708C759.323,393.708 760.338,394.062 761.088,394.77C761.838,395.479 762.213,396.359 762.213,397.411C762.213,397.942 762.104,398.468 761.885,398.989C761.667,399.51 761.302,400.057 760.792,400.63C760.292,401.192 759.448,401.974 758.26,402.974C757.281,403.797 756.651,404.359 756.37,404.661C756.088,404.953 755.859,405.244 755.682,405.536L762.229,405.536Z" style="fill-rule:nonzero;"/>
    </g>
    <g transform="matrix(1,0,0,1,-340.55,-24.0774)">
        <path d="M705.723,259.298L758.038,359.738" style="fill:none;"/>
    </g>
    <g transform="matrix(1,0,0,1,-340.55,-24.0774)">
        <path d="M705.723,259.298L755.266,354.417" style="fill:none;stroke:black;stroke-width:1px;"/>
    </g>
    <g transform="matrix(1,0,0,1,-340.55,-24.0774)">
        <path d="M753.801,355.18L757.362,358.442L756.731,353.654L753.801,355.18Z" style="stroke:black;stroke-width:1px;stroke-linejoin:miter;"/>
    </g>
    <g transform="matrix(1,0,0,1,-340.55,-24.0774)">
        <path d="M648.508,259.298L569.768,359.738" style="fill:none;"/>
    </g>
    <g transform="matrix(1,0,0,1,-340.55,-24.0774)">
        <path d="M648.508,259.298L573.47,355.016" style="fill:none;stroke:black;stroke-width:1px;"/>
    </g>
    <g transform="matrix(1,0,0,1,-340.55,-24.0774)">
        <path d="M572.17,353.997L570.67,358.588L574.77,356.036L572.17,353.997Z" style="stroke:black;stroke-width:1px;stroke-linejoin:miter;"/>
    </g>
    <g transform="matrix(1,0,0,1,-340.55,-24.0774)">
        <path d="M636.659,230.69L410.108,371.572" style="fill:none;"/>
    </g>
    <g transform="matrix(1,0,0,1,-340.55,-24.0774)">
        <path d="M636.659,230.69L415.203,368.404" style="fill:none;stroke:black;stroke-width:1px;"/>
    </g>
    <g transform="matrix(1,0,0,1,-340.55,-24.0774)">
        <path d="M414.331,367.001L411.349,370.8L416.075,369.806L414.331,367.001Z" style="stroke:black;stroke-width:1px;stroke-linejoin:miter;"/>
    </g>
    <g transform="matrix(1,0,0,1,-340.55,-24.0774)">
        <rect x="596.215" y="273.071" width="40.441" height="42.016" style="fill-opacity:0;"/>
    </g>
    <g transform="matrix(1,0,0,1,-340.55,-24.0774)">
        <path d="M612.762,296.444L614.371,296.663C614.194,297.767 613.741,298.637 613.012,299.272C612.293,299.897 611.403,300.21 610.34,300.21C609.017,300.21 607.955,299.777 607.153,298.913C606.351,298.048 605.95,296.809 605.95,295.194C605.95,294.142 606.121,293.225 606.465,292.444C606.809,291.663 607.335,291.079 608.043,290.694C608.752,290.298 609.523,290.1 610.356,290.1C611.408,290.1 612.267,290.366 612.934,290.897C613.601,291.428 614.028,292.184 614.215,293.163L612.621,293.397C612.465,292.751 612.194,292.267 611.809,291.944C611.424,291.611 610.96,291.444 610.418,291.444C609.595,291.444 608.924,291.741 608.403,292.335C607.882,292.928 607.621,293.866 607.621,295.147C607.621,296.449 607.871,297.397 608.371,297.991C608.871,298.574 609.523,298.866 610.325,298.866C610.97,298.866 611.507,298.668 611.934,298.272C612.371,297.876 612.648,297.267 612.762,296.444Z" style="fill-rule:nonzero;"/>
    </g>
    <g transform="matrix(1,0,0,1,-340.55,-24.0774)">
        <rect x="564.434" y="230.689" width="40.441" height="42.016" style="fill-opacity:0;"/>
    </g>
    <g transform="matrix(1,0,0,1,-340.55,-24.0774)">
        <path d="M576.169,257.609L574.653,257.609L574.653,244.25L576.294,244.25L576.294,249.015C576.992,248.151 577.877,247.718 578.95,247.718C579.544,247.718 580.106,247.838 580.638,248.078C581.169,248.317 581.606,248.656 581.95,249.093C582.294,249.52 582.559,250.041 582.747,250.656C582.945,251.27 583.044,251.927 583.044,252.625C583.044,254.281 582.632,255.562 581.809,256.468C580.997,257.375 580.013,257.828 578.856,257.828C577.721,257.828 576.825,257.349 576.169,256.39L576.169,257.609ZM576.153,252.703C576.153,253.859 576.315,254.698 576.638,255.218C577.148,256.062 577.846,256.484 578.731,256.484C579.45,256.484 580.07,256.171 580.591,255.546C581.111,254.921 581.372,253.994 581.372,252.765C581.372,251.505 581.122,250.573 580.622,249.968C580.122,249.364 579.513,249.062 578.794,249.062C578.085,249.062 577.466,249.375 576.934,250C576.414,250.625 576.153,251.526 576.153,252.703Z" style="fill-rule:nonzero;"/>
    </g>
    <g transform="matrix(1,0,0,1,-340.55,-24.0774)">
        <rect x="697.718" y="281.085" width="40.441" height="42.016" style="fill-opacity:0;"/>
    </g>
    <g transform="matrix(1,0,0,1,-340.55,-24.0774)">
        <path d="M714.218,308.005L714.218,306.787C713.614,307.745 712.713,308.224 711.515,308.224C710.744,308.224 710.036,308.011 709.39,307.583C708.744,307.156 708.244,306.563 707.89,305.802C707.536,305.042 707.358,304.167 707.358,303.177C707.358,302.208 707.52,301.333 707.843,300.552C708.166,299.761 708.645,299.156 709.28,298.74C709.926,298.323 710.65,298.115 711.452,298.115C712.036,298.115 712.551,298.24 712.999,298.49C713.457,298.729 713.827,299.047 714.108,299.443L714.108,294.646L715.749,294.646L715.749,308.005L714.218,308.005ZM709.046,303.177C709.046,304.417 709.306,305.344 709.827,305.958C710.348,306.573 710.963,306.88 711.671,306.88C712.39,306.88 712.999,306.589 713.499,306.005C713.999,305.412 714.249,304.516 714.249,303.318C714.249,301.995 713.994,301.026 713.483,300.412C712.973,299.787 712.343,299.474 711.593,299.474C710.874,299.474 710.27,299.771 709.78,300.365C709.291,300.958 709.046,301.896 709.046,303.177Z" style="fill-rule:nonzero;"/>
    </g>
    <g transform="matrix(1,0,0,1,-340.55,-24.0774)">
        <path d="M677.113,105.491L677.113,190.247" style="fill:none;"/>
    </g>
    <g transform="matrix(1,0,0,1,-340.55,-24.0774)">
        <path d="M677.113,105.491L677.113,184.247" style="fill:none;stroke:black;stroke-width:1px;"/>
    </g>
    <g transform="matrix(1,0,0,1,-340.55,-24.0774)">
        <path d="M675.461,184.247L677.113,188.785L678.765,184.247L675.461,184.247Z" style="stroke:black;stroke-width:1px;stroke-linejoin:miter;"/>
    </g>
    <g transform="matrix(1,0,0,1,-340.55,-24.0774)">
        <path d="M636.656,65.034C636.656,42.691 654.769,24.577 677.113,24.577C687.843,24.577 698.133,28.84 705.72,36.427C713.307,44.014 717.57,54.304 717.57,65.034C717.57,87.378 699.456,105.491 677.113,105.491C654.769,105.491 636.656,87.378 636.656,65.034L636.656,65.034Z" style="fill:rgb(207,226,243);"/>
    </g>
    <g transform="matrix(1,0,0,1,-340.55,-24.0774)">
        <path d="M636.656,65.034C636.656,42.691 654.769,24.577 677.113,24.577C687.843,24.577 698.133,28.84 705.72,36.427C713.307,44.014 717.57,54.304 717.57,65.034C717.57,87.378 699.456,105.491 677.113,105.491C654.769,105.491 636.656,87.378 636.656,65.034L636.656,65.034Z" style="fill:none;stroke:black;stroke-width:1px;"/>
    </g>
    <g transform="matrix(1,0,0,1,-340.55,-24.0774)">
        <path d="M661.235,60.954L661.235,51.282L662.704,51.282L662.704,52.657C663.412,51.595 664.438,51.063 665.782,51.063C666.365,51.063 666.902,51.168 667.391,51.376C667.881,51.584 668.245,51.86 668.485,52.204C668.735,52.537 668.907,52.938 669.001,53.407C669.063,53.709 669.094,54.241 669.094,55.001L669.094,60.954L667.454,60.954L667.454,55.063C667.454,54.397 667.386,53.902 667.251,53.579C667.126,53.246 666.902,52.98 666.579,52.782C666.256,52.584 665.876,52.485 665.438,52.485C664.74,52.485 664.136,52.709 663.626,53.157C663.126,53.595 662.876,54.433 662.876,55.673L662.876,60.954L661.235,60.954ZM678.236,57.845L679.923,58.048C679.652,59.037 679.158,59.808 678.439,60.36C677.72,60.902 676.798,61.173 675.673,61.173C674.257,61.173 673.132,60.741 672.298,59.876C671.475,59.001 671.064,57.777 671.064,56.204C671.064,54.569 671.481,53.303 672.314,52.407C673.158,51.511 674.246,51.063 675.58,51.063C676.871,51.063 677.923,51.506 678.736,52.392C679.559,53.267 679.97,54.501 679.97,56.095L679.97,56.532L672.751,56.532C672.814,57.595 673.116,58.412 673.658,58.985C674.199,59.548 674.871,59.829 675.673,59.829C676.277,59.829 676.793,59.673 677.22,59.36C677.647,59.037 677.986,58.532 678.236,57.845ZM672.845,55.188L678.251,55.188C678.178,54.376 677.97,53.767 677.626,53.36C677.106,52.725 676.428,52.407 675.595,52.407C674.845,52.407 674.21,52.662 673.689,53.173C673.178,53.673 672.897,54.345 672.845,55.188ZM683.768,60.954L680.799,51.282L682.502,51.282L684.033,56.86L684.611,58.938C684.643,58.834 684.809,58.168 685.111,56.938L686.658,51.282L688.346,51.282L689.783,56.892L690.268,58.735L690.83,56.876L692.486,51.282L694.08,51.282L691.049,60.954L689.346,60.954L687.815,55.157L687.44,53.517L685.486,60.954L683.768,60.954Z" style="fill-rule:nonzero;"/>
    </g>
    <g transform="matrix(1,0,0,1,-340.55,-24.0774)">
        <path d="M662.258,82.954L662.258,73.282L663.727,73.282L663.727,74.751C664.102,74.063 664.445,73.61 664.758,73.392C665.081,73.173 665.435,73.063 665.82,73.063C666.372,73.063 666.935,73.241 667.508,73.595L666.945,75.11C666.539,74.871 666.138,74.751 665.742,74.751C665.378,74.751 665.055,74.86 664.774,75.079C664.492,75.298 664.289,75.595 664.164,75.97C663.977,76.553 663.883,77.194 663.883,77.892L663.883,82.954L662.258,82.954ZM667.877,78.11C667.877,76.319 668.372,74.996 669.361,74.142C670.195,73.423 671.21,73.063 672.408,73.063C673.741,73.063 674.83,73.501 675.674,74.376C676.517,75.241 676.939,76.444 676.939,77.985C676.939,79.225 676.752,80.204 676.377,80.923C676.002,81.631 675.455,82.183 674.736,82.579C674.028,82.975 673.252,83.173 672.408,83.173C671.054,83.173 669.96,82.741 669.127,81.876C668.294,81.001 667.877,79.746 667.877,78.11ZM669.564,78.11C669.564,79.35 669.83,80.282 670.361,80.907C670.903,81.522 671.585,81.829 672.408,81.829C673.221,81.829 673.898,81.522 674.439,80.907C674.981,80.282 675.252,79.334 675.252,78.063C675.252,76.866 674.981,75.959 674.439,75.345C673.898,74.73 673.221,74.423 672.408,74.423C671.585,74.423 670.903,74.73 670.361,75.345C669.83,75.949 669.564,76.871 669.564,78.11ZM678.253,78.11C678.253,76.319 678.747,74.996 679.737,74.142C680.57,73.423 681.586,73.063 682.784,73.063C684.117,73.063 685.206,73.501 686.049,74.376C686.893,75.241 687.315,76.444 687.315,77.985C687.315,79.225 687.128,80.204 686.753,80.923C686.378,81.631 685.831,82.183 685.112,82.579C684.404,82.975 683.628,83.173 682.784,83.173C681.43,83.173 680.336,82.741 679.503,81.876C678.669,81.001 678.253,79.746 678.253,78.11ZM679.94,78.11C679.94,79.35 680.206,80.282 680.737,80.907C681.279,81.522 681.961,81.829 682.784,81.829C683.596,81.829 684.273,81.522 684.815,80.907C685.357,80.282 685.628,79.334 685.628,78.063C685.628,76.866 685.357,75.959 684.815,75.345C684.273,74.73 683.596,74.423 682.784,74.423C681.961,74.423 681.279,74.73 680.737,75.345C680.206,75.949 679.94,76.871 679.94,78.11ZM692.816,81.485L693.05,82.938C692.592,83.032 692.18,83.079 691.816,83.079C691.222,83.079 690.758,82.985 690.425,82.798C690.102,82.61 689.873,82.366 689.738,82.063C689.602,81.751 689.535,81.105 689.535,80.126L689.535,74.548L688.331,74.548L688.331,73.282L689.535,73.282L689.535,70.892L691.16,69.907L691.16,73.282L692.816,73.282L692.816,74.548L691.16,74.548L691.16,80.22C691.16,80.678 691.186,80.975 691.238,81.11C691.3,81.246 691.394,81.355 691.519,81.438C691.654,81.511 691.847,81.548 692.097,81.548C692.274,81.548 692.514,81.527 692.816,81.485Z" style="fill-rule:nonzero;"/>
    </g>
</svg>
