<?xml version="1.0" encoding="UTF-8" standalone="no"?>
<!DOCTYPE svg PUBLIC "-//W3C//DTD SVG 1.1//EN" "http://www.w3.org/Graphics/SVG/1.1/DTD/svg11.dtd">
<svg width="100%" height="100%" viewBox="0 0 527 418" version="1.1" xmlns="http://www.w3.org/2000/svg" xmlns:xlink="http://www.w3.org/1999/xlink" xml:space="preserve" xmlns:serif="http://www.serif.com/" style="fill-rule:evenodd;clip-rule:evenodd;stroke-linejoin:round;stroke-miterlimit:10;">
    <g transform="matrix(1,0,0,1,-179.427,-24.0774)">
        <path d="M179.927,65.037C179.927,42.693 198.04,24.58 220.383,24.58C231.113,24.58 241.403,28.842 248.99,36.43C256.578,44.017 260.84,54.307 260.84,65.037C260.84,87.38 242.727,105.493 220.383,105.493C198.04,105.493 179.927,87.38 179.927,65.037L179.927,65.037Z" style="fill:rgb(239,239,239);"/>
    </g>
    <g transform="matrix(1,0,0,1,-179.427,-24.0774)">
        <path d="M179.927,65.037C179.927,42.693 198.04,24.58 220.383,24.58C231.113,24.58 241.403,28.842 248.99,36.43C256.578,44.017 260.84,54.307 260.84,65.037C260.84,87.38 242.727,105.493 220.383,105.493C198.04,105.493 179.927,87.38 179.927,65.037L179.927,65.037Z" style="fill:none;stroke:black;stroke-width:1px;"/>
    </g>
    <g transform="matrix(1,0,0,1,-179.427,-24.0774)">
        <path d="M205.528,71.957L205.528,62.285L206.997,62.285L206.997,63.754C207.372,63.066 207.716,62.613 208.028,62.394C208.351,62.175 208.705,62.066 209.091,62.066C209.643,62.066 210.205,62.243 210.778,62.597L210.216,64.113C209.809,63.873 209.408,63.754 209.013,63.754C208.648,63.754 208.325,63.863 208.044,64.082C207.763,64.3 207.559,64.597 207.434,64.972C207.247,65.556 207.153,66.196 207.153,66.894L207.153,71.957L205.528,71.957ZM211.147,67.113C211.147,65.321 211.642,63.998 212.632,63.144C213.465,62.425 214.481,62.066 215.678,62.066C217.012,62.066 218.1,62.504 218.944,63.379C219.788,64.243 220.21,65.446 220.21,66.988C220.21,68.228 220.022,69.207 219.647,69.925C219.272,70.634 218.725,71.186 218.007,71.582C217.298,71.978 216.522,72.175 215.678,72.175C214.324,72.175 213.231,71.743 212.397,70.879C211.564,70.004 211.147,68.748 211.147,67.113ZM212.835,67.113C212.835,68.353 213.1,69.285 213.632,69.91C214.173,70.524 214.856,70.832 215.678,70.832C216.491,70.832 217.168,70.524 217.71,69.91C218.251,69.285 218.522,68.337 218.522,67.066C218.522,65.868 218.251,64.962 217.71,64.347C217.168,63.733 216.491,63.425 215.678,63.425C214.856,63.425 214.173,63.733 213.632,64.347C213.1,64.952 212.835,65.873 212.835,67.113ZM221.523,67.113C221.523,65.321 222.018,63.998 223.007,63.144C223.841,62.425 224.856,62.066 226.054,62.066C227.387,62.066 228.476,62.504 229.32,63.379C230.164,64.243 230.585,65.446 230.585,66.988C230.585,68.228 230.398,69.207 230.023,69.925C229.648,70.634 229.101,71.186 228.382,71.582C227.674,71.978 226.898,72.175 226.054,72.175C224.7,72.175 223.606,71.743 222.773,70.879C221.94,70.004 221.523,68.748 221.523,67.113ZM223.21,67.113C223.21,68.353 223.476,69.285 224.007,69.91C224.549,70.524 225.231,70.832 226.054,70.832C226.867,70.832 227.544,70.524 228.085,69.91C228.627,69.285 228.898,68.337 228.898,67.066C228.898,65.868 228.627,64.962 228.085,64.347C227.544,63.733 226.867,63.425 226.054,63.425C225.231,63.425 224.549,63.733 224.007,64.347C223.476,64.952 223.21,65.873 223.21,67.113ZM236.086,70.488L236.32,71.941C235.862,72.035 235.451,72.082 235.086,72.082C234.492,72.082 234.029,71.988 233.695,71.8C233.373,71.613 233.143,71.368 233.008,71.066C232.873,70.754 232.805,70.108 232.805,69.129L232.805,63.55L231.602,63.55L231.602,62.285L232.805,62.285L232.805,59.894L234.43,58.91L234.43,62.285L236.086,62.285L236.086,63.55L234.43,63.55L234.43,69.222C234.43,69.681 234.456,69.978 234.508,70.113C234.57,70.248 234.664,70.358 234.789,70.441C234.925,70.514 235.117,70.55 235.367,70.55C235.544,70.55 235.784,70.53 236.086,70.488Z" style="fill-rule:nonzero;"/>
    </g>
    <g transform="matrix(1,0,0,1,-179.427,-24.0774)">
        <path d="M179.927,232.614C179.927,210.271 198.04,192.157 220.383,192.157C231.113,192.157 241.403,196.42 248.99,204.007C256.578,211.594 260.84,221.884 260.84,232.614C260.84,254.958 242.727,273.071 220.383,273.071C198.04,273.071 179.927,254.958 179.927,232.614Z" style="fill:rgb(239,239,239);"/>
    </g>
    <g transform="matrix(1,0,0,1,-179.427,-24.0774)">
        <path d="M179.927,232.614C179.927,210.271 198.04,192.157 220.383,192.157C231.113,192.157 241.403,196.42 248.99,204.007C256.578,211.594 260.84,221.884 260.84,232.614C260.84,254.958 242.727,273.071 220.383,273.071C198.04,273.071 179.927,254.958 179.927,232.614Z" style="fill:none;stroke:black;stroke-width:1px;"/>
    </g>
    <g transform="matrix(1,0,0,1,-179.427,-24.0774)">
        <path d="M205.468,229.414L205.468,219.867L206.764,219.867L211.78,227.367L211.78,219.867L212.983,219.867L212.983,229.414L211.686,229.414L206.671,221.914L206.671,229.414L205.468,229.414ZM214.515,225.961C214.515,224.68 214.874,223.732 215.593,223.117C216.186,222.607 216.91,222.352 217.765,222.352C218.712,222.352 219.489,222.664 220.093,223.289C220.697,223.904 220.999,224.763 220.999,225.867C220.999,226.753 220.864,227.451 220.593,227.961C220.332,228.471 219.947,228.867 219.436,229.149C218.926,229.43 218.369,229.57 217.765,229.57C216.796,229.57 216.009,229.263 215.405,228.649C214.811,228.024 214.515,227.128 214.515,225.961ZM215.718,225.961C215.718,226.846 215.91,227.508 216.296,227.945C216.692,228.383 217.181,228.602 217.765,228.602C218.348,228.602 218.832,228.383 219.218,227.945C219.603,227.498 219.796,226.82 219.796,225.914C219.796,225.06 219.598,224.414 219.202,223.977C218.817,223.539 218.337,223.32 217.765,223.32C217.181,223.32 216.692,223.539 216.296,223.977C215.91,224.414 215.718,225.076 215.718,225.961ZM226.849,229.414L226.849,228.539C226.411,229.227 225.766,229.57 224.911,229.57C224.37,229.57 223.865,229.419 223.396,229.117C222.937,228.815 222.578,228.393 222.318,227.852C222.068,227.3 221.943,226.669 221.943,225.961C221.943,225.274 222.057,224.649 222.286,224.086C222.516,223.524 222.859,223.096 223.318,222.805C223.786,222.503 224.302,222.352 224.865,222.352C225.281,222.352 225.651,222.44 225.974,222.617C226.307,222.784 226.573,223.008 226.771,223.289L226.771,219.867L227.943,219.867L227.943,229.414L226.849,229.414ZM223.146,225.961C223.146,226.846 223.333,227.508 223.708,227.945C224.083,228.383 224.526,228.602 225.036,228.602C225.547,228.602 225.979,228.393 226.333,227.977C226.687,227.56 226.865,226.925 226.865,226.07C226.865,225.123 226.682,224.43 226.318,223.992C225.953,223.544 225.505,223.32 224.974,223.32C224.453,223.32 224.016,223.534 223.661,223.961C223.318,224.378 223.146,225.044 223.146,225.961ZM234.511,227.195L235.715,227.336C235.527,228.044 235.173,228.596 234.652,228.992C234.142,229.378 233.485,229.57 232.683,229.57C231.673,229.57 230.871,229.258 230.277,228.633C229.683,228.008 229.386,227.138 229.386,226.024C229.386,224.857 229.683,223.956 230.277,223.32C230.881,222.675 231.662,222.352 232.621,222.352C233.548,222.352 234.303,222.664 234.886,223.289C235.47,223.914 235.761,224.8 235.761,225.945L235.761,226.258L230.605,226.258C230.647,227.018 230.86,227.602 231.246,228.008C231.631,228.404 232.11,228.602 232.683,228.602C233.121,228.602 233.491,228.492 233.793,228.274C234.095,228.044 234.334,227.685 234.511,227.195ZM230.668,225.289L234.527,225.289C234.475,224.716 234.329,224.284 234.09,223.992C233.715,223.534 233.23,223.305 232.636,223.305C232.095,223.305 231.642,223.487 231.277,223.852C230.912,224.206 230.709,224.685 230.668,225.289Z" style="fill-rule:nonzero;"/>
    </g>
    <g transform="matrix(1,0,0,1,-179.427,-24.0774)">
        <path d="M221.646,245.414L220.474,245.414L220.474,237.945C220.193,238.216 219.823,238.487 219.364,238.758C218.906,239.029 218.495,239.232 218.13,239.367L218.13,238.227C218.786,237.925 219.359,237.555 219.849,237.117C220.338,236.669 220.682,236.242 220.88,235.836L221.646,235.836L221.646,245.414Z" style="fill-rule:nonzero;"/>
    </g>
    <g transform="matrix(1,0,0,1,-179.427,-24.0774)">
        <path d="M179.927,400.192C179.927,377.848 198.04,359.735 220.383,359.735C231.113,359.735 241.403,363.997 248.99,371.584C256.578,379.172 260.84,389.462 260.84,400.192C260.84,422.535 242.727,440.648 220.383,440.648C198.04,440.648 179.927,422.535 179.927,400.192Z" style="fill:rgb(207,226,243);"/>
    </g>
    <g transform="matrix(1,0,0,1,-179.427,-24.0774)">
        <path d="M179.927,400.192C179.927,377.848 198.04,359.735 220.383,359.735C231.113,359.735 241.403,363.997 248.99,371.584C256.578,379.172 260.84,389.462 260.84,400.192C260.84,422.535 242.727,440.648 220.383,440.648C198.04,440.648 179.927,422.535 179.927,400.192Z" style="fill:none;stroke:black;stroke-width:1px;"/>
    </g>
    <g transform="matrix(1,0,0,1,-179.427,-24.0774)">
        <path d="M222.148,407.112L220.508,407.112L220.508,396.658C220.112,397.033 219.591,397.414 218.945,397.799C218.31,398.174 217.737,398.455 217.227,398.643L217.227,397.049C218.143,396.622 218.945,396.101 219.633,395.487C220.32,394.872 220.805,394.278 221.086,393.705L222.148,393.705L222.148,407.112Z" style="fill-rule:nonzero;"/>
    </g>
    <g transform="matrix(1,0,0,1,-179.427,-24.0774)">
        <path d="M395.953,400.192C395.953,377.848 414.066,359.735 436.409,359.735C447.139,359.735 457.43,363.997 465.017,371.584C472.604,379.172 476.866,389.462 476.866,400.192C476.866,422.535 458.753,440.648 436.409,440.648C414.066,440.648 395.953,422.535 395.953,400.192L395.953,400.192Z" style="fill:rgb(207,226,243);"/>
    </g>
    <g transform="matrix(1,0,0,1,-179.427,-24.0774)">
        <path d="M395.953,400.192C395.953,377.848 414.066,359.735 436.409,359.735C447.139,359.735 457.43,363.997 465.017,371.584C472.604,379.172 476.866,389.462 476.866,400.192C476.866,422.535 458.753,440.648 436.409,440.648C414.066,440.648 395.953,422.535 395.953,400.192L395.953,400.192Z" style="fill:none;stroke:black;stroke-width:1px;"/>
    </g>
    <g transform="matrix(1,0,0,1,-179.427,-24.0774)">
        <path d="M428.407,407.112L424.719,397.44L426.454,397.44L428.532,403.237C428.751,403.862 428.959,404.507 429.157,405.174C429.292,404.664 429.496,404.054 429.766,403.346L431.907,397.44L433.594,397.44L429.938,407.112L428.407,407.112ZM441.36,405.924C440.746,406.435 440.157,406.799 439.594,407.018C439.042,407.226 438.443,407.33 437.798,407.33C436.735,407.33 435.917,407.07 435.344,406.549C434.772,406.028 434.485,405.367 434.485,404.565C434.485,404.086 434.594,403.653 434.813,403.268C435.032,402.872 435.313,402.56 435.657,402.33C436.011,402.091 436.407,401.908 436.844,401.783C437.157,401.7 437.641,401.617 438.298,401.533C439.621,401.377 440.594,401.19 441.219,400.971C441.23,400.742 441.235,400.601 441.235,400.549C441.235,399.882 441.079,399.408 440.766,399.127C440.35,398.763 439.725,398.58 438.891,398.58C438.121,398.58 437.553,398.716 437.188,398.987C436.824,399.257 436.553,399.731 436.376,400.408L434.766,400.19C434.912,399.513 435.152,398.966 435.485,398.549C435.818,398.122 436.303,397.794 436.938,397.565C437.574,397.336 438.303,397.221 439.126,397.221C439.959,397.221 440.631,397.32 441.141,397.518C441.662,397.705 442.042,397.95 442.282,398.252C442.532,398.544 442.704,398.914 442.798,399.362C442.85,399.643 442.876,400.148 442.876,400.877L442.876,403.065C442.876,404.586 442.912,405.549 442.985,405.955C443.058,406.351 443.193,406.737 443.391,407.112L441.688,407.112C441.511,406.768 441.402,406.372 441.36,405.924ZM441.219,402.252C440.626,402.502 439.735,402.711 438.548,402.877C437.871,402.971 437.391,403.08 437.11,403.205C436.829,403.33 436.61,403.507 436.454,403.737C436.308,403.966 436.235,404.226 436.235,404.518C436.235,404.955 436.402,405.32 436.735,405.612C437.068,405.903 437.553,406.049 438.188,406.049C438.813,406.049 439.371,405.914 439.86,405.643C440.36,405.362 440.725,404.981 440.954,404.502C441.131,404.127 441.219,403.58 441.219,402.862L441.219,402.252ZM445.376,407.112L445.376,393.752L447.017,393.752L447.017,407.112L445.376,407.112Z" style="fill-rule:nonzero;"/>
    </g>
    <g transform="matrix(1,0,0,1,-179.427,-24.0774)">
        <path d="M220.383,105.493L220.383,192.171" style="fill:none;"/>
    </g>
    <g transform="matrix(1,0,0,1,-179.427,-24.0774)">
        <path d="M220.383,105.493L220.383,186.171" style="fill:none;stroke:black;stroke-width:1px;stroke-dasharray:4,3;"/>
    </g>
    <g transform="matrix(1,0,0,1,-179.427,-24.0774)">
        <path d="M218.731,186.171L220.383,190.709L222.035,186.171L218.731,186.171Z" style="stroke:black;stroke-width:1px;stroke-linejoin:miter;"/>
    </g>
    <g transform="matrix(1,0,0,1,-179.427,-24.0774)">
        <path d="M220.383,273.071L220.383,359.748" style="fill:none;"/>
    </g>
    <g transform="matrix(1,0,0,1,-179.427,-24.0774)">
        <path d="M220.383,273.071L220.383,353.748" style="fill:none;stroke:black;stroke-width:1px;stroke-dasharray:4,3;"/>
    </g>
    <g transform="matrix(1,0,0,1,-179.427,-24.0774)">
        <path d="M218.731,353.748L220.383,358.286L222.035,353.748L218.731,353.748Z" style="stroke:black;stroke-width:1px;stroke-linejoin:miter;"/>
    </g>
    <g transform="matrix(1,0,0,1,-179.427,-24.0774)">
        <path d="M248.99,261.221L407.794,371.584" style="fill:none;"/>
    </g>
    <g transform="matrix(1,0,0,1,-179.427,-24.0774)">
        <path d="M248.99,261.221L402.867,368.159" style="fill:none;stroke:black;stroke-width:1px;stroke-dasharray:4,3;"/>
    </g>
    <g transform="matrix(1,0,0,1,-179.427,-24.0774)">
        <path d="M401.924,369.516L406.593,370.749L403.809,366.803L401.924,369.516Z" style="stroke:black;stroke-width:1px;stroke-linejoin:miter;"/>
    </g>
    <g transform="matrix(1,0,0,1,-179.427,-24.0774)">
        <path d="M394.622,230.69C394.622,208.347 412.735,190.234 435.079,190.234C445.809,190.234 456.099,194.496 463.686,202.083C471.273,209.67 475.535,219.961 475.535,230.69C475.535,253.034 457.422,271.147 435.079,271.147C412.735,271.147 394.622,253.034 394.622,230.69L394.622,230.69Z" style="fill:rgb(207,226,243);"/>
    </g>
    <g transform="matrix(1,0,0,1,-179.427,-24.0774)">
        <path d="M394.622,230.69C394.622,208.347 412.735,190.234 435.079,190.234C445.809,190.234 456.099,194.496 463.686,202.083C471.273,209.67 475.535,219.961 475.535,230.69C475.535,253.034 457.422,271.147 435.079,271.147C412.735,271.147 394.622,253.034 394.622,230.69L394.622,230.69Z" style="fill:none;stroke:black;stroke-width:1px;"/>
    </g>
    <g transform="matrix(1,0,0,1,-179.427,-24.0774)">
        <path d="M420.163,227.49L420.163,217.943L421.46,217.943L426.476,225.443L426.476,217.943L427.679,217.943L427.679,227.49L426.382,227.49L421.366,219.99L421.366,227.49L420.163,227.49ZM429.21,224.037C429.21,222.756 429.57,221.808 430.288,221.193C430.882,220.683 431.606,220.428 432.46,220.428C433.408,220.428 434.184,220.74 434.788,221.365C435.392,221.98 435.695,222.839 435.695,223.943C435.695,224.829 435.559,225.527 435.288,226.037C435.028,226.548 434.642,226.943 434.132,227.225C433.622,227.506 433.064,227.647 432.46,227.647C431.491,227.647 430.705,227.339 430.101,226.725C429.507,226.1 429.21,225.204 429.21,224.037ZM430.413,224.037C430.413,224.923 430.606,225.584 430.991,226.022C431.387,226.459 431.877,226.678 432.46,226.678C433.043,226.678 433.528,226.459 433.913,226.022C434.299,225.574 434.491,224.897 434.491,223.99C434.491,223.136 434.293,222.49 433.898,222.053C433.512,221.615 433.033,221.397 432.46,221.397C431.877,221.397 431.387,221.615 430.991,222.053C430.606,222.49 430.413,223.152 430.413,224.037ZM441.544,227.49L441.544,226.615C441.107,227.303 440.461,227.647 439.607,227.647C439.065,227.647 438.56,227.495 438.091,227.193C437.633,226.891 437.274,226.469 437.013,225.928C436.763,225.376 436.638,224.745 436.638,224.037C436.638,223.35 436.753,222.725 436.982,222.162C437.211,221.6 437.555,221.173 438.013,220.881C438.482,220.579 438.998,220.428 439.56,220.428C439.977,220.428 440.347,220.516 440.669,220.693C441.003,220.86 441.268,221.084 441.466,221.365L441.466,217.943L442.638,217.943L442.638,227.49L441.544,227.49ZM437.841,224.037C437.841,224.923 438.029,225.584 438.404,226.022C438.779,226.459 439.222,226.678 439.732,226.678C440.242,226.678 440.675,226.469 441.029,226.053C441.383,225.636 441.56,225.001 441.56,224.147C441.56,223.199 441.378,222.506 441.013,222.068C440.649,221.62 440.201,221.397 439.669,221.397C439.149,221.397 438.711,221.61 438.357,222.037C438.013,222.454 437.841,223.12 437.841,224.037ZM449.207,225.272L450.41,225.412C450.223,226.12 449.868,226.673 449.348,227.068C448.837,227.454 448.181,227.647 447.379,227.647C446.368,227.647 445.566,227.334 444.973,226.709C444.379,226.084 444.082,225.214 444.082,224.1C444.082,222.933 444.379,222.032 444.973,221.397C445.577,220.751 446.358,220.428 447.316,220.428C448.243,220.428 448.999,220.74 449.582,221.365C450.165,221.99 450.457,222.876 450.457,224.022L450.457,224.334L445.301,224.334C445.342,225.094 445.556,225.678 445.941,226.084C446.327,226.48 446.806,226.678 447.379,226.678C447.816,226.678 448.186,226.568 448.488,226.35C448.79,226.12 449.03,225.761 449.207,225.272ZM445.363,223.365L449.223,223.365C449.17,222.792 449.025,222.36 448.785,222.068C448.41,221.61 447.926,221.381 447.332,221.381C446.79,221.381 446.337,221.563 445.973,221.928C445.608,222.282 445.405,222.761 445.363,223.365Z" style="fill-rule:nonzero;"/>
    </g>
    <g transform="matrix(1,0,0,1,-179.427,-24.0774)">
        <path d="M438.076,242.365L438.076,243.49L431.779,243.49C431.768,243.209 431.815,242.938 431.919,242.678C432.076,242.251 432.331,241.829 432.685,241.412C433.039,240.995 433.55,240.511 434.216,239.959C435.258,239.115 435.961,238.443 436.326,237.943C436.69,237.443 436.872,236.975 436.872,236.537C436.872,236.068 436.706,235.678 436.372,235.365C436.039,235.042 435.607,234.881 435.076,234.881C434.503,234.881 434.044,235.053 433.701,235.397C433.367,235.73 433.201,236.193 433.201,236.787L431.997,236.678C432.081,235.772 432.388,235.084 432.919,234.615C433.461,234.147 434.185,233.912 435.091,233.912C436.008,233.912 436.732,234.167 437.263,234.678C437.805,235.178 438.076,235.803 438.076,236.553C438.076,236.938 437.997,237.318 437.841,237.693C437.685,238.058 437.425,238.443 437.06,238.85C436.695,239.256 436.091,239.813 435.247,240.522C434.55,241.115 434.096,241.522 433.888,241.74C433.69,241.949 433.529,242.157 433.404,242.365L438.076,242.365Z" style="fill-rule:nonzero;"/>
    </g>
    <g transform="matrix(1,0,0,1,-179.427,-24.0774)">
        <path d="M624.972,400.193C624.972,377.849 643.085,359.736 665.429,359.736C676.159,359.736 686.449,363.999 694.036,371.586C701.623,379.173 705.886,389.463 705.886,400.193C705.886,422.537 687.773,440.65 665.429,440.65C643.085,440.65 624.972,422.537 624.972,400.193Z" style="fill:rgb(207,226,243);"/>
    </g>
    <g transform="matrix(1,0,0,1,-179.427,-24.0774)">
        <path d="M624.972,400.193C624.972,377.849 643.085,359.736 665.429,359.736C676.159,359.736 686.449,363.999 694.036,371.586C701.623,379.173 705.886,389.463 705.886,400.193C705.886,422.537 687.773,440.65 665.429,440.65C643.085,440.65 624.972,422.537 624.972,400.193Z" style="fill:none;stroke:black;stroke-width:1px;"/>
    </g>
    <g transform="matrix(1,0,0,1,-179.427,-24.0774)">
        <path d="M669.632,405.535L669.632,407.113L660.804,407.113C660.793,406.717 660.856,406.337 660.991,405.972C661.22,405.368 661.58,404.774 662.069,404.191C662.569,403.608 663.288,402.936 664.226,402.175C665.674,400.988 666.653,400.045 667.163,399.347C667.674,398.649 667.929,397.993 667.929,397.379C667.929,396.722 667.694,396.175 667.226,395.738C666.767,395.29 666.163,395.066 665.413,395.066C664.621,395.066 663.986,395.306 663.507,395.785C663.038,396.254 662.804,396.905 662.804,397.738L661.116,397.566C661.231,396.306 661.663,395.347 662.413,394.691C663.174,394.035 664.184,393.707 665.444,393.707C666.726,393.707 667.741,394.061 668.491,394.769C669.241,395.478 669.616,396.358 669.616,397.41C669.616,397.941 669.507,398.467 669.288,398.988C669.069,399.509 668.705,400.056 668.194,400.629C667.694,401.191 666.851,401.972 665.663,402.972C664.684,403.795 664.054,404.358 663.773,404.66C663.491,404.951 663.262,405.243 663.085,405.535L669.632,405.535Z" style="fill-rule:nonzero;"/>
    </g>
    <g transform="matrix(1,0,0,1,-179.427,-24.0774)">
        <path d="M463.686,259.298L636.82,371.581" style="fill:none;"/>
    </g>
    <g transform="matrix(1,0,0,1,-179.427,-24.0774)">
        <path d="M463.686,259.298L631.786,368.316" style="fill:none;stroke:black;stroke-width:1px;"/>
    </g>
    <g transform="matrix(1,0,0,1,-179.427,-24.0774)">
        <path d="M630.887,369.702L635.593,370.785L632.684,366.93L630.887,369.702Z" style="stroke:black;stroke-width:1px;stroke-linejoin:miter;"/>
    </g>
    <g transform="matrix(1,0,0,1,-179.427,-24.0774)">
        <path d="M435.079,271.147L436.402,359.745" style="fill:none;"/>
    </g>
    <g transform="matrix(1,0,0,1,-179.427,-24.0774)">
        <path d="M435.079,271.147L436.312,353.746" style="fill:none;stroke:black;stroke-width:1px;"/>
    </g>
    <g transform="matrix(1,0,0,1,-179.427,-24.0774)">
        <path d="M434.66,353.771L436.38,358.284L437.964,353.721L434.66,353.771Z" style="stroke:black;stroke-width:1px;stroke-linejoin:miter;"/>
    </g>
    <g transform="matrix(1,0,0,1,-179.427,-24.0774)">
        <path d="M406.472,259.298L248.991,371.581" style="fill:none;"/>
    </g>
    <g transform="matrix(1,0,0,1,-179.427,-24.0774)">
        <path d="M406.472,259.298L253.877,368.098" style="fill:none;stroke:black;stroke-width:1px;"/>
    </g>
    <g transform="matrix(1,0,0,1,-179.427,-24.0774)">
        <path d="M252.918,366.753L250.182,370.732L254.836,369.443L252.918,366.753Z" style="stroke:black;stroke-width:1px;stroke-linejoin:miter;"/>
    </g>
    <g transform="matrix(1,0,0,1,-179.427,-24.0774)">
        <rect x="435.079" y="273.071" width="40.441" height="42.016" style="fill-opacity:0;"/>
    </g>
    <g transform="matrix(1,0,0,1,-179.427,-24.0774)">
        <path d="M451.626,296.444L453.235,296.663C453.058,297.767 452.605,298.637 451.876,299.272C451.157,299.897 450.266,300.21 449.204,300.21C447.881,300.21 446.818,299.777 446.016,298.913C445.214,298.048 444.813,296.809 444.813,295.194C444.813,294.142 444.985,293.225 445.329,292.444C445.672,291.663 446.199,291.079 446.907,290.694C447.615,290.298 448.386,290.1 449.219,290.1C450.271,290.1 451.131,290.366 451.797,290.897C452.464,291.428 452.891,292.184 453.079,293.163L451.485,293.397C451.329,292.751 451.058,292.267 450.672,291.944C450.287,291.611 449.824,291.444 449.282,291.444C448.459,291.444 447.787,291.741 447.266,292.335C446.745,292.928 446.485,293.866 446.485,295.147C446.485,296.449 446.735,297.397 447.235,297.991C447.735,298.574 448.386,298.866 449.188,298.866C449.834,298.866 450.37,298.668 450.797,298.272C451.235,297.876 451.511,297.267 451.626,296.444Z" style="fill-rule:nonzero;"/>
    </g>
    <g transform="matrix(1,0,0,1,-179.427,-24.0774)">
        <rect x="366.032" y="273.07" width="40.441" height="42.016" style="fill-opacity:0;"/>
    </g>
    <g transform="matrix(1,0,0,1,-179.427,-24.0774)">
        <path d="M377.766,299.99L376.25,299.99L376.25,286.63L377.891,286.63L377.891,291.396C378.589,290.531 379.474,290.099 380.547,290.099C381.141,290.099 381.703,290.219 382.235,290.458C382.766,290.698 383.203,291.036 383.547,291.474C383.891,291.901 384.156,292.422 384.344,293.036C384.542,293.651 384.641,294.307 384.641,295.005C384.641,296.661 384.229,297.943 383.406,298.849C382.594,299.755 381.61,300.208 380.453,300.208C379.318,300.208 378.422,299.729 377.766,298.771L377.766,299.99ZM377.75,295.083C377.75,296.24 377.912,297.078 378.235,297.599C378.745,298.443 379.443,298.865 380.328,298.865C381.047,298.865 381.667,298.552 382.188,297.927C382.709,297.302 382.969,296.375 382.969,295.146C382.969,293.885 382.719,292.953 382.219,292.349C381.719,291.745 381.11,291.443 380.391,291.443C379.683,291.443 379.063,291.755 378.531,292.38C378.011,293.005 377.75,293.906 377.75,295.083Z" style="fill-rule:nonzero;"/>
    </g>
    <g transform="matrix(1,0,0,1,-179.427,-24.0774)">
        <rect x="522.106" y="273.07" width="40.441" height="42.016" style="fill-opacity:0;"/>
    </g>
    <g transform="matrix(1,0,0,1,-179.427,-24.0774)">
        <path d="M538.606,299.99L538.606,298.771C538.002,299.729 537.101,300.208 535.903,300.208C535.132,300.208 534.424,299.995 533.778,299.568C533.132,299.141 532.632,298.547 532.278,297.786C531.924,297.026 531.747,296.151 531.747,295.161C531.747,294.193 531.908,293.318 532.231,292.536C532.554,291.745 533.033,291.141 533.669,290.724C534.315,290.307 535.039,290.099 535.841,290.099C536.424,290.099 536.94,290.224 537.388,290.474C537.846,290.714 538.216,291.031 538.497,291.427L538.497,286.63L540.138,286.63L540.138,299.99L538.606,299.99ZM533.434,295.161C533.434,296.401 533.695,297.328 534.216,297.943C534.737,298.557 535.351,298.865 536.059,298.865C536.778,298.865 537.388,298.573 537.888,297.99C538.388,297.396 538.638,296.5 538.638,295.302C538.638,293.979 538.382,293.01 537.872,292.396C537.362,291.771 536.731,291.458 535.981,291.458C535.263,291.458 534.658,291.755 534.169,292.349C533.679,292.943 533.434,293.88 533.434,295.161Z" style="fill-rule:nonzero;"/>
    </g>
    <g transform="matrix(1,0,0,1,-179.427,-24.0774)">
        <path d="M435.076,105.491L435.076,190.247" style="fill:none;"/>
    </g>
    <g transform="matrix(1,0,0,1,-179.427,-24.0774)">
        <path d="M435.076,105.491L435.076,184.247" style="fill:none;stroke:black;stroke-width:1px;stroke-dasharray:4,3;"/>
    </g>
    <g transform="matrix(1,0,0,1,-179.427,-24.0774)">
        <path d="M433.424,184.247L435.076,188.785L436.728,184.247L433.424,184.247Z" style="stroke:black;stroke-width:1px;stroke-linejoin:miter;"/>
    </g>
    <g transform="matrix(1,0,0,1,-179.427,-24.0774)">
        <path d="M394.619,65.034C394.619,42.691 412.733,24.577 435.076,24.577C445.806,24.577 456.096,28.84 463.683,36.427C471.27,44.014 475.533,54.304 475.533,65.034C475.533,87.378 457.42,105.491 435.076,105.491C412.733,105.491 394.619,87.378 394.619,65.034Z" style="fill:rgb(239,239,239);"/>
    </g>
    <g transform="matrix(1,0,0,1,-179.427,-24.0774)">
        <path d="M394.619,65.034C394.619,42.691 412.733,24.577 435.076,24.577C445.806,24.577 456.096,28.84 463.683,36.427C471.27,44.014 475.533,54.304 475.533,65.034C475.533,87.378 457.42,105.491 435.076,105.491C412.733,105.491 394.619,87.378 394.619,65.034Z" style="fill:none;stroke:black;stroke-width:1px;"/>
    </g>
    <g transform="matrix(1,0,0,1,-179.427,-24.0774)">
        <path d="M420.221,71.954L420.221,62.282L421.69,62.282L421.69,63.751C422.065,63.063 422.409,62.61 422.721,62.392C423.044,62.173 423.398,62.063 423.784,62.063C424.336,62.063 424.898,62.241 425.471,62.595L424.909,64.11C424.502,63.871 424.101,63.751 423.706,63.751C423.341,63.751 423.018,63.86 422.737,64.079C422.456,64.298 422.252,64.595 422.127,64.97C421.94,65.553 421.846,66.194 421.846,66.892L421.846,71.954L420.221,71.954ZM425.84,67.11C425.84,65.319 426.335,63.996 427.324,63.142C428.158,62.423 429.173,62.063 430.371,62.063C431.705,62.063 432.793,62.501 433.637,63.376C434.481,64.241 434.903,65.444 434.903,66.985C434.903,68.225 434.715,69.204 434.34,69.923C433.965,70.631 433.418,71.183 432.699,71.579C431.991,71.975 431.215,72.173 430.371,72.173C429.017,72.173 427.923,71.741 427.09,70.876C426.257,70.001 425.84,68.746 425.84,67.11ZM427.528,67.11C427.528,68.35 427.793,69.282 428.324,69.907C428.866,70.522 429.548,70.829 430.371,70.829C431.184,70.829 431.861,70.522 432.403,69.907C432.944,69.282 433.215,68.334 433.215,67.063C433.215,65.866 432.944,64.959 432.403,64.345C431.861,63.73 431.184,63.423 430.371,63.423C429.548,63.423 428.866,63.73 428.324,64.345C427.793,64.949 427.528,65.871 427.528,67.11ZM436.216,67.11C436.216,65.319 436.711,63.996 437.7,63.142C438.533,62.423 439.549,62.063 440.747,62.063C442.08,62.063 443.169,62.501 444.013,63.376C444.856,64.241 445.278,65.444 445.278,66.985C445.278,68.225 445.091,69.204 444.716,69.923C444.341,70.631 443.794,71.183 443.075,71.579C442.367,71.975 441.591,72.173 440.747,72.173C439.393,72.173 438.299,71.741 437.466,70.876C436.632,70.001 436.216,68.746 436.216,67.11ZM437.903,67.11C437.903,68.35 438.169,69.282 438.7,69.907C439.242,70.522 439.924,70.829 440.747,70.829C441.56,70.829 442.237,70.522 442.778,69.907C443.32,69.282 443.591,68.334 443.591,67.063C443.591,65.866 443.32,64.959 442.778,64.345C442.237,63.73 441.56,63.423 440.747,63.423C439.924,63.423 439.242,63.73 438.7,64.345C438.169,64.949 437.903,65.871 437.903,67.11ZM450.779,70.485L451.013,71.938C450.555,72.032 450.144,72.079 449.779,72.079C449.185,72.079 448.722,71.985 448.388,71.798C448.065,71.61 447.836,71.366 447.701,71.063C447.565,70.751 447.498,70.105 447.498,69.126L447.498,63.548L446.295,63.548L446.295,62.282L447.498,62.282L447.498,59.892L449.123,58.907L449.123,62.282L450.779,62.282L450.779,63.548L449.123,63.548L449.123,69.22C449.123,69.678 449.149,69.975 449.201,70.11C449.263,70.246 449.357,70.355 449.482,70.438C449.618,70.511 449.81,70.548 450.06,70.548C450.237,70.548 450.477,70.527 450.779,70.485Z" style="fill-rule:nonzero;"/>
    </g>
    <g transform="matrix(1,0,0,1,-179.427,-24.0774)">
        <path d="M624.972,65.035C624.972,42.692 643.085,24.579 665.429,24.579C676.159,24.579 686.449,28.841 694.036,36.428C701.623,44.015 705.886,54.306 705.886,65.035C705.886,87.379 687.773,105.492 665.429,105.492C643.085,105.492 624.972,87.379 624.972,65.035L624.972,65.035Z" style="fill:rgb(207,226,243);"/>
    </g>
    <g transform="matrix(1,0,0,1,-179.427,-24.0774)">
        <path d="M624.972,65.035C624.972,42.692 643.085,24.579 665.429,24.579C676.159,24.579 686.449,28.841 694.036,36.428C701.623,44.015 705.886,54.306 705.886,65.035C705.886,87.379 687.773,105.492 665.429,105.492C643.085,105.492 624.972,87.379 624.972,65.035L624.972,65.035Z" style="fill:none;stroke:black;stroke-width:1px;"/>
    </g>
    <g transform="matrix(1,0,0,1,-179.427,-24.0774)">
        <path d="M649.551,60.955L649.551,51.284L651.02,51.284L651.02,52.659C651.728,51.596 652.754,51.065 654.098,51.065C654.682,51.065 655.218,51.169 655.708,51.377C656.197,51.586 656.562,51.862 656.801,52.205C657.051,52.539 657.223,52.94 657.317,53.409C657.379,53.711 657.411,54.242 657.411,55.002L657.411,60.955L655.77,60.955L655.77,55.065C655.77,54.398 655.702,53.903 655.567,53.58C655.442,53.247 655.218,52.981 654.895,52.784C654.572,52.586 654.192,52.487 653.754,52.487C653.057,52.487 652.452,52.711 651.942,53.159C651.442,53.596 651.192,54.435 651.192,55.674L651.192,60.955L649.551,60.955ZM666.552,57.846L668.24,58.049C667.969,59.039 667.474,59.81 666.755,60.362C666.036,60.903 665.115,61.174 663.99,61.174C662.573,61.174 661.448,60.742 660.615,59.877C659.792,59.002 659.38,57.778 659.38,56.205C659.38,54.57 659.797,53.304 660.63,52.409C661.474,51.513 662.562,51.065 663.896,51.065C665.187,51.065 666.24,51.508 667.052,52.393C667.875,53.268 668.286,54.502 668.286,56.096L668.286,56.534L661.068,56.534C661.13,57.596 661.432,58.414 661.974,58.987C662.516,59.549 663.187,59.83 663.99,59.83C664.594,59.83 665.109,59.674 665.536,59.362C665.964,59.039 666.302,58.534 666.552,57.846ZM661.161,55.19L666.568,55.19C666.495,54.377 666.286,53.768 665.943,53.362C665.422,52.726 664.745,52.409 663.911,52.409C663.161,52.409 662.526,52.664 662.005,53.174C661.495,53.674 661.214,54.346 661.161,55.19ZM672.084,60.955L669.115,51.284L670.818,51.284L672.35,56.862L672.928,58.94C672.959,58.836 673.126,58.169 673.428,56.94L674.975,51.284L676.662,51.284L678.1,56.893L678.584,58.737L679.146,56.877L680.803,51.284L682.396,51.284L679.365,60.955L677.662,60.955L676.131,55.159L675.756,53.518L673.803,60.955L672.084,60.955Z" style="fill-rule:nonzero;"/>
    </g>
    <g transform="matrix(1,0,0,1,-179.427,-24.0774)">
        <path d="M650.574,82.955L650.574,73.284L652.043,73.284L652.043,74.752C652.418,74.065 652.762,73.612 653.074,73.393C653.397,73.174 653.751,73.065 654.137,73.065C654.689,73.065 655.251,73.242 655.824,73.596L655.262,75.112C654.855,74.872 654.454,74.752 654.059,74.752C653.694,74.752 653.371,74.862 653.09,75.08C652.809,75.299 652.605,75.596 652.48,75.971C652.293,76.554 652.199,77.195 652.199,77.893L652.199,82.955L650.574,82.955ZM656.193,78.112C656.193,76.32 656.688,74.997 657.677,74.143C658.511,73.424 659.526,73.065 660.724,73.065C662.058,73.065 663.146,73.502 663.99,74.377C664.834,75.242 665.256,76.445 665.256,77.987C665.256,79.226 665.068,80.205 664.693,80.924C664.318,81.633 663.771,82.185 663.052,82.58C662.344,82.976 661.568,83.174 660.724,83.174C659.37,83.174 658.276,82.742 657.443,81.877C656.61,81.002 656.193,79.747 656.193,78.112ZM657.881,78.112C657.881,79.351 658.146,80.284 658.677,80.909C659.219,81.523 659.901,81.83 660.724,81.83C661.537,81.83 662.214,81.523 662.756,80.909C663.297,80.284 663.568,79.336 663.568,78.065C663.568,76.867 663.297,75.961 662.756,75.346C662.214,74.731 661.537,74.424 660.724,74.424C659.901,74.424 659.219,74.731 658.677,75.346C658.146,75.95 657.881,76.872 657.881,78.112ZM666.569,78.112C666.569,76.32 667.064,74.997 668.053,74.143C668.887,73.424 669.902,73.065 671.1,73.065C672.433,73.065 673.522,73.502 674.366,74.377C675.209,75.242 675.631,76.445 675.631,77.987C675.631,79.226 675.444,80.205 675.069,80.924C674.694,81.633 674.147,82.185 673.428,82.58C672.72,82.976 671.944,83.174 671.1,83.174C669.746,83.174 668.652,82.742 667.819,81.877C666.986,81.002 666.569,79.747 666.569,78.112ZM668.256,78.112C668.256,79.351 668.522,80.284 669.053,80.909C669.595,81.523 670.277,81.83 671.1,81.83C671.913,81.83 672.59,81.523 673.131,80.909C673.673,80.284 673.944,79.336 673.944,78.065C673.944,76.867 673.673,75.961 673.131,75.346C672.59,74.731 671.913,74.424 671.1,74.424C670.277,74.424 669.595,74.731 669.053,75.346C668.522,75.95 668.256,76.872 668.256,78.112ZM681.132,81.487L681.366,82.94C680.908,83.034 680.497,83.08 680.132,83.08C679.538,83.08 679.075,82.987 678.741,82.799C678.418,82.612 678.189,82.367 678.054,82.065C677.918,81.752 677.851,81.106 677.851,80.127L677.851,74.549L676.648,74.549L676.648,73.284L677.851,73.284L677.851,70.893L679.476,69.909L679.476,73.284L681.132,73.284L681.132,74.549L679.476,74.549L679.476,80.221C679.476,80.679 679.502,80.976 679.554,81.112C679.616,81.247 679.71,81.356 679.835,81.44C679.971,81.513 680.163,81.549 680.413,81.549C680.59,81.549 680.83,81.528 681.132,81.487Z" style="fill-rule:nonzero;"/>
    </g>
    <g transform="matrix(1,0,0,1,-179.427,-24.0774)">
        <rect x="562.551" y="127.818" width="40.441" height="42.016" style="fill-opacity:0;"/>
    </g>
    <g transform="matrix(1,0,0,1,-179.427,-24.0774)">
        <path d="M579.098,153.55C578.484,154.06 577.895,154.425 577.332,154.644C576.78,154.852 576.181,154.956 575.536,154.956C574.473,154.956 573.655,154.696 573.082,154.175C572.51,153.654 572.223,152.993 572.223,152.191C572.223,151.712 572.332,151.279 572.551,150.894C572.77,150.498 573.051,150.185 573.395,149.956C573.749,149.717 574.145,149.534 574.582,149.409C574.895,149.326 575.379,149.243 576.036,149.159C577.359,149.003 578.332,148.816 578.957,148.597C578.968,148.368 578.973,148.227 578.973,148.175C578.973,147.508 578.817,147.034 578.504,146.753C578.088,146.389 577.463,146.206 576.629,146.206C575.859,146.206 575.291,146.342 574.926,146.613C574.562,146.883 574.291,147.357 574.114,148.034L572.504,147.816C572.65,147.139 572.89,146.592 573.223,146.175C573.556,145.748 574.041,145.42 574.676,145.191C575.312,144.962 576.041,144.847 576.864,144.847C577.697,144.847 578.369,144.946 578.879,145.144C579.4,145.331 579.78,145.576 580.02,145.878C580.27,146.17 580.442,146.54 580.536,146.988C580.588,147.269 580.614,147.774 580.614,148.503L580.614,150.691C580.614,152.212 580.65,153.175 580.723,153.581C580.796,153.977 580.931,154.363 581.129,154.738L579.426,154.738C579.249,154.394 579.14,153.998 579.098,153.55ZM578.957,149.878C578.364,150.128 577.473,150.337 576.286,150.503C575.609,150.597 575.129,150.706 574.848,150.831C574.567,150.956 574.348,151.133 574.192,151.363C574.046,151.592 573.973,151.852 573.973,152.144C573.973,152.581 574.14,152.946 574.473,153.238C574.806,153.529 575.291,153.675 575.926,153.675C576.551,153.675 577.109,153.54 577.598,153.269C578.098,152.988 578.463,152.607 578.692,152.128C578.869,151.753 578.957,151.206 578.957,150.488L578.957,149.878Z" style="fill-rule:nonzero;"/>
    </g>
    <g transform="matrix(1,0,0,1,-179.427,-24.0774)">
        <path d="M636.822,93.643L463.688,202.084" style="fill:none;"/>
    </g>
    <g transform="matrix(1,0,0,1,-179.427,-24.0774)">
        <path d="M636.822,93.643L468.773,198.899" style="fill:none;stroke:black;stroke-width:1px;"/>
    </g>
    <g transform="matrix(1,0,0,1,-179.427,-24.0774)">
        <path d="M467.896,197.499L464.927,201.308L469.65,200.299L467.896,197.499Z" style="stroke:black;stroke-width:1px;stroke-linejoin:miter;"/>
    </g>
    <g transform="matrix(1,0,0,1,-179.427,-24.0774)">
        <path d="M624.972,230.692C624.972,208.348 643.085,190.235 665.429,190.235C676.159,190.235 686.449,194.497 694.036,202.084C701.623,209.671 705.886,219.962 705.886,230.692C705.886,253.035 687.773,271.148 665.429,271.148C643.085,271.148 624.972,253.035 624.972,230.692L624.972,230.692Z" style="fill:rgb(207,226,243);"/>
    </g>
    <g transform="matrix(1,0,0,1,-179.427,-24.0774)">
        <path d="M624.972,230.692C624.972,208.348 643.085,190.235 665.429,190.235C676.159,190.235 686.449,194.497 694.036,202.084C701.623,209.671 705.886,219.962 705.886,230.692C705.886,253.035 687.773,271.148 665.429,271.148C643.085,271.148 624.972,253.035 624.972,230.692L624.972,230.692Z" style="fill:none;stroke:black;stroke-width:1px;"/>
    </g>
    <g transform="matrix(1,0,0,1,-179.427,-24.0774)">
        <path d="M661.023,234.08L662.663,233.862C662.851,234.799 663.168,235.471 663.616,235.877C664.075,236.283 664.627,236.487 665.273,236.487C666.043,236.487 666.694,236.221 667.226,235.69C667.757,235.158 668.023,234.497 668.023,233.705C668.023,232.955 667.778,232.336 667.288,231.846C666.799,231.356 666.174,231.112 665.413,231.112C665.101,231.112 664.715,231.169 664.257,231.283L664.444,229.846C664.549,229.856 664.637,229.862 664.71,229.862C665.408,229.862 666.033,229.679 666.585,229.315C667.148,228.95 667.429,228.393 667.429,227.643C667.429,227.039 667.226,226.539 666.819,226.143C666.413,225.747 665.887,225.549 665.241,225.549C664.606,225.549 664.075,225.752 663.648,226.158C663.22,226.554 662.95,227.153 662.835,227.955L661.194,227.658C661.392,226.565 661.845,225.716 662.554,225.112C663.262,224.507 664.148,224.205 665.21,224.205C665.939,224.205 666.606,224.362 667.21,224.674C667.825,224.987 668.293,225.414 668.616,225.955C668.95,226.497 669.116,227.07 669.116,227.674C669.116,228.247 668.96,228.773 668.648,229.252C668.335,229.721 667.877,230.096 667.273,230.377C668.064,230.565 668.679,230.945 669.116,231.518C669.554,232.091 669.773,232.81 669.773,233.674C669.773,234.83 669.345,235.815 668.491,236.627C667.648,237.44 666.575,237.846 665.273,237.846C664.095,237.846 663.121,237.497 662.351,236.799C661.58,236.101 661.137,235.195 661.023,234.08Z" style="fill-rule:nonzero;"/>
    </g>
    <g transform="matrix(1,0,0,1,-179.427,-24.0774)">
        <path d="M665.429,105.492L665.429,190.248" style="fill:none;"/>
    </g>
    <g transform="matrix(1,0,0,1,-179.427,-24.0774)">
        <path d="M665.429,105.492L665.429,184.248" style="fill:none;stroke:black;stroke-width:1px;"/>
    </g>
    <g transform="matrix(1,0,0,1,-179.427,-24.0774)">
        <path d="M663.777,184.248L665.429,188.786L667.081,184.248L663.777,184.248Z" style="stroke:black;stroke-width:1px;stroke-linejoin:miter;"/>
    </g>
    <g transform="matrix(1,0,0,1,-179.427,-24.0774)">
        <rect x="665.432" y="126.854" width="40.441" height="42.016" style="fill-opacity:0;"/>
    </g>
    <g transform="matrix(1,0,0,1,-179.427,-24.0774)">
        <path d="M677.166,153.774L675.651,153.774L675.651,140.415L677.291,140.415L677.291,145.181C677.989,144.316 678.874,143.884 679.947,143.884C680.541,143.884 681.104,144.003 681.635,144.243C682.166,144.483 682.604,144.821 682.947,145.259C683.291,145.686 683.557,146.207 683.744,146.821C683.942,147.436 684.041,148.092 684.041,148.79C684.041,150.446 683.63,151.727 682.807,152.634C681.994,153.54 681.01,153.993 679.854,153.993C678.718,153.993 677.822,153.514 677.166,152.556L677.166,153.774ZM677.151,148.868C677.151,150.024 677.312,150.863 677.635,151.384C678.145,152.227 678.843,152.649 679.729,152.649C680.447,152.649 681.067,152.337 681.588,151.712C682.109,151.087 682.369,150.16 682.369,148.931C682.369,147.67 682.119,146.738 681.619,146.134C681.119,145.53 680.51,145.227 679.791,145.227C679.083,145.227 678.463,145.54 677.932,146.165C677.411,146.79 677.151,147.691 677.151,148.868Z" style="fill-rule:nonzero;"/>
    </g>
</svg>
