<?xml version="1.0" encoding="UTF-8" standalone="no"?>
<!DOCTYPE svg PUBLIC "-//W3C//DTD SVG 1.1//EN" "http://www.w3.org/Graphics/SVG/1.1/DTD/svg11.dtd">
<svg width="100%" height="100%" viewBox="0 0 244 418" version="1.1" xmlns="http://www.w3.org/2000/svg" xmlns:xlink="http://www.w3.org/1999/xlink" xml:space="preserve" xmlns:serif="http://www.serif.com/" style="fill-rule:evenodd;clip-rule:evenodd;stroke-linejoin:round;stroke-miterlimit:10;">
    <g transform="matrix(1,0,0,1,-340.55,-24.08)">
        <path d="M421.963,65.037C421.963,42.693 440.076,24.58 462.42,24.58C473.15,24.58 483.44,28.842 491.027,36.43C498.614,44.017 502.877,54.307 502.877,65.037C502.877,87.38 484.764,105.493 462.42,105.493C440.076,105.493 421.963,87.38 421.963,65.037Z" style="fill:rgb(207,226,243);"/>
    </g>
    <g transform="matrix(1,0,0,1,-340.55,-24.08)">
        <path d="M421.963,65.037C421.963,42.693 440.076,24.58 462.42,24.58C473.15,24.58 483.44,28.842 491.027,36.43C498.614,44.017 502.877,54.307 502.877,65.037C502.877,87.38 484.764,105.493 462.42,105.493C440.076,105.493 421.963,87.38 421.963,65.037Z" style="fill:none;stroke:black;stroke-width:1px;"/>
    </g>
    <g transform="matrix(1,0,0,1,-340.55,-24.08)">
        <path d="M447.565,71.957L447.565,62.285L449.034,62.285L449.034,63.754C449.409,63.066 449.753,62.613 450.065,62.394C450.388,62.175 450.742,62.066 451.128,62.066C451.68,62.066 452.242,62.243 452.815,62.597L452.253,64.113C451.846,63.873 451.445,63.754 451.049,63.754C450.685,63.754 450.362,63.863 450.081,64.082C449.799,64.3 449.596,64.597 449.471,64.972C449.284,65.556 449.19,66.196 449.19,66.894L449.19,71.957L447.565,71.957ZM453.184,67.113C453.184,65.321 453.679,63.998 454.668,63.144C455.502,62.425 456.517,62.066 457.715,62.066C459.049,62.066 460.137,62.504 460.981,63.379C461.825,64.243 462.246,65.446 462.246,66.988C462.246,68.228 462.059,69.207 461.684,69.925C461.309,70.634 460.762,71.186 460.043,71.582C459.335,71.978 458.559,72.175 457.715,72.175C456.361,72.175 455.267,71.743 454.434,70.879C453.601,70.004 453.184,68.748 453.184,67.113ZM454.871,67.113C454.871,68.353 455.137,69.285 455.668,69.91C456.21,70.524 456.892,70.832 457.715,70.832C458.528,70.832 459.205,70.524 459.746,69.91C460.288,69.285 460.559,68.337 460.559,67.066C460.559,65.868 460.288,64.962 459.746,64.347C459.205,63.733 458.528,63.425 457.715,63.425C456.892,63.425 456.21,63.733 455.668,64.347C455.137,64.952 454.871,65.873 454.871,67.113ZM463.56,67.113C463.56,65.321 464.054,63.998 465.044,63.144C465.877,62.425 466.893,62.066 468.091,62.066C469.424,62.066 470.513,62.504 471.357,63.379C472.2,64.243 472.622,65.446 472.622,66.988C472.622,68.228 472.435,69.207 472.06,69.925C471.685,70.634 471.138,71.186 470.419,71.582C469.711,71.978 468.935,72.175 468.091,72.175C466.737,72.175 465.643,71.743 464.81,70.879C463.976,70.004 463.56,68.748 463.56,67.113ZM465.247,67.113C465.247,68.353 465.513,69.285 466.044,69.91C466.586,70.524 467.268,70.832 468.091,70.832C468.903,70.832 469.58,70.524 470.122,69.91C470.664,69.285 470.935,68.337 470.935,67.066C470.935,65.868 470.664,64.962 470.122,64.347C469.58,63.733 468.903,63.425 468.091,63.425C467.268,63.425 466.586,63.733 466.044,64.347C465.513,64.952 465.247,65.873 465.247,67.113ZM478.123,70.488L478.357,71.941C477.899,72.035 477.487,72.082 477.123,72.082C476.529,72.082 476.066,71.988 475.732,71.8C475.409,71.613 475.18,71.368 475.045,71.066C474.909,70.754 474.842,70.108 474.842,69.129L474.842,63.55L473.638,63.55L473.638,62.285L474.842,62.285L474.842,59.894L476.467,58.91L476.467,62.285L478.123,62.285L478.123,63.55L476.467,63.55L476.467,69.222C476.467,69.681 476.493,69.978 476.545,70.113C476.607,70.248 476.701,70.358 476.826,70.441C476.961,70.514 477.154,70.55 477.404,70.55C477.581,70.55 477.821,70.53 478.123,70.488Z" style="fill-rule:nonzero;"/>
    </g>
    <g transform="matrix(1,0,0,1,-340.55,-24.08)">
        <path d="M421.963,232.614C421.963,210.271 440.076,192.157 462.42,192.157C473.15,192.157 483.44,196.42 491.027,204.007C498.614,211.594 502.877,221.884 502.877,232.614C502.877,254.958 484.764,273.071 462.42,273.071C440.076,273.071 421.963,254.958 421.963,232.614Z" style="fill:rgb(207,226,243);"/>
    </g>
    <g transform="matrix(1,0,0,1,-340.55,-24.08)">
        <path d="M421.963,232.614C421.963,210.271 440.076,192.157 462.42,192.157C473.15,192.157 483.44,196.42 491.027,204.007C498.614,211.594 502.877,221.884 502.877,232.614C502.877,254.958 484.764,273.071 462.42,273.071C440.076,273.071 421.963,254.958 421.963,232.614Z" style="fill:none;stroke:black;stroke-width:1px;"/>
    </g>
    <g transform="matrix(1,0,0,1,-340.55,-24.08)">
        <path d="M341.05,400.194C341.05,377.851 359.163,359.738 381.507,359.738C392.236,359.738 402.527,364 410.114,371.587C417.701,379.174 421.963,389.464 421.963,400.194C421.963,422.538 403.85,440.651 381.507,440.651C359.163,440.651 341.05,422.538 341.05,400.194Z" style="fill:rgb(207,226,243);"/>
    </g>
    <g transform="matrix(1,0,0,1,-340.55,-24.08)">
        <path d="M341.05,400.194C341.05,377.851 359.163,359.738 381.507,359.738C392.236,359.738 402.527,364 410.114,371.587C417.701,379.174 421.963,389.464 421.963,400.194C421.963,422.538 403.85,440.651 381.507,440.651C359.163,440.651 341.05,422.538 341.05,400.194Z" style="fill:none;stroke:black;stroke-width:1px;"/>
    </g>
    <g transform="matrix(1,0,0,1,-340.55,-24.08)">
        <path d="M383.272,407.114L381.631,407.114L381.631,396.661C381.235,397.036 380.715,397.416 380.069,397.802C379.433,398.177 378.86,398.458 378.35,398.645L378.35,397.052C379.267,396.625 380.069,396.104 380.756,395.489C381.444,394.875 381.928,394.281 382.209,393.708L383.272,393.708L383.272,407.114Z" style="fill-rule:nonzero;"/>
    </g>
    <g transform="matrix(1,0,0,1,-340.55,-24.08)">
        <path d="M502.877,400.192C502.877,377.848 520.99,359.735 543.333,359.735C554.063,359.735 564.353,363.997 571.941,371.584C579.528,379.172 583.79,389.462 583.79,400.192C583.79,422.535 565.677,440.648 543.333,440.648C520.99,440.648 502.877,422.535 502.877,400.192Z" style="fill:rgb(207,226,243);"/>
    </g>
    <g transform="matrix(1,0,0,1,-340.55,-24.08)">
        <path d="M502.877,400.192C502.877,377.848 520.99,359.735 543.333,359.735C554.063,359.735 564.353,363.997 571.941,371.584C579.528,379.172 583.79,389.462 583.79,400.192C583.79,422.535 565.677,440.648 543.333,440.648C520.99,440.648 502.877,422.535 502.877,400.192Z" style="fill:none;stroke:black;stroke-width:1px;"/>
    </g>
    <g transform="matrix(1,0,0,1,-340.55,-24.08)">
        <path d="M535.331,407.112L531.643,397.44L533.378,397.44L535.456,403.237C535.675,403.862 535.883,404.507 536.081,405.174C536.216,404.664 536.419,404.054 536.69,403.346L538.831,397.44L540.518,397.44L536.862,407.112L535.331,407.112ZM548.284,405.924C547.669,406.435 547.081,406.799 546.518,407.018C545.966,407.226 545.367,407.33 544.722,407.33C543.659,407.33 542.841,407.07 542.268,406.549C541.695,406.028 541.409,405.367 541.409,404.565C541.409,404.086 541.518,403.653 541.737,403.268C541.956,402.872 542.237,402.56 542.581,402.33C542.935,402.091 543.331,401.908 543.768,401.783C544.081,401.7 544.565,401.617 545.222,401.533C546.544,401.377 547.518,401.19 548.143,400.971C548.154,400.742 548.159,400.601 548.159,400.549C548.159,399.882 548.003,399.408 547.69,399.127C547.274,398.763 546.649,398.58 545.815,398.58C545.044,398.58 544.477,398.716 544.112,398.987C543.748,399.257 543.477,399.731 543.3,400.408L541.69,400.19C541.836,399.513 542.076,398.966 542.409,398.549C542.742,398.122 543.227,397.794 543.862,397.565C544.498,397.336 545.227,397.221 546.05,397.221C546.883,397.221 547.555,397.32 548.065,397.518C548.586,397.705 548.966,397.95 549.206,398.252C549.456,398.544 549.628,398.914 549.722,399.362C549.774,399.643 549.8,400.148 549.8,400.877L549.8,403.065C549.8,404.586 549.836,405.549 549.909,405.955C549.982,406.351 550.117,406.737 550.315,407.112L548.612,407.112C548.435,406.768 548.326,406.372 548.284,405.924ZM548.143,402.252C547.55,402.502 546.659,402.711 545.472,402.877C544.794,402.971 544.315,403.08 544.034,403.205C543.753,403.33 543.534,403.507 543.378,403.737C543.232,403.966 543.159,404.226 543.159,404.518C543.159,404.955 543.326,405.32 543.659,405.612C543.992,405.903 544.477,406.049 545.112,406.049C545.737,406.049 546.294,405.914 546.784,405.643C547.284,405.362 547.649,404.981 547.878,404.502C548.055,404.127 548.143,403.58 548.143,402.862L548.143,402.252ZM552.3,407.112L552.3,393.752L553.941,393.752L553.941,407.112L552.3,407.112Z" style="fill-rule:nonzero;"/>
    </g>
    <g transform="matrix(1,0,0,1,-340.55,-24.08)">
        <path d="M462.42,105.493L462.42,192.171" style="fill:none;"/>
    </g>
    <g transform="matrix(1,0,0,1,-340.55,-24.08)">
        <path d="M462.42,105.493L462.42,186.171" style="fill:none;stroke:black;stroke-width:1px;"/>
    </g>
    <g transform="matrix(1,0,0,1,-340.55,-24.08)">
        <path d="M460.768,186.171L462.42,190.709L464.072,186.171L460.768,186.171Z" style="stroke:black;stroke-width:1px;stroke-linejoin:miter;"/>
    </g>
    <g transform="matrix(1,0,0,1,-340.55,-24.08)">
        <path d="M433.813,261.221L381.498,359.741" style="fill:none;"/>
    </g>
    <g transform="matrix(1,0,0,1,-340.55,-24.08)">
        <path d="M433.813,261.221L384.312,354.442" style="fill:none;stroke:black;stroke-width:1px;"/>
    </g>
    <g transform="matrix(1,0,0,1,-340.55,-24.08)">
        <path d="M382.853,353.667L382.183,358.45L385.771,355.216L382.853,353.667Z" style="stroke:black;stroke-width:1px;stroke-linejoin:miter;"/>
    </g>
    <g transform="matrix(1,0,0,1,-340.55,-24.08)">
        <path d="M491.027,261.221L543.342,359.741" style="fill:none;"/>
    </g>
    <g transform="matrix(1,0,0,1,-340.55,-24.08)">
        <path d="M491.027,261.221L540.528,354.442" style="fill:none;stroke:black;stroke-width:1px;"/>
    </g>
    <g transform="matrix(1,0,0,1,-340.55,-24.08)">
        <path d="M539.069,355.217L542.656,358.45L541.987,353.667L539.069,355.217Z" style="stroke:black;stroke-width:1px;stroke-linejoin:miter;"/>
    </g>
    <g transform="matrix(1,0,0,1,-340.55,-24.08)">
        <rect x="462.42" y="127.818" width="40.441" height="42.016" style="fill-opacity:0;"/>
    </g>
    <g transform="matrix(1,0,0,1,-340.55,-24.08)">
        <path d="M478.967,153.55C478.352,154.06 477.764,154.425 477.201,154.644C476.649,154.852 476.05,154.956 475.404,154.956C474.342,154.956 473.524,154.696 472.951,154.175C472.378,153.654 472.092,152.993 472.092,152.191C472.092,151.712 472.201,151.279 472.42,150.894C472.639,150.498 472.92,150.185 473.264,149.956C473.618,149.717 474.014,149.534 474.451,149.409C474.764,149.326 475.248,149.243 475.904,149.159C477.227,149.003 478.201,148.816 478.826,148.597C478.837,148.368 478.842,148.227 478.842,148.175C478.842,147.508 478.686,147.034 478.373,146.753C477.956,146.389 477.331,146.206 476.498,146.206C475.727,146.206 475.16,146.342 474.795,146.613C474.43,146.883 474.16,147.357 473.982,148.034L472.373,147.816C472.519,147.139 472.758,146.592 473.092,146.175C473.425,145.748 473.91,145.42 474.545,145.191C475.18,144.962 475.91,144.847 476.732,144.847C477.566,144.847 478.238,144.946 478.748,145.144C479.269,145.331 479.649,145.576 479.889,145.878C480.139,146.17 480.311,146.54 480.404,146.988C480.456,147.269 480.482,147.774 480.482,148.503L480.482,150.691C480.482,152.212 480.519,153.175 480.592,153.581C480.665,153.977 480.8,154.363 480.998,154.738L479.295,154.738C479.118,154.394 479.008,153.998 478.967,153.55ZM478.826,149.878C478.232,150.128 477.342,150.337 476.154,150.503C475.477,150.597 474.998,150.706 474.717,150.831C474.436,150.956 474.217,151.133 474.061,151.363C473.915,151.592 473.842,151.852 473.842,152.144C473.842,152.581 474.008,152.946 474.342,153.238C474.675,153.529 475.16,153.675 475.795,153.675C476.42,153.675 476.977,153.54 477.467,153.269C477.967,152.988 478.331,152.607 478.561,152.128C478.738,151.753 478.826,151.206 478.826,150.488L478.826,149.878Z" style="fill-rule:nonzero;"/>
    </g>
    <g transform="matrix(1,0,0,1,-340.55,-24.08)">
        <rect x="406.598" y="295.395" width="40.441" height="42.016" style="fill-opacity:0;"/>
    </g>
    <g transform="matrix(1,0,0,1,-340.55,-24.08)">
        <path d="M418.333,322.315L416.817,322.315L416.817,308.956L418.458,308.956L418.458,313.721C419.156,312.857 420.041,312.424 421.114,312.424C421.708,312.424 422.27,312.544 422.802,312.784C423.333,313.023 423.77,313.362 424.114,313.799C424.458,314.226 424.723,314.747 424.911,315.362C425.109,315.976 425.208,316.633 425.208,317.331C425.208,318.987 424.796,320.268 423.973,321.174C423.161,322.081 422.177,322.534 421.02,322.534C419.885,322.534 418.989,322.055 418.333,321.096L418.333,322.315ZM418.317,317.409C418.317,318.565 418.479,319.404 418.802,319.924C419.312,320.768 420.01,321.19 420.895,321.19C421.614,321.19 422.234,320.878 422.755,320.253C423.276,319.628 423.536,318.7 423.536,317.471C423.536,316.211 423.286,315.279 422.786,314.674C422.286,314.07 421.677,313.768 420.958,313.768C420.249,313.768 419.63,314.081 419.098,314.706C418.578,315.331 418.317,316.232 418.317,317.409Z" style="fill-rule:nonzero;"/>
    </g>
    <g transform="matrix(1,0,0,1,-340.55,-24.08)">
        <rect x="523.113" y="295.394" width="40.441" height="42.016" style="fill-opacity:0;"/>
    </g>
    <g transform="matrix(1,0,0,1,-340.55,-24.08)">
        <path d="M539.66,318.767L541.269,318.986C541.092,320.09 540.639,320.96 539.91,321.595C539.191,322.22 538.3,322.532 537.238,322.532C535.915,322.532 534.852,322.1 534.05,321.236C533.248,320.371 532.847,319.131 532.847,317.517C532.847,316.465 533.019,315.548 533.363,314.767C533.707,313.986 534.233,313.402 534.941,313.017C535.649,312.621 536.42,312.423 537.253,312.423C538.306,312.423 539.165,312.689 539.832,313.22C540.498,313.751 540.925,314.506 541.113,315.486L539.519,315.72C539.363,315.074 539.092,314.59 538.707,314.267C538.321,313.933 537.858,313.767 537.316,313.767C536.493,313.767 535.821,314.064 535.3,314.657C534.779,315.251 534.519,316.189 534.519,317.47C534.519,318.772 534.769,319.72 535.269,320.314C535.769,320.897 536.42,321.189 537.222,321.189C537.868,321.189 538.404,320.991 538.832,320.595C539.269,320.199 539.545,319.59 539.66,318.767Z" style="fill-rule:nonzero;"/>
    </g>
</svg>
