<?xml version="1.0" encoding="UTF-8" standalone="no"?>
<!DOCTYPE svg PUBLIC "-//W3C//DTD SVG 1.1//EN" "http://www.w3.org/Graphics/SVG/1.1/DTD/svg11.dtd">
<svg width="100%" height="100%" viewBox="0 0 313 418" version="1.1" xmlns="http://www.w3.org/2000/svg" xmlns:xlink="http://www.w3.org/1999/xlink" xml:space="preserve" xmlns:serif="http://www.serif.com/" style="fill-rule:evenodd;clip-rule:evenodd;stroke-linejoin:round;stroke-miterlimit:10;">
    <g transform="matrix(1,0,0,1,-394.122,-24.0761)">
        <path d="M395.953,400.192C395.953,377.848 414.066,359.735 436.409,359.735C447.139,359.735 457.43,363.997 465.017,371.584C472.604,379.172 476.866,389.462 476.866,400.192C476.866,422.535 458.753,440.648 436.409,440.648C414.066,440.648 395.953,422.535 395.953,400.192L395.953,400.192Z" style="fill:rgb(207,226,243);"/>
    </g>
    <g transform="matrix(1,0,0,1,-394.122,-24.0761)">
        <path d="M395.953,400.192C395.953,377.848 414.066,359.735 436.409,359.735C447.139,359.735 457.43,363.997 465.017,371.584C472.604,379.172 476.866,389.462 476.866,400.192C476.866,422.535 458.753,440.648 436.409,440.648C414.066,440.648 395.953,422.535 395.953,400.192L395.953,400.192Z" style="fill:none;stroke:black;stroke-width:1px;"/>
    </g>
    <g transform="matrix(1,0,0,1,-394.122,-24.0761)">
        <path d="M428.407,407.112L424.719,397.44L426.454,397.44L428.532,403.237C428.751,403.862 428.959,404.507 429.157,405.174C429.292,404.664 429.496,404.054 429.766,403.346L431.907,397.44L433.594,397.44L429.938,407.112L428.407,407.112ZM441.36,405.924C440.746,406.435 440.157,406.799 439.594,407.018C439.042,407.226 438.443,407.33 437.798,407.33C436.735,407.33 435.917,407.07 435.344,406.549C434.772,406.028 434.485,405.367 434.485,404.565C434.485,404.086 434.594,403.653 434.813,403.268C435.032,402.872 435.313,402.56 435.657,402.33C436.011,402.091 436.407,401.908 436.844,401.783C437.157,401.7 437.641,401.617 438.298,401.533C439.621,401.377 440.594,401.19 441.219,400.971C441.23,400.742 441.235,400.601 441.235,400.549C441.235,399.882 441.079,399.408 440.766,399.127C440.35,398.763 439.725,398.58 438.891,398.58C438.121,398.58 437.553,398.716 437.188,398.987C436.824,399.257 436.553,399.731 436.376,400.408L434.766,400.19C434.912,399.513 435.152,398.966 435.485,398.549C435.818,398.122 436.303,397.794 436.938,397.565C437.574,397.336 438.303,397.221 439.126,397.221C439.959,397.221 440.631,397.32 441.141,397.518C441.662,397.705 442.042,397.95 442.282,398.252C442.532,398.544 442.704,398.914 442.798,399.362C442.85,399.643 442.876,400.148 442.876,400.877L442.876,403.065C442.876,404.586 442.912,405.549 442.985,405.955C443.058,406.351 443.193,406.737 443.391,407.112L441.688,407.112C441.511,406.768 441.402,406.372 441.36,405.924ZM441.219,402.252C440.626,402.502 439.735,402.711 438.548,402.877C437.871,402.971 437.391,403.08 437.11,403.205C436.829,403.33 436.61,403.507 436.454,403.737C436.308,403.966 436.235,404.226 436.235,404.518C436.235,404.955 436.402,405.32 436.735,405.612C437.068,405.903 437.553,406.049 438.188,406.049C438.813,406.049 439.371,405.914 439.86,405.643C440.36,405.362 440.725,404.981 440.954,404.502C441.131,404.127 441.219,403.58 441.219,402.862L441.219,402.252ZM445.376,407.112L445.376,393.752L447.017,393.752L447.017,407.112L445.376,407.112Z" style="fill-rule:nonzero;"/>
    </g>
    <g transform="matrix(1,0,0,1,-394.122,-24.0761)">
        <path d="M394.622,230.69C394.622,208.347 412.735,190.234 435.079,190.234C445.809,190.234 456.099,194.496 463.686,202.083C471.273,209.67 475.535,219.961 475.535,230.69C475.535,253.034 457.422,271.147 435.079,271.147C412.735,271.147 394.622,253.034 394.622,230.69L394.622,230.69Z" style="fill:rgb(207,226,243);"/>
    </g>
    <g transform="matrix(1,0,0,1,-394.122,-24.0761)">
        <path d="M394.622,230.69C394.622,208.347 412.735,190.234 435.079,190.234C445.809,190.234 456.099,194.496 463.686,202.083C471.273,209.67 475.535,219.961 475.535,230.69C475.535,253.034 457.422,271.147 435.079,271.147C412.735,271.147 394.622,253.034 394.622,230.69L394.622,230.69Z" style="fill:none;stroke:black;stroke-width:1px;"/>
    </g>
    <g transform="matrix(1,0,0,1,-394.122,-24.0761)">
        <path d="M427.586,236.423C426.971,236.933 426.383,237.298 425.82,237.517C425.268,237.725 424.669,237.829 424.023,237.829C422.961,237.829 422.143,237.569 421.57,237.048C420.997,236.527 420.711,235.865 420.711,235.063C420.711,234.584 420.82,234.152 421.039,233.767C421.258,233.371 421.539,233.058 421.883,232.829C422.237,232.589 422.633,232.407 423.07,232.282C423.383,232.199 423.867,232.115 424.523,232.032C425.846,231.876 426.82,231.688 427.445,231.47C427.456,231.24 427.461,231.1 427.461,231.048C427.461,230.381 427.305,229.907 426.992,229.626C426.575,229.261 425.95,229.079 425.117,229.079C424.346,229.079 423.779,229.214 423.414,229.485C423.049,229.756 422.779,230.23 422.601,230.907L420.992,230.688C421.138,230.011 421.378,229.464 421.711,229.048C422.044,228.621 422.529,228.293 423.164,228.063C423.799,227.834 424.529,227.72 425.351,227.72C426.185,227.72 426.857,227.819 427.367,228.017C427.888,228.204 428.268,228.449 428.508,228.751C428.758,229.043 428.93,229.412 429.023,229.86C429.075,230.142 429.101,230.647 429.101,231.376L429.101,233.563C429.101,235.084 429.138,236.048 429.211,236.454C429.284,236.85 429.419,237.235 429.617,237.61L427.914,237.61C427.737,237.267 427.628,236.871 427.586,236.423ZM427.445,232.751C426.851,233.001 425.961,233.209 424.773,233.376C424.096,233.47 423.617,233.579 423.336,233.704C423.055,233.829 422.836,234.006 422.68,234.235C422.534,234.464 422.461,234.725 422.461,235.017C422.461,235.454 422.628,235.819 422.961,236.11C423.294,236.402 423.779,236.548 424.414,236.548C425.039,236.548 425.596,236.412 426.086,236.142C426.586,235.86 426.95,235.48 427.18,235.001C427.357,234.626 427.445,234.079 427.445,233.36L427.445,232.751ZM433.149,237.61L431.633,237.61L431.633,224.251L433.274,224.251L433.274,229.017C433.972,228.152 434.857,227.72 435.93,227.72C436.524,227.72 437.087,227.839 437.618,228.079C438.149,228.319 438.587,228.657 438.93,229.095C439.274,229.522 439.54,230.043 439.727,230.657C439.925,231.272 440.024,231.928 440.024,232.626C440.024,234.282 439.613,235.563 438.79,236.47C437.977,237.376 436.993,237.829 435.837,237.829C434.701,237.829 433.805,237.35 433.149,236.392L433.149,237.61ZM433.133,232.704C433.133,233.86 433.295,234.699 433.618,235.22C434.128,236.063 434.826,236.485 435.712,236.485C436.43,236.485 437.05,236.173 437.571,235.548C438.092,234.923 438.352,233.996 438.352,232.767C438.352,231.506 438.102,230.574 437.602,229.97C437.102,229.365 436.493,229.063 435.774,229.063C435.066,229.063 434.446,229.376 433.915,230.001C433.394,230.626 433.133,231.527 433.133,232.704ZM448.337,234.063L449.947,234.282C449.77,235.386 449.316,236.256 448.587,236.892C447.869,237.517 446.978,237.829 445.915,237.829C444.592,237.829 443.53,237.397 442.728,236.532C441.926,235.668 441.525,234.428 441.525,232.813C441.525,231.761 441.697,230.845 442.04,230.063C442.384,229.282 442.91,228.699 443.619,228.313C444.327,227.918 445.098,227.72 445.931,227.72C446.983,227.72 447.842,227.985 448.509,228.517C449.176,229.048 449.603,229.803 449.79,230.782L448.197,231.017C448.04,230.371 447.77,229.886 447.384,229.563C446.999,229.23 446.535,229.063 445.994,229.063C445.171,229.063 444.499,229.36 443.978,229.954C443.457,230.548 443.197,231.485 443.197,232.767C443.197,234.069 443.447,235.017 443.947,235.61C444.447,236.194 445.098,236.485 445.9,236.485C446.546,236.485 447.082,236.287 447.509,235.892C447.947,235.496 448.223,234.886 448.337,234.063Z" style="fill-rule:nonzero;"/>
    </g>
    <g transform="matrix(1,0,0,1,-394.122,-24.0761)">
        <path d="M624.972,400.193C624.972,377.849 643.085,359.736 665.429,359.736C676.159,359.736 686.449,363.999 694.036,371.586C701.623,379.173 705.886,389.463 705.886,400.193C705.886,422.537 687.773,440.65 665.429,440.65C643.085,440.65 624.972,422.537 624.972,400.193Z" style="fill:rgb(207,226,243);"/>
    </g>
    <g transform="matrix(1,0,0,1,-394.122,-24.0761)">
        <path d="M624.972,400.193C624.972,377.849 643.085,359.736 665.429,359.736C676.159,359.736 686.449,363.999 694.036,371.586C701.623,379.173 705.886,389.463 705.886,400.193C705.886,422.537 687.773,440.65 665.429,440.65C643.085,440.65 624.972,422.537 624.972,400.193Z" style="fill:none;stroke:black;stroke-width:1px;"/>
    </g>
    <g transform="matrix(1,0,0,1,-394.122,-24.0761)">
        <path d="M669.632,405.535L669.632,407.113L660.804,407.113C660.793,406.717 660.856,406.337 660.991,405.972C661.22,405.368 661.58,404.774 662.069,404.191C662.569,403.608 663.288,402.936 664.226,402.175C665.674,400.988 666.653,400.045 667.163,399.347C667.674,398.649 667.929,397.993 667.929,397.379C667.929,396.722 667.694,396.175 667.226,395.738C666.767,395.29 666.163,395.066 665.413,395.066C664.621,395.066 663.986,395.306 663.507,395.785C663.038,396.254 662.804,396.905 662.804,397.738L661.116,397.566C661.231,396.306 661.663,395.347 662.413,394.691C663.174,394.035 664.184,393.707 665.444,393.707C666.726,393.707 667.741,394.061 668.491,394.769C669.241,395.478 669.616,396.358 669.616,397.41C669.616,397.941 669.507,398.467 669.288,398.988C669.069,399.509 668.705,400.056 668.194,400.629C667.694,401.191 666.851,401.972 665.663,402.972C664.684,403.795 664.054,404.358 663.773,404.66C663.491,404.951 663.262,405.243 663.085,405.535L669.632,405.535Z" style="fill-rule:nonzero;"/>
    </g>
    <g transform="matrix(1,0,0,1,-394.122,-24.0761)">
        <path d="M463.686,259.298L636.82,371.581" style="fill:none;"/>
    </g>
    <g transform="matrix(1,0,0,1,-394.122,-24.0761)">
        <path d="M463.686,259.298L631.786,368.316" style="fill:none;stroke:black;stroke-width:1px;"/>
    </g>
    <g transform="matrix(1,0,0,1,-394.122,-24.0761)">
        <path d="M630.887,369.702L635.593,370.785L632.684,366.93L630.887,369.702Z" style="stroke:black;stroke-width:1px;stroke-linejoin:miter;"/>
    </g>
    <g transform="matrix(1,0,0,1,-394.122,-24.0761)">
        <path d="M435.079,271.147L436.402,359.745" style="fill:none;"/>
    </g>
    <g transform="matrix(1,0,0,1,-394.122,-24.0761)">
        <path d="M435.079,271.147L436.312,353.746" style="fill:none;stroke:black;stroke-width:1px;"/>
    </g>
    <g transform="matrix(1,0,0,1,-394.122,-24.0761)">
        <path d="M434.66,353.771L436.38,358.284L437.964,353.721L434.66,353.771Z" style="stroke:black;stroke-width:1px;stroke-linejoin:miter;"/>
    </g>
    <g transform="matrix(1,0,0,1,-394.122,-24.0761)">
        <rect x="435.079" y="273.071" width="40.441" height="42.016" style="fill-opacity:0;"/>
    </g>
    <g transform="matrix(1,0,0,1,-394.122,-24.0761)">
        <path d="M451.626,296.444L453.235,296.663C453.058,297.767 452.605,298.637 451.876,299.272C451.157,299.897 450.266,300.21 449.204,300.21C447.881,300.21 446.818,299.777 446.016,298.913C445.214,298.048 444.813,296.809 444.813,295.194C444.813,294.142 444.985,293.225 445.329,292.444C445.672,291.663 446.199,291.079 446.907,290.694C447.615,290.298 448.386,290.1 449.219,290.1C450.271,290.1 451.131,290.366 451.797,290.897C452.464,291.428 452.891,292.184 453.079,293.163L451.485,293.397C451.329,292.751 451.058,292.267 450.672,291.944C450.287,291.611 449.824,291.444 449.282,291.444C448.459,291.444 447.787,291.741 447.266,292.335C446.745,292.928 446.485,293.866 446.485,295.147C446.485,296.449 446.735,297.397 447.235,297.991C447.735,298.574 448.386,298.866 449.188,298.866C449.834,298.866 450.37,298.668 450.797,298.272C451.235,297.876 451.511,297.267 451.626,296.444Z" style="fill-rule:nonzero;"/>
    </g>
    <g transform="matrix(1,0,0,1,-394.122,-24.0761)">
        <rect x="522.106" y="273.07" width="40.441" height="42.016" style="fill-opacity:0;"/>
    </g>
    <g transform="matrix(1,0,0,1,-394.122,-24.0761)">
        <path d="M538.606,299.99L538.606,298.771C538.002,299.729 537.101,300.208 535.903,300.208C535.132,300.208 534.424,299.995 533.778,299.568C533.132,299.141 532.632,298.547 532.278,297.786C531.924,297.026 531.747,296.151 531.747,295.161C531.747,294.193 531.908,293.318 532.231,292.536C532.554,291.745 533.033,291.141 533.669,290.724C534.315,290.307 535.039,290.099 535.841,290.099C536.424,290.099 536.94,290.224 537.388,290.474C537.846,290.714 538.216,291.031 538.497,291.427L538.497,286.63L540.138,286.63L540.138,299.99L538.606,299.99ZM533.434,295.161C533.434,296.401 533.695,297.328 534.216,297.943C534.737,298.557 535.351,298.865 536.059,298.865C536.778,298.865 537.388,298.573 537.888,297.99C538.388,297.396 538.638,296.5 538.638,295.302C538.638,293.979 538.382,293.01 537.872,292.396C537.362,291.771 536.731,291.458 535.981,291.458C535.263,291.458 534.658,291.755 534.169,292.349C533.679,292.943 533.434,293.88 533.434,295.161Z" style="fill-rule:nonzero;"/>
    </g>
    <g transform="matrix(1,0,0,1,-394.122,-24.0761)">
        <path d="M624.972,65.033C624.972,42.689 643.085,24.576 665.429,24.576C676.159,24.576 686.449,28.839 694.036,36.426C701.623,44.013 705.886,54.303 705.886,65.033C705.886,87.376 687.773,105.49 665.429,105.49C643.085,105.49 624.972,87.376 624.972,65.033L624.972,65.033Z" style="fill:rgb(207,226,243);"/>
    </g>
    <g transform="matrix(1,0,0,1,-394.122,-24.0761)">
        <path d="M624.972,65.033C624.972,42.689 643.085,24.576 665.429,24.576C676.159,24.576 686.449,28.839 694.036,36.426C701.623,44.013 705.886,54.303 705.886,65.033C705.886,87.376 687.773,105.49 665.429,105.49C643.085,105.49 624.972,87.376 624.972,65.033L624.972,65.033Z" style="fill:none;stroke:black;stroke-width:1px;"/>
    </g>
    <g transform="matrix(1,0,0,1,-394.122,-24.0761)">
        <path d="M649.551,60.953L649.551,51.281L651.02,51.281L651.02,52.656C651.728,51.593 652.754,51.062 654.098,51.062C654.682,51.062 655.218,51.166 655.708,51.375C656.197,51.583 656.562,51.859 656.801,52.203C657.051,52.536 657.223,52.937 657.317,53.406C657.379,53.708 657.411,54.239 657.411,55L657.411,60.953L655.77,60.953L655.77,55.062C655.77,54.396 655.702,53.901 655.567,53.578C655.442,53.244 655.218,52.979 654.895,52.781C654.572,52.583 654.192,52.484 653.754,52.484C653.057,52.484 652.452,52.708 651.942,53.156C651.442,53.593 651.192,54.432 651.192,55.672L651.192,60.953L649.551,60.953ZM666.552,57.843L668.24,58.047C667.969,59.036 667.474,59.807 666.755,60.359C666.036,60.901 665.115,61.172 663.99,61.172C662.573,61.172 661.448,60.739 660.615,59.875C659.792,59 659.38,57.776 659.38,56.203C659.38,54.567 659.797,53.302 660.63,52.406C661.474,51.51 662.562,51.062 663.896,51.062C665.187,51.062 666.24,51.505 667.052,52.39C667.875,53.265 668.286,54.5 668.286,56.093L668.286,56.531L661.068,56.531C661.13,57.593 661.432,58.411 661.974,58.984C662.516,59.547 663.187,59.828 663.99,59.828C664.594,59.828 665.109,59.672 665.536,59.359C665.964,59.036 666.302,58.531 666.552,57.843ZM661.161,55.187L666.568,55.187C666.495,54.375 666.286,53.765 665.943,53.359C665.422,52.724 664.745,52.406 663.911,52.406C663.161,52.406 662.526,52.661 662.005,53.172C661.495,53.672 661.214,54.343 661.161,55.187ZM672.084,60.953L669.115,51.281L670.818,51.281L672.35,56.859L672.928,58.937C672.959,58.833 673.126,58.166 673.428,56.937L674.975,51.281L676.662,51.281L678.1,56.89L678.584,58.734L679.146,56.875L680.803,51.281L682.396,51.281L679.365,60.953L677.662,60.953L676.131,55.156L675.756,53.515L673.803,60.953L672.084,60.953Z" style="fill-rule:nonzero;"/>
    </g>
    <g transform="matrix(1,0,0,1,-394.122,-24.0761)">
        <path d="M650.574,82.953L650.574,73.281L652.043,73.281L652.043,74.75C652.418,74.062 652.762,73.609 653.074,73.39C653.397,73.172 653.751,73.062 654.137,73.062C654.689,73.062 655.251,73.239 655.824,73.593L655.262,75.109C654.855,74.869 654.454,74.75 654.059,74.75C653.694,74.75 653.371,74.859 653.09,75.078C652.809,75.297 652.605,75.593 652.48,75.968C652.293,76.552 652.199,77.192 652.199,77.89L652.199,82.953L650.574,82.953ZM656.193,78.109C656.193,76.317 656.688,74.994 657.677,74.14C658.511,73.422 659.526,73.062 660.724,73.062C662.058,73.062 663.146,73.5 663.99,74.375C664.834,75.239 665.256,76.442 665.256,77.984C665.256,79.224 665.068,80.203 664.693,80.922C664.318,81.63 663.771,82.182 663.052,82.578C662.344,82.974 661.568,83.172 660.724,83.172C659.37,83.172 658.276,82.739 657.443,81.875C656.61,81 656.193,79.744 656.193,78.109ZM657.881,78.109C657.881,79.349 658.146,80.281 658.677,80.906C659.219,81.521 659.901,81.828 660.724,81.828C661.537,81.828 662.214,81.521 662.756,80.906C663.297,80.281 663.568,79.333 663.568,78.062C663.568,76.864 663.297,75.958 662.756,75.343C662.214,74.729 661.537,74.422 660.724,74.422C659.901,74.422 659.219,74.729 658.677,75.343C658.146,75.948 657.881,76.869 657.881,78.109ZM666.569,78.109C666.569,76.317 667.064,74.994 668.053,74.14C668.887,73.422 669.902,73.062 671.1,73.062C672.433,73.062 673.522,73.5 674.366,74.375C675.209,75.239 675.631,76.442 675.631,77.984C675.631,79.224 675.444,80.203 675.069,80.922C674.694,81.63 674.147,82.182 673.428,82.578C672.72,82.974 671.944,83.172 671.1,83.172C669.746,83.172 668.652,82.739 667.819,81.875C666.986,81 666.569,79.744 666.569,78.109ZM668.256,78.109C668.256,79.349 668.522,80.281 669.053,80.906C669.595,81.521 670.277,81.828 671.1,81.828C671.913,81.828 672.59,81.521 673.131,80.906C673.673,80.281 673.944,79.333 673.944,78.062C673.944,76.864 673.673,75.958 673.131,75.343C672.59,74.729 671.913,74.422 671.1,74.422C670.277,74.422 669.595,74.729 669.053,75.343C668.522,75.948 668.256,76.869 668.256,78.109ZM681.132,81.484L681.366,82.937C680.908,83.031 680.497,83.078 680.132,83.078C679.538,83.078 679.075,82.984 678.741,82.797C678.418,82.609 678.189,82.364 678.054,82.062C677.918,81.75 677.851,81.104 677.851,80.125L677.851,74.547L676.648,74.547L676.648,73.281L677.851,73.281L677.851,70.89L679.476,69.906L679.476,73.281L681.132,73.281L681.132,74.547L679.476,74.547L679.476,80.218C679.476,80.677 679.502,80.974 679.554,81.109C679.616,81.244 679.71,81.354 679.835,81.437C679.971,81.51 680.163,81.547 680.413,81.547C680.59,81.547 680.83,81.526 681.132,81.484Z" style="fill-rule:nonzero;"/>
    </g>
    <g transform="matrix(1,0,0,1,-394.122,-24.0761)">
        <rect x="562.551" y="127.818" width="40.441" height="42.016" style="fill-opacity:0;"/>
    </g>
    <g transform="matrix(1,0,0,1,-394.122,-24.0761)">
        <path d="M579.098,153.55C578.484,154.06 577.895,154.425 577.332,154.644C576.78,154.852 576.181,154.956 575.536,154.956C574.473,154.956 573.655,154.696 573.082,154.175C572.51,153.654 572.223,152.993 572.223,152.191C572.223,151.712 572.332,151.279 572.551,150.894C572.77,150.498 573.051,150.185 573.395,149.956C573.749,149.717 574.145,149.534 574.582,149.409C574.895,149.326 575.379,149.243 576.036,149.159C577.359,149.003 578.332,148.816 578.957,148.597C578.968,148.368 578.973,148.227 578.973,148.175C578.973,147.508 578.817,147.034 578.504,146.753C578.088,146.389 577.463,146.206 576.629,146.206C575.859,146.206 575.291,146.342 574.926,146.613C574.562,146.883 574.291,147.357 574.114,148.034L572.504,147.816C572.65,147.139 572.89,146.592 573.223,146.175C573.556,145.748 574.041,145.42 574.676,145.191C575.312,144.962 576.041,144.847 576.864,144.847C577.697,144.847 578.369,144.946 578.879,145.144C579.4,145.331 579.78,145.576 580.02,145.878C580.27,146.17 580.442,146.54 580.536,146.988C580.588,147.269 580.614,147.774 580.614,148.503L580.614,150.691C580.614,152.212 580.65,153.175 580.723,153.581C580.796,153.977 580.931,154.363 581.129,154.738L579.426,154.738C579.249,154.394 579.14,153.998 579.098,153.55ZM578.957,149.878C578.364,150.128 577.473,150.337 576.286,150.503C575.609,150.597 575.129,150.706 574.848,150.831C574.567,150.956 574.348,151.133 574.192,151.363C574.046,151.592 573.973,151.852 573.973,152.144C573.973,152.581 574.14,152.946 574.473,153.238C574.806,153.529 575.291,153.675 575.926,153.675C576.551,153.675 577.109,153.54 577.598,153.269C578.098,152.988 578.463,152.607 578.692,152.128C578.869,151.753 578.957,151.206 578.957,150.488L578.957,149.878Z" style="fill-rule:nonzero;"/>
    </g>
    <g transform="matrix(1,0,0,1,-394.122,-24.0761)">
        <path d="M636.822,93.64L463.688,202.081" style="fill:none;"/>
    </g>
    <g transform="matrix(1,0,0,1,-394.122,-24.0761)">
        <path d="M636.822,93.64L468.773,198.896" style="fill:none;stroke:black;stroke-width:1px;"/>
    </g>
    <g transform="matrix(1,0,0,1,-394.122,-24.0761)">
        <path d="M467.896,197.496L464.927,201.305L469.65,200.296L467.896,197.496Z" style="stroke:black;stroke-width:1px;stroke-linejoin:miter;"/>
    </g>
    <g transform="matrix(1,0,0,1,-394.122,-24.0761)">
        <path d="M624.972,230.692C624.972,208.348 643.085,190.235 665.429,190.235C676.159,190.235 686.449,194.497 694.036,202.084C701.623,209.671 705.886,219.962 705.886,230.692C705.886,253.035 687.773,271.148 665.429,271.148C643.085,271.148 624.972,253.035 624.972,230.692L624.972,230.692Z" style="fill:rgb(207,226,243);"/>
    </g>
    <g transform="matrix(1,0,0,1,-394.122,-24.0761)">
        <path d="M624.972,230.692C624.972,208.348 643.085,190.235 665.429,190.235C676.159,190.235 686.449,194.497 694.036,202.084C701.623,209.671 705.886,219.962 705.886,230.692C705.886,253.035 687.773,271.148 665.429,271.148C643.085,271.148 624.972,253.035 624.972,230.692L624.972,230.692Z" style="fill:none;stroke:black;stroke-width:1px;"/>
    </g>
    <g transform="matrix(1,0,0,1,-394.122,-24.0761)">
        <path d="M661.023,234.08L662.663,233.862C662.851,234.799 663.168,235.471 663.616,235.877C664.075,236.283 664.627,236.487 665.273,236.487C666.043,236.487 666.694,236.221 667.226,235.69C667.757,235.158 668.023,234.497 668.023,233.705C668.023,232.955 667.778,232.336 667.288,231.846C666.799,231.356 666.174,231.112 665.413,231.112C665.101,231.112 664.715,231.169 664.257,231.283L664.444,229.846C664.549,229.856 664.637,229.862 664.71,229.862C665.408,229.862 666.033,229.679 666.585,229.315C667.148,228.95 667.429,228.393 667.429,227.643C667.429,227.039 667.226,226.539 666.819,226.143C666.413,225.747 665.887,225.549 665.241,225.549C664.606,225.549 664.075,225.752 663.648,226.158C663.22,226.554 662.95,227.153 662.835,227.955L661.194,227.658C661.392,226.565 661.845,225.716 662.554,225.112C663.262,224.507 664.148,224.205 665.21,224.205C665.939,224.205 666.606,224.362 667.21,224.674C667.825,224.987 668.293,225.414 668.616,225.955C668.95,226.497 669.116,227.07 669.116,227.674C669.116,228.247 668.96,228.773 668.648,229.252C668.335,229.721 667.877,230.096 667.273,230.377C668.064,230.565 668.679,230.945 669.116,231.518C669.554,232.091 669.773,232.81 669.773,233.674C669.773,234.83 669.345,235.815 668.491,236.627C667.648,237.44 666.575,237.846 665.273,237.846C664.095,237.846 663.121,237.497 662.351,236.799C661.58,236.101 661.137,235.195 661.023,234.08Z" style="fill-rule:nonzero;"/>
    </g>
    <g transform="matrix(1,0,0,1,-394.122,-24.0761)">
        <path d="M665.429,105.49L665.429,190.245" style="fill:none;"/>
    </g>
    <g transform="matrix(1,0,0,1,-394.122,-24.0761)">
        <path d="M665.429,105.49L665.429,184.245" style="fill:none;stroke:black;stroke-width:1px;"/>
    </g>
    <g transform="matrix(1,0,0,1,-394.122,-24.0761)">
        <path d="M663.777,184.245L665.429,188.784L667.081,184.245L663.777,184.245Z" style="stroke:black;stroke-width:1px;stroke-linejoin:miter;"/>
    </g>
    <g transform="matrix(1,0,0,1,-394.122,-24.0761)">
        <rect x="665.432" y="126.854" width="40.441" height="42.016" style="fill-opacity:0;"/>
    </g>
    <g transform="matrix(1,0,0,1,-394.122,-24.0761)">
        <path d="M677.166,153.774L675.651,153.774L675.651,140.415L677.291,140.415L677.291,145.181C677.989,144.316 678.874,143.884 679.947,143.884C680.541,143.884 681.104,144.003 681.635,144.243C682.166,144.483 682.604,144.821 682.947,145.259C683.291,145.686 683.557,146.207 683.744,146.821C683.942,147.436 684.041,148.092 684.041,148.79C684.041,150.446 683.63,151.727 682.807,152.634C681.994,153.54 681.01,153.993 679.854,153.993C678.718,153.993 677.822,153.514 677.166,152.556L677.166,153.774ZM677.151,148.868C677.151,150.024 677.312,150.863 677.635,151.384C678.145,152.227 678.843,152.649 679.729,152.649C680.447,152.649 681.067,152.337 681.588,151.712C682.109,151.087 682.369,150.16 682.369,148.931C682.369,147.67 682.119,146.738 681.619,146.134C681.119,145.53 680.51,145.227 679.791,145.227C679.083,145.227 678.463,145.54 677.932,146.165C677.411,146.79 677.151,147.691 677.151,148.868Z" style="fill-rule:nonzero;"/>
    </g>
</svg>
